<?xml version="1.0" encoding="UTF-8"?>
<svg width="38px" height="33px" viewBox="0 0 38 33" version="1.1" xmlns="http://www.w3.org/2000/svg" xmlns:xlink="http://www.w3.org/1999/xlink">
    <!-- Generator: Sketch 54 (76480) - https://sketchapp.com -->
    <title>Group 5 Copy 49</title>
    <desc>Created with Sketch.</desc>
    <g id="Page-1" stroke="none" stroke-width="1" fill="none" fill-rule="evenodd">
        <g id="Artboard" transform="translate(-945.000000, -3396.000000)">
            <g id="Group-5-Copy-49" transform="translate(945.000000, 3396.000000)">
                <path d="M4,-3.37507799e-13 L38,-3.37507799e-13 L38,25 C38,29.418278 34.418278,33 30,33 L0,33 L0,4 C-2.705415e-16,1.790861 1.790861,-3.37101987e-13 4,-3.37507799e-13 Z" id="Rectangle-Copy-9" fill="#FFE300"></path>
                <path d="M12.448,15.164 L12.448,9.572 L14.32,9.572 L14.32,4.46 L15.352,4.46 L15.352,6.368 L18.424,6.368 L18.424,7.328 L15.352,7.328 L15.352,9.572 L17.728,9.572 L17.728,15.176 L16.708,15.176 L16.708,14.516 L13.456,14.516 L13.456,15.164 L12.448,15.164 Z M13.456,10.556 L13.456,13.532 L16.708,13.532 L16.708,10.556 L13.456,10.556 Z M11.992,7.952 C11.764,9.044 11.236,11.24 10.852,12.752 C11.524,12.644 12.076,12.536 12.268,12.5 L12.34,13.436 C11.788,13.532 8.092,14.192 7.54,14.312 L7.432,13.328 L9.892,12.92 C10.288,11.396 10.828,8.912 11.068,7.76 L11.992,7.952 Z M12.52,7.292 L7.636,7.292 L7.636,6.332 L9.76,6.332 C9.532,5.744 9.232,5.024 9.04,4.58 L10.024,4.316 C10.192,4.76 10.576,5.684 10.828,6.332 L12.52,6.332 L12.52,7.292 Z M8.896,12.152 C8.716,11.12 8.248,9.032 7.984,8.024 L8.884,7.784 C9.16,8.888 9.616,10.88 9.82,11.984 L8.896,12.152 Z M19.984,15.236 L19.984,7.256 L21.328,7.256 L21.328,5.924 L19.564,5.924 L19.564,5.024 L25.108,5.024 L25.108,5.924 L23.476,5.924 L23.476,7.256 L24.796,7.256 L24.796,14.636 L20.824,14.636 L20.824,15.236 L19.984,15.236 Z M25.648,15.164 L25.648,10.82 L29.884,10.82 L29.884,15.164 L28.972,15.164 L28.972,14.612 L26.548,14.612 L26.548,15.164 L25.648,15.164 Z M30.28,7.172 L28.432,7.172 L28.432,8.732 L30.52,8.732 L30.52,9.692 L25.108,9.692 L25.108,8.732 L27.508,8.732 L27.508,7.172 L26.248,7.172 C26.116,7.568 25.972,7.952 25.816,8.3 L24.976,7.952 C25.396,7.088 25.792,5.864 25.972,4.808 L26.824,4.964 C26.752,5.372 26.656,5.792 26.548,6.188 L27.508,6.188 L27.508,4.412 L28.432,4.412 L28.432,6.188 L30.28,6.188 L30.28,7.172 Z M23.524,10.904 C22.876,10.904 22.684,10.676 22.684,10.016 L22.684,8.168 L22.084,8.168 L22.084,8.732 C22.084,9.932 21.88,10.424 21.28,11.276 L20.824,11.048 L20.824,11.792 L23.944,11.792 L23.944,10.904 L23.524,10.904 Z M26.548,11.78 L26.548,13.676 L28.972,13.676 L28.972,11.78 L26.548,11.78 Z M20.824,13.76 L23.944,13.76 L23.944,12.596 L20.824,12.596 L20.824,13.76 Z M20.824,10.676 C21.28,10.04 21.4,9.572 21.4,8.504 L21.4,8.168 L20.824,8.168 L20.824,10.676 Z M23.38,9.728 C23.38,10.1 23.5,10.208 23.86,10.208 L23.944,10.208 L23.944,8.168 L23.38,8.168 L23.38,9.728 Z M22.036,5.924 L22.036,7.256 L22.756,7.256 L22.756,5.924 L22.036,5.924 Z M18.52,27.36 L12.736,27.36 L12.736,28.188 L11.752,28.188 L11.752,21.564 C11.608,21.78 11.44,21.996 11.284,22.212 L10.564,21.48 C10.828,21.144 11.068,20.796 11.296,20.424 L10.132,20.424 L10.132,22.512 C10.528,22.392 10.9,22.272 11.212,22.164 L11.332,23.148 L10.132,23.508 L10.132,26.748 C10.132,27.732 9.808,27.984 8.728,27.984 L7.804,27.984 L7.612,27.024 L8.464,27.024 C9.004,27.024 9.124,26.928 9.124,26.436 L9.124,23.82 C8.524,24 7.96,24.18 7.588,24.3 L7.372,23.304 C7.828,23.184 8.464,23.004 9.124,22.812 L9.124,20.424 L7.696,20.424 L7.696,19.428 L9.124,19.428 L9.124,17.46 L10.132,17.46 L10.132,19.428 L11.38,19.428 L11.38,20.28 C11.896,19.392 12.268,18.42 12.52,17.328 L13.528,17.496 C13.36,18.096 13.168,18.672 12.952,19.236 L15.496,19.236 C15.208,18.792 14.74,18.108 14.488,17.748 L15.256,17.256 C15.556,17.664 16.192,18.54 16.468,18.948 L16.012,19.236 L18.34,19.236 L18.34,20.136 L15.904,20.136 L15.904,21.612 L18.124,21.612 L18.124,22.488 L15.904,22.488 L15.904,23.952 L18.124,23.952 L18.124,24.84 L15.904,24.84 L15.904,26.448 L18.52,26.448 L18.52,27.36 Z M12.736,24.84 L12.736,26.448 L14.92,26.448 L14.92,24.84 L12.736,24.84 Z M12.736,20.136 L12.736,21.612 L14.92,21.612 L14.92,20.136 L12.736,20.136 Z M12.736,22.488 L12.736,23.952 L14.92,23.952 L14.92,22.488 L12.736,22.488 Z M22.528,19.944 L22.528,19.2 L19.684,19.2 L19.684,18.312 L22.528,18.312 L22.528,17.4 L23.524,17.4 L23.524,18.312 L26.512,18.312 L26.512,17.4 L27.496,17.4 L27.496,18.312 L30.292,18.312 L30.292,19.2 L27.496,19.2 L27.496,19.968 L26.512,19.968 L26.512,19.2 L23.524,19.2 L23.524,19.5 L24.52,19.716 C24.4,19.992 24.268,20.256 24.148,20.508 L30.364,20.508 L30.364,21.396 L23.656,21.396 C23.308,21.984 22.924,22.524 22.48,23.04 L22.48,28.188 L21.496,28.188 L21.496,24.06 C21.016,24.504 20.476,24.936 19.864,25.356 L19.42,24.372 C20.692,23.532 21.712,22.524 22.48,21.396 L19.816,21.396 L19.816,20.508 L23.02,20.508 C23.128,20.328 23.212,20.136 23.308,19.944 L22.528,19.944 Z M23.752,22.284 L29.812,22.284 L29.812,23.088 L27.328,24.492 L27.328,24.564 L30.496,24.564 L30.496,25.428 L27.328,25.428 L27.328,26.748 C27.328,27.84 27.052,28.128 25.78,28.128 L24.424,28.128 L24.256,27.24 L25.456,27.24 C26.164,27.24 26.344,27.072 26.344,26.532 L26.344,25.428 L23.104,25.428 L23.104,24.564 L26.344,24.564 L26.344,24.108 L28.084,23.148 L23.752,23.148 L23.752,22.284 Z" id="站酷推荐" fill="#000000" fill-rule="nonzero"></path>
            </g>
        </g>
    </g>
</svg>