<?xml version="1.0" encoding="UTF-8" standalone="no"?>
<svg width="8px" height="12px" viewBox="0 0 8 12" version="1.1" xmlns="http://www.w3.org/2000/svg" xmlns:xlink="http://www.w3.org/1999/xlink">
    <!-- Generator: Sketch 39.1 (31720) - http://www.bohemiancoding.com/sketch -->
    <title>dingwei</title>
    <desc>Created with Sketch.</desc>
    <defs></defs>
    <g id="Page-1" stroke="none" stroke-width="1" fill="none" fill-rule="evenodd">
        <g id="Desktop-HD" transform="translate(-1184.000000, -130.000000)" fill="#BCBCBB">
            <g id="定位" transform="translate(1184.000000, 130.000000)">
                <g id="图层_1">
                    <path d="M3.9,0.5 C1.8,0.5 0.1,2.2 0.1,4.3 C0.1,6.4 3.9,11.5 3.9,11.5 C3.9,11.5 7.7,6.4 7.7,4.3 C7.7,2.2 6,0.5 3.9,0.5 L3.9,0.5 Z M3.9,5.7 C3,5.7 2.2,4.9 2.2,4 C2.2,3 3,2.3 3.9,2.3 C4.9,2.3 5.7,3 5.7,4 C5.7,4.9 4.9,5.7 3.9,5.7 L3.9,5.7 Z" id="XMLID_1851_"></path>
                </g>
            </g>
        </g>
    </g>
</svg>