<?xml version="1.0" encoding="UTF-8"?>
<svg width="917px" height="575px" viewBox="0 0 917 575" version="1.1" xmlns="http://www.w3.org/2000/svg" xmlns:xlink="http://www.w3.org/1999/xlink">
    <!-- Generator: Sketch 52.5 (67469) - http://www.bohemiancoding.com/sketch -->
    <title>分组 6</title>
    <desc>Created with Sketch.</desc>
    <defs>
        <polygon id="path-1" points="0 448 570 448 570 0 0 0"></polygon>
    </defs>
    <g id="Page-1" stroke="none" stroke-width="1" fill="none" fill-rule="evenodd">
        <g id="Artboard" transform="translate(-543.000000, -219.000000)">
            <g id="封面">
                <g id="分组-6" transform="translate(542.000000, 219.000000)">
                    <g id="分组" transform="translate(174.000000, 0.000000)">
                        <path d="M141.910288,188.47779 C141.910288,187.321643 142.331256,186.32336 143.178383,185.479499 C144.023203,184.639082 145.026607,184.217151 146.190325,184.217151 L153.007129,184.217151 C154.169117,184.217151 155.172521,184.639082 156.019648,185.479499 C156.863892,186.32336 157.287743,187.321643 157.287743,188.47779 L157.287743,238.977444 L171.713695,238.977444 L171.713695,166.542559 C165.689811,167.070116 159.558666,167.465066 153.324297,167.725687 C147.087622,167.989753 141.117368,168.120637 135.410651,168.120637 C134.9868,168.120637 134.642528,167.859442 134.380144,167.331311 C134.114876,166.806051 133.956869,166.226829 133.904969,165.595368 C133.850185,164.964481 133.877289,164.387555 133.983972,163.859998 C134.087773,163.334738 134.353041,163.019007 134.776316,162.912807 C141.751704,161.862286 148.648088,160.703268 155.464316,159.44092 C162.28112,158.178572 168.674649,156.863985 174.646634,155.495437 C180.616311,154.129759 186.060643,152.708972 190.975016,151.234798 C195.88939,149.76292 200.03564,148.236507 203.419534,146.657854 C206.060101,145.501707 208.334483,145.869102 210.236338,147.762911 C211.187842,148.710102 212.138769,149.7899 213.090273,150.997713 C214.0412,152.208396 214.885443,153.286472 215.626463,154.233089 C216.788451,155.811168 217.156942,157.179716 216.735974,158.336437 C216.312699,159.494881 215.467879,160.229672 214.199784,160.545402 C211.767394,161.176863 208.254326,161.862286 203.657698,162.597076 C199.060493,163.334738 193.749371,164.071825 187.725487,164.806616 L187.725487,194.159216 L214.674959,194.159216 C215.309295,194.159216 215.888847,194.423282 216.418806,194.948543 C216.946458,195.476099 217.211726,196.000786 217.211726,196.526621 L217.211726,198.894025 C217.211726,199.524912 216.946458,200.077153 216.418806,200.550175 C215.888847,201.023771 215.309295,201.260856 214.674959,201.260856 L187.725487,201.260856 L187.725487,238.977444 L218.638405,238.977444 C219.272741,238.977444 219.852293,239.241509 220.382252,239.766196 C220.909904,240.294327 221.174595,240.819587 221.174595,241.344848 L221.174595,243.711679 C221.174595,244.343139 220.909904,244.895381 220.382252,245.368976 C219.852293,245.841998 219.272741,246.079083 218.638405,246.079083 L157.287743,246.079083 L157.287743,248.919509 C157.287743,250.078527 156.863892,251.104364 156.019648,251.996446 C155.172521,252.891972 154.169117,253.338014 153.007129,253.338014 L146.190325,253.338014 C145.132714,253.338014 144.154684,252.891972 143.257963,251.996446 C142.35836,251.104364 141.910288,250.078527 141.910288,248.919509 L141.910288,188.47779 Z M106.241003,162.754942 L84.0473202,162.754942 C83.3063005,162.754942 82.6725413,162.518431 82.1448891,162.044835 C81.6149303,161.571239 81.3519692,160.967333 81.3519692,160.229672 L81.3519692,158.178572 C81.3519692,157.547111 81.6149303,156.99487 82.1448891,156.521274 C82.6725413,156.048252 83.3063005,155.811168 84.0473202,155.811168 L109.570114,155.811168 L110.521617,153.759494 C111.366437,151.971885 112.344468,150.919067 113.454556,150.603337 C114.564067,150.287606 115.856959,150.342142 117.338422,150.761202 L123.838058,152.497146 C126.902477,153.549963 127.905304,155.392107 126.85,158.020707 L104.497733,199.367047 L116.22891,199.367047 L116.546078,197.946834 C116.756563,195.949121 117.311318,194.632812 118.210345,194.001351 C119.107065,193.36989 120.350364,193.212599 121.935627,193.527755 L128.593847,194.790677 C130.600655,195.318234 131.81685,196.028341 132.240125,196.920997 C132.661094,197.815949 132.819678,198.841786 132.715877,199.998508 C131.551583,208.625987 129.624355,217.332685 126.92958,226.115732 C124.23423,234.90165 120.402841,243.395948 115.435991,251.60207 C119.451337,254.44307 123.889958,256.627925 128.752431,258.151468 C133.612021,259.677881 139.002146,260.861584 144.922807,261.702575 C148.093333,262.123931 151.922415,262.466642 156.41582,262.727838 C160.906341,262.991903 165.662131,263.176749 170.683764,263.280079 C175.701938,263.386279 180.829102,263.438518 186.060643,263.438518 C191.292184,263.438518 196.258458,263.386279 200.962347,263.280079 C205.663929,263.176749 209.892066,263.070549 213.645028,262.964349 C217.395107,262.861019 220.327469,262.754818 222.443267,262.649192 C224.766667,262.545288 225.50711,263.650345 224.66229,265.963214 C223.921847,267.962649 223.23561,269.644631 222.601275,271.013179 C221.967515,272.378857 221.226496,273.90527 220.382252,275.589549 C219.535125,277.061427 218.690305,278.035599 217.845485,278.508621 C216.998359,278.982216 215.678363,279.270966 213.882616,279.377166 C210.605406,279.586123 206.139105,279.771543 200.487172,279.929408 C194.831779,280.087273 188.676414,280.138938 182.018194,280.087273 C175.359973,280.032738 168.543169,279.823208 161.567781,279.455812 C154.592969,279.085546 148.25134,278.48164 142.544624,277.640649 C135.462552,276.588405 129.093819,274.824907 123.441886,272.354747 C117.786493,269.881142 112.686433,266.436236 108.143434,262.017731 C104.65574,266.332906 100.717668,270.381718 96.3332532,274.169336 C91.9459555,277.956953 87.0592624,281.480505 81.6691372,284.742288 C81.2458621,285.058019 80.7701102,285.082703 80.2424581,284.821508 C79.7124993,284.557442 79.2638508,284.214731 78.8947826,283.795671 C78.5234078,283.374314 78.2610234,282.873738 78.1024394,282.296238 C77.9438554,281.717016 77.9686522,281.270401 78.1820197,280.955245 C82.8311252,275.589549 86.9006784,270.512603 90.3883725,265.726129 C93.8760666,260.940229 96.9918092,256.179014 99.741367,251.444779 C94.7727869,243.766214 90.5469565,233.560083 87.0592624,220.829256 C86.8464715,220.197795 86.9802587,219.672535 87.455434,219.251178 C87.9311859,218.832117 88.458838,218.489406 89.040697,218.225341 C89.6202494,217.964146 90.2021084,217.857945 90.7845441,217.90961 C91.3640964,217.964146 91.7608447,218.200657 91.9736356,218.619717 C95.8822981,228.194387 100.162912,235.821287 104.814324,241.502713 C107.561575,235.611757 109.729274,229.799446 111.313961,224.064058 C112.899224,218.331541 114.219796,212.361939 115.277407,206.152956 L100.851455,206.152956 L100.375703,207.257438 C99.5285762,208.835517 98.7114362,209.836669 97.9185163,210.256304 C97.1255964,210.677661 95.8303979,210.783287 94.0346506,210.57146 L89.4374453,209.624843 C87.8516056,209.309112 86.8216747,208.652967 86.3459228,207.651815 C85.8701709,206.653532 85.8949676,205.418165 86.4255031,203.943417 L106.241003,162.754942 Z" id="Fill-1" fill="#FFFFFF"></path>
                        <path d="M307.137009,294.878947 C306.645144,293.801667 306.523327,292.898492 306.769259,292.164842 C307.012893,291.431764 307.822517,290.966145 309.197555,290.771422 L315.820494,289.891728 C318.076407,289.403201 319.720362,288.644351 320.750636,287.61747 C321.780909,286.590588 322.296333,284.513917 322.296333,281.383446 L322.296333,211.117383 L285.501846,211.117383 C284.814614,211.117383 284.22564,210.874551 283.736074,210.384306 C283.243634,209.895778 283,209.260635 283,208.477158 L283,206.130165 C283,205.348406 283.243634,204.713263 283.736074,204.223017 C284.22564,203.73449 284.814614,203.489367 285.501846,203.489367 L322.296333,203.489367 L322.296333,178.698744 C322.296333,175.471484 324.159214,173.907967 327.888998,174.004183 L333.040364,174.004183 C336.572483,174.297987 338.338256,175.863222 338.338256,178.698744 L338.338256,203.489367 L353.35048,203.489367 C354.13482,203.489367 354.771487,203.73449 355.263926,204.223017 C355.753493,204.713263 356,205.348406 356,206.130165 L356,208.477158 C356,209.260635 355.753493,209.895778 355.263926,210.384306 C354.771487,210.874551 354.13482,211.117383 353.35048,211.117383 L338.338256,211.117383 L338.338256,285.197168 C338.338256,290.088743 337.625741,293.973482 336.204159,296.859402 C334.780854,299.742459 332.106625,301.821421 328.183198,303.093425 C326.711625,303.581953 325.165928,303.973691 323.547256,304.267495 C321.928583,304.560726 320.185221,304.75545 318.32234,304.853957 C316.457735,305.048681 315.107405,305.048681 314.274797,304.853957 C313.440465,304.656943 312.582574,303.973691 311.699401,302.800194 C311.012169,301.626698 310.202546,300.256186 309.271105,298.692669 C308.337366,297.127434 307.62715,295.855429 307.137009,294.878947" id="Fill-3" fill="#FFFFFF"></path>
                        <path d="M288.241921,229.546418 C287.946907,229.057184 287.920978,228.568525 288.168168,228.076998 C288.412477,227.588338 288.781821,227.173092 289.275049,226.828392 C289.766547,226.48656 290.282823,226.241083 290.824451,226.093682 C291.364351,225.947429 291.783825,225.972665 292.07884,226.16767 C294.241896,227.735165 296.381904,229.49824 298.498864,231.456319 C300.61352,233.416693 302.55762,235.399434 304.328284,237.405692 C306.099524,239.414243 307.649503,241.324144 308.977645,243.134823 C310.305787,244.948369 311.26516,246.490629 311.85519,247.762176 C313.330839,250.898315 313.379816,254.031013 312.002697,257.164284 C311.608576,258.045821 310.944217,259.147599 310.010772,260.469618 C309.074446,261.791637 308.066672,262.845237 306.985144,263.628125 C305.015691,265.000616 303.417887,265.343022 302.188852,264.656489 C300.956935,263.972251 300.048844,262.503405 299.458238,260.249377 C298.473512,256.333218 297.14537,251.852692 295.473236,246.807799 C293.799374,241.764626 291.389704,236.010259 288.241921,229.546418" id="Fill-5" fill="#FFFFFF"></path>
                        <path d="M187.259844,362.225038 C190.626407,368.637431 194.273951,373.93475 198.201897,378.116995 C201.4748,373.376926 204.18632,368.079607 206.338769,362.225038 L187.259844,362.225038 Z M168.040428,340.758287 L194.835334,338.94579 L194.835334,329.04915 L168.040428,329.04915 L168.040428,340.758287 Z M168.040428,323.194582 L194.834755,323.194582 L194.834755,313.715593 L168.040428,313.715593 L168.040428,323.194582 Z M168.040428,307.72085 L194.834755,307.72085 L194.834755,298.52106 L168.040428,298.52106 L168.040428,307.72085 Z M167.339133,405.996139 C172.389267,402.463061 176.948552,399.096009 181.016988,395.889813 C185.085425,392.683616 188.75436,389.31599 192.029575,385.783486 C190.157528,382.71689 188.474535,379.256197 186.979441,375.398536 C185.482035,371.543172 184.219357,367.151815 183.191408,362.225038 L182.06922,362.225038 C181.507837,362.225038 180.968424,362.016501 180.455605,361.598276 C179.940474,361.179477 179.683776,360.69174 179.683776,360.13449 L179.683776,358.322567 C179.683776,357.764169 179.940474,357.276432 180.455605,356.858782 C180.968424,356.440557 181.507837,356.23087 182.06922,356.23087 L208.302164,356.23087 L208.723635,354.976771 C209.004038,354.048979 209.611094,353.328002 210.547118,352.816136 C211.481407,352.306569 212.463105,352.236482 213.493367,352.607024 L220.086581,354.837746 C221.115108,355.115796 221.816403,355.721303 222.191044,356.649095 C222.563372,357.579759 222.611937,358.509275 222.330956,359.437641 C220.178506,365.013585 217.888457,369.940361 215.45734,374.213949 C213.023909,378.489261 210.312967,382.346348 207.320467,385.783486 C210.218151,387.735009 213.328594,389.47742 216.649483,391.010718 C219.96806,392.544017 223.639886,394.056059 227.66207,395.541675 C228.503856,395.819725 228.946718,396.308037 228.994704,397.005461 C229.040956,397.701736 228.784258,398.514056 228.223453,399.444721 C227.473594,400.744778 226.561852,402.044836 225.487651,403.347192 C224.411715,404.647824 223.359484,405.808282 222.330956,406.832588 C221.208768,407.85402 220.202789,408.41127 219.314751,408.505486 C218.42498,408.596829 217.14091,408.17803 215.45734,407.250238 C212.743507,405.857113 209.916357,404.135959 206.970108,402.092518 C204.02386,400.047929 201.194397,397.493198 198.482877,394.426027 C194.460693,397.677607 190.04132,400.535666 185.225337,402.999054 C180.407619,405.460145 175.055113,407.759805 169.162616,409.899184 C168.787975,410.084168 168.412756,410.014656 168.040428,409.690072 C167.665787,409.363765 167.361103,408.969094 167.128687,408.505486 C166.893958,408.039004 166.77775,407.551267 166.77775,407.0417 C166.77775,406.529834 166.964492,406.181122 167.339133,405.996139 Z M141.246101,344.522308 C141.246101,343.964484 141.477938,343.476747 141.947396,343.058522 C142.41454,342.640298 142.975345,342.431185 143.630966,342.431185 L154.573019,341.734336 L154.573019,298.52106 L144.051281,298.52106 C143.396238,298.52106 142.835433,298.311948 142.368288,297.894298 C141.899409,297.476073 141.666993,296.987762 141.666993,296.430512 L141.666993,294.19979 C141.666993,293.550623 141.899409,293.038757 142.368288,292.666492 C142.835433,292.295949 143.396238,292.108667 144.051281,292.108667 L222.191044,292.108667 C222.843775,292.108667 223.42944,292.295949 223.944571,292.666492 C224.457389,293.038757 224.7164,293.550623 224.7164,294.19979 L224.7164,296.430512 C224.7164,296.987762 224.457389,297.476073 223.944571,297.894298 C223.42944,298.311948 222.843775,298.52106 222.191044,298.52106 L208.583145,298.52106 L208.583145,337.970316 L224.295507,336.854667 C224.948238,336.854667 225.509621,337.064354 225.9785,337.482578 C226.445644,337.900228 226.680373,338.38854 226.680373,338.94579 L226.680373,341.037487 C226.680373,341.594736 226.445644,342.082473 225.9785,342.501272 C225.509621,342.918922 224.996224,343.128035 224.435419,343.128035 L208.583145,344.243109 L208.583145,348.146154 C208.583145,349.169885 208.208504,350.076421 207.460957,350.864613 C206.711676,351.655104 205.823638,352.049774 204.795689,352.049774 L198.622789,352.049774 C197.687344,352.049774 196.821276,351.655104 196.027477,350.864613 C195.231944,350.076421 194.835334,349.169885 194.835334,348.146154 L194.835334,345.218583 L143.770878,348.703978 C143.115835,348.703978 142.554452,348.494866 142.087886,348.076642 C141.618429,347.658417 141.386013,347.170106 141.386013,346.612856 L141.246101,344.522308 Z M136.756772,358.600618 C136.756772,357.952025 137.012892,357.44016 137.528023,357.067319 C138.041419,356.697351 138.580254,356.51007 139.141637,356.51007 L164.112482,356.51007 L164.533375,354.558547 C164.719539,353.630755 165.304626,352.886223 166.286901,352.327825 C167.269177,351.770575 168.272844,351.585591 169.303106,351.770575 L175.615918,353.303873 C176.643867,353.583073 177.391414,354.164451 177.860293,355.046284 C178.327438,355.930415 178.421676,356.88291 178.141274,357.904343 C176.738106,362.55192 175.170743,366.755995 173.441498,370.519441 C171.709941,374.283462 169.815924,377.746453 167.760026,380.904392 C169.349358,381.928123 170.727666,382.834085 171.898418,383.622851 C173.066858,384.413342 173.978599,385.134319 174.63422,385.783486 C175.848334,386.807217 176.549629,387.852204 176.738106,388.919596 C176.924848,389.98986 176.784357,391.452497 176.317213,393.310953 C176.128736,393.962418 175.848334,394.72878 175.476006,395.611188 C175.100787,396.493021 174.63422,397.259383 174.072837,397.911422 C171.828462,400.883804 169.443596,400.790163 166.91824,397.632223 C165.887978,396.329293 164.835747,395.077492 163.761545,393.868203 C162.68561,392.661786 161.633378,391.49903 160.605429,390.383381 C156.769408,394.565626 152.655298,398.165919 148.260207,401.186557 C143.862804,404.205471 139.187889,406.832588 134.231416,409.062735 C133.856775,409.247719 133.460165,409.20176 133.039272,408.92371 C132.618379,408.644511 132.267443,408.27167 131.98704,407.808062 C131.706638,407.341581 131.541865,406.853843 131.495613,406.34485 C131.447627,405.832411 131.658073,405.438314 132.12753,405.15969 C136.147402,401.720253 139.912888,398.190047 143.419942,394.565626 C146.927573,390.940631 150.08369,386.946242 152.889449,382.57729 C151.017401,380.719408 148.983472,378.837398 146.787083,376.931834 C144.588381,375.027993 142.13356,372.958701 139.42204,370.728554 C139.141637,370.449929 139.023117,370.101217 139.071103,369.682992 C139.117355,369.264768 139.281549,368.870672 139.56253,368.497831 C139.842932,368.127864 140.169587,367.825685 140.544227,367.59187 C140.917134,367.360927 141.291774,367.291415 141.666993,367.383332 C144.097533,368.592047 146.669141,369.84672 149.382395,371.146204 C152.093915,372.449134 154.759183,373.749766 157.378778,375.049824 C159.342751,371.055435 161.026321,366.825508 162.428911,362.365213 L139.141637,362.365213 C138.580254,362.365213 138.041419,362.17908 137.528023,361.807388 C137.012892,361.436846 136.756772,360.924981 136.756772,360.27409 L136.756772,358.600618 Z M100.983786,312.739544 C100.983786,312.18172 101.264189,311.671578 101.825571,311.205671 C102.386376,310.742637 102.994011,310.509396 103.649054,310.509396 L116.555658,310.509396 L116.555658,289.042071 C116.555658,286.34774 118.144412,285 121.32539,285 L125.954631,285 C127.543963,285 128.736107,285.371691 129.53164,286.115074 C130.325439,286.859605 130.724362,287.83508 130.724362,289.042071 L130.724362,310.509396 L142.929093,310.509396 C143.582402,310.509396 144.167489,310.742637 144.68262,311.205671 C145.196016,311.671578 145.454449,312.18172 145.454449,312.739544 L145.454449,315.108717 C145.454449,315.760756 145.196016,316.318006 144.68262,316.782189 C144.167489,317.248096 143.582402,317.479039 142.929093,317.479039 L130.724362,317.479039 L130.724362,340.479663 L141.246101,336.854667 C141.993069,336.670258 142.554452,336.715642 142.929093,336.994841 C143.301999,337.273466 143.630966,337.691691 143.911369,338.24894 C144.472173,339.551871 144.283697,340.619262 143.349986,341.455711 C141.947396,342.478868 140.145304,343.733541 137.948915,345.218583 C135.750792,346.706497 133.341644,348.239795 130.724362,349.819052 L130.724362,390.522981 C130.724362,395.171133 130.209231,398.747297 129.181282,401.256069 C128.15102,403.765416 126.141373,405.669257 123.148872,406.972187 C121.932446,407.529437 120.459322,407.993046 118.730078,408.365886 C116.998521,408.735854 115.384906,409.015053 113.889812,409.20176 C112.392984,409.387319 111.387004,409.317232 110.873607,408.993223 C110.358476,408.666341 109.773389,407.993046 109.120081,406.972187 C108.370799,405.857113 107.59897,404.578312 106.805749,403.13808 C106.009638,401.696699 105.332625,400.371938 104.771242,399.165521 C104.396601,398.329072 104.302363,397.608095 104.49084,397.005461 C104.677004,396.39938 105.28406,396.005284 106.314322,395.819725 L111.224544,395.122876 C113.281021,394.752908 114.683611,394.056059 115.433471,393.032328 C116.181018,392.010895 116.555658,390.013414 116.555658,387.03816 L116.555658,358.600618 C114.683611,359.715691 112.954367,360.715868 111.365034,361.598276 C109.773389,362.482407 108.418786,363.249344 107.296598,363.898511 C105.985934,364.549402 104.933702,364.73496 104.139903,364.455761 C103.34437,364.176561 102.618792,363.388369 101.966062,362.086013 C101.685081,361.62183 101.240484,360.645781 100.63285,359.158442 C100.02348,357.672826 99.5806179,356.464685 99.3002155,355.534595 C98.9249967,354.048979 98.9012925,352.886223 99.2302595,352.049774 C99.5569138,351.212751 100.468655,350.655501 101.966062,350.376876 L116.555658,345.358182 L116.555658,317.479039 L103.649054,317.479039 C102.994011,317.479039 102.386376,317.248096 101.825571,316.782189 C101.264189,316.318006 100.983786,315.760756 100.983786,315.108717 L100.983786,312.739544 Z" id="Fill-7" fill="#FFFFFF"></path>
                        <path d="M220.759853,432.071366 C225.972902,428.254362 230.263067,424.717702 233.636728,421.462522 C237.008069,418.20564 240.107359,414.768293 242.935759,411.144806 C243.490301,410.373006 244.348798,409.991078 245.51473,410.000158 C246.677182,410.011508 247.804249,410.382653 248.896512,411.114161 C249.603032,411.523896 250.570001,412.282643 251.79452,413.39097 C253.016138,414.500433 253.900738,415.353953 254.444259,415.946423 C255.476196,416.89358 255.994774,417.911108 255.999995,418.9956 C256.001735,420.08293 255.550444,421.023277 254.639161,421.820047 C253.119389,423.146862 251.132085,424.58661 248.681888,426.133047 C246.228211,427.681754 243.557589,429.172009 240.667702,430.610054 C237.776656,432.044694 234.751614,433.333486 231.590837,434.474729 C228.427739,435.613134 225.380655,436.438279 222.443203,436.951866 C222.0592,437.081256 221.656054,436.949596 221.233767,436.559156 C220.813219,436.165879 220.494763,435.713581 220.280139,435.203966 C220.065515,434.692081 219.972704,434.154091 220.006928,433.592834 C220.038832,433.028171 220.29,432.522529 220.759853,432.071366" id="Fill-9" fill="#FFFFFF"></path>
                        <path d="M259.060873,349.917375 C258.615169,349.472554 258.698596,348.828824 259.311153,347.990772 C259.921996,347.153866 260.673407,346.847765 261.565386,347.070175 C264.346464,347.517863 267.100686,348.132358 269.829765,348.912515 C272.555416,349.694391 274.863933,350.532444 276.758175,351.424379 C278.203284,352.207402 279.011836,353.072969 279.17869,354.020507 C279.346114,354.970338 279.150119,356.003859 278.594132,357.118778 C278.260425,357.566466 277.953004,357.984919 277.675868,358.37471 C277.397017,358.767368 277.091881,359.128499 276.758175,359.463834 L318.328634,359.463834 C318.996047,359.463834 319.60689,359.743567 320.165162,360.30074 C320.720578,360.860779 321,361.417952 321,361.975699 L321,364.487563 C321,365.157661 320.720578,365.743495 320.165162,366.246211 C319.60689,366.748928 318.996047,367 318.328634,367 L225.670795,367 C225.00281,367 224.390253,366.748928 223.834838,366.246211 C223.276565,365.743495 223,365.157661 223,364.487563 L223,361.975699 C223,361.417952 223.276565,360.860779 223.834838,360.30074 C224.390253,359.743567 225.00281,359.463834 225.670795,359.463834 L266.239563,359.463834 C265.238443,357.901228 264.152754,356.30996 262.98421,354.690605 C261.815666,353.072969 260.505982,351.481701 259.060873,349.917375" id="Fill-11" fill="#FFFFFF"></path>
                        <mask id="mask-2" fill="white">
                            <use xlink:href="#path-1"></use>
                        </mask>
                        <g id="Clip-14"></g>
                        <path d="M248.946654,323.000331 L290.05392,323.000331 L290.05392,312.333025 L248.946654,312.333025 L248.946654,323.000331 Z M248.946654,340.500416 L290.05392,340.500416 L290.05392,329.833681 L248.946654,329.833681 L248.946654,340.500416 Z M305.574092,303.416413 C304.621955,302.474039 303.58655,302 302.469598,302 L294.583747,302 C293.577055,302 292.654206,302.33371 291.815775,303.000559 C290.976769,303.666838 290.444422,304.499686 290.221032,305.500245 L248.610707,305.500245 C248.275335,304.612634 247.714275,303.86193 246.932696,303.249843 C246.149394,302.640609 245.310388,302.33371 244.416253,302.33371 L236.530402,302.33371 C235.298596,302.33371 234.236775,302.778656 233.342639,303.666838 C232.446206,304.557301 232,305.612052 232,306.833373 L232,347.333767 C232,348.55794 232.446206,349.641213 233.342639,350.583587 C234.236775,351.528813 235.298596,352 236.530402,352 L244.416253,352 C245.533204,352 246.56861,351.528813 247.520172,350.583587 C248.469437,349.641213 248.946654,348.55794 248.946654,347.333767 L290.556979,347.333767 C291.337984,349.000034 292.680623,349.833453 294.583747,349.833453 L302.469598,349.833453 C303.58655,349.833453 304.621955,349.390788 305.574092,348.500325 C306.522783,347.612144 307,346.499778 307,345.16665 L307,306.666804 C307,305.445483 306.522783,304.362209 305.574092,303.416413 Z" id="Fill-13" fill="#FFFFFF" mask="url(#mask-2)"></path>
                        <path d="M250.030291,399.72255 L287.969709,399.72255 L287.969709,384.256107 L250.030291,384.256107 L250.030291,399.72255 Z M303.567006,375.345308 C302.610715,374.449395 301.569587,374 300.447085,374 L292.522047,374 C291.62116,374 290.722581,374.310146 289.824579,374.925259 C288.923692,375.542674 288.362152,376.354002 288.137652,377.362696 L249.524732,377.362696 C248.736961,375.458664 247.38765,374.504635 245.477953,374.504635 L237.552915,374.504635 C236.428104,374.504635 235.386976,374.95403 234.433571,375.849368 C233.476703,376.748158 233,377.812091 233,379.044043 L233,404.261384 C233,405.496214 233.476703,406.588917 234.433571,407.539494 C235.386976,408.493524 236.428104,408.968813 237.552915,408.968813 L245.477953,408.968813 C247.164303,408.968813 248.455325,408.128139 249.356212,406.447366 L261.665069,406.447366 L261.665069,424.267236 C261.665069,427.293893 261.24377,429.284811 260.400595,430.235388 C259.55742,431.186541 257.955906,431.943205 255.5949,432.505381 L250.704946,433.177459 C248.568441,433.514074 247.949189,434.633246 248.850077,436.540155 C249.187116,437.548849 249.693252,438.668596 250.367907,439.902851 C251.042563,441.134803 251.658929,442.424297 252.222777,443.76903 C253.121356,445.224242 253.963954,446.149501 254.751725,446.543657 C255.537188,446.93436 256.943634,447.074185 258.967024,446.963131 C260.540258,446.73757 261.944396,446.56955 263.1829,446.459647 C264.418518,446.345716 265.767252,446.123032 267.229678,445.786417 C271.276457,444.888202 274.058762,443.068181 275.576593,440.3229 C277.093846,437.575317 277.852762,433.850689 277.852762,429.14326 L277.852762,406.447366 L288.475268,406.447366 C289.373847,408.128139 290.722581,408.968813 292.522047,408.968813 L300.447085,408.968813 C301.569587,408.968813 302.610715,408.493524 303.567006,407.539494 C304.520412,406.588917 305,405.496214 305,404.261384 L305,378.707429 C305,377.362696 304.520412,376.243523 303.567006,375.345308 Z" id="Fill-15" fill="#FFFFFF" mask="url(#mask-2)"></path>
                        <path d="M284.481901,417.28057 C283.813379,416.393182 283.839685,415.392875 284.565394,414.281359 C285.288816,413.172125 286.262148,412.782039 287.489392,413.115095 C291.721268,414.560236 295.118206,415.893029 297.68135,417.114042 C300.242779,418.337907 302.35986,419.670129 304.030879,421.112989 C305.367351,422.003229 306.257761,423.086229 306.703824,424.361992 C307.147599,425.640035 307.09327,427.389717 306.536836,429.611038 C306.312089,430.388928 306.035873,431.081843 305.701898,431.693775 C305.367351,432.303426 304.975617,432.943304 304.532414,433.609985 C303.19537,435.497109 301.662744,436.609195 299.936825,436.942251 C298.208619,437.275877 296.678853,436.163791 295.342381,433.609985 C294.449112,431.943567 293.697668,430.556026 293.086333,429.44451 C292.473283,428.335275 291.776168,427.194674 290.998417,426.02841 C290.217236,424.862145 289.327398,423.612617 288.324901,422.279824 C287.322404,420.945891 286.04026,419.280614 284.481901,417.28057" id="Fill-16" fill="#FFFFFF" mask="url(#mask-2)"></path>
                        <path d="M299.503075,443.352213 C312.700766,434.521362 323.7489,425.638869 332.641735,416.695552 C341.53457,407.755105 348.943448,398.199539 354.873536,388.027707 C356.551603,385.570676 359.236395,385.345745 362.927337,387.357503 L369.974414,392.386899 C371.42736,393.618284 372.098127,394.792288 371.988438,395.90719 C371.875304,397.026109 371.204537,398.312005 369.974414,399.76373 C366.057776,404.682956 361.64036,409.544801 356.719294,414.348692 C351.795931,419.155452 346.455062,423.653506 340.695537,427.844573 C334.932567,432.035641 328.837658,435.862917 322.406217,439.328123 C315.97248,442.791606 309.290075,445.641693 302.355559,447.878957 C301.794481,448.101019 301.264414,448.017818 300.761338,447.627057 C300.257689,447.234001 299.838459,446.760038 299.503075,446.2023 C299.167692,445.641693 299,445.083955 299,444.525643 C299,443.965036 299.167692,443.574849 299.503075,443.352213" id="Fill-17" fill="#FFFFFF" mask="url(#mask-2)"></path>
                        <path d="M310.59345,388.099109 C315.486702,384.302968 319.908275,380.671976 323.857596,377.208427 C327.804062,373.747745 331.474716,370.256098 334.868985,366.7375 C338.26097,363.218901 341.430249,359.478383 344.379106,355.511932 C347.324537,351.548347 350.301946,347.163861 353.304481,342.360195 C354.194163,340.909977 355.223751,340.127238 356.39153,340.014844 C357.559309,339.904745 359.086845,340.407074 360.979276,341.522406 C362.201875,342.192178 363.425045,342.946819 364.6505,343.784034 C365.873099,344.622397 366.928383,345.488284 367.819779,346.381122 C369.376437,347.611714 370.098805,348.839439 369.989165,350.067164 C369.876669,351.297756 369.209693,352.692351 367.987094,354.255535 C365.317476,357.496017 361.980882,360.985944 357.976741,364.726462 C353.972599,368.470994 349.551027,372.127791 344.713165,375.700866 C339.874162,379.276808 334.757061,382.569473 329.363576,385.585742 C323.966665,388.600865 318.601733,391.059755 313.263068,392.957826 C312.817656,393.070219 312.345404,392.957826 311.845172,392.622366 C311.344369,392.28748 310.927509,391.842494 310.59345,391.282248 C310.259962,390.724869 310.064666,390.138245 310.009846,389.522949 C309.952171,388.91052 310.148038,388.433995 310.59345,388.099109" id="Fill-18" fill="#FFFFFF" mask="url(#mask-2)"></path>
                        <path d="M312.429802,342.255031 C320.438293,336.000056 327.667292,329.455959 334.119655,322.630332 C340.569163,315.804121 345.965643,308.46625 350.303386,300.616137 C351.19252,299.1384 352.248403,298.285634 353.473889,298.056673 C354.69652,297.829463 356.252648,298.285634 358.145699,299.421681 L364.986381,304.200088 C366.430581,305.452952 367.097575,306.647991 366.988503,307.783454 C366.876005,308.921837 366.208441,310.28743 364.986381,311.879064 C362.538263,314.838627 359.618453,317.910334 356.22638,321.09477 C352.832593,324.280958 349.052202,327.408738 344.881208,330.480445 C340.709643,333.552153 336.121778,336.511716 331.116471,339.354461 C326.111164,342.198959 320.826611,344.703519 315.265667,346.862885 C314.820243,347.091846 314.34855,347.033438 313.847734,346.692332 C313.347489,346.350641 312.930047,345.897975 312.59655,345.326739 C312.263053,344.759592 312.067181,344.162072 312.01236,343.535348 C311.955254,342.911544 312.096305,342.484577 312.429802,342.255031" id="Fill-19" fill="#FFFFFF" mask="url(#mask-2)"></path>
                        <path d="M264.119276,239.351809 L264.119276,276.512121 L244.030037,276.512121 L244.030037,239.351809 L244.030037,231.924317 L244.030037,194.121812 L264.119276,194.121812 L264.119276,231.924317 L264.119276,239.351809 Z M277.735199,184.610052 C276.891031,183.830165 275.972496,183.439365 274.982501,183.439365 L268.137356,183.439365 C267.144456,183.439365 266.22534,183.830165 265.384076,184.610052 C264.539908,185.392224 264.119276,186.365796 264.119276,187.537055 L264.119276,187.682748 L244.030037,187.682748 L244.030037,186.951426 C244.030037,185.87901 243.6065,184.952859 242.765236,184.170687 C241.921068,183.391372 241.002533,183 240.011957,183 L233.01808,183 C231.925251,183 230.983477,183.391372 230.190435,184.170687 C229.395069,184.952859 229,185.87901 229,186.951426 L229,293.048574 C229,294.12099 229.420632,295.047141 230.264801,295.829313 C231.106645,296.608628 232.02518,297 233.01808,297 L240.011957,297 C241.002533,297 241.921068,296.608628 242.765236,295.829313 C243.6065,295.047141 244.030037,294.12099 244.030037,293.048574 L244.030037,283.097449 L264.119276,283.097449 L264.119276,291.145994 C264.119276,292.218409 264.539908,293.121707 265.384076,293.8536 C266.22534,294.585494 267.144456,294.951155 268.137356,294.951155 L274.982501,294.951155 C275.972496,294.951155 276.891031,294.585494 277.735199,293.8536 C278.577044,293.121707 279,292.218409 279,291.145994 L279,187.537055 C279,186.365796 278.577044,185.392224 277.735199,184.610052 Z" id="Fill-20" fill="#FFFFFF" mask="url(#mask-2)"></path>
                        <path d="M276.430542,215.412649 L236.412774,255.43054 C235.653496,256.18982 234.421984,256.18982 233.662706,255.43054 L230.569458,252.337862 C229.810181,251.578581 229.810181,250.347066 230.569458,249.587785 L270.587805,209.569894 C271.347083,208.810035 272.578016,208.810035 273.337873,209.569894 L276.430542,212.662573 C277.189819,213.422432 277.189819,214.653368 276.430542,215.412649" id="Fill-21" fill="#FFFFFF" mask="url(#mask-2)"></path>
                        <path d="M230.999757,435.20831 C230.999757,435.20831 217.792719,439.70166 210.786712,439.985817 C209.676462,440.031037 208.721407,439.970539 208,439.769491 C208,439.769491 221.039904,433.282763 226.142054,428.202766 C231.118001,423.246821 230.999757,435.20831 230.999757,435.20831" id="Fill-22" fill="#FFFFFF" mask="url(#mask-2)"></path>
                        <path d="M215.654561,439.184671 C215.654561,439.184671 202.710642,442.451924 205.356688,435.905528 C208.002152,429.359699 224.151936,419.321855 246,436.600761 C246,436.600761 226.399358,423.677249 211.962783,434.007227 C211.099778,434.624897 210.708719,435.619056 210.821032,436.566226 C210.894937,437.191256 211.188813,437.79647 211.710806,438.259015 C212.531331,438.986518 213.777248,439.489826 215.654561,439.184671" id="Fill-23" fill="#FFFFFF" mask="url(#mask-2)"></path>
                        <path d="M214.209469,436.238903 C214.209469,436.238903 211.785131,437.282146 211.736783,435.448265 C211.689062,433.614383 210,438 210,438 L215,437.583987 L214.209469,436.238903 Z" id="Fill-24" fill="#FFFFFF" mask="url(#mask-2)"></path>
                        <path d="M513,283 C512.163261,285.140251 511.290267,287.262126 510.382169,289.365624 C487.621603,342.062196 442.529198,382.896943 387,400" id="Stroke-25" stroke="#FFFFFF" stroke-linecap="round" mask="url(#mask-2)"></path>
                        <path d="M474,77 C506.879274,112.322338 527,159.741691 527,211.873486 C527,214.932521 526.931205,217.975459 526.793616,221" id="Stroke-26" stroke="#FFFFFF" stroke-linecap="round" mask="url(#mask-2)"></path>
                        <path d="M356,16 C356.906328,16.1278649 357.810928,16.2620654 358.713225,16.4020257 C399.63213,22.751497 436.409222,41.6323042 465,69" id="Stroke-27" stroke="#FFFFFF" stroke-linecap="round" mask="url(#mask-2)"></path>
                        <path d="M142,147 C168.842357,70.1513077 242.190767,15 328.467313,15 C334.38783,15 340.247507,15.2596298 346.034863,15.7680237 C347.025538,15.8555201 348.013917,15.949307 349,16.0511002" id="Stroke-28" stroke="#FFFFFF" stroke-linecap="round" mask="url(#mask-2)"></path>
                        <path d="M387,161 C398.81553,173.9049 406,190.948352 406,209.632558 C406,210.761149 405.97422,211.884012 405.922074,213" id="Stroke-29" stroke="#FFFFFF" stroke-linecap="round" stroke-dasharray="10" mask="url(#mask-2)"></path>
                        <path d="M262,185 C271.974699,156.472571 299.232003,136 331.293454,136 C350.96517,136 368.827912,143.706815 382,156.252393" id="Stroke-30" stroke="#FFFFFF" stroke-linecap="round" stroke-dasharray="10" mask="url(#mask-2)"></path>
                        <path d="M345,198 L432,112" id="Stroke-31" stroke="#FFFFFF" stroke-linecap="round" mask="url(#mask-2)"></path>
                        <path d="M161,447 L202,406" id="Stroke-32" stroke="#FFFFFF" stroke-linecap="round" mask="url(#mask-2)"></path>
                        <path d="M544,243 L570,217" id="Stroke-33" stroke="#FFFFFF" stroke-linecap="round" mask="url(#mask-2)"></path>
                        <path d="M35,224 L91,169" id="Stroke-34" stroke="#FFFFFF" stroke-linecap="round" mask="url(#mask-2)"></path>
                        <path d="M0,259 L21,238" id="Stroke-35" stroke="#FFFFFF" stroke-linecap="round" mask="url(#mask-2)"></path>
                        <path d="M116,140 L137,119" id="Stroke-36" stroke="#FFFFFF" stroke-linecap="round" mask="url(#mask-2)"></path>
                        <path d="M276,93 L332,38" id="Stroke-37" stroke="#FFFFFF" stroke-linecap="round" mask="url(#mask-2)"></path>
                        <path d="M348,21 L369,0" id="Stroke-38" stroke="#FFFFFF" stroke-linecap="round" mask="url(#mask-2)"></path>
                        <path d="M447,95 L501,42" id="Stroke-39" stroke="#FFFFFF" stroke-linecap="round" mask="url(#mask-2)"></path>
                        <path d="M346.16323,221.259238 C346.315577,221.086413 346.500571,221 346.718783,221 L365.309782,221 C365.505658,221 365.66946,221.06481 365.800044,221.194429 C365.952391,221.389426 366.017683,221.616259 365.995919,221.875497 C365.995919,222.092098 365.941509,222.297328 365.83269,222.491757 C365.702106,222.665151 365.527422,222.751563 365.309782,222.751563 L357.86021,222.751563 L357.86021,243.832291 C357.86021,244.134736 357.762272,244.404775 357.566396,244.642979 C357.32642,244.880614 357.043489,245 356.717029,245 L355.279463,245 C354.952431,245 354.679809,244.902217 354.462169,244.707789 C354.244529,244.44855 354.13571,244.156339 354.13571,243.832291 L354.13571,222.751563 L346.718783,222.751563 C346.500571,222.751563 346.315577,222.665151 346.16323,222.491757 C346.053837,222.318931 346,222.113701 346,221.875497 C346,221.660034 346.053837,221.453667 346.16323,221.259238" id="Fill-40" fill="#FFFFFF" mask="url(#mask-2)"></path>
                        <path d="M370.562074,227.965973 C370.804288,227.774419 371.079531,227.689284 371.388382,227.710007 L372.743735,227.710007 C373.052006,227.710007 373.316819,227.816987 373.537013,228.029825 C373.691149,228.264507 373.768796,228.530555 373.768796,228.828529 L373.768796,243.942288 C373.790236,244.218978 373.713168,244.474384 373.537013,244.709066 C373.338838,244.921904 373.085035,245.017681 372.776764,244.996958 L371.256265,244.996958 C370.969434,245.017681 370.71621,244.932546 370.496016,244.740992 C370.297262,244.506309 370.209184,244.240262 370.231783,243.942288 L370.231783,228.828529 C370.209184,228.487987 370.319281,228.200656 370.562074,227.965973 M370.099087,221.895041 C370.143126,221.72421 370.220194,221.564582 370.330871,221.415595 C370.529045,221.245324 370.749239,221.138905 370.992032,221.095777 C371.344343,221.031926 371.696654,221 372.049544,221 C372.401854,221 372.743735,221.031926 373.074605,221.095777 C373.316819,221.138905 373.526003,221.234682 373.702158,221.383669 C373.790236,221.532656 373.856294,221.692845 373.900913,221.863115 C373.966971,222.182373 374,222.512832 374,222.853373 C374,223.194475 373.966971,223.535576 373.900913,223.876117 C373.856294,224.046388 373.790236,224.195375 373.702158,224.323078 C373.526003,224.493909 373.316819,224.600328 373.074605,224.642895 C372.743735,224.686023 372.401854,224.706747 372.049544,224.706747 C371.674634,224.706747 371.310734,224.686023 370.959003,224.642895 C370.71621,224.600328 370.507026,224.493909 370.330871,224.323078 C370.220194,224.195375 370.143126,224.046388 370.099087,223.876117 C370.033029,223.535576 370,223.194475 370,222.853373 C370,222.534116 370.033029,222.214298 370.099087,221.895041" id="Fill-41" fill="#FFFFFF" mask="url(#mask-2)"></path>
                        <path d="M379.266673,227.654219 C379.507978,227.414915 379.804702,227.306141 380.156268,227.327896 L381.505958,227.327896 C381.813651,227.327896 382.076892,227.437242 382.296837,227.654219 C382.449818,227.894095 382.527174,228.166031 382.527174,228.4706 L382.527174,230.364993 C383.185855,229.384878 384.030421,228.579947 385.063183,227.948482 C386.094789,227.338773 387.21472,227.022755 388.422399,227.001 C389.717247,226.979817 390.913957,227.295263 392.011951,227.948482 C393.109368,228.688721 393.877733,229.690591 394.317046,230.952948 C395.041538,229.733529 396.007911,228.743109 397.215012,227.981115 C398.269133,227.34965 399.421969,227.022755 400.673521,227.001 C401.485182,227.001 402.28703,227.110347 403.077332,227.327896 C403.933444,227.567772 404.679872,228.013175 405.316617,228.666966 C405.909487,229.363695 406.337832,230.147444 406.601074,231.018212 C406.864893,232.107102 406.996513,233.206296 406.996513,234.316941 L406.996513,243.918863 C407.017873,244.201677 406.941094,244.462736 406.766177,244.702612 C406.568169,244.920161 406.315318,245.018058 406.008203,244.996876 L404.49341,244.996876 C404.185717,245.018058 403.922476,244.931611 403.703108,244.735244 C403.505677,244.495368 403.417352,244.223432 403.439866,243.918863 L403.439866,233.337398 C403.439866,232.618342 403.36251,231.911308 403.208953,231.214006 C403.055395,230.670134 402.791576,230.190954 402.418651,229.777038 C402.045148,229.384878 401.606412,229.112942 401.101288,228.960657 C400.640039,228.830128 400.16782,228.764863 399.685211,228.764863 C398.674964,228.830128 397.775555,229.189084 396.984676,229.842303 C396.018302,230.648379 395.282842,231.627922 394.778296,232.782076 L394.778296,243.918863 C394.778296,244.615592 394.437699,244.974548 393.757658,244.996876 L392.275192,244.996876 C391.9675,245.018058 391.704258,244.931611 391.484891,244.735244 C391.287459,244.495368 391.199135,244.223432 391.221072,243.918863 L391.221072,233.337398 C391.221072,232.618342 391.133325,231.911308 390.95783,231.214006 C390.781759,230.670134 390.518517,230.190954 390.167528,229.777038 C389.772666,229.384878 389.321807,229.112942 388.817261,228.960657 C388.377948,228.830128 387.928243,228.764863 387.466993,228.764863 C386.41345,228.808946 385.49095,229.178779 384.700648,229.874935 C383.778725,230.681011 383.054234,231.649677 382.527174,232.782076 L382.527174,243.918863 C382.54911,244.201677 382.472332,244.462736 382.296837,244.702612 C382.098829,244.920161 381.846556,245.018058 381.539441,244.996876 L380.02407,244.996876 C379.738314,245.018058 379.486041,244.931611 379.266673,244.735244 C379.069242,244.495368 378.980918,244.223432 379.003432,243.918863 L379.003432,228.4706 C379.003432,228.166031 379.090602,227.894095 379.266673,227.654219" id="Fill-42" fill="#FFFFFF" mask="url(#mask-2)"></path>
                        <path d="M424.507481,235.085489 C424.507481,234.208661 424.409683,233.34252 424.214088,232.486502 C424.039654,231.695726 423.735396,230.957255 423.300169,230.272778 C422.408554,229.053431 421.190375,228.443757 419.646206,228.443757 C418.101464,228.465129 416.861553,229.085489 415.927045,230.304837 C415.470085,230.989314 415.121789,231.737908 414.882729,232.550619 C414.665401,233.385264 414.556737,234.230034 414.556737,235.085489 L424.507481,235.085489 Z M411.489559,232.646794 C411.859016,231.428009 412.478971,230.358268 413.349425,229.438133 C414.197575,228.625984 415.165255,228.005624 416.253036,227.577615 C417.383711,227.213723 418.547558,227.021372 419.744003,227 C420.679084,227.021372 421.60387,227.149606 422.517218,227.385264 C423.604427,227.705849 424.594412,228.230034 425.486027,228.957255 C426.313015,229.663105 426.943265,230.508436 427.379064,231.491564 C427.813719,232.540495 428.02018,233.620922 427.998448,234.732846 C427.998448,234.989314 427.965849,235.245782 427.90065,235.502812 C427.813719,235.73847 427.672456,235.951631 427.47629,236.143982 C427.280695,236.294151 427.052501,236.401012 426.791708,236.465129 C426.465144,236.529246 426.139153,236.561305 425.81259,236.561305 L414.556737,236.561305 C414.556737,238.37964 415.078323,240.026434 416.12264,241.502812 C416.622493,242.165917 417.253315,242.678853 418.014533,243.042745 C418.60189,243.321147 419.221845,243.460067 419.8744,243.460067 C420.962182,243.438695 421.940728,243.106862 422.811182,242.465129 C423.789728,241.673791 424.594412,240.732846 425.225233,239.641732 C425.377363,239.320585 425.616995,239.117548 425.942986,239.032058 C426.313015,239.032058 426.649873,239.139483 426.954703,239.352643 C427.302428,239.524184 427.574659,239.781215 427.770254,240.123172 C427.856613,240.422947 427.813719,240.711474 427.639857,240.989314 C426.922104,242.187289 425.953853,243.13892 424.735674,243.844769 C423.256131,244.614736 421.679934,245 420.004796,245 C418.764885,245 417.558145,244.7964 416.383433,244.390326 C415.252186,243.98369 414.262773,243.374578 413.414624,242.561305 C412.522437,241.62036 411.880749,240.539933 411.489559,239.320585 C411.162996,238.230034 411,237.11811 411,235.98369 C411,234.850394 411.162996,233.737908 411.489559,232.646794 Z" id="Fill-43" fill="#FFFFFF" mask="url(#mask-2)"></path>
                        <path d="M432.168971,231.422792 C432.256586,231.166554 432.432391,231.025624 432.695235,231 L439.304947,231 C439.567791,231.025624 439.74302,231.166554 439.830635,231.422792 C439.962633,231.782198 440.016816,232.140931 439.995489,232.500337 C440.016816,232.859069 439.962633,233.218476 439.830635,233.577208 C439.74302,233.859744 439.567791,234 439.304947,234 L432.695235,234 C432.432391,234 432.256586,233.859744 432.168971,233.577208 C432.037549,233.218476 431.98279,232.859069 432.004694,232.500337 C431.98279,232.140931 432.037549,231.782198 432.168971,231.422792" id="Fill-44" fill="#FFFFFF" mask="url(#mask-2)"></path>
                        <path d="M444.376698,221.25932 C444.650079,221.067535 444.960739,220.982297 445.309332,221.003046 L446.839087,221.003046 C447.187027,221.003046 447.485914,221.110154 447.734442,221.323249 C447.908412,221.558213 447.996051,221.824582 447.996051,222.123475 L447.996051,243.940999 C448.02025,244.218022 447.933265,244.473736 447.734442,244.7087 C447.510767,244.921795 447.224306,245.017688 446.876367,244.996939 L445.160215,244.996939 C444.836475,245.017688 444.550668,244.933011 444.30214,244.741225 C444.077811,244.506261 443.978399,244.239332 444.003906,243.940999 L444.003906,222.123475 C443.978399,221.782524 444.102663,221.494285 444.376698,221.25932" id="Fill-45" fill="#FFFFFF" mask="url(#mask-2)"></path>
                        <path d="M456.7725,241.502812 C456.881173,241.866704 457.06747,242.197975 457.330239,242.49775 C457.657983,242.818335 458.04035,243.053993 458.477917,243.203037 C459.002881,243.353206 459.549121,243.428009 460.118359,243.428009 C461.539731,243.34252 462.829431,242.882452 463.988608,242.048369 C464.534847,241.642295 464.972988,241.150169 465.301307,240.572553 C465.497953,240.1018 465.606626,239.609674 465.62905,239.096175 L465.62905,234.796963 C464.207103,235.117548 462.785732,235.470754 461.36436,235.855456 C460.59905,236.069741 459.855589,236.326209 459.133979,236.625984 C458.565315,236.861642 458.05185,237.170979 457.592434,237.556243 C456.870823,238.241282 456.520655,239.064117 456.54308,240.026434 C456.54308,240.540495 456.618978,241.032621 456.7725,241.502812 M453.557739,237.812711 C453.951606,237.214286 454.443221,236.711474 455.033735,236.304837 C455.908293,235.770529 456.838049,235.353206 457.821855,235.053431 C459.09028,234.732846 460.369054,234.455006 461.659904,234.219348 C462.993302,233.984252 464.316926,233.717098 465.62905,233.417323 C465.62905,232.839708 465.563502,232.262092 465.432404,231.684477 C465.278882,231.042745 465.016112,230.454443 464.64467,229.920135 C463.85751,228.936445 462.819081,228.443757 461.528806,228.443757 C461.06939,228.443757 460.620899,228.497188 460.183908,228.604049 C459.680793,228.754218 459.243227,229.000562 458.871784,229.341957 C458.499766,229.706412 458.182948,230.112486 457.920753,230.561305 C457.636133,231.096738 457.384288,231.652418 457.166368,232.230034 C457.056545,232.572553 456.838049,232.850956 456.509731,233.064117 C456.094014,233.256468 455.657022,233.331834 455.197607,233.289089 C454.935412,233.289089 454.673217,233.256468 454.410447,233.192913 C454.213801,233.150169 454.049929,233.064117 453.918832,232.935883 C453.787734,232.764904 453.721611,232.58324 453.721611,232.390326 C453.721611,232.197975 453.74346,232.005624 453.787734,231.812711 C454.137328,230.251969 454.989461,229.043307 456.345859,228.187289 C457.089319,227.75928 457.887403,227.449381 458.740687,227.256468 C459.658943,227.086052 460.588125,227 461.528806,227 C462.512612,227 463.496992,227.086052 464.480798,227.256468 C465.465179,227.449381 466.361586,227.845332 467.170595,228.443757 C467.848506,229.000562 468.340122,229.695163 468.646591,230.529246 C468.95306,231.513498 469.106007,232.529809 469.106007,233.577615 L469.073232,239 C469.073232,240.412261 469.346352,241.781215 469.893166,243.107424 C470.045538,243.471316 470.035188,243.812711 469.860392,244.133858 C469.575772,244.475816 469.215254,244.711474 468.777688,244.839708 C468.362546,244.989314 467.935905,245.021372 467.498913,244.935883 C467.148745,244.871766 466.864126,244.690101 466.64563,244.390326 C466.208064,243.812711 465.879745,243.182227 465.661825,242.49775 C464.764842,243.353206 463.726413,243.984252 462.545386,244.390326 C461.34251,244.7964 460.106859,245 458.83901,245 C458.007576,245 457.187642,244.860517 456.378633,244.58324 C455.678872,244.347582 455.04466,243.973566 454.475996,243.460067 C453.49219,242.49775 453,241.34252 453,239.994938 C453,239.224972 453.185721,238.49775 453.557739,237.812711" id="Fill-46" fill="#FFFFFF" mask="url(#mask-2)"></path>
                        <path d="M478.058543,238.775109 C478.281188,239.740193 478.661858,240.649931 479.197616,241.5049 C479.689315,242.207094 480.29263,242.787643 481.007562,243.248277 C481.655524,243.621281 482.359293,243.818449 483.118871,243.840356 C483.878449,243.796541 484.571057,243.57689 485.196696,243.182555 C485.911627,242.700589 486.503781,242.10851 486.973157,241.406317 C487.486591,240.551347 487.855512,239.641609 488.078745,238.676525 C488.257331,237.843464 488.357786,236.998871 488.380696,236.144478 C488.380696,235.288932 488.290816,234.444917 488.11223,233.611278 C487.911321,232.669255 487.553561,231.781425 487.040126,230.947786 C486.592486,230.246169 486.023244,229.665044 485.330635,229.20441 C484.638027,228.809498 483.900773,228.601953 483.118871,228.579469 C482.381617,228.601953 481.689008,228.788167 481.041047,229.138687 C480.348439,229.555506 479.756285,230.103771 479.265173,230.78348 C478.706505,231.594634 478.304099,232.493419 478.058543,233.479833 C477.857634,234.357287 477.756592,235.256071 477.756592,236.176763 C477.756592,237.054217 477.857634,237.92014 478.058543,238.775109 M474.338197,227.593054 C474.583753,227.395887 474.863381,227.308257 475.176494,227.329588 L476.550549,227.329588 C476.863074,227.329588 477.130953,227.439702 477.354773,227.658777 C477.510449,227.900336 477.589167,228.17418 477.589167,228.480885 L477.589167,230.585736 C478.304099,229.533599 479.208778,228.667676 480.303792,227.987966 C481.487512,227.308257 482.761112,226.979644 484.124592,227.000975 C485.241342,227.000975 486.302872,227.209673 487.308005,227.625916 C488.335462,228.085973 489.207244,228.733398 489.922175,229.56646 C490.704077,230.509636 491.262745,231.572727 491.597594,232.756885 C491.84315,233.83093 491.977677,234.927459 492,236.045318 C491.977677,237.141847 491.84315,238.227421 491.597594,239.301466 C491.284481,240.507532 490.748723,241.615014 489.989145,242.623336 C489.273626,243.522697 488.402432,244.224314 487.374975,244.728187 C486.302872,245.210152 485.184947,245.451711 484.02355,245.451711 C482.817507,245.451711 481.677847,245.177291 480.605156,244.629603 C479.353879,243.884171 478.348745,242.897757 477.589167,241.669783 L477.589167,250.911294 C477.611491,251.196091 477.533359,251.458982 477.354773,251.700541 C477.153277,251.919616 476.896559,252.0182 476.584034,251.996869 L475.042555,251.996869 C474.751765,252.0182 474.49446,251.93057 474.271227,251.733402 C474.070318,251.491843 473.981025,251.217999 474.003348,250.911294 L474.003348,228.480885 C473.981025,228.130365 474.092641,227.834614 474.338197,227.593054" id="Fill-47" fill="#FFFFFF" mask="url(#mask-2)"></path>
                        <path d="M496,239.545557 C496.021674,239.310461 496.108369,239.107424 496.260656,238.935883 C496.455721,238.807649 496.661622,238.732846 496.878931,238.711474 C497.182364,238.668729 497.474961,238.647357 497.757291,238.647357 C498.169094,238.604612 498.559223,238.678853 498.928248,238.871766 C499.188905,239.064117 499.340051,239.321147 499.383969,239.641732 C499.644625,240.711474 500.175634,241.631046 500.978706,242.401012 C501.780638,243.107424 502.72459,243.460067 503.809422,243.460067 C504.806418,243.48144 505.71786,243.224972 506.542606,242.690101 C507.323434,242.091114 507.714134,241.310461 507.714134,240.347582 C507.714134,240.026434 507.648542,239.727784 507.518499,239.449381 C507.279516,239.086052 506.98692,238.775591 506.640138,238.51856 C506.184418,238.219348 505.707023,237.96288 505.208525,237.748594 C504.622761,237.492126 504.015324,237.25703 503.386212,237.042745 C502.214685,236.63667 501.064831,236.208661 499.937222,235.75928 C499.156394,235.438695 498.42918,235.032621 497.757291,234.540495 C496.867523,233.834083 496.401536,232.925197 496.357618,231.812711 C496.379292,231.106862 496.56409,230.444319 496.911441,229.823397 C497.322674,229.181665 497.843416,228.647357 498.473098,228.219348 C499.253926,227.769966 500.078102,227.449381 500.945625,227.256468 C501.727024,227.086052 502.507852,227 503.28868,227 C504.091182,227 504.893684,227.075366 505.696186,227.224409 C506.585954,227.395951 507.431803,227.695726 508.234305,228.123172 C508.885091,228.529809 509.427507,229.043307 509.861554,229.663105 C510.251683,230.262092 510.468421,230.925759 510.512339,231.652418 C510.555687,231.973566 510.457584,232.251406 510.219172,232.486502 C510.067455,232.593926 509.904331,232.658043 509.731511,232.679415 C509.470854,232.72216 509.210768,232.743532 508.950112,232.743532 C508.537739,232.764904 508.157877,232.679415 507.811095,232.486502 C507.464314,232.187289 507.225902,231.812711 507.095859,231.363892 C506.770181,230.444319 506.216928,229.684477 505.4361,229.085489 C504.785315,228.658043 504.069508,228.443757 503.28868,228.443757 C502.312217,228.422947 501.433857,228.690101 500.653029,229.246344 C500.002243,229.75928 499.665729,230.422947 499.644625,231.235658 C499.687403,232.005624 500.034754,232.625984 500.685539,233.096175 C501.184037,233.438695 501.715617,233.717098 502.279706,233.930821 C503.104453,234.251406 503.949732,234.540495 504.817826,234.796963 C505.794289,235.117548 506.758774,235.48144 507.714134,235.888076 C508.42937,236.230034 509.080726,236.63667 509.665919,237.107424 C510.533442,237.834646 510.978326,238.754218 511,239.866142 C511,241.428009 510.370889,242.679415 509.113236,243.62036 C508.353512,244.090551 507.539602,244.433071 506.672649,244.647357 C505.652839,244.882452 504.622761,245 503.581277,245 C502.735427,245 501.900414,244.914511 501.075668,244.743532 C500.164797,244.550619 499.318947,244.208661 498.538119,243.716535 C497.279897,242.903825 496.465987,241.770529 496.097532,240.315523 C496.032511,240.059055 496,239.802587 496,239.545557" id="Fill-48" fill="#FFFFFF" mask="url(#mask-2)"></path>
                        <path d="M529.507481,235.085489 C529.507481,234.208661 529.409683,233.34252 529.214088,232.486502 C529.039654,231.695726 528.735396,230.957255 528.300169,230.272778 C527.408554,229.053431 526.190375,228.443757 524.646206,228.443757 C523.101464,228.465129 521.861553,229.085489 520.927045,230.304837 C520.470085,230.989314 520.121789,231.737908 519.882729,232.550619 C519.665401,233.385264 519.556737,234.230034 519.556737,235.085489 L529.507481,235.085489 Z M516.489559,232.646794 C516.859016,231.428009 517.478971,230.358268 518.349425,229.438133 C519.197575,228.625984 520.165255,228.005624 521.253036,227.577615 C522.383711,227.213723 523.547558,227.021372 524.744003,227 C525.679084,227.021372 526.60387,227.149606 527.517218,227.385264 C528.604427,227.705849 529.594412,228.230034 530.486027,228.957255 C531.313015,229.663105 531.943265,230.508436 532.379064,231.491564 C532.813719,232.540495 533.02018,233.620922 532.998448,234.732846 C532.998448,234.989314 532.965849,235.245782 532.90065,235.502812 C532.813719,235.73847 532.672456,235.951631 532.47629,236.143982 C532.280695,236.294151 532.052501,236.401012 531.791708,236.465129 C531.465144,236.529246 531.139153,236.561305 530.81259,236.561305 L519.556737,236.561305 C519.556737,238.37964 520.078323,240.026434 521.12264,241.502812 C521.622493,242.165917 522.253315,242.678853 523.014533,243.042745 C523.60189,243.321147 524.221845,243.460067 524.8744,243.460067 C525.962182,243.438695 526.940728,243.106862 527.811182,242.465129 C528.789728,241.673791 529.594412,240.732846 530.225233,239.641732 C530.377363,239.320585 530.616995,239.117548 530.942986,239.032058 C531.313015,239.032058 531.649873,239.139483 531.954703,239.352643 C532.302428,239.524184 532.574659,239.781215 532.770254,240.123172 C532.856613,240.422947 532.813719,240.711474 532.639857,240.989314 C531.922104,242.187289 530.953853,243.13892 529.735674,243.844769 C528.256131,244.614736 526.679934,245 525.004796,245 C523.764885,245 522.558145,244.7964 521.383433,244.390326 C520.252186,243.98369 519.262773,243.374578 518.414624,242.561305 C517.522437,241.62036 516.880749,240.539933 516.489559,239.320585 C516.162996,238.230034 516,237.11811 516,235.98369 C516,234.850394 516.162996,233.737908 516.489559,232.646794 Z" id="Fill-49" fill="#FFFFFF" mask="url(#mask-2)"></path>
                        <path d="M352.058543,268.775109 C352.281188,269.740193 352.661858,270.649931 353.197616,271.5049 C353.689315,272.207094 354.29263,272.787643 355.007562,273.248277 C355.655524,273.621281 356.359293,273.818449 357.118871,273.840356 C357.878449,273.796541 358.571057,273.57689 359.196696,273.182555 C359.911627,272.700589 360.503781,272.10851 360.973157,271.406317 C361.486591,270.551347 361.855512,269.641609 362.078745,268.676525 C362.257331,267.843464 362.357786,266.998871 362.380696,266.144478 C362.380696,265.288932 362.290816,264.444917 362.11223,263.611278 C361.911321,262.669255 361.553561,261.781425 361.040126,260.947786 C360.592486,260.246169 360.023244,259.665044 359.330635,259.20441 C358.638027,258.809498 357.900773,258.601953 357.118871,258.579469 C356.381617,258.601953 355.689008,258.788167 355.041047,259.138687 C354.348439,259.555506 353.756285,260.103771 353.265173,260.78348 C352.706505,261.594634 352.304099,262.493419 352.058543,263.479833 C351.857634,264.357287 351.756592,265.256071 351.756592,266.176763 C351.756592,267.054217 351.857634,267.92014 352.058543,268.775109 M348.338197,257.593054 C348.583753,257.395887 348.863381,257.308257 349.176494,257.329588 L350.550549,257.329588 C350.863074,257.329588 351.130953,257.439702 351.354773,257.658777 C351.510449,257.900336 351.589167,258.17418 351.589167,258.480885 L351.589167,260.585736 C352.304099,259.533599 353.208778,258.667676 354.303792,257.987966 C355.487512,257.308257 356.761112,256.979644 358.124592,257.000975 C359.241342,257.000975 360.302872,257.209673 361.308005,257.625916 C362.335462,258.085973 363.207244,258.733398 363.922175,259.56646 C364.704077,260.509636 365.262745,261.572727 365.597594,262.756885 C365.84315,263.83093 365.977677,264.927459 366,266.045318 C365.977677,267.141847 365.84315,268.227421 365.597594,269.301466 C365.284481,270.507532 364.748723,271.615014 363.989145,272.623336 C363.273626,273.522697 362.402432,274.224314 361.374975,274.728187 C360.302872,275.210152 359.184947,275.451711 358.02355,275.451711 C356.817507,275.451711 355.677847,275.177291 354.605156,274.629603 C353.353879,273.884171 352.348745,272.897757 351.589167,271.669783 L351.589167,280.911294 C351.611491,281.196091 351.533359,281.458982 351.354773,281.700541 C351.153277,281.919616 350.896559,282.0182 350.584034,281.996869 L349.042555,281.996869 C348.751765,282.0182 348.49446,281.93057 348.271227,281.733402 C348.070318,281.491843 347.981025,281.217999 348.003348,280.911294 L348.003348,258.480885 C347.981025,258.130365 348.092641,257.834614 348.338197,257.593054" id="Fill-50" fill="#FFFFFF" mask="url(#mask-2)"></path>
                        <path d="M371.332247,251.256307 C371.573369,251.08581 371.847371,251 372.15483,251 L373.504072,251 C373.810954,251 374.074573,251.107122 374.293774,251.320243 C374.447215,251.555238 374.524513,251.82164 374.524513,252.120571 L374.524513,260.662824 C375.269797,259.639279 376.202557,258.828856 377.321638,258.231555 C378.330542,257.69819 379.405783,257.410475 380.546784,257.36729 C381.379749,257.36729 382.213292,257.463195 383.047411,257.655565 C383.924793,257.89056 384.693152,258.327459 385.351333,258.967385 C385.943754,259.628623 386.35966,260.396422 386.601358,261.270782 C386.864977,262.337512 386.996498,263.425554 386.996498,264.534347 L386.996498,273.940865 C387.017841,274.217923 386.941697,274.473669 386.766336,274.708663 C386.569055,274.921785 386.316396,275.01769 386.008937,274.996939 L384.495294,274.996939 C384.187835,275.01769 383.924793,274.933002 383.705592,274.741193 C383.508311,274.506198 383.42063,274.239235 383.44255,273.940865 L383.44255,263.670644 C383.44255,262.945469 383.365253,262.241607 383.211812,261.559057 C383.058371,261.00438 382.795329,260.5142 382.42211,260.087396 C382.04889,259.703216 381.587991,259.436253 381.039987,259.287068 C380.579664,259.159195 380.096844,259.095258 379.592104,259.095258 C379.197541,259.11657 378.813362,259.191163 378.440143,259.319036 C377.869642,259.532718 377.354519,259.820433 376.893619,260.1833 C375.884715,260.951099 375.094436,261.900612 374.524513,263.030718 L374.524513,273.940865 C374.545856,274.217923 374.469135,274.473669 374.293774,274.708663 C374.096493,274.921785 373.843834,275.01769 373.536952,274.996939 L372.023309,274.996939 C371.73777,275.01769 371.485688,274.933002 371.266487,274.741193 C371.068629,274.506198 370.980948,274.239235 371.003445,273.940865 L371.003445,252.120571 C370.980948,251.779577 371.090549,251.491302 371.332247,251.256307" id="Fill-51" fill="#FFFFFF" mask="url(#mask-2)"></path>
                        <path d="M394.906859,269.775591 C395.129305,270.717098 395.519171,271.604612 396.075872,272.438695 C396.54301,273.080427 397.133077,273.593926 397.846076,273.978628 C398.514,274.321147 399.225828,274.492126 399.982731,274.492126 C400.739634,274.471316 401.452633,274.299775 402.120557,273.978628 C402.83297,273.593926 403.433575,273.080427 403.923542,272.438695 C404.480243,271.604612 404.87011,270.717098 405.092556,269.775591 C405.292757,268.856018 405.393444,267.925759 405.393444,266.984252 C405.393444,266.043307 405.292757,265.112486 405.092556,264.192913 C404.87011,263.230034 404.480243,262.331834 403.923542,261.49775 C403.433575,260.856018 402.83297,260.34252 402.120557,259.957255 C401.452633,259.63667 400.739634,259.465692 399.982731,259.443757 C399.225828,259.465692 398.514,259.63667 397.846076,259.957255 C397.133077,260.34252 396.54301,260.856018 396.075872,261.49775 C395.519171,262.331834 395.129305,263.230034 394.906859,264.192913 C394.706657,265.112486 394.606556,266.043307 394.606556,266.984252 C394.606556,267.925759 394.706657,268.856018 394.906859,269.775591 M391.500504,263.551181 C391.923152,262.331834 392.591076,261.272778 393.504277,260.374578 C394.394647,259.561867 395.396241,258.96288 396.509643,258.577615 C397.645289,258.214286 398.802595,258.021935 399.982731,258 C401.140037,258.021935 402.264561,258.2036 403.356304,258.545557 C404.491366,258.909449 405.504081,259.487064 406.395037,260.278403 C407.352142,261.198538 408.04231,262.267717 408.465544,263.486502 C408.799213,264.620922 408.97717,265.786277 409,266.984252 C408.97717,268.13892 408.810335,269.273341 408.498911,270.385264 C408.097922,271.604612 407.452242,272.674353 406.561872,273.593926 C405.693746,274.406637 404.691567,275.015748 403.556506,275.422947 C402.398615,275.786277 401.207356,275.978628 399.982731,276 C398.802595,276 397.645289,275.818335 396.509643,275.455006 C395.396241,275.048369 394.394647,274.449381 393.504277,273.658043 C392.591076,272.73847 391.923152,271.668729 391.500504,270.449381 C391.166835,269.316085 391,268.160855 391,266.984252 C391,265.829021 391.166835,264.685039 391.500504,263.551181" id="Fill-52" fill="#FFFFFF" mask="url(#mask-2)"></path>
                        <path d="M411.160141,258.638738 C411.288254,258.511423 411.459071,258.447765 411.673154,258.447765 L413.788701,258.447765 L413.788701,254.146957 C413.788701,253.828668 413.895461,253.541649 414.109545,253.287018 C414.322504,253.096045 414.589968,253 414.910811,253 L416.096979,253 C416.438613,253 416.726866,253.117264 416.962302,253.350676 C417.154471,253.584646 417.250556,253.849887 417.250556,254.146957 L417.250556,258.447765 L420.392128,258.447765 C420.60565,258.447765 420.787143,258.511423 420.93717,258.638738 C421.043368,258.787832 421.097311,258.957027 421.097311,259.148559 C421.097311,259.615941 420.861875,259.860521 420.392128,259.881182 L417.250556,259.881182 L417.250556,270.138459 C417.250556,270.775595 417.29326,271.402122 417.378668,272.018039 C417.421373,272.50664 417.549485,272.963413 417.763569,273.387798 C418.105203,274.024934 418.639568,274.343781 419.366102,274.343781 C419.879115,274.322562 420.38089,274.215907 420.873113,274.024934 C421.043368,273.961276 421.225423,273.918838 421.417593,273.897618 C421.588971,273.876957 421.738436,273.908786 421.866549,273.993105 C421.97331,274.142198 422.016014,274.311952 421.994662,274.502926 C422.016014,274.991527 421.791255,275.309816 421.321508,275.458909 C420.552269,275.797859 419.740326,275.978781 418.885679,276 C418.180497,276 417.485429,275.925733 416.802161,275.777198 C416.096979,275.628105 415.487881,275.309816 414.974868,274.821214 C414.525911,274.311952 414.215743,273.717255 414.044926,273.03768 C413.852757,272.167132 413.767349,271.296026 413.788701,270.425478 L413.788701,259.881182 L411.673154,259.881182 C411.224197,259.860521 411,259.615941 411,259.148559 C411,258.957027 411.052818,258.787832 411.160141,258.638738" id="Fill-53" fill="#FFFFFF" mask="url(#mask-2)"></path>
                        <path d="M428.906859,269.775591 C429.129305,270.717098 429.519171,271.604612 430.075872,272.438695 C430.54301,273.080427 431.133077,273.593926 431.846076,273.978628 C432.514,274.321147 433.225828,274.492126 433.982731,274.492126 C434.739634,274.471316 435.452633,274.299775 436.120557,273.978628 C436.83297,273.593926 437.433575,273.080427 437.923542,272.438695 C438.480243,271.604612 438.87011,270.717098 439.092556,269.775591 C439.292757,268.856018 439.393444,267.925759 439.393444,266.984252 C439.393444,266.043307 439.292757,265.112486 439.092556,264.192913 C438.87011,263.230034 438.480243,262.331834 437.923542,261.49775 C437.433575,260.856018 436.83297,260.34252 436.120557,259.957255 C435.452633,259.63667 434.739634,259.465692 433.982731,259.443757 C433.225828,259.465692 432.514,259.63667 431.846076,259.957255 C431.133077,260.34252 430.54301,260.856018 430.075872,261.49775 C429.519171,262.331834 429.129305,263.230034 428.906859,264.192913 C428.706657,265.112486 428.606556,266.043307 428.606556,266.984252 C428.606556,267.925759 428.706657,268.856018 428.906859,269.775591 M425.500504,263.551181 C425.923152,262.331834 426.591076,261.272778 427.504277,260.374578 C428.394647,259.561867 429.396241,258.96288 430.509643,258.577615 C431.645289,258.214286 432.802595,258.021935 433.982731,258 C435.140037,258.021935 436.264561,258.2036 437.356304,258.545557 C438.491366,258.909449 439.504081,259.487064 440.395037,260.278403 C441.352142,261.198538 442.04231,262.267717 442.465544,263.486502 C442.799213,264.620922 442.97717,265.786277 443,266.984252 C442.97717,268.13892 442.810335,269.273341 442.498911,270.385264 C442.097922,271.604612 441.452242,272.674353 440.561872,273.593926 C439.693746,274.406637 438.691567,275.015748 437.556506,275.422947 C436.398615,275.786277 435.207356,275.978628 433.982731,276 C432.802595,276 431.645289,275.818335 430.509643,275.455006 C429.396241,275.048369 428.394647,274.449381 427.504277,273.658043 C426.591076,272.73847 425.923152,271.668729 425.500504,270.449381 C425.166835,269.316085 425,268.160855 425,266.984252 C425,265.829021 425.166835,264.685039 425.500504,263.551181" id="Fill-54" fill="#FFFFFF" mask="url(#mask-2)"></path>
                        <path d="M449.895742,268.524442 C450.141801,269.476949 450.522075,270.374832 451.037151,271.218659 C451.507489,271.932755 452.089672,272.517118 452.783701,272.97118 C453.432991,273.383137 454.138204,273.599357 454.899339,273.620979 C455.659886,273.599357 456.365688,273.404759 457.014978,273.036615 C457.731375,272.560931 458.324743,271.98681 458.795081,271.315958 C459.331938,270.472131 459.723396,269.574248 459.970044,268.621741 C460.148996,267.777914 460.249657,266.923275 460.272614,266.057257 C460.272614,265.148563 460.171954,264.261491 459.970044,263.395473 C459.723396,262.421913 459.320753,261.534841 458.761528,260.734258 C458.268821,260.063406 457.674864,259.522287 456.981425,259.1109 C456.332134,258.764947 455.638106,258.580591 454.899339,258.558969 C454.115246,258.580591 453.37648,258.786 452.68304,259.175766 C451.989012,259.630397 451.417424,260.203949 450.970044,260.896423 C450.454968,261.719198 450.097063,262.595458 449.895742,263.525205 C449.716201,264.347979 449.626725,265.180996 449.626725,266.024824 C449.626725,266.868651 449.716201,267.702237 449.895742,268.524442 M446.403231,262.681377 C446.738766,261.513219 447.297992,260.463414 448.082085,259.533098 C448.798483,258.710323 449.660867,258.071905 450.668062,257.617843 C451.697626,257.207024 452.771928,257.001046 453.892145,257.001046 C455.234875,256.979424 456.499902,257.292943 457.686637,257.942173 C458.783308,258.613593 459.689842,259.467663 460.406828,260.506658 L460.406828,258.46167 C460.406828,258.158962 460.507489,257.888687 460.70881,257.650276 C460.955458,257.434056 461.246255,257.325376 461.582379,257.325376 L462.858591,257.325376 C463.194126,257.325376 463.473739,257.434056 463.698018,257.650276 C463.899339,257.888687 464,258.158962 464,258.46167 L464,273.653412 C463.977631,274.735082 463.786906,275.784318 463.429001,276.801691 C462.958663,277.948227 462.231081,278.943978 461.246255,279.788374 C460.327948,280.523523 459.298384,281.086833 458.156976,281.476029 C457.059716,281.800929 455.940676,281.973905 454.798679,281.995527 C453.074498,282.038771 451.417424,281.768496 449.828635,281.184132 C448.485316,280.643013 447.354503,279.820807 446.436785,278.716946 C446.145399,278.370425 446.055923,277.99204 446.167768,277.581222 C446.391458,277.169265 446.705213,276.844935 447.108444,276.607093 C447.533455,276.303816 448.003794,276.163273 448.51887,276.184895 C448.943881,276.25033 449.268821,276.465981 449.492511,276.834124 C450.074694,277.894172 450.847014,278.802865 451.809471,279.560774 C452.68304,280.16619 453.656681,280.480279 454.731572,280.50247 C455.470338,280.50247 456.186736,280.38298 456.880764,280.145137 C457.686637,279.864051 458.358297,279.40942 458.895742,278.781812 C459.433187,278.110961 459.813461,277.364432 460.03774,276.542227 C460.28321,275.611342 460.406828,274.670216 460.406828,273.717709 L460.406828,271.478123 C459.802276,272.668472 458.906927,273.599357 457.720191,274.270208 C456.555824,274.897247 455.30257,275.211335 453.959252,275.211335 C452.794885,275.211335 451.675257,274.972924 450.600955,274.497239 C449.570803,273.999933 448.708418,273.30746 448.014978,272.419819 C447.253843,271.424637 446.716397,270.331588 446.403231,269.141239 C446.134214,268.081191 446,267.009763 446,265.927524 C446,264.824233 446.134214,263.741994 446.403231,262.681377" id="Fill-55" fill="#FFFFFF" mask="url(#mask-2)"></path>
                        <path d="M469.331846,257.587988 C469.572676,257.392183 469.846346,257.305158 470.153433,257.326342 L471.501044,257.326342 C471.807555,257.326342 472.070854,257.435695 472.289791,257.653256 C472.443046,257.893146 472.52025,258.165097 472.52025,258.469683 L472.52025,260.20044 C473.045697,259.264926 473.757816,258.492012 474.656608,257.881695 C475.489142,257.337792 476.39888,257.044085 477.38467,257 C477.997691,257 478.589396,257.076146 479.159782,257.228439 C479.641442,257.381305 480.068368,257.609744 480.441136,257.91433 C480.747647,258.132463 480.934319,258.426171 481,258.796025 C480.934319,259.144695 480.758594,259.438975 480.473977,259.678293 C480.057998,260.026963 479.586708,260.26628 479.060685,260.396817 C478.709811,260.484414 478.392353,260.418573 478.107736,260.20044 C477.779331,259.830586 477.41751,259.504244 477.022849,259.220842 C476.694444,259.003853 476.332623,258.883622 475.938538,258.861866 C475.653344,258.883622 475.390621,258.94889 475.149791,259.057671 C474.777023,259.232292 474.437095,259.47161 474.130584,259.776195 C473.428836,260.451207 472.892442,261.235573 472.52025,262.128146 L472.52025,273.918817 C472.541567,274.201647 472.46494,274.46272 472.289791,274.70261 C472.092748,274.920171 471.840395,275.018074 471.533884,274.99689 L470.022071,274.99689 C469.736878,275.018074 469.485101,274.931049 469.266165,274.735244 C469.068546,274.495354 468.980971,274.223403 469.003441,273.918817 L469.003441,258.469683 C468.980971,258.121585 469.090439,257.827878 469.331846,257.587988" id="Fill-56" fill="#FFFFFF" mask="url(#mask-2)"></path>
                        <path d="M487.7725,272.502812 C487.881173,272.866704 488.06747,273.197975 488.330239,273.49775 C488.657983,273.818335 489.04035,274.053993 489.477917,274.203037 C490.002881,274.353206 490.549121,274.428009 491.118359,274.428009 C492.539731,274.34252 493.829431,273.882452 494.988608,273.048369 C495.534847,272.642295 495.972988,272.150169 496.301307,271.572553 C496.497953,271.1018 496.606626,270.609674 496.62905,270.096175 L496.62905,265.796963 C495.207103,266.117548 493.785732,266.470754 492.36436,266.855456 C491.59905,267.069741 490.855589,267.326209 490.133979,267.625984 C489.565315,267.861642 489.05185,268.170979 488.592434,268.556243 C487.870823,269.241282 487.520655,270.064117 487.54308,271.026434 C487.54308,271.540495 487.618978,272.032621 487.7725,272.502812 M484.557739,268.812711 C484.951606,268.214286 485.443221,267.711474 486.033735,267.304837 C486.908293,266.770529 487.838049,266.353206 488.821855,266.053431 C490.09028,265.732846 491.369054,265.455006 492.659904,265.219348 C493.993302,264.984252 495.316926,264.717098 496.62905,264.417323 C496.62905,263.839708 496.563502,263.262092 496.432404,262.684477 C496.278882,262.042745 496.016112,261.454443 495.64467,260.920135 C494.85751,259.936445 493.819081,259.443757 492.528806,259.443757 C492.06939,259.443757 491.620899,259.497188 491.183908,259.604049 C490.680793,259.754218 490.243227,260.000562 489.871784,260.341957 C489.499766,260.706412 489.182948,261.112486 488.920753,261.561305 C488.636133,262.096738 488.384288,262.652418 488.166368,263.230034 C488.056545,263.572553 487.838049,263.850956 487.509731,264.064117 C487.094014,264.256468 486.657022,264.331834 486.197607,264.289089 C485.935412,264.289089 485.673217,264.256468 485.410447,264.192913 C485.213801,264.150169 485.049929,264.064117 484.918832,263.935883 C484.787734,263.764904 484.721611,263.58324 484.721611,263.390326 C484.721611,263.197975 484.74346,263.005624 484.787734,262.812711 C485.137328,261.251969 485.989461,260.043307 487.345859,259.187289 C488.089319,258.75928 488.887403,258.449381 489.740687,258.256468 C490.658943,258.086052 491.588125,258 492.528806,258 C493.512612,258 494.496992,258.086052 495.480798,258.256468 C496.465179,258.449381 497.361586,258.845332 498.170595,259.443757 C498.848506,260.000562 499.340122,260.695163 499.646591,261.529246 C499.95306,262.513498 500.106007,263.529809 500.106007,264.577615 L500.073232,270 C500.073232,271.412261 500.346352,272.781215 500.893166,274.107424 C501.045538,274.471316 501.035188,274.812711 500.860392,275.133858 C500.575772,275.475816 500.215254,275.711474 499.777688,275.839708 C499.362546,275.989314 498.935905,276.021372 498.498913,275.935883 C498.148745,275.871766 497.864126,275.690101 497.64563,275.390326 C497.208064,274.812711 496.879745,274.182227 496.661825,273.49775 C495.764842,274.353206 494.726413,274.984252 493.545386,275.390326 C492.34251,275.7964 491.106859,276 489.83901,276 C489.007576,276 488.187642,275.860517 487.378633,275.58324 C486.678872,275.347582 486.04466,274.973566 485.475996,274.460067 C484.49219,273.49775 484,272.34252 484,270.994938 C484,270.224972 484.185721,269.49775 484.557739,268.812711" id="Fill-57" fill="#FFFFFF" mask="url(#mask-2)"></path>
                        <path d="M510.058543,268.775109 C510.281188,269.740193 510.661858,270.649931 511.197616,271.5049 C511.689315,272.207094 512.29263,272.787643 513.007562,273.248277 C513.655524,273.621281 514.359293,273.818449 515.118871,273.840356 C515.878449,273.796541 516.571057,273.57689 517.196696,273.182555 C517.911627,272.700589 518.503781,272.10851 518.973157,271.406317 C519.486591,270.551347 519.855512,269.641609 520.078745,268.676525 C520.257331,267.843464 520.357786,266.998871 520.380696,266.144478 C520.380696,265.288932 520.290816,264.444917 520.11223,263.611278 C519.911321,262.669255 519.553561,261.781425 519.040126,260.947786 C518.592486,260.246169 518.023244,259.665044 517.330635,259.20441 C516.638027,258.809498 515.900773,258.601953 515.118871,258.579469 C514.381617,258.601953 513.689008,258.788167 513.041047,259.138687 C512.348439,259.555506 511.756285,260.103771 511.265173,260.78348 C510.706505,261.594634 510.304099,262.493419 510.058543,263.479833 C509.857634,264.357287 509.756592,265.256071 509.756592,266.176763 C509.756592,267.054217 509.857634,267.92014 510.058543,268.775109 M506.338197,257.593054 C506.583753,257.395887 506.863381,257.308257 507.176494,257.329588 L508.550549,257.329588 C508.863074,257.329588 509.130953,257.439702 509.354773,257.658777 C509.510449,257.900336 509.589167,258.17418 509.589167,258.480885 L509.589167,260.585736 C510.304099,259.533599 511.208778,258.667676 512.303792,257.987966 C513.487512,257.308257 514.761112,256.979644 516.124592,257.000975 C517.241342,257.000975 518.302872,257.209673 519.308005,257.625916 C520.335462,258.085973 521.207244,258.733398 521.922175,259.56646 C522.704077,260.509636 523.262745,261.572727 523.597594,262.756885 C523.84315,263.83093 523.977677,264.927459 524,266.045318 C523.977677,267.141847 523.84315,268.227421 523.597594,269.301466 C523.284481,270.507532 522.748723,271.615014 521.989145,272.623336 C521.273626,273.522697 520.402432,274.224314 519.374975,274.728187 C518.302872,275.210152 517.184947,275.451711 516.02355,275.451711 C514.817507,275.451711 513.677847,275.177291 512.605156,274.629603 C511.353879,273.884171 510.348745,272.897757 509.589167,271.669783 L509.589167,280.911294 C509.611491,281.196091 509.533359,281.458982 509.354773,281.700541 C509.153277,281.919616 508.896559,282.0182 508.584034,281.996869 L507.042555,281.996869 C506.751765,282.0182 506.49446,281.93057 506.271227,281.733402 C506.070318,281.491843 505.981025,281.217999 506.003348,280.911294 L506.003348,258.480885 C505.981025,258.130365 506.092641,257.834614 506.338197,257.593054" id="Fill-58" fill="#FFFFFF" mask="url(#mask-2)"></path>
                        <path d="M528.332247,251.256307 C528.573369,251.08581 528.847371,251 529.15483,251 L530.504072,251 C530.810954,251 531.074573,251.107122 531.293774,251.320243 C531.447215,251.555238 531.524513,251.82164 531.524513,252.120571 L531.524513,260.662824 C532.269797,259.639279 533.202557,258.828856 534.321638,258.231555 C535.330542,257.69819 536.405783,257.410475 537.546784,257.36729 C538.379749,257.36729 539.213292,257.463195 540.047411,257.655565 C540.924793,257.89056 541.693152,258.327459 542.351333,258.967385 C542.943754,259.628623 543.35966,260.396422 543.601358,261.270782 C543.864977,262.337512 543.996498,263.425554 543.996498,264.534347 L543.996498,273.940865 C544.017841,274.217923 543.941697,274.473669 543.766336,274.708663 C543.569055,274.921785 543.316396,275.01769 543.008937,274.996939 L541.495294,274.996939 C541.187835,275.01769 540.924793,274.933002 540.705592,274.741193 C540.508311,274.506198 540.42063,274.239235 540.44255,273.940865 L540.44255,263.670644 C540.44255,262.945469 540.365253,262.241607 540.211812,261.559057 C540.058371,261.00438 539.795329,260.5142 539.42211,260.087396 C539.04889,259.703216 538.587991,259.436253 538.039987,259.287068 C537.579664,259.159195 537.096844,259.095258 536.592104,259.095258 C536.197541,259.11657 535.813362,259.191163 535.440143,259.319036 C534.869642,259.532718 534.354519,259.820433 533.893619,260.1833 C532.884715,260.951099 532.094436,261.900612 531.524513,263.030718 L531.524513,273.940865 C531.545856,274.217923 531.469135,274.473669 531.293774,274.708663 C531.096493,274.921785 530.843834,275.01769 530.536952,274.996939 L529.023309,274.996939 C528.73777,275.01769 528.485688,274.933002 528.266487,274.741193 C528.068629,274.506198 527.980948,274.239235 528.003445,273.940865 L528.003445,252.120571 C527.980948,251.779577 528.090549,251.491302 528.332247,251.256307" id="Fill-59" fill="#FFFFFF" mask="url(#mask-2)"></path>
                        <path d="M547.213891,280.829306 C547.368534,280.697853 547.54527,280.66499 547.74468,280.730716 C547.85514,280.774534 547.965018,280.807397 548.076059,280.829306 C548.827768,281.114119 549.612615,281.278435 550.431181,281.322829 C551.116033,281.322829 551.713098,281.081256 552.221795,280.599264 C552.92932,279.875699 553.460109,279.042014 553.814162,278.099362 L554.510641,276.257298 L547.147615,259.154071 C546.992971,258.891167 546.959833,258.617307 547.048201,258.331917 C547.180753,258.090921 547.390626,257.981378 547.678404,258.003286 L549.469017,258.003286 C550.110266,257.981378 550.541641,258.255237 550.762561,258.82544 L556.301254,272.244541 L561.375435,258.82544 C561.552752,258.299054 561.91727,258.025195 562.470151,258.003286 L564.261345,258.003286 C564.526449,257.981378 564.747369,258.069013 564.924686,258.266191 C565.035146,258.551581 565.0241,258.847349 564.891548,259.154071 L556.865181,278.921516 C556.378576,280.149558 555.626867,281.168891 554.610055,281.980667 C553.592661,282.659838 552.475853,283 551.260212,283 C550.508503,283 549.756213,282.934274 549.005086,282.802821 C548.495807,282.692701 548.020829,282.517431 547.578408,282.276435 C547.247029,282.079257 547.069711,281.793866 547.048201,281.421418 C547.025527,281.201754 547.081339,281.004575 547.213891,280.829306" id="Fill-60" fill="#FFFFFF" mask="url(#mask-2)"></path>
                    </g>
                    <text id="延时摄影Time-lapse-photo" font-family="PingFangSC-Light, PingFang SC" font-size="18" font-weight="300" fill="#FFFFFF">
                        <tspan x="321.237" y="509">延时摄影Time-lapse photography</tspan>
                        <tspan x="0" y="541">是一种将时间压缩的拍摄技术，把几分钟、几小时甚至是几天几年的过程压缩在一个较短的时间内以视频的方式播放</tspan>
                        <tspan x="288" y="573">体验平时用肉眼无法察觉的奇异精彩的景象</tspan>
                    </text>
                </g>
            </g>
        </g>
    </g>
</svg>