<?xml version="1.0" encoding="UTF-8"?>
<svg width="20px" height="20px" viewBox="0 0 20 20" version="1.1" xmlns="http://www.w3.org/2000/svg" xmlns:xlink="http://www.w3.org/1999/xlink">
    <!-- Generator: Sketch 52.6 (67491) - http://www.bohemiancoding.com/sketch -->
    <title>联系方式</title>
    <desc>Created with Sketch.</desc>
    <g id="确定页面" stroke="none" stroke-width="1" fill="none" fill-rule="evenodd">
        <g id="联系方式">
            <rect id="矩形" fill-rule="nonzero" x="0" y="0" width="20" height="20"></rect>
            <path d="M14.2683743,16.2801279 C13.6884214,16.8599877 12.8553984,17.1125759 12.0490959,16.9530546 C8.57188071,16.2522613 3.87717358,11.4581744 3.06205545,7.94904732 C2.87281539,7.12637828 3.12287137,6.2647212 3.72369078,5.66914681 L4.03895276,5.35642166 C4.2848362,5.11014171 4.62533462,4.98110337 4.97353636,5.00224349 C5.3217381,5.0233836 5.64395124,5.19265664 5.8579314,5.46685595 L6.77779118,6.60732226 C6.83461855,6.67942674 6.89340623,6.7499794 6.954089,6.81890198 C7.32920934,7.24049149 7.31105909,7.879492 6.91260716,8.27931811 L6.25926819,8.89547954 C5.99974753,9.15399985 5.95334566,9.55636791 6.14726722,9.86668208 C6.87838464,11.0432718 8.85292018,13.0156076 10.1295238,13.7989686 C10.4409114,13.988921 10.8426341,13.941081 11.1001988,13.6833738 L11.6954632,13.1054 C12.0886346,12.7168015 12.7142703,12.6895355 13.1400682,13.0424421 C13.2091261,13.1013157 13.2796678,13.1584433 13.3516256,13.2137701 L14.6427479,14.1860047 C15.119084,14.6623452 15.119084,15.4322327 14.6427479,15.9085733 L14.2683743,16.2801279 Z M10,8.5 C9.72385763,8.5 9.5,8.27614237 9.5,8 C9.5,7.72385763 9.72385763,7.5 10,7.5 C11.3888829,7.5 12.5,8.48765966 12.5,10 C12.5,10.2761424 12.2761424,10.5 12,10.5 C11.7238576,10.5 11.5,10.2761424 11.5,10 C11.5,9.06789589 10.8611171,8.5 10,8.5 Z M10,5.5 C9.72385763,5.5 9.5,5.27614237 9.5,5 C9.5,4.72385763 9.72385763,4.5 10,4.5 C13.0763829,4.5 15.5,6.65432633 15.5,10 C15.5,10.2761424 15.2761424,10.5 15,10.5 C14.7238576,10.5 14.5,10.2761424 14.5,10 C14.5,7.23456256 12.5486171,5.5 10,5.5 Z" id="合并形状" fill="#282828"></path>
        </g>
    </g>
</svg>