<?xml version="1.0" encoding="UTF-8"?>
<svg width="34px" height="30px" viewBox="0 0 34 30" version="1.1" xmlns="http://www.w3.org/2000/svg" xmlns:xlink="http://www.w3.org/1999/xlink">
    <!-- Generator: Sketch 45.1 (43504) - http://www.bohemiancoding.com/sketch -->
    <title>Group 59</title>
    <desc>Created with Sketch.</desc>
    <defs></defs>
    <g id="Page-1" stroke="none" stroke-width="1" fill="none" fill-rule="evenodd">
        <g id="Desktop-HD" transform="translate(-58.000000, -177.000000)" fill="#DC4536">
            <g id="Group-59" transform="translate(58.000000, 177.000000)">
                <polygon id="Fill-1" points="10 7 28 7 28 1 10 1"></polygon>
                <polygon id="Fill-2" points="10 29 32 29 32 23 10 23"></polygon>
                <polygon id="Fill-3" points="10 18 34 18 34 12 10 12"></polygon>
                <polygon id="Fill-5" points="3.8067627 11 4.98359619 13.3841211 7.61352539 13.765885 5.71014404 15.6214099 6.15934204 18.2404626 3.8067627 17.0038086 1.45418335 18.2404626 1.90338135 15.6214099 0 13.765885 2.6299292 13.3841211"></polygon>
                <polygon id="Fill-5-Copy" points="3.8067627 0 4.98359619 2.38412109 7.61352539 2.76588501 5.71014404 4.62140991 6.15934204 7.24046265 3.8067627 6.00380859 1.45418335 7.24046265 1.90338135 4.62140991 0 2.76588501 2.6299292 2.38412109"></polygon>
                <polygon id="Fill-5-Copy-2" points="3.8067627 22 4.98359619 24.3841211 7.61352539 24.765885 5.71014404 26.6214099 6.15934204 29.2404626 3.8067627 28.0038086 1.45418335 29.2404626 1.90338135 26.6214099 0 24.765885 2.6299292 24.3841211"></polygon>
            </g>
        </g>
    </g>
</svg>