<?xml version="1.0" encoding="UTF-8" standalone="no"?>
<svg width="14px" height="14px" viewBox="0 0 14 14" version="1.1" xmlns="http://www.w3.org/2000/svg" xmlns:xlink="http://www.w3.org/1999/xlink">
    <!-- Generator: Sketch 39.1 (31720) - http://www.bohemiancoding.com/sketch -->
    <title>点赞默认</title>
    <desc>Created with Sketch.</desc>
    <defs></defs>
    <g id="Page-1" stroke="none" stroke-width="1" fill="none" fill-rule="evenodd">
        <g id="Desktop-HD" transform="translate(-741.000000, -323.000000)" fill="#999999">
            <g id="点赞默认" transform="translate(741.000000, 322.000000)">
                <g id="图层_1">
                    <path d="M11.1,14.6 L2.7,14.6 C1.2,14.6 0,13.4 0,11.9 L0,8 C0,6.5 1.2,5.3 2.7,5.3 L5.1,5.3 C5.4,5.2 6.5,4.7 6.7,3.1 C7,1.3 8.1,1 8.5,1 C9.3,0.9 10.2,1.6 10.3,2.1 C10.5,2.7 10.6,3.7 10.2,5.3 L11.1,5.3 C12.6,5.3 13.8,6.5 13.8,8 L13.8,11.8 C13.8,13.4 12.6,14.6 11.1,14.6 L11.1,14.6 Z M2.7,6.3 C1.8,6.3 1,7.1 1,8 L1,11.8 C1,12.8 1.8,13.5 2.7,13.5 L11,13.5 C12,13.5 12.7,12.7 12.7,11.8 L12.7,8 C12.7,7 11.9,6.3 11,6.3 L9.6,6.3 C9.4,6.3 9.3,6.2 9.2,6.1 C9.1,6 9,5.8 9.1,5.7 C9.6,3.9 9.5,2.9 9.4,2.5 C9.3,2.3 8.9,2 8.6,2 C8,2.1 7.8,2.8 7.7,3.3 C7.3,5.8 5.3,6.3 5.3,6.3 L5.2,6.3 L2.7,6.3 L2.7,6.3 Z" id="XMLID_3_"></path>
                    <path d="M3.3,13 C3,13 2.8,12.8 2.8,12.5 L2.8,7.4 C2.8,7.1 3,6.9 3.3,6.9 C3.6,6.9 3.8,7.1 3.8,7.4 L3.8,12.5 C3.8,12.8 3.6,13 3.3,13 L3.3,13 Z" id="XMLID_2_"></path>
                </g>
            </g>
        </g>
    </g>
</svg>