<?xml version="1.0" encoding="UTF-8" standalone="no"?>
<svg width="15px" height="13px" viewBox="0 0 15 13" version="1.1" xmlns="http://www.w3.org/2000/svg" xmlns:xlink="http://www.w3.org/1999/xlink">
    <!-- Generator: Sketch 39.1 (31720) - http://www.bohemiancoding.com/sketch -->
    <title>pinglunqian</title>
    <desc>Created with Sketch.</desc>
    <defs></defs>
    <g id="Page-1" stroke="none" stroke-width="1" fill="none" fill-rule="evenodd">
        <g id="Desktop-HD" transform="translate(-850.000000, -325.000000)" fill="#999999">
            <g id="pinglunqian" transform="translate(850.000000, 325.000000)">
                <g id="图层_1">
                    <path d="M7.2,12.6 C7.1,12.6 7,12.6 6.9,12.5 L5.3,11.1 L3,11.1 C1.3,11.1 0,9.8 0,8.1 L0,3 C0,1.3 1.3,0 3,0 L11.5,0 C13.2,0 14.5,1.3 14.5,3 L14.5,8.1 C14.5,9.8 13.2,11.1 11.5,11.1 L9.2,11.1 L7.5,12.5 C7.4,12.6 7.3,12.6 7.2,12.6 L7.2,12.6 Z M3,1 C1.9,1 1,1.9 1,3 L1,8.1 C1,9.2 1.9,10.1 3,10.1 L5.5,10.1 C5.6,10.1 5.7,10.1 5.8,10.2 L7.3,11.4 L8.8,10.2 C8.9,10.1 9,10.1 9.1,10.1 L11.5,10.1 C12.6,10.1 13.5,9.2 13.5,8.1 L13.5,3 C13.5,1.9 12.6,1 11.5,1 L3,1 L3,1 Z" id="XMLID_55_"></path>
                    <circle id="XMLID_47_" cx="3.5" cy="5.5" r="1"></circle>
                    <circle id="XMLID_562_" cx="7.2" cy="5.5" r="1"></circle>
                    <circle id="XMLID_590_" cx="11" cy="5.5" r="1"></circle>
                </g>
            </g>
        </g>
    </g>
</svg>