<?xml version="1.0" encoding="UTF-8"?>
<svg width="122px" height="22px" viewBox="0 0 122 22" version="1.1" xmlns="http://www.w3.org/2000/svg" xmlns:xlink="http://www.w3.org/1999/xlink">
    <!-- Generator: Sketch 52.6 (67491) - http://www.bohemiancoding.com/sketch -->
    <title>站酷字库logo</title>
    <desc>Created with Sketch.</desc>
    <defs>
        <polygon id="path-1" points="2.30769231e-05 0.0392757895 9.23725385 0.0392757895 9.23725385 14.8210526 2.30769231e-05 14.8210526"></polygon>
        <polygon id="path-3" points="0 21.9794358 89.7858462 21.9794358 89.7858462 4.63157895e-05 0 4.63157895e-05"></polygon>
    </defs>
    <g id="确定页面" stroke="none" stroke-width="1" fill="none" fill-rule="evenodd">
        <g id="站酷字库logo">
            <g id="分组-11" transform="translate(93.000000, 1.000000)" fill="#282828">
                <path d="M3.76923077,8.26923077 L5.72342264,4.51495726 L3.86502449,4.51495726 L3.86502449,3.76709402 L6.85378853,3.76709402 L6.85378853,4.5 L4.89959666,8.2542735 L6.85378853,8.2542735 L6.85378853,9.00213675 L3.76923077,9.00213675 L3.76923077,8.26923077 Z M7.29443964,6.01068376 L9.40190147,6.01068376 L9.40190147,6.75854701 L7.29443964,6.75854701 L7.29443964,6.01068376 Z M10.03414,3.76709402 L12.8217373,3.76709402 L12.8217373,4.51495726 L11.0878709,4.51495726 L11.0878709,5.9732906 L12.4481417,5.9732906 L12.4481417,6.72115385 L11.0878709,6.72115385 L11.0878709,9.00213675 L10.03414,9.00213675 L10.03414,3.76709402 Z M14.8525641,9.07692308 C14.3352754,9.07692308 13.939332,8.96225186 13.664722,8.73290598 C13.3901119,8.50356011 13.252809,8.17948927 13.252809,7.76068376 L13.252809,5.00854701 C13.252809,4.5897415 13.3901119,4.26567066 13.664722,4.03632479 C13.939332,3.80697891 14.3352754,3.69230769 14.8525641,3.69230769 C15.3698528,3.69230769 15.7657962,3.80697891 16.0404062,4.03632479 C16.3150163,4.26567066 16.4523192,4.5897415 16.4523192,5.00854701 L16.4523192,7.76068376 C16.4523192,8.17948927 16.3150163,8.50356011 16.0404062,8.73290598 C15.7657962,8.96225186 15.3698528,9.07692308 14.8525641,9.07692308 Z M14.8525641,8.32905983 C15.2165821,8.32905983 15.3985883,8.157053 15.3985883,7.81303419 L15.3985883,4.95619658 C15.3985883,4.61217777 15.2165821,4.44017094 14.8525641,4.44017094 C14.4885461,4.44017094 14.3065399,4.61217777 14.3065399,4.95619658 L14.3065399,7.81303419 C14.3065399,8.157053 14.4885461,8.32905983 14.8525641,8.32905983 Z M17.1611927,3.76709402 L18.4831461,3.76709402 L19.5081389,6.90064103 L19.5272976,6.90064103 L19.5272976,3.76709402 L20.4660761,3.76709402 L20.4660761,9.00213675 L19.383607,9.00213675 L18.1191299,5.18055556 L18.0999712,5.18055556 L18.0999712,9.00213675 L17.1611927,9.00213675 L17.1611927,3.76709402 Z M22.0754105,4.51495726 L20.9737828,4.51495726 L20.9737828,3.76709402 L24.2307692,3.76709402 L24.2307692,4.51495726 L23.1291415,4.51495726 L23.1291415,9.00213675 L22.0754105,9.00213675 L22.0754105,4.51495726 Z" id="Z-FONT"></path>
                <path d="M1.07692308,12.35844 L3.42610191,10.6923077 L3.76923077,10.6923077 L26.9230769,10.6923077 L26.9230769,2.07692308 L1.07692308,2.07692308 L1.07692308,12.35844 Z M1.07692308,1 L25.9230769,1 C26.23031,1 27.8,0.921242105 28.3,0.5 C28,1.41988211 28,2.78938801 28,3.07692308 L28,10.6923077 C28,11.2870759 27.5178451,11.7692308 26.9230769,11.7692308 L3.76923077,11.7692308 L0.849966847,13.8396904 C0.607397959,14.01173 0.271291344,13.9545548 0.0992517128,13.7119859 C0.0346830286,13.6209467 1.47085158e-15,13.5120926 1.11022302e-15,13.4004806 L0,2.07692308 C-7.28380963e-17,1.48215488 0.482154885,1 1.07692308,1 Z" id="矩形-copy-5" fill-rule="nonzero"></path>
            </g>
            <g id="分组-copy-5">
                <path d="M9.83192308,3.31229684 L5.01184615,3.31229684 L6.89169231,2.80490737 C6.79915385,2.55734947 6.67153846,2.27528632 6.51669231,1.96520211 C6.35792308,1.65511789 6.18,1.33854947 5.98269231,1.01897053 C5.78584615,0.696149474 5.57653846,0.395328421 5.36007692,0.116738947 L3.01569231,0.661875789 C3.18992308,0.934212632 3.36,1.22577053 3.53007692,1.53585474 C3.70061538,1.84617053 3.85546154,2.15625474 3.99438462,2.46332842 C4.13769231,2.76716 4.24961538,3.05246526 4.33869231,3.31229684 L0.185538462,3.31229684 L0.185538462,5.95692842 L9.83192308,5.95692842 L9.83192308,3.31229684 Z" id="Fill-1" fill="#282828"></path>
                <path d="M1.8564,17.1172505 L4.10801538,16.5612295 C3.9414,13.5050821 3.56778462,10.4211453 3.06355385,7.41988211 L0.951092308,7.86428211 C1.38378462,10.9132505 1.76178462,14.0240505 1.8564,17.1172505" id="Fill-3" fill="#282828"></path>
                <path d="M17.6348077,12.0204758 C17.7693462,12.0146863 17.9338846,12.0616968 17.9338846,12.3189811 L17.9338846,18.9551074 C17.9318077,19.0878021 17.8674231,19.1443074 17.7398077,19.1260126 L12.5348077,19.1260126 C12.4053462,19.15056 12.3386538,19.0878021 12.3340385,18.9361179 L12.3340385,12.3013811 C12.3109615,12.0503495 12.4475769,11.9915284 12.6564231,12.0204758 L17.6348077,12.0204758 Z M21.1011923,2.55607579 C20.8434231,2.81336 20.5658077,3.13039158 19.8031154,3.18805474 L18.0121154,3.18805474 L18.0121154,3.19384421 L15.9061154,3.19384421 L15.9061154,0.000138947368 L13.2063462,0.000138947368 L13.2063462,9.43512842 L11.3918077,9.43512842 C10.2917308,9.43512842 9.60888462,9.67666526 9.60888462,10.6659705 L9.60888462,20.2790442 C9.60888462,21.3672337 10.2340385,21.7375284 11.4137308,21.7463284 L18.6400385,21.8009811 C20.1225,21.7555916 20.7026538,21.0277389 20.5967308,20.0599705 L20.6292692,10.7581389 C20.6292692,9.80727579 19.7712692,9.43512842 18.7217308,9.43512842 L15.9061154,9.43512842 L15.9061154,5.82597053 L18.0121154,5.82597053 L18.0121154,5.82944421 L19.5887308,5.82944421 C20.4109615,5.82944421 20.8194231,5.45567579 20.9225769,4.76788632 C21.0049615,4.22136 20.8667308,3.77765474 20.8988077,3.41037053 C20.9454231,2.87310737 21.1311923,2.52573895 21.1011923,2.55607579 Z" id="Fill-5" fill="#282828"></path>
                <path d="M40.1291769,8.71098105 L40.1291769,5.84611789 L42.1714846,5.84611789 L42.1714846,5.84588632 L42.3761769,5.84588632 C43.1301,5.84588632 43.5044077,5.50314947 43.5990231,4.87279158 C43.6742538,4.37211789 43.5475615,3.96546526 43.5766385,3.62851789 C43.6195615,3.13618105 43.7905615,2.81799158 43.7628692,2.84508632 C43.5265615,3.08106526 43.2715615,3.37216 42.5727923,3.42496 L42.1714846,3.42496 L42.1714846,3.42380211 L40.1291769,3.42380211 L40.1291769,0.000138947368 L37.7506385,0.000138947368 L37.7506385,3.42380211 L36.2372538,3.42380211 C36.3745615,2.66514947 36.5834077,1.89908632 36.6978692,1.14112842 L34.3887923,0.698581053 C34.3156385,1.31203368 34.2224077,1.92548632 34.1107154,2.54241263 C33.9983308,3.15609684 33.8665615,3.75380211 33.7158692,4.33228632 C33.5651769,4.91077053 33.3948692,5.45428632 33.2012538,5.96630737 C33.0081,6.47531789 32.7955615,6.93291789 32.5553308,7.33679158 C33.3344077,7.66077053 33.8760231,8.05931789 34.5662538,8.54818105 C34.7637923,8.16399158 34.9497923,7.74437053 35.1233308,7.29418105 C35.2977923,6.84051789 35.4600231,6.35860211 35.6109462,5.84611789 L37.7506385,5.84611789 L37.7506385,8.71098105 L33.0429462,8.71098105 L33.0429462,11.1566863 L44.2532538,11.1566863 L44.2532538,8.71098105 L40.1291769,8.71098105 Z" id="Fill-7" fill="#282828"></path>
                <path d="M30.3926769,19.0958379 L25.1779846,19.0958379 C24.9525231,19.0958379 24.9502154,18.9520274 24.9476769,18.8642589 L24.9476769,17.1577537 L30.6202154,17.1577537 L30.6202154,18.8489747 C30.6437538,18.9909326 30.5680615,19.0736063 30.3926769,19.0958379 Z M24.9476769,13.3957537 L25.8818308,14.4390168 C26.6406,13.5796274 27.1455231,12.6359432 27.3019846,11.4944905 C27.3712154,10.98988 27.4026,10.5084274 27.4026,10.0543011 L27.4026,7.45320632 L28.1918308,7.45320632 L28.1918308,11.9636695 C28.1918308,13.3195642 28.5093692,13.6646168 29.8776,13.6646168 L30.6202154,13.6646168 L30.6202154,15.1550589 L24.9476769,15.1550589 L24.9476769,13.3957537 Z M24.9476769,7.67482737 C24.9550615,7.52360632 25.0256769,7.45019579 25.1611385,7.45320632 L25.7599846,7.45320632 L25.7599846,9.83268 C25.7599846,10.1580484 25.7482154,10.5003221 25.7092154,10.8530168 C25.6713692,11.2027011 25.5933692,11.5521537 25.4770615,11.9011432 C25.3616769,12.2505958 25.1832923,12.5847642 24.9476769,12.9064274 L24.9476769,7.67482737 Z M27.2205231,5.14737474 L28.5329077,5.14737474 L28.5329077,3.12105895 L27.2205231,3.12105895 L27.2205231,5.14737474 Z M29.8540615,7.45320632 L30.3986769,7.45320632 C30.5814462,7.45320632 30.6202154,7.47891158 30.6202154,7.69428 L30.6202154,12.0255011 L30.5463692,12.0255011 L30.4577538,12.0255011 L30.0631385,12.0255011 C29.9745231,12.0255011 29.9166,12.0132274 29.8886769,11.9708484 C29.8628308,11.9317116 29.8540615,11.8314379 29.8540615,11.67628 L29.8540615,7.45320632 Z M30.5592923,5.14737474 L30.5592923,3.12105895 L32.9290615,3.12105895 L32.9290615,0.838153684 L22.9256769,0.838153684 L22.9256769,3.12105895 L25.1512154,3.12105895 L25.1512154,5.14737474 C23.6657538,5.14737474 23.0392154,5.21105895 23.0392154,6.35575368 L23.0392154,20.3739221 C23.0392154,21.2446589 23.3138308,21.5985116 25.0598308,21.6017537 L30.7189846,21.6121747 C31.7752154,21.6121747 32.5552154,21.3956484 32.5552154,20.3723011 L32.5552154,7.33695368 L32.5552154,6.26289053 C32.5552154,5.33472211 32.1910615,5.14737474 30.5592923,5.14737474 Z" id="Fill-9" fill="#282828"></path>
                <path d="M40.9684154,19.1849495 L36.4386462,19.1849495 C36.2994923,19.1849495 36.1820308,19.1585495 36.2166462,18.9480442 L36.2166462,15.1631179 C36.2166462,14.9773916 36.1944923,14.8854547 36.4437231,14.8856863 L40.9162615,14.8928653 C41.1168,14.8926337 41.2174154,14.8486337 41.2174154,15.10916 L41.2213385,18.9480442 C41.1885692,19.1138547 41.1045692,19.1930547 40.9684154,19.1849495 M41.9346462,12.4832863 L35.6900308,12.4821284 C34.4962615,12.4821284 33.7852615,12.7975389 33.7852615,13.7889284 L33.7852615,20.2101495 C33.7852615,20.9539811 33.9262615,21.5502968 35.7281077,21.5628021 L41.4714923,21.5984653 C42.7601077,21.6558968 43.4598,21.3553074 43.6033385,20.2645705 L43.6033385,13.9496442 C43.6033385,12.7384863 42.7238769,12.4832863 41.9346462,12.4832863" id="Fill-11" fill="#282828"></path>
                <g id="分组" transform="translate(0.000000, 7.158383)">
                    <mask id="mask-2" fill="white">
                        <use xlink:href="#path-1"></use>
                    </mask>
                    <g id="Clip-14"></g>
                    <path d="M7.03294615,10.2827074 C7.73817692,7.10336 8.15517692,3.78066526 8.63379231,0.539023158 L6.1041,0.0392757895 C5.84171538,3.64032842 5.46902308,7.36874947 4.80440769,10.8938442 C3.88340769,11.12056 3.0171,11.3294442 2.20063846,11.5239705 C1.38879231,11.7180337 0.653792308,11.8762021 2.30769231e-05,12.0054232 L0.603253846,14.8211916 C1.42317692,14.5988758 2.30517692,14.3531705 3.26079231,14.0891705 C4.21248462,13.8258653 5.19533077,13.5477389 6.20886923,13.2554863 C7.22633077,12.9687916 8.23571538,12.6726021 9.23725385,12.3759495 L8.95894615,9.78272842 L7.03294615,10.2827074 Z" id="Fill-13" fill="#282828" mask="url(#mask-2)"></path>
                </g>
                <mask id="mask-4" fill="white">
                    <use xlink:href="#path-3"></use>
                </mask>
                <g id="Clip-16"></g>
                <polygon id="Fill-15" fill="#282828" mask="url(#mask-4)" points="46.5203077 4.72240421 66.657 4.72240421 66.657 2.17480421 46.5203077 2.17480421"></polygon>
                <polygon id="Fill-17" fill="#282828" mask="url(#mask-4)" points="69.8891538 4.55613053 87.9500769 4.55613053 87.9500769 2.17480421 69.8891538 2.17480421"></polygon>
                <polygon id="Fill-18" fill="#282828" mask="url(#mask-4)" points="50.2451538 9.02930947 62.2428462 9.02930947 62.2428462 6.51621474 50.2451538 6.51621474"></polygon>
                <polygon id="Fill-19" fill="#282828" mask="url(#mask-4)" points="46.3043077 14.6633937 66.8732308 14.6633937 66.8732308 12.0187621 46.3043077 12.0187621"></polygon>
                <polygon id="Fill-20" fill="#282828" mask="url(#mask-4)" points="73.3691538 8.66318316 88.7386154 8.66318316 88.7386154 6.51621474 73.3691538 6.51621474"></polygon>
                <polygon id="Fill-21" fill="#282828" mask="url(#mask-4)" points="72.7211538 17.4465095 89.7858462 17.4465095 89.7858462 15.2997726 72.7211538 15.2997726"></polygon>
                <polygon id="Fill-22" fill="#282828" mask="url(#mask-4)" points="80.3603077 21.9773516 82.7291538 21.9773516 82.7291538 9.73933053 80.3603077 9.73933053"></polygon>
                <polygon id="Fill-23" fill="#282828" mask="url(#mask-4)" points="74.5638462 13.4823411 87.9500769 13.4823411 87.9500769 11.3353726 74.5638462 11.3353726"></polygon>
                <polygon id="Fill-24" fill="#282828" mask="url(#mask-4)" points="80.5029692 6.00440211 76.4892 12.5029705 74.5597385 11.3443811 78.5746615 4.91134947"></polygon>
                <polygon id="Fill-25" fill="#282828" mask="url(#mask-4)" points="46.5203077 6.93745684 48.7043077 6.93745684 48.7043077 2.17480421 46.5203077 2.17480421"></polygon>
                <path d="M65.7438692,6.93750316 L64.4824846,6.93750316 L64.4824846,2.17485053 L66.6664846,2.17485053 L66.6664846,6.01165053 C66.6664846,6.52297684 66.2534077,6.93750316 65.7438692,6.93750316" id="Fill-26" fill="#282828" mask="url(#mask-4)"></path>
                <path d="M54.1891846,0.545113684 C54.1891846,0.545113684 55.0294154,1.59787158 55.5121846,3.19553474 C56.5391077,3.07326105 57.1467231,2.92435579 58.0651846,2.68814526 C57.4704923,0.721576842 56.5335692,-2.31578947e-05 56.5335692,-2.31578947e-05 L54.1891846,0.545113684 Z" id="Fill-27" fill="#282828" mask="url(#mask-4)"></path>
                <path d="M77.8995923,0.545113684 C77.8995923,0.545113684 78.7395923,1.59787158 79.2225923,3.19553474 C80.2492846,3.07326105 80.8571308,2.92435579 81.7755923,2.68814526 C81.1809,0.721576842 80.2439769,-2.31578947e-05 80.2439769,-2.31578947e-05 L77.8995923,0.545113684 Z" id="Fill-28" fill="#282828" mask="url(#mask-4)"></path>
                <path d="M60.7960846,7.01756 L55.6314692,10.7017495 L55.6314692,18.9086758 C55.6314692,19.0385916 55.5264692,19.14396 55.3970077,19.14396 L51.7395462,19.14396 L51.7395462,21.8105916 L56.7481615,21.7973916 C57.6839308,21.7973916 58.4450077,21.0412863 58.4540077,20.1022337 L58.5343154,11.5606758 L62.2430077,9.02951789 L60.7960846,7.01756 Z" id="Fill-29" fill="#282828" mask="url(#mask-4)"></path>
                <path d="M66.8803615,1.53587789 C66.6225923,1.79316211 66.3452077,2.11019368 65.5822846,2.16785684 L63.7912846,2.16785684 L63.7912846,4.71267789 L64.4824385,4.71267789 L64.4824385,6.93745684 C64.4824385,6.93745684 66.6574385,6.02179368 66.6669,5.34674105 C66.6747462,4.79419368 66.6459,2.75745684 66.6779769,2.39017263 C66.7243615,1.85290947 66.9105923,1.50554105 66.8803615,1.53587789" id="Fill-30" fill="#282828" mask="url(#mask-4)"></path>
                <path d="M86.0288077,4.55928 L88.2758077,4.55904842 C89.0297308,4.55904842 89.4040385,4.12275368 89.4984231,3.53130105 C89.5736538,3.06119579 89.4471923,2.67978526 89.4762692,2.36344842 C89.5191923,1.90121684 89.6899615,1.60248 89.6625,1.62818526 C89.4261923,1.84980632 89.1711923,2.12283789 88.4724231,2.17216421 L86.0288077,2.17123789 L86.0288077,4.55928 Z" id="Fill-31" fill="#282828" mask="url(#mask-4)"></path>
                <path d="M69.8975077,2.17475789 L69.8975077,17.7090737 C69.8975077,20.3018316 68.8585846,20.5280842 68.1863538,20.8921263 C68.4166615,21.1257895 69.2760462,21.7313684 69.2760462,21.7313684 C70.0638923,22.1757684 71.1233538,21.8990316 71.6497385,21.1616842 C72.0344308,20.6230316 72.3028154,20.0894737 72.3028154,18.8130105 C72.3028154,16.0662526 72.3021231,2.17475789 72.3021231,2.17475789 L69.8975077,2.17475789 Z" id="Fill-32" fill="#282828" mask="url(#mask-4)"></path>
            </g>
        </g>
    </g>
</svg>