<?xml version="1.0" encoding="UTF-8" standalone="no"?>
<svg width="25px" height="24px" viewBox="0 0 25 24" version="1.1" xmlns="http://www.w3.org/2000/svg" xmlns:xlink="http://www.w3.org/1999/xlink">
    <!-- Generator: Sketch 39.1 (31720) - http://www.bohemiancoding.com/sketch -->
    <title>作品点赞默认</title>
    <desc>Created with Sketch.</desc>
    <defs></defs>
    <g id="Page-1" stroke="none" stroke-width="1" fill="none" fill-rule="evenodd">
        <g id="Desktop-HD" transform="translate(-646.000000, -122.000000)">
            <g id="Group-22" transform="translate(646.000000, 122.000000)">
                <path d="M19.2,7.7 L17.9,7.7 C18.5,5.1 18.4,3.3 18.1,2.3 C17.8,1.2 16.3,0.2 15,0.2 C14.2,0.2 12.2,0.6 11.7,4 C11.3,6.7 9.4,7.5 9,7.6 L4.9,7.6 C2.2,7.6 0,9.8 0,12.5 L0,19.1 C0,21.8 2.2,24 4.9,24 L19.3,24 C22,24 24.2,21.8 24.2,19.1 L24.2,12.5 C24.1,9.9 21.9,7.7 19.2,7.7 L19.2,7.7 Z" id="XMLID_588_" fill="#282828"></path>
                <path d="M5.8,21.3 C5.2,21.3 4.8,20.9 4.8,20.3 L4.8,11.5 C4.8,10.9 5.2,10.5 5.8,10.5 C6.4,10.5 6.8,10.9 6.8,11.5 L6.8,20.3 C6.8,20.9 6.3,21.3 5.8,21.3 L5.8,21.3 Z" id="XMLID_28_" fill="#FFD100"></path>
            </g>
        </g>
    </g>
</svg>