<?xml version="1.0" encoding="UTF-8"?>
<svg width="23px" height="23px" viewBox="0 0 23 23" version="1.1" xmlns="http://www.w3.org/2000/svg" xmlns:xlink="http://www.w3.org/1999/xlink">
    <!-- Generator: Sketch 47.1 (45422) - http://www.bohemiancoding.com/sketch -->
    <title>Group 16</title>
    <desc>Created with Sketch.</desc>
    <defs></defs>
    <g id="Page-1" stroke="none" stroke-width="1" fill="none" fill-rule="evenodd">
        <g id="同城首页" transform="translate(-590.000000, -3735.000000)" fill="#000000">
            <g id="Group-16" transform="translate(590.000000, 3735.000000)">
                <g id="Page-1">
                    <path d="M11.34345,4.9956 C10.73895,4.9956 10.24695,5.4891 10.24695,6.0936 C10.24695,6.6996 10.73895,7.1916 11.34345,7.1916 C11.94945,7.1916 12.44145,6.6996 12.44145,6.0936 C12.44145,5.4891 11.94945,4.9956 11.34345,4.9956 M11.34345,8.6931 C9.91095,8.6931 8.74395,7.5276 8.74395,6.0936 C8.74395,4.6611 9.91095,3.4941 11.34345,3.4941 C12.77745,3.4941 13.94445,4.6611 13.94445,6.0936 C13.94445,7.5276 12.77745,8.6931 11.34345,8.6931 M5.46795,8.0451 C5.19495,8.0451 4.97445,8.2671 4.97445,8.5401 C4.97445,8.8116 5.19495,9.0336 5.46795,9.0336 C5.74095,9.0336 5.95995,8.8116 5.95995,8.5401 C5.95995,8.2671 5.74095,8.0451 5.46795,8.0451 M5.46795,10.5351 C4.36845,10.5351 3.47145,9.6411 3.47145,8.5401 C3.47145,7.4391 4.36845,6.5436 5.46795,6.5436 C6.56745,6.5436 7.46295,7.4391 7.46295,8.5401 C7.46295,9.6411 6.56745,10.5351 5.46795,10.5351 M10.95945,1.6356 C5.82345,1.6356 1.64595,5.8146 1.64595,10.9506 C1.64595,12.6006 2.09295,14.2311 2.94045,15.6636 L3.17895,16.0641 L2.92545,16.4541 C1.89345,18.0426 1.60995,18.7731 1.53345,19.0776 C3.70695,18.8706 8.90295,14.5101 11.90295,11.5596 C16.35195,7.1841 19.37445,3.1941 19.51545,1.5276 C19.27995,1.5771 18.85245,1.7076 18.13995,2.0526 C17.99145,2.1246 17.63445,2.3436 17.11095,2.6631 C16.92795,2.7756 16.76895,2.8701 16.66245,2.9346 L16.55145,3.0051 L16.16445,3.2316 L15.78195,2.9976 C14.31945,2.1066 12.65145,1.6356 10.95945,1.6356 M1.32495,20.5416 C0.95595,20.5416 0.57345,20.3811 0.32745,20.1231 C-0.32205,19.4451 -0.02805,18.3156 1.41945,16.0206 C0.58395,14.4576 0.14295,12.7146 0.14295,10.9506 C0.14295,4.9866 4.99695,0.1341 10.95945,0.1341 C12.77295,0.1341 14.56245,0.5991 16.16145,1.4826 L16.31445,1.3896 C16.91745,1.0236 17.31645,0.7836 17.48445,0.7026 C18.24345,0.3336 20.25495,-0.6414 20.88345,0.6441 C20.99295,0.9801 21.02295,1.1901 21.02295,1.4076 C21.02445,4.3716 15.38145,10.2441 12.95445,12.6306 C11.61345,13.9521 4.74045,20.5416 1.32495,20.5416" id="Fill-1"></path>
                    <path d="M14.7609,15.1683 C14.3109,15.1683 13.9449,15.5343 13.9449,15.9843 C13.9449,16.4358 14.3109,16.8018 14.7609,16.8018 C15.2124,16.8018 15.5784,16.4358 15.5784,15.9843 C15.5784,15.5343 15.2124,15.1683 14.7609,15.1683 M14.7609,18.3048 C13.4814,18.3048 12.4419,17.2623 12.4419,15.9843 C12.4419,14.7048 13.4814,13.6653 14.7609,13.6653 C16.0404,13.6653 17.0814,14.7048 17.0814,15.9843 C17.0814,17.2623 16.0404,18.3048 14.7609,18.3048 M11.8554,22.6398 C9.7644,22.6398 7.7274,22.0323 5.9649,20.8833 C5.6169,20.6568 5.5194,20.1918 5.7459,19.8438 C5.9739,19.4958 6.4404,19.3983 6.7854,19.6263 C8.3019,20.6148 10.0554,21.1368 11.8554,21.1368 C16.9914,21.1368 21.1689,16.9593 21.1689,11.8248 C21.1689,10.1193 20.6934,8.4408 19.7904,6.9723 C19.5729,6.6183 19.6824,6.1563 20.0379,5.9403 C20.3874,5.7243 20.8524,5.8323 21.0699,6.1863 C22.1169,7.8918 22.6719,9.8418 22.6719,11.8248 C22.6719,17.7873 17.8194,22.6398 11.8554,22.6398" id="Fill-3"></path>
                </g>
            </g>
        </g>
    </g>
</svg>