<?xml version="1.0" encoding="UTF-8"?>
<svg width="27px" height="25px" viewBox="0 0 27 25" version="1.1" xmlns="http://www.w3.org/2000/svg" xmlns:xlink="http://www.w3.org/1999/xlink">
    <!-- Generator: Sketch 47.1 (45422) - http://www.bohemiancoding.com/sketch -->
    <title>下载默认 copy 2</title>
    <desc>Created with Sketch.</desc>
    <defs></defs>
    <g id="Page-1" stroke="none" stroke-width="1" fill="none" fill-rule="evenodd">
        <g id="同城首页" transform="translate(-225.000000, -3730.000000)" fill="#282828">
            <g id="下载默认-copy-2" transform="translate(225.000000, 3730.000000)">
                <path d="M19.4625,20 L19.2375,20 C18.7875,20 18.3375,19.6571429 18.3375,19.0857143 C18.3375,18.5142857 18.675,18.1714286 19.2375,18.1714286 L19.4625,18.1714286 C22.725,18.1714286 25.3125,15.5428571 25.3125,12.2285714 C25.3125,9.25714286 23.175,6.85714286 20.25,6.4 L19.8,6.28571429 L19.575,5.82857143 C18.5625,3.42857143 15.975,1.71428571 13.275,1.71428571 C9.9,1.71428571 7.0875,4.22857143 6.4125,7.65714286 L6.3,8.22857143 L5.7375,8.34285714 C3.375,8.8 1.6875,10.8571429 1.6875,13.1428571 C1.6875,15.8857143 3.9375,18.1714286 6.6375,18.1714286 L6.75,18.1714286 C7.2,18.1714286 7.65,18.5142857 7.65,19.0857143 C7.65,19.6571429 7.3125,20 6.75,20 L6.525,20 C2.925,19.8857143 0,16.9142857 0,13.1428571 C0,10.1714286 2.025,7.54285714 4.8375,6.74285714 C5.85,2.74285714 9.225,0 13.1625,0 C16.5375,0 19.575,1.94285714 20.925,5.02857143 C24.525,5.71428571 27,8.8 27,12.3428571 C27,16.6857143 23.7375,20 19.4625,20" id="Fill-1"></path>
                <g id="Group-47" transform="translate(13.500000, 17.000000) scale(1, -1) translate(-13.500000, -17.000000) translate(9.000000, 9.000000)">
                    <path d="M4.27547669,15.2 L0.689459746,11.5570621 C0.342425847,11.2045198 0.342425847,10.6169492 0.689459746,10.2644068 C1.03649364,9.91186441 1.61488347,9.91186441 1.96191737,10.2644068 L4.39115466,12.7322034 L6.82039195,10.2644068 C7.16742585,9.91186441 7.74581568,9.91186441 8.09284958,10.2644068 C8.43988347,10.6169492 8.43988347,11.2045198 8.09284958,11.5570621 L4.27547669,15.2 Z" id="Fill-3"></path>
                    <path d="M4.3875,14.4 C3.9375,14.4 3.4875,14.0571429 3.4875,13.4857143 L3.4875,1.48571429 C3.4875,1.02857143 3.825,0.571428571 4.3875,0.571428571 C4.8375,0.571428571 5.175,0.914285714 5.175,1.48571429 L5.175,13.6 C5.175,14.0571429 4.8375,14.4 4.3875,14.4" id="Fill-5"></path>
                </g>
            </g>
        </g>
    </g>
</svg>