<?xml version="1.0" encoding="UTF-8"?>
<svg width="27px" height="19px" viewBox="0 0 27 19" version="1.1" xmlns="http://www.w3.org/2000/svg" xmlns:xlink="http://www.w3.org/1999/xlink">
    <!-- Generator: Sketch 47.1 (45422) - http://www.bohemiancoding.com/sketch -->
    <title>Group 17</title>
    <desc>Created with Sketch.</desc>
    <defs>
        <polygon id="path-1" points="0.000675 18.6666667 26.452575 18.6666667 26.452575 0.1712 0.000675 0.1712"></polygon>
    </defs>
    <g id="Page-1" stroke="none" stroke-width="1" fill="none" fill-rule="evenodd">
        <g id="同城首页" transform="translate(-406.000000, -3734.000000)">
            <g id="Group-17" transform="translate(406.000000, 3734.000000)">
                <g id="Page-1">
                    <g id="Group-3" transform="translate(0.000000, 0.051022)">
                        <mask id="mask-2" fill="white">
                            <use xlink:href="#path-1"></use>
                        </mask>
                        <g id="Clip-2"></g>
                        <path d="M3.375675,1.50586667 C2.259225,1.50586667 1.350675,2.4032 1.350675,3.50586667 L1.350675,15.3325333 C1.350675,16.4352 2.259225,17.3312 3.375675,17.3312 L23.077575,17.3312 C24.192675,17.3312 25.101225,16.4352 25.101225,15.3325333 L25.101225,3.50586667 C25.101225,2.4032 24.192675,1.50586667 23.077575,1.50586667 L3.375675,1.50586667 Z M23.077575,18.6672 L3.375675,18.6672 C1.514025,18.6672 0.000675,17.1712 0.000675,15.3325333 L0.000675,3.50586667 C0.000675,1.6672 1.514025,0.1712 3.375675,0.1712 L23.077575,0.1712 C24.939225,0.1712 26.452575,1.6672 26.452575,3.50586667 L26.452575,15.3325333 C26.452575,17.1712 24.939225,18.6672 23.077575,18.6672 L23.077575,18.6672 Z" id="Fill-1" fill="#000000" mask="url(#mask-2)"></path>
                    </g>
                    <path d="M8.72883,4.71315556 C7.58808,4.71315556 6.65928,5.63048889 6.65928,6.75715556 C6.65928,7.88515556 7.58808,8.80248889 8.72883,8.80248889 C9.87093,8.80248889 10.79973,7.88515556 10.79973,6.75715556 C10.79973,5.63048889 9.87093,4.71315556 8.72883,4.71315556 M8.72883,10.1371556 C6.84288,10.1371556 5.30793,8.62115556 5.30793,6.75715556 C5.30793,4.89448889 6.84288,3.37848889 8.72883,3.37848889 C10.61478,3.37848889 12.15108,4.89448889 12.15108,6.75715556 C12.15108,8.62115556 10.61478,10.1371556 8.72883,10.1371556" id="Fill-4" fill="#000000"></path>
                    <path d="M13.32396,15.4260889 C12.95136,15.4260889 12.64896,15.1260889 12.64896,14.7580889 C12.64896,12.6234222 10.88991,10.8874222 8.72856,10.8874222 C6.56856,10.8874222 4.80951,12.6234222 4.80951,14.7580889 C4.80951,15.1260889 4.50711,15.4260889 4.13451,15.4260889 C3.76191,15.4260889 3.45816,15.1260889 3.45816,14.7580889 C3.45816,11.8874222 5.82336,9.55275556 8.72856,9.55275556 C11.63511,9.55275556 13.99896,11.8874222 13.99896,14.7580889 C13.99896,15.1260889 13.69656,15.4260889 13.32396,15.4260889" id="Fill-6" fill="#000000"></path>
                    <path d="M21.93021,6.29582222 L15.18021,6.29582222 C14.80761,6.29582222 14.50521,5.99715556 14.50521,5.62915556 C14.50521,5.26115556 14.80761,4.96248889 15.18021,4.96248889 L21.93021,4.96248889 C22.30281,4.96248889 22.60521,5.26115556 22.60521,5.62915556 C22.60521,5.99715556 22.30281,6.29582222 21.93021,6.29582222" id="Fill-8" fill="#000000"></path>
                    <path d="M21.93021,10.2958222 L13.83021,10.2958222 C13.45761,10.2958222 13.15521,9.99715556 13.15521,9.62915556 C13.15521,9.26115556 13.45761,8.96248889 13.83021,8.96248889 L21.93021,8.96248889 C22.30281,8.96248889 22.60521,9.26115556 22.60521,9.62915556 C22.60521,9.99715556 22.30281,10.2958222 21.93021,10.2958222" id="Fill-10" fill="#000000"></path>
                    <path d="M21.93021,14.2958222 L16.53021,14.2958222 C16.15761,14.2958222 15.85521,13.9971556 15.85521,13.6291556 C15.85521,13.2611556 16.15761,12.9624889 16.53021,12.9624889 L21.93021,12.9624889 C22.30281,12.9624889 22.60521,13.2611556 22.60521,13.6291556 C22.60521,13.9971556 22.30281,14.2958222 21.93021,14.2958222" id="Fill-12" fill="#000000"></path>
                </g>
            </g>
        </g>
    </g>
</svg>