<?xml version="1.0" encoding="UTF-8"?>
<svg width="220px" height="60px" viewBox="0 0 220 60" version="1.1" xmlns="http://www.w3.org/2000/svg" xmlns:xlink="http://www.w3.org/1999/xlink">
    <!-- Generator: Sketch 46.2 (44496) - http://www.bohemiancoding.com/sketch -->
    <title>H-android</title>
    <desc>Created with Sketch.</desc>
    <defs></defs>
    <g id="Page-2" stroke="none" stroke-width="1" fill="none" fill-rule="evenodd">
        <g id="H-android">
            <path d="M95.648,24.576 L97.168,24.576 L101.664,36 L100.24,36 L99.024,32.8 L93.776,32.8 L92.56,36 L91.152,36 L95.648,24.576 Z M94.192,31.696 L98.608,31.696 L96.448,25.984 L96.384,25.984 L94.192,31.696 Z M106.528,27.504 C105.984,27.504 105.488,27.632 105.04,27.888 C104.592,28.128 104.224,28.48 103.936,28.944 L103.936,27.728 L102.656,27.728 L102.656,36 L103.936,36 L103.936,31.008 C103.984,30.256 104.224,29.664 104.672,29.216 C105.088,28.8 105.584,28.592 106.16,28.592 C107.6,28.592 108.336,29.392 108.336,31.008 L108.336,36 L109.616,36 L109.616,30.912 C109.616,28.64 108.576,27.504 106.528,27.504 Z M117.712,24.352 L118.992,24.352 L118.992,36 L117.792,36 L117.792,34.64 C117.216,35.696 116.288,36.224 115.04,36.224 C113.824,36.224 112.88,35.776 112.208,34.912 C111.584,34.112 111.28,33.088 111.28,31.84 C111.28,30.624 111.584,29.632 112.208,28.832 C112.88,27.936 113.792,27.504 114.976,27.504 C116.16,27.504 117.072,28.08 117.712,29.248 L117.712,24.352 Z M115.248,28.56 C114.336,28.56 113.648,28.88 113.2,29.52 C112.784,30.08 112.592,30.848 112.592,31.84 C112.592,32.832 112.784,33.616 113.184,34.192 C113.632,34.832 114.304,35.168 115.2,35.168 C116.032,35.168 116.672,34.848 117.136,34.208 C117.536,33.632 117.744,32.88 117.744,31.952 L117.744,31.792 C117.744,30.832 117.504,30.048 117.056,29.456 C116.592,28.848 115.984,28.56 115.248,28.56 Z M124.608,27.504 C124.032,27.504 123.536,27.68 123.104,28.032 C122.752,28.304 122.464,28.688 122.24,29.168 L122.24,27.728 L120.976,27.728 L120.976,36 L122.24,36 L122.24,31.616 C122.24,30.848 122.448,30.192 122.896,29.648 C123.328,29.072 123.872,28.8 124.512,28.8 C124.912,28.8 125.328,28.848 125.744,28.976 L125.744,27.696 C125.44,27.568 125.056,27.504 124.608,27.504 Z M130.512,27.504 C131.744,27.504 132.736,27.92 133.472,28.784 C134.176,29.6 134.528,30.624 134.528,31.872 C134.528,33.104 134.176,34.128 133.488,34.928 C132.736,35.792 131.744,36.224 130.512,36.224 C129.264,36.224 128.288,35.792 127.552,34.928 C126.848,34.128 126.496,33.104 126.496,31.872 C126.496,30.624 126.848,29.6 127.552,28.784 C128.288,27.92 129.264,27.504 130.512,27.504 Z M130.512,28.576 C129.632,28.576 128.944,28.912 128.464,29.584 C128.016,30.192 127.808,30.944 127.808,31.872 C127.808,32.784 128.016,33.536 128.464,34.144 C128.944,34.816 129.632,35.152 130.512,35.152 C131.376,35.152 132.064,34.816 132.576,34.144 C133.008,33.536 133.232,32.768 133.232,31.872 C133.232,30.944 133.008,30.192 132.576,29.584 C132.064,28.912 131.376,28.576 130.512,28.576 Z M137.248,24.608 C136.976,24.608 136.752,24.688 136.56,24.88 C136.368,25.04 136.288,25.264 136.288,25.552 C136.288,25.824 136.368,26.048 136.56,26.24 C136.752,26.416 136.976,26.512 137.248,26.512 C137.52,26.512 137.744,26.416 137.936,26.24 C138.128,26.048 138.224,25.824 138.224,25.552 C138.224,25.264 138.128,25.04 137.936,24.88 C137.744,24.688 137.52,24.608 137.248,24.608 Z M136.608,27.728 L136.608,36 L137.888,36 L137.888,27.728 L136.608,27.728 Z M146.4,24.352 L147.68,24.352 L147.68,36 L146.48,36 L146.48,34.64 C145.904,35.696 144.976,36.224 143.728,36.224 C142.512,36.224 141.568,35.776 140.896,34.912 C140.272,34.112 139.968,33.088 139.968,31.84 C139.968,30.624 140.272,29.632 140.896,28.832 C141.568,27.936 142.48,27.504 143.664,27.504 C144.848,27.504 145.76,28.08 146.4,29.248 L146.4,24.352 Z M143.936,28.56 C143.024,28.56 142.336,28.88 141.888,29.52 C141.472,30.08 141.28,30.848 141.28,31.84 C141.28,32.832 141.472,33.616 141.872,34.192 C142.32,34.832 142.992,35.168 143.888,35.168 C144.72,35.168 145.36,34.848 145.824,34.208 C146.224,33.632 146.432,32.88 146.432,31.952 L146.432,31.792 C146.432,30.832 146.192,30.048 145.744,29.456 C145.28,28.848 144.672,28.56 143.936,28.56 Z M158.64,23.104 L159.76,23.104 L159.76,27.344 L160.704,27.344 L160.704,28.48 L156.928,28.48 L156.928,29.296 C156.928,29.792 156.912,30.272 156.896,30.736 L159.968,30.736 L159.968,37.536 L158.832,37.536 L158.832,31.84 L156.832,31.84 C156.64,34.24 156.208,36.064 155.52,37.344 L154.656,36.576 C155.392,35.056 155.776,32.624 155.792,29.296 L155.792,23.424 L156.928,23.424 L156.928,27.344 L158.64,27.344 L158.64,23.104 Z M162.672,28.656 L162.672,30.416 C162.608,33.392 162.08,35.76 161.12,37.52 L160.32,36.672 C161.12,35.168 161.552,33.072 161.616,30.416 L161.616,24.064 C164.128,24.032 166.4,23.696 168.416,23.056 L168.992,24.096 C167.104,24.64 164.992,24.96 162.672,25.056 L162.672,27.568 L168.592,27.568 L168.592,28.544 C168.224,30.768 167.52,32.64 166.496,34.16 C167.28,35.216 168.24,36.016 169.376,36.592 L168.8,37.6 C167.6,36.976 166.592,36.144 165.792,35.088 C164.912,36.112 163.856,36.96 162.64,37.616 L162.08,36.592 C163.28,35.936 164.288,35.104 165.12,34.112 C164.208,32.624 163.568,30.8 163.2,28.656 L162.672,28.656 Z M164.24,28.656 C164.592,30.4 165.12,31.888 165.824,33.136 C166.624,31.856 167.184,30.352 167.472,28.656 L164.24,28.656 Z" id="Android-版" fill="#000000"></path>
            <path d="M67,32.6341416 L30,32.6341416 L30,31.6341416 C30,25.7931475 32.9457806,20.6401774 37.4327441,17.5798287 L34.5,12.500167 C34.2238576,12.0218744 34.3877328,11.4102839 34.8660254,11.1341416 L34.8660254,11.1341416 L34.8660254,11.1341416 C35.344318,10.8579992 35.9559084,11.0218744 36.2320508,11.500167 L39.1486493,16.5518637 C41.4972376,15.3267615 44.1677338,14.6341416 47,14.6341416 L47,14.6341416 L50,14.6341416 L50,14.6341416 C52.9039658,14.6341416 55.6378673,15.3622731 58.0290945,16.6459262 L61,11.500167 L61,11.500167 C61.2761424,11.0218744 61.8877328,10.8579992 62.3660254,11.1341416 L62.3660254,11.1341416 L62.3660254,11.1341416 C62.844318,11.4102839 63.0081932,12.0218744 62.7320508,12.500167 L59.7331476,17.6944197 C64.1266868,20.7678372 67,25.8654403 67,31.6341416 L67,32.6341416 Z M67,33.6341416 L67,45.6341416 C67,47.2909958 65.6568542,48.6341416 64,48.6341416 L33,48.6341416 C31.3431458,48.6341416 30,47.2909958 30,45.6341416 L30,33.6341416 L67,33.6341416 Z M40.5,27.6341416 C41.8807119,27.6341416 43,26.5148534 43,25.1341416 C43,23.7534297 41.8807119,22.6341416 40.5,22.6341416 C39.1192881,22.6341416 38,23.7534297 38,25.1341416 C38,26.5148534 39.1192881,27.6341416 40.5,27.6341416 Z M56.5,27.6341416 C57.8807119,27.6341416 59,26.5148534 59,25.1341416 C59,23.7534297 57.8807119,22.6341416 56.5,22.6341416 C55.1192881,22.6341416 54,23.7534297 54,25.1341416 C54,26.5148534 55.1192881,27.6341416 56.5,27.6341416 Z" id="Combined-Shape-Copy-2" fill="#282828"></path>
        </g>
    </g>
</svg>