<?xml version="1.0" encoding="UTF-8"?>
<svg width="387px" height="53px" viewBox="0 0 387 53" version="1.1" xmlns="http://www.w3.org/2000/svg" xmlns:xlink="http://www.w3.org/1999/xlink">
    <!-- Generator: Sketch 46.2 (44496) - http://www.bohemiancoding.com/sketch -->
    <title>全新个性化首页</title>
    <desc>Created with Sketch.</desc>
    <defs></defs>
    <g id="Page-2" stroke="none" stroke-width="1" fill="none" fill-rule="evenodd">
        <g id="下载页-更多状态" transform="translate(-282.000000, -832.000000)" fill="#282828">
            <g id="全新首页" transform="translate(0.000000, 700.000000)">
                <path d="M307.328,134.032 L308.672,134.032 C315.84,141.648 324.016,147.696 333.312,152.064 L332.36,153.688 C322.84,149.096 314.72,143.104 308,135.824 C301.784,142.88 293.608,149.04 283.416,154.192 L282.52,152.512 C292.432,147.584 300.72,141.424 307.328,134.032 Z M292.432,152.12 L323.68,152.12 L323.68,153.968 L308.952,153.968 L308.952,165.84 L325.976,165.84 L325.976,167.688 L308.952,167.688 L308.952,180.512 L331.072,180.512 L331.072,182.416 L284.984,182.416 L284.984,180.512 L307.048,180.512 L307.048,167.688 L289.968,167.688 L289.968,165.84 L307.048,165.84 L307.048,153.968 L292.432,153.968 L292.432,152.12 Z M386.232,134.312 L387.184,136.048 C382.144,138.4 376.432,139.744 370.048,140.08 L370.048,152.008 L389.536,152.008 L389.536,153.856 L382.872,153.856 L382.872,184.656 L381.024,184.656 L381.024,153.856 L370.048,153.856 L370.048,162.088 C369.768,171.384 367.696,178.776 363.832,184.32 L362.432,182.864 C365.96,177.88 367.864,170.936 368.144,162.088 L368.144,138.512 C374.752,138.344 380.8,136.944 386.232,134.312 Z M339.64,139.016 L351.456,139.016 C350.56,136.776 349.552,134.816 348.432,133.08 L350.448,132.744 C351.456,134.536 352.464,136.664 353.36,139.016 L364.392,139.016 L364.392,140.92 L339.64,140.92 L339.64,139.016 Z M339.136,151.728 L346.36,151.728 C345.464,149.04 344.232,146.52 342.664,144.168 L344.456,143.552 C345.856,145.792 347.088,148.536 348.208,151.728 L355.488,151.728 C357.056,149.04 358.344,146.24 359.464,143.272 L361.256,143.888 C360.08,146.8 358.736,149.432 357.28,151.728 L364.784,151.728 L364.784,153.576 L353.192,153.576 L353.192,161.808 L363.776,161.808 L363.776,163.6 L353.192,163.6 L353.192,180.792 C353.192,183.312 351.904,184.6 349.384,184.6 L346.248,184.6 L345.856,182.752 C346.864,182.808 347.872,182.864 348.768,182.864 C350.448,182.864 351.288,182.024 351.288,180.4 L351.288,163.6 L339.92,163.6 L339.92,161.808 L351.288,161.808 L351.288,153.576 L339.136,153.576 L339.136,151.728 Z M344.848,167.576 L346.696,167.968 C345.072,173.624 342.776,178.552 339.808,182.752 L338.184,181.688 C341.152,177.656 343.392,172.952 344.848,167.576 Z M358.512,167.128 C360.584,170.936 362.152,174.408 363.272,177.544 L361.648,178.16 C360.304,174.576 358.736,171.048 356.832,167.576 L358.512,167.128 Z M419.048,149.88 L420.952,149.88 L420.952,184.264 L419.048,184.264 L419.048,149.88 Z M419.104,133.64 L420.896,133.64 C425.712,141.648 433.944,148.704 445.648,154.864 L444.528,156.544 C433.552,150.832 425.376,143.832 420,135.432 C413.504,144.728 405.328,151.952 395.472,156.992 L394.352,155.256 C405.048,149.712 413.28,142.488 419.104,133.64 Z M452.928,144.056 C452.76,149.544 452.032,154.808 450.8,159.736 L452.48,160.24 C453.712,155.2 454.44,149.824 454.552,144.224 L452.928,144.056 Z M465.024,143.16 C466.368,146.016 467.544,149.264 468.664,152.96 L467.04,153.408 C466.088,150.048 464.912,146.8 463.456,143.664 L465.024,143.16 Z M459.312,133.696 L459.312,184.096 L461.216,184.096 L461.216,133.696 L459.312,133.696 Z M474.208,146.8 C473.2,151.224 471.576,155.312 469.448,159.008 L467.992,157.72 C471.464,151.56 473.312,144.504 473.648,136.664 L475.44,136.888 C475.328,139.688 475.048,142.376 474.6,144.952 L484.848,144.952 L484.848,133.696 L486.752,133.696 L486.752,144.952 L499.856,144.952 L499.856,146.8 L486.752,146.8 L486.752,162.2 L498.624,162.2 L498.624,164.104 L486.752,164.104 L486.752,180.512 L501.256,180.512 L501.256,182.416 L467.992,182.416 L467.992,180.512 L484.848,180.512 L484.848,164.104 L471.408,164.104 L471.408,162.2 L484.848,162.2 L484.848,146.8 L474.208,146.8 Z M524.608,133.248 L526.4,134.088 C524.272,139.016 521.696,143.552 518.616,147.696 L518.616,184.488 L516.712,184.488 L516.712,150.104 C513.856,153.576 510.664,156.824 507.08,159.792 L506.464,157.832 C514.92,150.496 520.968,142.32 524.608,133.248 Z M549.192,183.424 L538.104,183.424 C535.08,183.424 533.624,181.856 533.624,178.776 L533.624,159.456 C530.768,161.136 527.8,162.76 524.776,164.216 L523.824,162.368 C527.296,160.8 530.6,159.064 533.624,157.16 L533.624,133.696 L535.528,133.696 L535.528,155.984 C542.024,151.784 547.68,146.856 552.496,141.256 L553.84,142.712 C548.744,148.592 542.64,153.8 535.528,158.28 L535.528,178.496 C535.528,180.512 536.536,181.52 538.552,181.52 L548.856,181.52 C550.648,181.52 551.936,181.016 552.72,180.008 C553.504,179 554.008,175.36 554.232,169.088 L556.024,169.648 C555.688,176.088 555.128,180.008 554.232,181.408 C553.28,182.752 551.6,183.424 549.192,183.424 Z M605.808,151 L605.808,184.376 L603.904,184.376 L603.904,181.688 L572.096,181.688 L572.096,184.376 L570.192,184.376 L570.192,151 L585.424,151 C586.096,148.648 586.544,146.184 586.88,143.552 L563.472,143.552 L563.472,141.648 L578.872,141.648 C578.032,138.96 576.968,136.496 575.68,134.144 L577.528,133.416 C578.76,135.656 579.824,138.4 580.832,141.648 L594.72,141.648 C596.176,139.072 597.464,136.272 598.472,133.248 L600.432,133.92 C599.312,136.832 598.08,139.408 596.736,141.648 L612.528,141.648 L612.528,143.552 L588.896,143.552 C588.56,146.128 588,148.648 587.328,151 L605.808,151 Z M572.096,179.896 L603.904,179.896 L603.904,171.944 L572.096,171.944 L572.096,179.896 Z M572.096,170.152 L603.904,170.152 L603.904,162.424 L572.096,162.424 L572.096,170.152 Z M572.096,160.632 L603.904,160.632 L603.904,152.848 L572.096,152.848 L572.096,160.632 Z M660.408,146.408 L660.408,171.832 L658.504,171.832 L658.504,148.312 L629.272,148.312 L629.272,172.056 L627.368,172.056 L627.368,146.408 L641.48,146.408 C642.264,143.888 642.768,141.256 643.104,138.456 L619.584,138.456 L619.584,136.552 L668.416,136.552 L668.416,138.456 L645.12,138.456 C644.784,141.256 644.224,143.944 643.496,146.408 L660.408,146.408 Z M647.024,173.064 L645.96,174.632 C652.792,177.04 659.456,180.344 665.952,184.544 L667.128,182.808 C661.08,179 654.36,175.752 647.024,173.064 Z M643.048,152.736 L644.952,152.736 L644.952,161.64 C644.896,167.632 643.048,172.392 639.352,175.976 C635.768,179.336 629.944,181.968 621.824,183.872 L620.704,182.192 C628.712,180.4 634.536,177.824 638.176,174.576 C641.312,171.216 642.936,166.904 643.048,161.64 L643.048,152.736 Z" id="全新个性化首页"></path>
            </g>
        </g>
    </g>
</svg>