<?xml version="1.0" encoding="UTF-8"?>
<svg width="314px" height="23px" viewBox="0 0 314 23" version="1.1" xmlns="http://www.w3.org/2000/svg" xmlns:xlink="http://www.w3.org/1999/xlink">
    <!-- Generator: Sketch 46.2 (44496) - http://www.bohemiancoding.com/sketch -->
    <title>自由自在 定制你爱看的好作品</title>
    <desc>Created with Sketch.</desc>
    <defs></defs>
    <g id="Page-2" stroke="none" stroke-width="1" fill="none" fill-rule="evenodd">
        <g id="下载页-更多状态" transform="translate(-320.000000, -913.000000)" fill="#888888">
            <g id="全新首页" transform="translate(0.000000, 700.000000)">
                <path d="M335.752,216.632 L335.752,235.256 L334.936,235.256 L334.936,233.504 L321.064,233.504 L321.064,235.256 L320.248,235.256 L320.248,216.632 L325.264,216.632 C325.888,215.6 326.32,214.52 326.584,213.416 L327.424,213.536 C327.136,214.64 326.68,215.672 326.104,216.632 L335.752,216.632 Z M321.064,232.688 L334.936,232.688 L334.936,227.936 L321.064,227.936 L321.064,232.688 Z M321.064,227.12 L334.936,227.12 L334.936,222.68 L321.064,222.68 L321.064,227.12 Z M321.064,221.864 L334.936,221.864 L334.936,217.424 L321.064,217.424 L321.064,221.864 Z M360.52,217.688 L360.52,235.16 L359.68,235.16 L359.68,233.384 L344.32,233.384 L344.32,235.16 L343.48,235.16 L343.48,217.688 L351.592,217.688 L351.592,213.632 L352.408,213.632 L352.408,217.688 L360.52,217.688 Z M344.32,232.592 L351.592,232.592 L351.592,225.8 L344.32,225.8 L344.32,232.592 Z M352.408,232.592 L359.68,232.592 L359.68,225.8 L352.408,225.8 L352.408,232.592 Z M344.32,225.008 L351.592,225.008 L351.592,218.48 L344.32,218.48 L344.32,225.008 Z M352.408,218.48 L352.408,225.008 L359.68,225.008 L359.68,218.48 L352.408,218.48 Z M383.752,216.632 L383.752,235.256 L382.936,235.256 L382.936,233.504 L369.064,233.504 L369.064,235.256 L368.248,235.256 L368.248,216.632 L373.264,216.632 C373.888,215.6 374.32,214.52 374.584,213.416 L375.424,213.536 C375.136,214.64 374.68,215.672 374.104,216.632 L383.752,216.632 Z M369.064,232.688 L382.936,232.688 L382.936,227.936 L369.064,227.936 L369.064,232.688 Z M369.064,227.12 L382.936,227.12 L382.936,222.68 L369.064,222.68 L369.064,227.12 Z M369.064,221.864 L382.936,221.864 L382.936,217.424 L369.064,217.424 L369.064,221.864 Z M396.712,225.008 L402.64,225.008 L402.64,220.16 L403.48,220.16 L403.48,225.008 L409.456,225.008 L409.456,225.824 L403.48,225.824 L403.48,233.624 L410.608,233.624 L410.608,234.44 L395.608,234.44 L395.608,233.624 L402.64,233.624 L402.64,225.824 L396.712,225.824 L396.712,225.008 Z M393.232,224.528 C392.104,225.8 390.856,227 389.488,228.128 L388.984,227.48 C392.32,224.72 394.888,221.528 396.664,217.928 L389.8,217.928 L389.8,217.112 L397.048,217.112 C397.576,215.912 398.008,214.688 398.392,213.44 L399.232,213.512 C398.848,214.76 398.416,215.96 397.936,217.112 L410.536,217.112 L410.536,217.928 L397.552,217.928 C396.592,219.944 395.44,221.816 394.048,223.544 L394.048,235.352 L393.232,235.352 L393.232,224.528 Z M425.08,220.928 L438.952,220.928 L438.952,221.744 L432.52,221.744 L432.52,226.952 L440.08,226.952 L440.08,227.744 L432.52,227.744 L432.52,233.576 C434.224,233.864 436.312,234.008 438.784,234.032 C440.032,234.032 441.304,234.008 442.648,233.96 L442.504,234.8 L439.144,234.8 C434.632,234.8 431.368,234.368 429.4,233.504 C427.672,232.688 426.328,231.32 425.368,229.448 C424.408,231.776 423.208,233.72 421.768,235.28 L421.24,234.632 C423.616,232.04 425.224,228.512 426.064,224.096 L426.856,224.24 C426.544,225.776 426.16,227.216 425.704,228.56 C426.904,230.96 428.392,232.448 430.216,233.024 C430.648,233.168 431.152,233.312 431.704,233.432 L431.704,221.744 L425.08,221.744 L425.08,220.928 Z M441.424,216.224 L441.424,220.856 L440.608,220.856 L440.608,217.04 L423.376,217.04 L423.376,220.952 L422.56,220.952 L422.56,216.224 L431.968,216.224 C431.56,215.192 431.104,214.256 430.624,213.44 L431.488,213.296 C431.944,214.16 432.376,215.12 432.784,216.224 L441.424,216.224 Z M447.4,217.592 L451.552,217.592 L451.552,221.552 L445.408,221.552 L445.408,222.344 L451.552,222.344 L451.552,225.68 L446.704,225.68 L446.704,233.816 L447.52,233.816 L447.52,226.448 L451.552,226.448 L451.552,235.352 L452.368,235.352 L452.368,226.448 L456.304,226.448 L456.304,231.704 C456.304,232.448 455.92,232.832 455.2,232.832 L453.832,232.808 L454.048,233.624 L455.44,233.624 C456.544,233.624 457.12,233.024 457.12,231.872 L457.12,225.68 L452.368,225.68 L452.368,222.344 L457.888,222.344 L457.888,221.552 L452.368,221.552 L452.368,217.592 L457.216,217.592 L457.216,216.8 L452.368,216.8 L452.368,213.584 L451.552,213.584 L451.552,216.8 L447.712,216.8 C447.952,216.032 448.168,215.168 448.312,214.232 L447.52,214.112 C447.16,216.512 446.32,218.408 445.024,219.752 L445.696,220.256 C446.368,219.512 446.944,218.624 447.4,217.592 Z M459.76,215.744 L460.576,215.744 L460.576,230.792 L459.76,230.792 L459.76,215.744 Z M463.792,235.064 L460.312,235.064 L460.144,234.272 C461.32,234.32 462.448,234.344 463.504,234.344 C464.416,234.344 464.872,233.864 464.872,232.952 L464.872,213.584 L465.688,213.584 L465.688,233.144 C465.688,234.416 465.04,235.064 463.792,235.064 Z M472.432,220.688 C471.472,222.224 470.392,223.664 469.192,224.984 L468.928,224.144 C471.664,220.952 473.632,217.376 474.808,213.44 L475.552,213.8 C474.928,215.72 474.16,217.544 473.272,219.224 L473.272,235.304 L472.432,235.304 L472.432,220.688 Z M486.736,223.04 L485.968,223.304 C487.264,226.04 488.464,229.184 489.544,232.736 L490.288,232.424 C489.28,229.088 488.08,225.968 486.736,223.04 Z M478.864,217.568 C478.048,219.56 477.064,221.36 475.96,222.992 L475.264,222.56 C477.136,219.896 478.528,216.824 479.44,213.32 L480.256,213.488 C479.92,214.64 479.56,215.72 479.176,216.752 L489.688,216.752 L489.688,217.304 C489.304,218.84 488.752,220.352 488.08,221.816 L487.288,221.576 C487.936,220.328 488.464,219.008 488.848,217.568 L478.864,217.568 Z M482.248,235.112 L479.008,235.112 L478.84,234.32 C479.92,234.368 480.952,234.392 481.96,234.392 C482.584,234.392 482.92,234.056 482.92,233.432 L482.92,220.04 L483.712,220.04 L483.712,233.648 C483.712,234.608 483.208,235.112 482.248,235.112 Z M479.032,223.16 L479.776,223.376 C478.864,226.784 477.664,229.784 476.224,232.328 L475.432,232.04 C476.824,229.736 478.024,226.76 479.032,223.16 Z M513.472,219.68 L513.472,223.28 L512.656,223.28 L512.656,220.448 L495.376,220.448 L495.376,223.28 L494.56,223.28 L494.56,219.68 L498.304,219.68 C498.016,218.624 497.728,217.712 497.392,216.896 L498.208,216.752 C498.52,217.592 498.832,218.576 499.12,219.68 L503.944,219.68 C503.632,218.552 503.296,217.568 502.96,216.704 L503.752,216.56 C504.112,217.448 504.448,218.48 504.736,219.68 L508.288,219.68 C508.984,218.6 509.584,217.424 510.088,216.176 L510.88,216.464 C510.376,217.688 509.8,218.768 509.128,219.68 L513.472,219.68 Z M512.896,214.088 C508.192,214.832 502.024,215.216 494.416,215.216 L494.68,216.008 C502.432,216.008 508.648,215.624 513.304,214.856 L512.896,214.088 Z M501.016,221.408 L501.832,221.504 C501.688,222.272 501.52,222.992 501.352,223.688 L511.912,223.688 L511.912,224.504 L501.136,224.504 C500.872,225.416 500.584,226.28 500.248,227.096 L511.024,227.096 L511.024,227.744 C509.728,229.52 508.192,231.008 506.368,232.256 C508.624,233.312 511.144,234.008 513.928,234.368 L513.544,235.088 C510.616,234.704 507.976,233.912 505.6,232.736 C503.44,233.96 501.136,234.8 498.64,235.28 L498.28,234.536 C500.776,234.08 502.96,233.336 504.784,232.304 C502.888,231.248 501.184,229.928 499.672,228.344 C498.328,231.176 496.48,233.384 494.128,234.968 L493.72,234.248 C496.888,231.992 499.072,228.728 500.32,224.504 L496.144,224.504 L496.144,223.688 L500.536,223.688 C500.728,222.92 500.872,222.152 501.016,221.408 Z M500.128,227.864 C501.712,229.496 503.512,230.816 505.528,231.848 C507.304,230.72 508.816,229.4 510.04,227.864 L500.128,227.864 Z M519.064,218.216 L526.792,218.216 C527.2,217.352 527.536,216.488 527.824,215.624 C525.328,215.792 522.616,215.888 519.664,215.888 L519.424,215.168 C526.288,215.144 531.832,214.664 536.104,213.728 L536.488,214.448 C534.232,214.952 531.616,215.336 528.616,215.576 C528.328,216.488 527.992,217.376 527.608,218.216 L537.016,218.216 L537.016,218.984 L527.248,218.984 C526.84,219.8 526.384,220.568 525.904,221.312 L538.408,221.312 L538.408,222.056 L525.4,222.056 C524.8,222.872 524.152,223.688 523.432,224.48 L535.768,224.48 L535.768,235.304 L534.976,235.304 L534.976,234.104 L523.36,234.104 L523.36,235.304 L522.544,235.304 L522.544,225.416 C521.104,226.856 519.448,228.224 517.6,229.472 L517.144,228.728 C520.168,226.688 522.592,224.456 524.44,222.056 L517.768,222.056 L517.768,221.312 L524.992,221.312 C525.52,220.544 525.976,219.776 526.408,218.984 L519.064,218.984 L519.064,218.216 Z M523.36,228.2 L523.36,230.36 L534.976,230.36 L534.976,228.2 L523.36,228.2 Z M534.976,227.504 L534.976,225.2 L523.36,225.2 L523.36,227.504 L534.976,227.504 Z M523.36,231.056 L523.36,233.384 L534.976,233.384 L534.976,231.056 L523.36,231.056 Z M549.304,217.952 L549.304,233.816 L548.488,233.816 L548.488,232.232 L543.16,232.232 L543.16,234.488 L542.344,234.488 L542.344,217.952 L544.456,217.952 C544.984,216.56 545.368,215.072 545.608,213.512 L546.424,213.632 C546.16,215.192 545.776,216.632 545.248,217.952 L549.304,217.952 Z M543.16,231.464 L548.488,231.464 L548.488,225.344 L543.16,225.344 L543.16,231.464 Z M543.16,224.576 L548.488,224.576 L548.488,218.768 L543.16,218.768 L543.16,224.576 Z M553.264,223.208 C555.184,225.248 556.672,227.024 557.68,228.56 L557.032,229.04 C555.976,227.408 554.488,225.608 552.616,223.64 L553.264,223.208 Z M561.76,218 C561.76,225.488 561.64,230.12 561.424,231.896 C561.208,233.912 560.128,234.944 558.16,234.944 C557.728,234.944 556.96,234.92 555.904,234.92 L555.688,234.152 C556.624,234.152 557.44,234.176 558.112,234.176 C559.576,234.176 560.416,233.36 560.632,231.776 C560.824,230.192 560.92,225.872 560.968,218.816 L553.384,218.816 C552.712,220.424 551.896,221.864 550.936,223.16 L550.456,222.512 C552.256,220.064 553.48,217.04 554.128,213.488 L554.92,213.584 C554.632,215.168 554.224,216.632 553.72,218 L561.76,218 Z M569.512,213.152 L570.328,213.248 C569.992,215.12 569.68,216.848 569.368,218.408 L573.784,218.408 L573.784,218.96 C573.496,222.848 572.608,226.208 571.168,229.016 C572.704,230.216 573.952,231.32 574.912,232.28 L574.36,232.904 C573.4,231.944 572.224,230.888 570.784,229.76 C569.512,231.968 567.88,233.816 565.864,235.328 L565.336,234.632 C567.328,233.168 568.936,231.368 570.16,229.256 C569.008,228.344 567.712,227.408 566.32,226.4 C567.088,224.192 567.784,221.792 568.384,219.2 L565.432,219.2 L565.432,218.408 L568.552,218.408 C568.912,216.728 569.224,214.976 569.512,213.152 Z M570.544,228.536 C571.888,225.896 572.704,222.776 572.992,219.2 L569.2,219.2 C568.576,222.008 567.904,224.312 567.232,226.136 C568.432,226.976 569.536,227.768 570.544,228.536 Z M574.984,223.904 L574.984,224.72 L580.816,224.72 L580.816,233.024 C580.816,233.84 580.432,234.272 579.664,234.272 C578.536,234.272 577.48,234.248 576.496,234.248 L576.712,235.04 L580,235.04 C581.08,235.04 581.632,234.44 581.632,233.288 L581.632,224.72 L586.912,224.72 L586.912,223.904 L581.632,223.904 L581.632,220.712 C583.168,219.224 584.56,217.616 585.76,215.888 L585.76,215.072 L575.728,215.072 L575.728,215.888 L584.824,215.888 C583.552,217.688 582.208,219.2 580.816,220.448 L580.816,223.904 L574.984,223.904 Z M599.2,218.024 C598.096,220.376 596.752,222.464 595.216,224.288 L594.64,223.64 C597.016,220.832 598.84,217.424 600.088,213.44 L600.88,213.632 C600.496,214.904 600.04,216.104 599.56,217.232 L610.72,217.232 L610.72,218.024 L602.032,218.024 L602.032,222.872 L609.52,222.872 L609.52,223.688 L602.032,223.688 L602.032,228.608 L609.808,228.608 L609.808,229.4 L602.032,229.4 L602.032,235.28 L601.216,235.28 L601.216,218.024 L599.2,218.024 Z M592.408,220.568 C591.472,221.912 590.44,223.184 589.288,224.336 L589.024,223.496 C591.808,220.52 593.8,217.184 595,213.536 L595.744,213.896 C595.072,215.84 594.232,217.64 593.224,219.296 L593.224,235.28 L592.408,235.28 L592.408,220.568 Z M617.656,214.808 L630.256,214.808 L630.256,221.84 L617.656,221.84 L617.656,214.808 Z M629.416,221.024 L629.416,215.624 L618.496,215.624 L618.496,221.024 L629.416,221.024 Z M622.288,225.152 L622.288,234.92 L621.472,234.92 L621.472,233.576 L615.376,233.576 L615.376,234.92 L614.56,234.92 L614.56,225.152 L622.288,225.152 Z M615.376,232.784 L621.472,232.784 L621.472,225.944 L615.376,225.944 L615.376,232.784 Z M633.4,225.152 L633.4,234.92 L632.584,234.92 L632.584,233.576 L626.272,233.576 L626.272,234.92 L625.456,234.92 L625.456,225.152 L633.4,225.152 Z M626.272,232.784 L632.584,232.784 L632.584,225.944 L626.272,225.944 L626.272,232.784 Z" id="自由自在-定制你爱看的好作品"></path>
            </g>
        </g>
    </g>
</svg>