<?xml version="1.0" encoding="UTF-8"?>
<svg width="326px" height="23px" viewBox="0 0 326 23" version="1.1" xmlns="http://www.w3.org/2000/svg" xmlns:xlink="http://www.w3.org/1999/xlink">
    <!-- Generator: Sketch 46.2 (44496) - http://www.bohemiancoding.com/sketch -->
    <title>一心一意 让你的好创意被关注</title>
    <desc>Created with Sketch.</desc>
    <defs></defs>
    <g id="Page-2" stroke="none" stroke-width="1" fill="none" fill-rule="evenodd">
        <g id="下载页-更多状态" transform="translate(-829.000000, -1552.000000)" fill="#888888">
            <g id="发布作品" transform="translate(0.000000, 1319.000000)">
                <g transform="translate(826.000000, 152.000000)" id="一心一意-让你的好创意被关注">
                    <path d="M3.328,91.784 L3.328,92.6 L24.664,92.6 L24.664,91.784 L3.328,91.784 Z M40.936,102.488 L35.536,102.488 C34.192,102.488 33.52,101.864 33.52,100.616 L33.52,86.528 L34.36,86.528 L34.36,100.448 C34.36,101.24 34.816,101.648 35.776,101.648 L40.792,101.648 C41.536,101.648 42.064,101.408 42.352,100.976 C42.736,100.328 43,98.48 43.144,95.456 L43.912,95.72 C43.768,98.84 43.432,100.784 42.952,101.6 C42.544,102.176 41.872,102.488 40.936,102.488 Z M30.112,89.36 C29.464,93.032 28.48,96.272 27.16,99.08 L27.88,99.536 C29.176,96.728 30.184,93.392 30.904,89.528 L30.112,89.36 Z M44.488,88.472 C46.216,91.448 47.728,94.616 49,97.976 L48.256,98.312 C46.864,94.712 45.328,91.52 43.648,88.76 L44.488,88.472 Z M35.656,81.824 C38.032,84.032 39.856,85.952 41.104,87.584 L40.408,88.064 C39.088,86.312 37.264,84.368 34.96,82.256 L35.656,81.824 Z M51.328,91.784 L51.328,92.6 L72.664,92.6 L72.664,91.784 L51.328,91.784 Z M80.92,83.984 L76.816,83.984 L76.816,83.216 L85.648,83.216 C85.36,82.544 85.024,81.944 84.664,81.392 L85.528,81.248 C85.864,81.824 86.176,82.496 86.512,83.216 L95.2,83.216 L95.2,83.984 L91.048,83.984 L89.8,86.624 L96.352,86.624 L96.352,87.368 L75.664,87.368 L75.664,86.624 L82,86.624 L80.92,83.984 Z M82.84,86.624 L88.936,86.624 L90.208,83.984 L81.76,83.984 L82.84,86.624 Z M78.808,89.504 L93.208,89.504 L93.208,95.96 L78.808,95.96 L78.808,89.504 Z M92.392,95.24 L92.392,93.056 L79.624,93.056 L79.624,95.24 L92.392,95.24 Z M79.624,92.36 L92.392,92.36 L92.392,90.2 L79.624,90.2 L79.624,92.36 Z M77.8,97.4 C77.272,99.176 76.504,100.736 75.472,102.104 L76.192,102.56 C77.224,101.168 78.04,99.488 78.616,97.568 L77.8,97.4 Z M89.224,102.92 L83.368,102.92 C82.12,102.92 81.496,102.296 81.496,101.072 L81.496,97.736 L82.312,97.736 L82.312,100.88 C82.312,101.696 82.744,102.128 83.608,102.128 L89.056,102.128 C89.704,102.128 90.16,102.008 90.4,101.792 C90.736,101.48 90.976,100.592 91.096,99.128 L91.864,99.368 C91.744,101 91.456,102.008 91,102.44 C90.64,102.752 90.04,102.92 89.224,102.92 Z M85.744,96.992 C86.872,98.12 87.736,99.104 88.336,99.968 L87.64,100.472 C87.016,99.536 86.152,98.528 85.096,97.424 L85.744,96.992 Z M93.376,97.4 L92.704,97.808 C94.096,99.416 95.176,100.904 95.968,102.248 L96.64,101.768 C95.872,100.52 94.792,99.056 93.376,97.4 Z M128.704,81.464 L129.568,81.464 L129.568,89.72 L136.168,89.72 L136.168,90.536 L129.568,90.536 L129.568,101.624 L137.056,101.624 L137.056,102.44 L123.16,102.44 L123.16,101.624 L128.704,101.624 L128.704,81.464 Z M117.448,81.728 L116.872,82.28 C118.672,83.696 120.136,85.04 121.24,86.336 L121.792,85.76 C120.616,84.416 119.176,83.072 117.448,81.728 Z M115.216,89.144 L119.824,89.144 L119.824,100.64 C120.856,99.872 121.984,98.912 123.184,97.76 L123.4,98.648 C122.008,99.992 120.496,101.168 118.912,102.224 L118.576,101.504 C118.864,101.24 119.032,101 119.032,100.784 L119.032,89.96 L115.216,89.96 L115.216,89.144 Z M142.432,88.688 C141.472,90.224 140.392,91.664 139.192,92.984 L138.928,92.144 C141.664,88.952 143.632,85.376 144.808,81.44 L145.552,81.8 C144.928,83.72 144.16,85.544 143.272,87.224 L143.272,103.304 L142.432,103.304 L142.432,88.688 Z M156.736,91.04 L155.968,91.304 C157.264,94.04 158.464,97.184 159.544,100.736 L160.288,100.424 C159.28,97.088 158.08,93.968 156.736,91.04 Z M148.864,85.568 C148.048,87.56 147.064,89.36 145.96,90.992 L145.264,90.56 C147.136,87.896 148.528,84.824 149.44,81.32 L150.256,81.488 C149.92,82.64 149.56,83.72 149.176,84.752 L159.688,84.752 L159.688,85.304 C159.304,86.84 158.752,88.352 158.08,89.816 L157.288,89.576 C157.936,88.328 158.464,87.008 158.848,85.568 L148.864,85.568 Z M152.248,103.112 L149.008,103.112 L148.84,102.32 C149.92,102.368 150.952,102.392 151.96,102.392 C152.584,102.392 152.92,102.056 152.92,101.432 L152.92,88.04 L153.712,88.04 L153.712,101.648 C153.712,102.608 153.208,103.112 152.248,103.112 Z M149.032,91.16 L149.776,91.376 C148.864,94.784 147.664,97.784 146.224,100.328 L145.432,100.04 C146.824,97.736 148.024,94.76 149.032,91.16 Z M171.304,85.952 L171.304,101.816 L170.488,101.816 L170.488,100.232 L165.16,100.232 L165.16,102.488 L164.344,102.488 L164.344,85.952 L166.456,85.952 C166.984,84.56 167.368,83.072 167.608,81.512 L168.424,81.632 C168.16,83.192 167.776,84.632 167.248,85.952 L171.304,85.952 Z M165.16,99.464 L170.488,99.464 L170.488,93.344 L165.16,93.344 L165.16,99.464 Z M165.16,92.576 L170.488,92.576 L170.488,86.768 L165.16,86.768 L165.16,92.576 Z M175.264,91.208 C177.184,93.248 178.672,95.024 179.68,96.56 L179.032,97.04 C177.976,95.408 176.488,93.608 174.616,91.64 L175.264,91.208 Z M183.76,86 C183.76,93.488 183.64,98.12 183.424,99.896 C183.208,101.912 182.128,102.944 180.16,102.944 C179.728,102.944 178.96,102.92 177.904,102.92 L177.688,102.152 C178.624,102.152 179.44,102.176 180.112,102.176 C181.576,102.176 182.416,101.36 182.632,99.776 C182.824,98.192 182.92,93.872 182.968,86.816 L175.384,86.816 C174.712,88.424 173.896,89.864 172.936,91.16 L172.456,90.512 C174.256,88.064 175.48,85.04 176.128,81.488 L176.92,81.584 C176.632,83.168 176.224,84.632 175.72,86 L183.76,86 Z M191.512,81.152 L192.328,81.248 C191.992,83.12 191.68,84.848 191.368,86.408 L195.784,86.408 L195.784,86.96 C195.496,90.848 194.608,94.208 193.168,97.016 C194.704,98.216 195.952,99.32 196.912,100.28 L196.36,100.904 C195.4,99.944 194.224,98.888 192.784,97.76 C191.512,99.968 189.88,101.816 187.864,103.328 L187.336,102.632 C189.328,101.168 190.936,99.368 192.16,97.256 C191.008,96.344 189.712,95.408 188.32,94.4 C189.088,92.192 189.784,89.792 190.384,87.2 L187.432,87.2 L187.432,86.408 L190.552,86.408 C190.912,84.728 191.224,82.976 191.512,81.152 Z M192.544,96.536 C193.888,93.896 194.704,90.776 194.992,87.2 L191.2,87.2 C190.576,90.008 189.904,92.312 189.232,94.136 C190.432,94.976 191.536,95.768 192.544,96.536 Z M196.984,91.904 L196.984,92.72 L202.816,92.72 L202.816,101.024 C202.816,101.84 202.432,102.272 201.664,102.272 C200.536,102.272 199.48,102.248 198.496,102.248 L198.712,103.04 L202,103.04 C203.08,103.04 203.632,102.44 203.632,101.288 L203.632,92.72 L208.912,92.72 L208.912,91.904 L203.632,91.904 L203.632,88.712 C205.168,87.224 206.56,85.616 207.76,83.888 L207.76,83.072 L197.728,83.072 L197.728,83.888 L206.824,83.888 C205.552,85.688 204.208,87.2 202.816,88.448 L202.816,91.904 L196.984,91.904 Z M220.816,90.104 L214.648,90.104 L214.648,101.336 C214.648,101.816 214.912,102.056 215.488,102.056 L220.744,102.056 C221.728,102.056 222.352,101.816 222.592,101.384 C222.856,100.808 223.048,99.8 223.144,98.312 L223.936,98.576 C223.792,100.496 223.504,101.744 223.048,102.272 C222.664,102.656 221.944,102.848 220.84,102.848 L215.32,102.848 C214.312,102.848 213.808,102.392 213.808,101.48 L213.808,89.36 L221.632,89.36 L221.632,95.36 C221.608,96.584 221.032,97.208 219.88,97.232 C218.992,97.232 218.128,97.184 217.264,97.136 L217.024,96.368 C217.936,96.416 218.848,96.464 219.712,96.464 C220.432,96.464 220.816,96.056 220.816,95.24 L220.816,90.104 Z M217.624,81.872 L218.296,81.872 C220.312,84.056 222.352,86.432 224.368,89 L223.816,89.576 C221.704,86.84 219.76,84.536 218.032,82.64 C216.064,85.52 213.88,88.064 211.504,90.224 L211.024,89.576 C213.472,87.368 215.656,84.8 217.624,81.872 Z M226.288,83.624 L227.104,83.624 L227.104,98.792 L226.288,98.792 L226.288,83.624 Z M230.104,103.064 L226.216,103.064 L226.048,102.272 C227.368,102.32 228.616,102.344 229.816,102.344 C230.44,102.344 230.776,101.96 230.776,101.216 L230.776,81.584 L231.592,81.584 L231.592,101.432 C231.592,102.512 231.088,103.064 230.104,103.064 Z M240.904,83.984 L236.8,83.984 L236.8,83.216 L245.632,83.216 C245.344,82.544 245.008,81.944 244.648,81.392 L245.512,81.248 C245.848,81.824 246.16,82.496 246.496,83.216 L255.184,83.216 L255.184,83.984 L251.032,83.984 L249.784,86.624 L256.336,86.624 L256.336,87.368 L235.648,87.368 L235.648,86.624 L241.984,86.624 L240.904,83.984 Z M242.824,86.624 L248.92,86.624 L250.192,83.984 L241.744,83.984 L242.824,86.624 Z M238.792,89.504 L253.192,89.504 L253.192,95.96 L238.792,95.96 L238.792,89.504 Z M252.376,95.24 L252.376,93.056 L239.608,93.056 L239.608,95.24 L252.376,95.24 Z M239.608,92.36 L252.376,92.36 L252.376,90.2 L239.608,90.2 L239.608,92.36 Z M237.784,97.4 C237.256,99.176 236.488,100.736 235.456,102.104 L236.176,102.56 C237.208,101.168 238.024,99.488 238.6,97.568 L237.784,97.4 Z M249.208,102.92 L243.352,102.92 C242.104,102.92 241.48,102.296 241.48,101.072 L241.48,97.736 L242.296,97.736 L242.296,100.88 C242.296,101.696 242.728,102.128 243.592,102.128 L249.04,102.128 C249.688,102.128 250.144,102.008 250.384,101.792 C250.72,101.48 250.96,100.592 251.08,99.128 L251.848,99.368 C251.728,101 251.44,102.008 250.984,102.44 C250.624,102.752 250.024,102.92 249.208,102.92 Z M245.728,96.992 C246.856,98.12 247.72,99.104 248.32,99.968 L247.624,100.472 C247,99.536 246.136,98.528 245.08,97.424 L245.728,96.992 Z M253.36,97.4 L252.688,97.808 C254.08,99.416 255.16,100.904 255.952,102.248 L256.624,101.768 C255.856,100.52 254.776,99.056 253.36,97.4 Z M262.336,92.768 C261.472,93.92 260.488,95.048 259.384,96.176 L259.144,95.384 C262.072,92.312 263.992,89.288 264.856,86.36 L259.552,86.36 L259.552,85.592 L265.648,85.592 L265.648,86.288 C265.12,88.064 264.304,89.84 263.152,91.592 L263.152,91.784 C263.584,92.144 263.992,92.552 264.4,92.984 C265.048,92.552 265.672,91.832 266.272,90.848 L266.776,91.352 C266.2,92.312 265.576,93.032 264.88,93.512 C265.504,94.184 266.08,94.928 266.632,95.696 L266.2,96.368 C265.192,94.856 264.16,93.632 263.152,92.672 L263.152,103.328 L262.336,103.328 L262.336,92.768 Z M273.664,81.488 L274.48,81.488 L274.48,84.728 L279.952,84.728 L279.952,85.16 C279.688,86.552 279.304,87.872 278.8,89.144 L278.056,88.952 C278.464,87.92 278.824,86.768 279.112,85.52 L274.48,85.52 L274.48,91.208 L278.704,91.208 L278.704,91.952 C277.96,94.616 276.736,96.872 275.056,98.744 C276.616,100.184 278.56,101.432 280.864,102.464 L280.408,103.16 C278.056,102.056 276.088,100.76 274.552,99.296 C272.896,100.928 270.856,102.248 268.456,103.256 L268,102.536 C270.4,101.576 272.392,100.328 273.976,98.744 C272.056,96.776 270.784,94.544 270.136,92.024 L268.96,92.024 L268.96,92.816 C268.936,96.848 268,100.304 266.152,103.184 L265.48,102.608 C267.208,100.088 268.096,96.848 268.168,92.912 L268.168,84.728 L273.664,84.728 L273.664,81.488 Z M273.664,85.52 L268.96,85.52 L268.96,91.208 L273.664,91.208 L273.664,85.52 Z M274.48,98.192 C276.064,96.464 277.192,94.4 277.888,92.024 L270.904,92.024 C271.528,94.352 272.728,96.416 274.48,98.192 Z M262.192,81.536 L261.376,81.776 C261.928,82.784 262.384,83.84 262.768,84.944 L263.512,84.656 C263.2,83.696 262.768,82.664 262.192,81.536 Z M288.952,81.584 C290.008,82.904 290.992,84.344 291.856,85.904 L291.136,86.264 C290.2,84.656 289.216,83.216 288.208,81.968 L288.952,81.584 Z M298.936,81.344 L299.728,81.56 C299.08,83.528 298.24,85.28 297.232,86.816 L302.776,86.816 L302.776,87.632 L294.4,87.632 L294.4,89.384 C294.4,90.656 294.28,91.856 294.064,92.96 L304.168,92.96 L304.168,93.776 L294.904,93.776 C296.128,97.544 299.392,100.448 304.72,102.488 L304.264,103.208 C298.672,100.952 295.264,97.808 294.064,93.776 L293.896,93.776 C293.464,95.504 292.792,96.992 291.856,98.264 C290.248,100.328 287.584,101.936 283.864,103.136 L283.408,102.44 C287.056,101.288 289.72,99.68 291.352,97.592 C292.12,96.488 292.672,95.216 293.056,93.776 L283.816,93.776 L283.816,92.96 L293.224,92.96 C293.44,91.856 293.56,90.656 293.584,89.384 L293.584,87.632 L285.184,87.632 L285.184,86.816 L296.32,86.816 C297.304,85.328 298.168,83.504 298.936,81.344 Z M308.8,82.088 L308.224,82.64 C309.976,83.888 311.368,85.064 312.424,86.192 L313.024,85.616 C311.896,84.416 310.48,83.24 308.8,82.088 Z M308.2,87.752 L307.6,88.328 C309.28,89.576 310.6,90.752 311.584,91.856 L312.16,91.28 C311.104,90.104 309.784,88.928 308.2,87.752 Z M311.944,94.184 C310.888,97.112 309.64,99.992 308.224,102.776 L309.016,103.136 C310.36,100.424 311.56,97.544 312.664,94.472 L311.944,94.184 Z M314.368,85.928 L314.368,86.744 L320.968,86.744 L320.968,93.488 L315.04,93.488 L315.04,94.28 L320.968,94.28 L320.968,101.624 L313.72,101.624 L313.72,102.44 L328.816,102.44 L328.816,101.624 L321.76,101.624 L321.76,94.28 L327.712,94.28 L327.712,93.488 L321.76,93.488 L321.76,86.744 L328.36,86.744 L328.36,85.928 L314.368,85.928 Z M320.224,81.392 L319.432,81.632 C320.08,82.784 320.632,83.96 321.064,85.184 L321.784,84.92 C321.424,83.864 320.896,82.688 320.224,81.392 Z"></path>
                </g>
            </g>
        </g>
    </g>
</svg>