<?xml version="1.0" encoding="UTF-8"?>
<svg width="328px" height="53px" viewBox="0 0 328 53" version="1.1" xmlns="http://www.w3.org/2000/svg" xmlns:xlink="http://www.w3.org/1999/xlink">
    <!-- Generator: Sketch 46.2 (44496) - http://www.bohemiancoding.com/sketch -->
    <title>发布原创作品</title>
    <desc>Created with Sketch.</desc>
    <defs></defs>
    <g id="Page-2" stroke="none" stroke-width="1" fill="none" fill-rule="evenodd">
        <g id="下载页-更多状态" transform="translate(-826.000000, -1471.000000)" fill="#282828">
            <g id="发布作品" transform="translate(0.000000, 1319.000000)">
                <g transform="translate(826.000000, 152.000000)" id="发布原创作品">
                    <path d="M5.728,17.432 L10.096,3.152 L12,3.488 L8.192,15.584 L20.456,15.584 C21.688,10.88 22.696,6.008 23.424,0.856 L25.384,1.08 C24.6,6.232 23.592,11.104 22.416,15.584 L49.52,15.584 L49.52,17.432 L21.912,17.432 C21.016,20.344 20.12,23.144 19.112,25.72 L42.744,25.72 L42.744,27.456 C41.064,32.664 37.536,37.368 32.272,41.568 C37.2,44.872 43.36,47.84 50.752,50.472 L49.8,52.152 C42.072,49.352 35.744,46.216 30.816,42.744 C25.944,46.272 19.84,49.464 12.504,52.264 L11.552,50.528 C18.72,47.84 24.656,44.872 29.248,41.624 C23.704,37.48 20.008,32.944 18.16,28.016 C14.016,37.872 8.472,45.6 1.584,51.2 L0.632,49.464 C9.536,41.792 15.976,31.096 19.952,17.432 L5.728,17.432 Z M19.84,27.568 C21.744,32.328 25.328,36.64 30.704,40.504 C35.8,36.528 39.16,32.216 40.728,27.568 L19.84,27.568 Z M34.792,1.976 C38.936,5.224 42.408,8.472 45.208,11.776 L43.808,13.176 C41.232,10.04 37.76,6.68 33.504,3.152 L34.792,1.976 Z M84.52,16.032 L84.52,23.48 L68.672,23.48 C71.92,19.784 74.664,15.808 76.904,11.552 L106.36,11.552 L106.36,9.592 L77.912,9.592 C79.144,7.016 80.208,4.384 81.104,1.584 L79.144,1.36 C78.192,4.16 77.072,6.904 75.728,9.592 L58.2,9.592 L58.2,11.552 L74.72,11.552 C70.464,19.28 64.36,26.112 56.408,32.048 L57.584,33.56 C61.56,30.592 65.088,27.4 68.224,23.984 L68.224,46.552 L70.072,46.552 L70.072,25.328 L84.52,25.328 L84.52,52.32 L86.368,52.32 L86.368,25.328 L100.76,25.328 L100.76,41.568 C100.76,43.472 99.696,44.48 97.68,44.48 L92.304,44.368 L92.808,46.272 L98.352,46.272 C101.152,46.272 102.608,44.816 102.608,41.904 L102.608,23.48 L86.368,23.48 L86.368,16.032 L84.52,16.032 Z M127.304,13.176 L139.456,13.176 C140.24,10.992 140.8,8.752 141.136,6.4 L119.464,6.4 L119.464,26.56 C119.296,37.2 117.56,45.712 114.256,52.208 L112.8,50.92 C115.824,45.04 117.392,36.92 117.56,26.56 L117.56,4.496 L161.968,4.496 L161.968,6.4 L143.04,6.4 C142.648,8.752 142.088,10.992 141.36,13.176 L157.544,13.176 L157.544,33.224 L143.88,33.224 L143.88,48.904 C143.88,51.032 142.76,52.152 140.576,52.152 L134.92,52.152 L134.528,50.304 C136.432,50.36 138.224,50.416 139.904,50.416 C141.248,50.416 141.92,49.744 141.92,48.456 L141.92,33.224 L127.304,33.224 L127.304,13.176 Z M155.64,31.432 L155.64,24.04 L129.208,24.04 L129.208,31.432 L155.64,31.432 Z M129.208,22.304 L155.64,22.304 L155.64,14.968 L129.208,14.968 L129.208,22.304 Z M132.008,37.2 L133.744,38.04 C131.112,42.744 128.032,46.832 124.448,50.248 L122.88,49.128 C126.408,45.768 129.432,41.792 132.008,37.2 Z M152.504,37.2 C156.592,41.848 159.728,45.88 161.912,49.352 L160.344,50.528 C158.104,46.776 154.968,42.632 150.936,38.152 L152.504,37.2 Z M191.256,21.576 L176.864,21.576 L176.864,47.784 C176.864,48.904 177.48,49.464 178.824,49.464 L191.088,49.464 C193.384,49.464 194.84,48.904 195.4,47.896 C196.016,46.552 196.464,44.2 196.688,40.728 L198.536,41.344 C198.2,45.824 197.528,48.736 196.464,49.968 C195.568,50.864 193.888,51.312 191.312,51.312 L178.432,51.312 C176.08,51.312 174.904,50.248 174.904,48.12 L174.904,19.84 L193.16,19.84 L193.16,33.84 C193.104,36.696 191.76,38.152 189.072,38.208 C187,38.208 184.984,38.096 182.968,37.984 L182.408,36.192 C184.536,36.304 186.664,36.416 188.68,36.416 C190.36,36.416 191.256,35.464 191.256,33.56 L191.256,21.576 Z M183.808,2.368 L185.376,2.368 C190.08,7.464 194.84,13.008 199.544,19 L198.256,20.344 C193.328,13.96 188.792,8.584 184.76,4.16 C180.168,10.88 175.072,16.816 169.528,21.856 L168.408,20.344 C174.12,15.192 179.216,9.2 183.808,2.368 Z M204.024,6.456 L205.928,6.456 L205.928,41.848 L204.024,41.848 L204.024,6.456 Z M212.928,51.816 L203.856,51.816 L203.464,49.968 C206.544,50.08 209.456,50.136 212.256,50.136 C213.712,50.136 214.496,49.24 214.496,47.504 L214.496,1.696 L216.4,1.696 L216.4,48.008 C216.4,50.528 215.224,51.816 212.928,51.816 Z M248.152,12.056 C245.576,17.544 242.44,22.416 238.856,26.672 L237.512,25.16 C243.056,18.608 247.312,10.656 250.224,1.36 L252.072,1.808 C251.176,4.776 250.112,7.576 248.992,10.208 L275.032,10.208 L275.032,12.056 L254.76,12.056 L254.76,23.368 L272.232,23.368 L272.232,25.272 L254.76,25.272 L254.76,36.752 L272.904,36.752 L272.904,38.6 L254.76,38.6 L254.76,52.32 L252.856,52.32 L252.856,12.056 L248.152,12.056 Z M232.304,17.992 C230.12,21.128 227.712,24.096 225.024,26.784 L224.408,24.824 C230.904,17.88 235.552,10.096 238.352,1.584 L240.088,2.424 C238.52,6.96 236.56,11.16 234.208,15.024 L234.208,52.32 L232.304,52.32 L232.304,17.992 Z M291.216,4.552 L320.616,4.552 L320.616,20.96 L291.216,20.96 L291.216,4.552 Z M318.656,19.056 L318.656,6.456 L293.176,6.456 L293.176,19.056 L318.656,19.056 Z M302.024,28.688 L302.024,51.48 L300.12,51.48 L300.12,48.344 L285.896,48.344 L285.896,51.48 L283.992,51.48 L283.992,28.688 L302.024,28.688 Z M285.896,46.496 L300.12,46.496 L300.12,30.536 L285.896,30.536 L285.896,46.496 Z M327.952,28.688 L327.952,51.48 L326.048,51.48 L326.048,48.344 L311.32,48.344 L311.32,51.48 L309.416,51.48 L309.416,28.688 L327.952,28.688 Z M311.32,46.496 L326.048,46.496 L326.048,30.536 L311.32,30.536 L311.32,46.496 Z"></path>
                </g>
            </g>
        </g>
    </g>
</svg>