<?xml version="1.0" encoding="UTF-8"?>
<svg width="301px" height="23px" viewBox="0 0 301 23" version="1.1" xmlns="http://www.w3.org/2000/svg" xmlns:xlink="http://www.w3.org/1999/xlink">
    <!-- Generator: Sketch 46.2 (44496) - http://www.bohemiancoding.com/sketch -->
    <title>时时刻刻 畅聊创意分享心得</title>
    <desc>Created with Sketch.</desc>
    <defs></defs>
    <g id="Page-2" stroke="none" stroke-width="1" fill="none" fill-rule="evenodd">
        <g id="下载页-更多状态" transform="translate(-298.000000, -2174.000000)" fill="#888888">
            <g id="私信交流" transform="translate(0.000000, 1941.000000)">
                <path d="M304.608,235.528 L304.608,252.784 L303.816,252.784 L303.816,250.984 L299.184,250.984 L299.184,253.336 L298.368,253.336 L298.368,235.528 L304.608,235.528 Z M299.184,250.192 L303.816,250.192 L303.816,243.472 L299.184,243.472 L299.184,250.192 Z M299.184,242.68 L303.816,242.68 L303.816,236.296 L299.184,236.296 L299.184,242.68 Z M307.848,242.56 C309.408,244.84 310.584,246.832 311.4,248.536 L310.728,249.016 C309.864,247.192 308.688,245.176 307.2,242.968 L307.848,242.56 Z M313.704,255.04 L309.6,255.04 L309.432,254.248 C310.824,254.272 312.168,254.296 313.44,254.296 C314.352,254.296 314.832,253.816 314.832,252.856 L314.832,239.032 L306,239.032 L306,238.24 L314.832,238.24 L314.832,233.704 L315.672,233.704 L315.672,238.24 L319.008,238.24 L319.008,239.032 L315.672,239.032 L315.672,253.048 C315.672,254.368 315,255.04 313.704,255.04 Z M328.608,235.528 L328.608,252.784 L327.816,252.784 L327.816,250.984 L323.184,250.984 L323.184,253.336 L322.368,253.336 L322.368,235.528 L328.608,235.528 Z M323.184,250.192 L327.816,250.192 L327.816,243.472 L323.184,243.472 L323.184,250.192 Z M323.184,242.68 L327.816,242.68 L327.816,236.296 L323.184,236.296 L323.184,242.68 Z M331.848,242.56 C333.408,244.84 334.584,246.832 335.4,248.536 L334.728,249.016 C333.864,247.192 332.688,245.176 331.2,242.968 L331.848,242.56 Z M337.704,255.04 L333.6,255.04 L333.432,254.248 C334.824,254.272 336.168,254.296 337.44,254.296 C338.352,254.296 338.832,253.816 338.832,252.856 L338.832,239.032 L330,239.032 L330,238.24 L338.832,238.24 L338.832,233.704 L339.672,233.704 L339.672,238.24 L343.008,238.24 L343.008,239.032 L339.672,239.032 L339.672,253.048 C339.672,254.368 339,255.04 337.704,255.04 Z M360.096,235.624 L360.888,235.624 L360.888,250.792 L360.096,250.792 L360.096,235.624 Z M363.72,255.064 L360.24,255.064 L360.072,254.272 C361.248,254.32 362.376,254.344 363.432,254.344 C364.272,254.344 364.704,253.888 364.704,253.024 L364.704,233.584 L365.52,233.584 L365.52,253.24 C365.52,254.44 364.92,255.064 363.72,255.064 Z M353.016,250.624 C350.88,252.616 348.384,254.128 345.552,255.16 L345.096,254.44 C350.328,252.616 354.24,249.16 356.88,244.024 L357.6,244.408 C356.448,246.592 355.104,248.488 353.568,250.072 C355.344,251.536 356.808,253 358.008,254.44 L357.408,255.016 C356.28,253.624 354.816,252.16 353.016,250.624 Z M351.408,233.32 C351.864,234.232 352.296,235.24 352.68,236.392 L357.984,236.392 L357.984,237.184 L351.072,237.184 C349.632,240.16 348.408,242.152 347.4,243.16 C349.392,243.016 351.384,242.824 353.376,242.584 C354.048,241.624 354.624,240.616 355.152,239.56 L355.848,239.968 C353.568,244.624 350.232,247.792 345.84,249.472 L345.408,248.752 C348.384,247.648 350.856,245.848 352.8,243.376 C350.832,243.616 348.696,243.808 346.416,243.976 L346.2,243.16 L346.392,243.088 C347.352,242.368 348.624,240.4 350.208,237.184 L345.456,237.184 L345.456,236.392 L351.864,236.392 C351.456,235.288 351.024,234.304 350.544,233.464 L351.408,233.32 Z M384.096,235.624 L384.888,235.624 L384.888,250.792 L384.096,250.792 L384.096,235.624 Z M387.72,255.064 L384.24,255.064 L384.072,254.272 C385.248,254.32 386.376,254.344 387.432,254.344 C388.272,254.344 388.704,253.888 388.704,253.024 L388.704,233.584 L389.52,233.584 L389.52,253.24 C389.52,254.44 388.92,255.064 387.72,255.064 Z M377.016,250.624 C374.88,252.616 372.384,254.128 369.552,255.16 L369.096,254.44 C374.328,252.616 378.24,249.16 380.88,244.024 L381.6,244.408 C380.448,246.592 379.104,248.488 377.568,250.072 C379.344,251.536 380.808,253 382.008,254.44 L381.408,255.016 C380.28,253.624 378.816,252.16 377.016,250.624 Z M375.408,233.32 C375.864,234.232 376.296,235.24 376.68,236.392 L381.984,236.392 L381.984,237.184 L375.072,237.184 C373.632,240.16 372.408,242.152 371.4,243.16 C373.392,243.016 375.384,242.824 377.376,242.584 C378.048,241.624 378.624,240.616 379.152,239.56 L379.848,239.968 C377.568,244.624 374.232,247.792 369.84,249.472 L369.408,248.752 C372.384,247.648 374.856,245.848 376.8,243.376 C374.832,243.616 372.696,243.808 370.416,243.976 L370.2,243.16 L370.392,243.088 C371.352,242.368 372.624,240.4 374.208,237.184 L369.456,237.184 L369.456,236.392 L375.864,236.392 C375.456,235.288 375.024,234.304 374.544,233.464 L375.408,233.32 Z M410.76,243.184 L410.76,247.384 L413.592,247.384 L413.592,243.184 L410.76,243.184 Z M414.36,243.184 L414.36,247.384 L417.264,247.384 L417.264,243.184 L414.36,243.184 Z M417.264,248.128 L414.36,248.128 L414.36,255.232 L413.592,255.232 L413.592,248.128 L410.76,248.128 L410.76,249.784 L410.016,249.784 L410.016,237.568 L413.592,237.568 L413.592,233.464 L414.36,233.464 L414.36,237.568 L418.008,237.568 L418.008,249.64 L417.264,249.64 L417.264,248.128 Z M417.264,242.44 L417.264,238.312 L414.36,238.312 L414.36,242.44 L417.264,242.44 Z M413.592,242.44 L413.592,238.312 L410.76,238.312 L410.76,242.44 L413.592,242.44 Z M423.168,242.776 C422.376,245.536 420.912,247.768 418.752,249.448 L419.256,250.048 C421.488,248.296 423.072,245.872 423.984,242.776 L426.264,242.776 C425.808,245.56 425.088,247.816 424.104,249.52 C423.096,251.104 421.608,252.544 419.64,253.864 L420.144,254.488 C422.232,253.096 423.792,251.512 424.824,249.784 C425.784,248.056 426.528,245.728 427.008,242.776 L429.216,242.776 C429.072,248.272 428.856,251.536 428.544,252.568 C428.208,253.6 427.512,254.128 426.456,254.176 C425.76,254.176 425.064,254.152 424.344,254.128 L424.56,254.92 C425.208,254.92 425.88,254.944 426.576,254.944 C428.112,254.92 429.048,254.08 429.408,252.424 C429.72,250.84 429.912,247.384 430.008,242.008 L421.2,242.008 C423.744,240.04 426.096,237.856 428.28,235.504 L428.28,234.736 L419.808,234.736 L419.808,235.528 L427.2,235.528 C424.992,237.832 422.568,239.968 419.904,241.984 L419.904,242.776 L423.168,242.776 Z M446.304,237.664 L446.304,245.416 C446.304,245.896 446.28,246.376 446.256,246.856 C445.344,247.384 444.384,247.888 443.376,248.344 L443.376,236.44 C445.296,235.84 446.784,235.168 447.84,234.448 L447.408,233.776 C446.304,234.544 444.72,235.24 442.632,235.888 L442.632,248.08 C442.632,248.464 442.488,248.704 442.224,248.848 L442.44,249.592 C443.808,248.968 445.056,248.344 446.184,247.72 C446.016,249.064 445.704,250.24 445.248,251.224 C444.456,252.712 443.184,253.84 441.456,254.656 L441.864,255.304 C443.712,254.44 445.032,253.264 445.824,251.824 C446.64,250.192 447.048,248.056 447.048,245.416 L447.048,237.664 L446.304,237.664 Z M452.688,251.2 C453.504,251.2 453.936,250.792 453.936,250 L453.936,235.384 L449.28,235.384 L449.28,255.28 L450.048,255.28 L450.048,236.128 L453.192,236.128 L453.192,249.832 C453.192,250.24 452.928,250.456 452.424,250.456 L451.104,250.432 L451.32,251.2 L452.688,251.2 Z M433.296,234.784 L441.312,234.784 L441.312,235.6 L440.136,235.6 L440.136,249.544 L441.288,249.112 L441.288,249.928 L440.136,250.336 L440.136,255.208 L439.344,255.208 L439.344,250.624 C437.424,251.248 435.408,251.776 433.296,252.208 L433.08,251.464 C433.608,251.368 434.136,251.248 434.664,251.128 L434.664,235.6 L433.296,235.6 L433.296,234.784 Z M435.456,250.936 C436.8,250.6 438.096,250.24 439.344,249.832 L439.344,245.68 L435.456,245.68 L435.456,250.936 Z M435.456,244.912 L439.344,244.912 L439.344,240.712 L435.456,240.712 L435.456,244.912 Z M435.456,239.92 L439.344,239.92 L439.344,235.6 L435.456,235.6 L435.456,239.92 Z M466.824,242.104 L460.656,242.104 L460.656,253.336 C460.656,253.816 460.92,254.056 461.496,254.056 L466.752,254.056 C467.736,254.056 468.36,253.816 468.6,253.384 C468.864,252.808 469.056,251.8 469.152,250.312 L469.944,250.576 C469.8,252.496 469.512,253.744 469.056,254.272 C468.672,254.656 467.952,254.848 466.848,254.848 L461.328,254.848 C460.32,254.848 459.816,254.392 459.816,253.48 L459.816,241.36 L467.64,241.36 L467.64,247.36 C467.616,248.584 467.04,249.208 465.888,249.232 C465,249.232 464.136,249.184 463.272,249.136 L463.032,248.368 C463.944,248.416 464.856,248.464 465.72,248.464 C466.44,248.464 466.824,248.056 466.824,247.24 L466.824,242.104 Z M463.632,233.872 L464.304,233.872 C466.32,236.056 468.36,238.432 470.376,241 L469.824,241.576 C467.712,238.84 465.768,236.536 464.04,234.64 C462.072,237.52 459.888,240.064 457.512,242.224 L457.032,241.576 C459.48,239.368 461.664,236.8 463.632,233.872 Z M472.296,235.624 L473.112,235.624 L473.112,250.792 L472.296,250.792 L472.296,235.624 Z M476.112,255.064 L472.224,255.064 L472.056,254.272 C473.376,254.32 474.624,254.344 475.824,254.344 C476.448,254.344 476.784,253.96 476.784,253.216 L476.784,233.584 L477.6,233.584 L477.6,253.432 C477.6,254.512 477.096,255.064 476.112,255.064 Z M486.912,235.984 L482.808,235.984 L482.808,235.216 L491.64,235.216 C491.352,234.544 491.016,233.944 490.656,233.392 L491.52,233.248 C491.856,233.824 492.168,234.496 492.504,235.216 L501.192,235.216 L501.192,235.984 L497.04,235.984 L495.792,238.624 L502.344,238.624 L502.344,239.368 L481.656,239.368 L481.656,238.624 L487.992,238.624 L486.912,235.984 Z M488.832,238.624 L494.928,238.624 L496.2,235.984 L487.752,235.984 L488.832,238.624 Z M484.8,241.504 L499.2,241.504 L499.2,247.96 L484.8,247.96 L484.8,241.504 Z M498.384,247.24 L498.384,245.056 L485.616,245.056 L485.616,247.24 L498.384,247.24 Z M485.616,244.36 L498.384,244.36 L498.384,242.2 L485.616,242.2 L485.616,244.36 Z M483.792,249.4 C483.264,251.176 482.496,252.736 481.464,254.104 L482.184,254.56 C483.216,253.168 484.032,251.488 484.608,249.568 L483.792,249.4 Z M495.216,254.92 L489.36,254.92 C488.112,254.92 487.488,254.296 487.488,253.072 L487.488,249.736 L488.304,249.736 L488.304,252.88 C488.304,253.696 488.736,254.128 489.6,254.128 L495.048,254.128 C495.696,254.128 496.152,254.008 496.392,253.792 C496.728,253.48 496.968,252.592 497.088,251.128 L497.856,251.368 C497.736,253 497.448,254.008 496.992,254.44 C496.632,254.752 496.032,254.92 495.216,254.92 Z M491.736,248.992 C492.864,250.12 493.728,251.104 494.328,251.968 L493.632,252.472 C493.008,251.536 492.144,250.528 491.088,249.424 L491.736,248.992 Z M499.368,249.4 L498.696,249.808 C500.088,251.416 501.168,252.904 501.96,254.248 L502.632,253.768 C501.864,252.52 500.784,251.056 499.368,249.4 Z M513.144,234.112 L513.84,234.52 C512.712,236.56 511.584,238.24 510.456,239.536 C509.112,241.048 507.528,242.392 505.656,243.592 L505.2,242.872 C507,241.816 508.536,240.52 509.832,239.008 C511.08,237.568 512.184,235.936 513.144,234.112 Z M514.032,244.168 L508.632,244.168 L508.632,243.376 L522.624,243.376 C522.576,246.256 522.432,248.56 522.216,250.336 C521.976,252.064 521.592,253.288 521.064,254.008 C520.536,254.68 519.696,255.064 518.544,255.112 L514.416,255.112 L514.2,254.296 C515.592,254.32 516.888,254.344 518.112,254.344 C519.528,254.344 520.464,253.696 520.896,252.448 C521.376,251.152 521.664,248.392 521.808,244.168 L514.824,244.168 C514.248,247 513.432,249.208 512.352,250.84 C511.128,252.52 509.304,254.008 506.856,255.352 L506.352,254.68 C508.656,253.432 510.384,252.04 511.536,250.552 C512.664,248.944 513.504,246.808 514.032,244.168 Z M519.024,233.752 C520.512,237.64 523.056,240.664 526.68,242.872 L526.152,243.52 C522.408,241.12 519.792,238 518.328,234.136 L519.024,233.752 Z M533.208,238.744 L546.816,238.744 L546.816,242.992 L533.208,242.992 L533.208,238.744 Z M546.024,242.248 L546.024,239.512 L534,239.512 L534,242.248 L546.024,242.248 Z M539.232,233.464 L538.344,233.632 C538.824,234.28 539.256,235.024 539.664,235.864 L529.704,235.864 L529.704,236.68 L550.32,236.68 L550.32,235.864 L540.504,235.864 C540.12,234.952 539.688,234.16 539.232,233.464 Z M529.176,249.856 L529.176,250.648 L540,250.648 L540,253.36 C540,254.128 539.616,254.536 538.848,254.536 C538.032,254.536 536.928,254.512 535.512,254.488 L535.728,255.28 L539.184,255.28 C540.24,255.28 540.792,254.704 540.792,253.6 L540.792,250.648 L550.824,250.648 L550.824,249.856 L540.792,249.856 L540.792,248.848 C543.408,247.888 545.784,246.856 547.944,245.752 L547.944,245.128 L531.48,245.128 L531.48,245.896 L546.288,245.896 C544.224,246.856 542.136,247.72 540,248.488 L540,249.856 L529.176,249.856 Z M566.928,254.488 L561.528,254.488 C560.184,254.488 559.512,253.864 559.512,252.616 L559.512,238.528 L560.352,238.528 L560.352,252.448 C560.352,253.24 560.808,253.648 561.768,253.648 L566.784,253.648 C567.528,253.648 568.056,253.408 568.344,252.976 C568.728,252.328 568.992,250.48 569.136,247.456 L569.904,247.72 C569.76,250.84 569.424,252.784 568.944,253.6 C568.536,254.176 567.864,254.488 566.928,254.488 Z M556.104,241.36 C555.456,245.032 554.472,248.272 553.152,251.08 L553.872,251.536 C555.168,248.728 556.176,245.392 556.896,241.528 L556.104,241.36 Z M570.48,240.472 C572.208,243.448 573.72,246.616 574.992,249.976 L574.248,250.312 C572.856,246.712 571.32,243.52 569.64,240.76 L570.48,240.472 Z M561.648,233.824 C564.024,236.032 565.848,237.952 567.096,239.584 L566.4,240.064 C565.08,238.312 563.256,236.368 560.952,234.256 L561.648,233.824 Z M580.704,244.336 C579.72,245.368 578.616,246.328 577.368,247.216 L577.128,246.424 C579.912,244.384 581.88,242.128 583.056,239.632 L583.776,239.944 C583.152,241.192 582.408,242.344 581.52,243.424 L581.52,255.256 L580.704,255.256 L580.704,244.336 Z M582.936,233.512 L583.632,233.824 C582.24,236.44 580.152,238.672 577.368,240.52 L577.104,239.704 C579.84,237.832 581.784,235.768 582.936,233.512 Z M585.912,234.496 L596.712,234.496 L596.712,241.624 L585.912,241.624 L585.912,234.496 Z M595.92,240.88 L595.92,238.384 L586.704,238.384 L586.704,240.88 L595.92,240.88 Z M586.704,237.688 L595.92,237.688 L595.92,235.216 L586.704,235.216 L586.704,237.688 Z M584.64,243.856 L598.344,243.856 L598.344,244.624 L595.104,244.624 L595.104,247.48 L598.848,247.48 L598.848,248.224 L595.104,248.224 L595.104,253.552 C595.104,254.608 594.552,255.136 593.448,255.136 L590.736,255.136 L590.568,254.344 C591.48,254.392 592.344,254.416 593.16,254.416 C593.928,254.416 594.312,254.056 594.312,253.36 L594.312,248.224 L583.824,248.224 L583.824,247.48 L594.312,247.48 L594.312,244.624 L584.64,244.624 L584.64,243.856 Z M586.632,249.496 C588.096,250.84 589.224,252.04 590.016,253.096 L589.368,253.528 C588.456,252.352 587.328,251.152 586.008,249.928 L586.632,249.496 Z" id="时时刻刻-畅聊创意分享心得"></path>
            </g>
        </g>
    </g>
</svg>