<?xml version="1.0" encoding="UTF-8"?>
<svg width="330px" height="53px" viewBox="0 0 330 53" version="1.1" xmlns="http://www.w3.org/2000/svg" xmlns:xlink="http://www.w3.org/1999/xlink">
    <!-- Generator: Sketch 46.2 (44496) - http://www.bohemiancoding.com/sketch -->
    <title>私信在线交流</title>
    <desc>Created with Sketch.</desc>
    <defs></defs>
    <g id="Page-2" stroke="none" stroke-width="1" fill="none" fill-rule="evenodd">
        <g id="下载页-更多状态" transform="translate(-283.000000, -2093.000000)" fill="#282828">
            <g id="私信交流" transform="translate(0.000000, 1941.000000)">
                <path d="M323.624,176.32 C326.704,184.384 329.448,193.568 331.856,203.872 L330.008,204.376 C329.56,202.36 329.056,200.456 328.608,198.552 C321.104,200.064 312.928,201.464 304.192,202.752 L303.8,200.848 C304.472,200.624 304.92,200.344 305.032,200.008 L318.192,154.592 L320.152,154.872 L306.768,200.456 C315.336,199.224 322.448,197.936 328.104,196.704 C326.368,189.872 324.296,183.32 321.888,176.936 L323.624,176.32 Z M283.976,169.376 L294.784,169.376 L294.784,158.904 C291.648,159.464 288.344,159.968 284.872,160.36 L284.48,158.512 C292.432,157.672 299.376,156.272 305.424,154.256 L306.096,156.048 C303.184,157 299.992,157.84 296.632,158.568 L296.632,169.376 L306.544,169.376 L306.544,171.224 L296.632,171.224 L296.632,173.912 C299.544,176.936 302.512,180.408 305.536,184.328 L304.472,185.84 C301.448,181.528 298.816,178.168 296.632,175.704 L296.632,204.208 L294.784,204.208 L294.784,175.032 C292.432,181.528 288.848,187.24 284.032,192.28 L283.248,190.264 C288.736,184.664 292.544,178.336 294.672,171.224 L283.976,171.224 L283.976,169.376 Z M345.688,169.6 L345.688,204.488 L347.536,204.488 L347.536,166.296 C349.552,162.488 351.232,158.344 352.576,153.92 L350.784,153.08 C348.208,162.04 343.952,170.104 337.96,177.384 L338.576,179.4 C341.208,176.376 343.56,173.128 345.688,169.6 Z M353.528,161.928 L353.528,163.832 L389.48,163.832 L389.48,161.928 L353.528,161.928 Z M358.792,170.16 L358.792,171.952 L384.552,171.952 L384.552,170.16 L358.792,170.16 Z M358.792,178.056 L358.792,179.904 L384.552,179.904 L384.552,178.056 L358.792,178.056 Z M385.336,186.232 L385.336,204.32 L383.432,204.32 L383.432,201.072 L359.968,201.072 L359.968,204.32 L358.008,204.32 L358.008,186.232 L385.336,186.232 Z M359.968,199.224 L383.432,199.224 L383.432,188.08 L359.968,188.08 L359.968,199.224 Z M370.44,153.36 L368.592,153.92 C369.824,156.048 370.832,158.232 371.672,160.472 L373.352,159.8 C372.68,157.84 371.728,155.712 370.44,153.36 Z M412.328,180.352 L426.16,180.352 L426.16,169.04 L428.12,169.04 L428.12,180.352 L442.064,180.352 L442.064,182.256 L428.12,182.256 L428.12,200.456 L444.752,200.456 L444.752,202.36 L409.752,202.36 L409.752,200.456 L426.16,200.456 L426.16,182.256 L412.328,182.256 L412.328,180.352 Z M404.208,179.232 C401.576,182.2 398.664,185 395.472,187.632 L394.296,186.12 C402.08,179.68 408.072,172.232 412.216,163.832 L396.2,163.832 L396.2,161.928 L413.112,161.928 C414.344,159.128 415.352,156.272 416.248,153.36 L418.208,153.528 C417.312,156.44 416.304,159.24 415.184,161.928 L444.584,161.928 L444.584,163.832 L414.288,163.832 C412.048,168.536 409.36,172.904 406.112,176.936 L406.112,204.488 L404.208,204.488 L404.208,179.232 Z M470.344,194.576 L470.344,196.424 C464.744,198.664 458.472,200.456 451.416,201.8 L451.136,199.952 C458.416,198.608 464.856,196.816 470.344,194.576 Z M461.72,153.304 C459.088,160.808 455.952,167.192 452.256,172.512 C451.976,172.848 451.696,173.128 451.416,173.296 L451.92,175.088 C455.392,174.696 459.088,174.192 462.952,173.632 C459.368,179.792 456.288,184.272 453.6,187.072 C453.376,187.296 453.04,187.464 452.704,187.632 L453.264,189.424 C458.528,188.752 464.016,187.52 469.672,185.728 L469.672,183.936 C465.08,185.448 460.32,186.624 455.448,187.408 C458.976,183.656 463.624,176.376 469.336,165.624 L467.6,164.952 C466.368,167.36 465.136,169.656 463.96,171.84 C460.488,172.4 457.128,172.848 453.768,173.128 C457.016,168.704 460.264,162.32 463.512,154.032 L461.72,153.304 Z M497.392,164.056 L497.672,165.96 L482.608,168.144 C482.664,171.504 482.888,174.64 483.224,177.608 L498.904,175.088 L499.184,176.992 L483.448,179.512 C483.616,181.192 483.84,182.816 484.176,184.384 C484.792,187.632 485.632,190.488 486.64,192.952 C490.28,189.816 493.528,186.064 496.328,181.752 L497.952,182.76 C494.704,187.464 491.176,191.44 487.368,194.688 C487.816,195.696 488.376,196.704 488.936,197.6 C490.952,200.512 492.8,201.968 494.48,201.968 C496.272,201.968 497.784,198.44 499.016,191.384 L500.696,192.392 C499.296,200.12 497.28,203.984 494.704,203.984 C492.24,203.872 489.832,202.192 487.592,198.832 C486.92,197.88 486.36,196.928 485.856,195.92 C481.376,199.336 476.616,201.8 471.576,203.368 L470.4,201.8 C475.888,200.008 480.76,197.488 485.072,194.184 C483.952,191.608 483,188.584 482.328,185.168 C481.992,183.376 481.712,181.64 481.488,179.848 L470.568,181.584 L470.288,179.68 L481.264,177.944 C480.928,174.92 480.704,171.784 480.648,168.424 L471.576,169.712 L471.296,167.864 L480.592,166.52 L480.592,153.528 L482.496,153.528 L482.496,164.392 C482.496,165.008 482.496,165.624 482.552,166.24 L497.392,164.056 Z M488.656,153.472 C491.848,156.272 494.256,158.792 495.936,160.92 L494.424,161.984 C492.632,159.688 490.224,157.168 487.144,154.424 L488.656,153.472 Z M507.528,160.92 L507.528,162.768 L556.528,162.768 L556.528,160.92 L534.016,160.92 C532.896,158.008 531.664,155.432 530.432,153.192 L528.36,153.584 C529.704,155.712 530.936,158.176 532.056,160.92 L507.528,160.92 Z M540.232,166.072 C546.448,171.112 551.656,176.208 555.8,181.304 L554.4,182.648 C550.48,177.832 545.328,172.68 538.888,167.304 L540.232,166.072 Z M542.416,176.32 L544.208,177.104 C541.408,182.592 537.88,187.24 533.624,191.16 C539.896,196.088 547.624,199.784 556.92,202.248 L555.8,203.984 C546.28,201.296 538.384,197.488 532.168,192.448 C525.784,197.88 517.888,201.8 508.536,204.264 L507.416,202.584 C516.824,200.12 524.608,196.368 530.712,191.272 C526.176,187.352 522.536,182.872 519.792,177.776 L521.472,176.824 C524.16,181.864 527.744,186.288 532.168,189.984 C536.424,186.064 539.84,181.472 542.416,176.32 Z M523.488,166.072 L524.888,167.36 C520.632,172.848 515.424,177.72 509.152,181.864 L507.92,180.296 C514.08,176.264 519.232,171.504 523.488,166.072 Z M579.936,175.76 C589.68,175.256 598.696,174.584 606.984,173.688 C607.992,175.144 608.888,176.656 609.672,178.112 L611.184,176.992 C609.28,173.52 606.424,169.544 602.728,164.952 L601.216,165.904 C602.896,168.032 604.464,170.048 605.864,172.064 C598.136,172.96 590.408,173.576 582.624,173.968 C585.032,171.84 587.944,167.808 591.304,161.816 L611.8,161.816 L611.8,160.024 L596.512,160.024 C595.56,157.336 594.552,154.928 593.488,152.8 L591.584,153.192 C592.704,155.208 593.712,157.448 594.608,160.024 L577.92,160.024 L577.92,161.816 L589.344,161.816 C585.424,168.424 582.288,172.456 579.936,173.912 C579.824,173.968 579.656,174.024 579.488,174.08 L579.936,175.76 Z M566.552,154.816 L565.208,156.104 C568.792,158.624 571.648,161.088 573.776,163.44 L575.176,162.04 C572.824,159.632 569.968,157.224 566.552,154.816 Z M565.208,168.144 L563.808,169.432 C567.504,172.344 570.528,175.088 572.768,177.664 L574.112,176.32 C571.76,173.632 568.792,170.888 565.208,168.144 Z M572.824,182.704 C570.64,189.592 568.064,196.312 565.096,202.92 L566.832,203.704 C569.632,197.376 572.208,190.6 574.504,183.376 L572.824,182.704 Z M592.144,179.4 L592.144,203.2 L594.104,203.2 L594.104,179.4 L592.144,179.4 Z M583.072,179.344 C582.848,186.176 582.176,191.272 581.056,194.52 C579.824,197.712 577.752,200.456 574.84,202.752 L576.016,204.264 C579.152,201.8 581.448,198.832 582.792,195.248 C584.024,191.888 584.752,186.568 584.976,179.344 L583.072,179.344 Z M608.44,203.76 C610.288,203.704 611.464,203.2 612.024,202.248 C612.584,201.184 612.92,198.496 612.92,194.184 L611.184,193.568 C611.184,196.872 611.016,199.168 610.736,200.456 C610.456,201.408 609.672,201.912 608.328,201.968 L605.08,201.968 C604.016,201.912 603.512,201.24 603.512,200.008 L603.512,179.456 L601.664,179.456 L601.664,200.232 C601.664,202.584 602.784,203.76 605.136,203.76 L608.44,203.76 Z" id="私信在线交流"></path>
            </g>
        </g>
    </g>
</svg>