<?xml version="1.0" encoding="UTF-8"?>
<svg width="331px" height="53px" viewBox="0 0 331 53" version="1.1" xmlns="http://www.w3.org/2000/svg" xmlns:xlink="http://www.w3.org/1999/xlink">
    <!-- Generator: Sketch 46.2 (44496) - http://www.bohemiancoding.com/sketch -->
    <title>发现更多可能</title>
    <desc>Created with Sketch.</desc>
    <defs></defs>
    <g id="Page-2" stroke="none" stroke-width="1" fill="none" fill-rule="evenodd">
        <g id="下载页-更多状态" transform="translate(-806.000000, -2730.000000)" fill="#282828">
            <g id="发现更多" transform="translate(0.000000, 2578.000000)">
                <path d="M811.728,169.432 L816.096,155.152 L818,155.488 L814.192,167.584 L826.456,167.584 C827.688,162.88 828.696,158.008 829.424,152.856 L831.384,153.08 C830.6,158.232 829.592,163.104 828.416,167.584 L855.52,167.584 L855.52,169.432 L827.912,169.432 C827.016,172.344 826.12,175.144 825.112,177.72 L848.744,177.72 L848.744,179.456 C847.064,184.664 843.536,189.368 838.272,193.568 C843.2,196.872 849.36,199.84 856.752,202.472 L855.8,204.152 C848.072,201.352 841.744,198.216 836.816,194.744 C831.944,198.272 825.84,201.464 818.504,204.264 L817.552,202.528 C824.72,199.84 830.656,196.872 835.248,193.624 C829.704,189.48 826.008,184.944 824.16,180.016 C820.016,189.872 814.472,197.6 807.584,203.2 L806.632,201.464 C815.536,193.792 821.976,183.096 825.952,169.432 L811.728,169.432 Z M825.84,179.568 C827.744,184.328 831.328,188.64 836.704,192.504 C841.8,188.528 845.16,184.216 846.728,179.568 L825.84,179.568 Z M840.792,153.976 C844.936,157.224 848.408,160.472 851.208,163.776 L849.808,165.176 C847.232,162.04 843.76,158.68 839.504,155.152 L840.792,153.976 Z M908.328,156.272 L908.328,186.4 L906.424,186.4 L906.424,158.12 L887.048,158.12 L887.048,186.4 L885.088,186.4 L885.088,156.272 L908.328,156.272 Z M907.88,203.48 L902,203.48 C899.648,203.48 898.472,202.304 898.472,200.064 L898.472,186.176 L900.376,186.176 L900.376,199.672 C900.376,200.96 901.104,201.632 902.56,201.632 L907.488,201.632 C908.832,201.632 909.728,201.296 910.176,200.68 C910.848,199.784 911.352,197.376 911.576,193.344 L913.368,193.904 C913.088,198.272 912.472,201.072 911.576,202.192 C910.792,203.032 909.56,203.48 907.88,203.48 Z M895.56,162.88 L897.408,162.88 L897.408,176.992 C897.352,184.328 895.952,190.208 893.208,194.576 C890.52,198.608 886.096,201.856 879.936,204.264 L878.816,202.584 C884.864,200.344 889.176,197.208 891.864,193.12 C894.272,188.976 895.504,183.6 895.56,176.992 L895.56,162.88 Z M863.808,174.976 L871.088,174.976 L871.088,159.856 L863.08,159.856 L863.08,158.008 L880.888,158.008 L880.888,159.856 L872.992,159.856 L872.992,174.976 L880.104,174.976 L880.104,176.88 L872.992,176.88 L872.992,192.168 C875.792,191.272 878.48,190.32 881.056,189.256 L881.056,191.16 C875.624,193.344 869.744,195.136 863.416,196.592 L862.968,194.744 C865.768,194.184 868.456,193.512 871.088,192.728 L871.088,176.88 L863.808,176.88 L863.808,174.976 Z M920.536,156.272 L967.52,156.272 L967.52,158.12 L945.008,158.12 L945.008,164.56 L962.704,164.56 L962.704,185.392 L944.504,185.392 C943.832,189.816 942.488,193.288 940.528,195.808 C948.648,199.616 958.336,201.744 969.592,202.192 L969.088,203.984 C957.552,203.536 947.584,201.24 939.296,197.152 C935.6,200.736 929.104,203.032 919.808,204.152 L918.968,202.416 C927.872,201.464 934.088,199.448 937.56,196.312 C933.752,194.24 930.28,191.832 927.256,189.144 L928.768,188.08 C931.792,190.768 935.096,193.064 938.792,194.968 C940.696,192.504 941.928,189.312 942.6,185.392 L925.52,185.392 L925.52,164.56 L943.104,164.56 L943.104,158.12 L920.536,158.12 L920.536,156.272 Z M960.856,183.656 L960.856,175.76 L945.008,175.76 L945.008,178.784 C944.952,180.52 944.84,182.144 944.728,183.656 L960.856,183.656 Z M942.824,183.656 C942.992,182.088 943.104,180.464 943.104,178.784 L943.104,175.76 L927.424,175.76 L927.424,183.656 L942.824,183.656 Z M927.424,174.024 L943.104,174.024 L943.104,166.352 L927.424,166.352 L927.424,174.024 Z M945.008,166.352 L945.008,174.024 L960.856,174.024 L960.856,166.352 L945.008,166.352 Z M1000.728,153.584 L1002.408,154.48 C1000.896,156.16 999.216,157.728 997.424,159.072 L1015.456,159.072 L1015.456,160.696 C1009.408,171.448 998.152,177.44 981.8,178.672 L980.904,176.88 C986.616,176.488 991.656,175.536 996.08,174.08 C994.064,171.504 991.936,169.264 989.696,167.304 L991.376,166.464 C993.728,168.592 995.912,170.944 997.872,173.408 C1004.592,170.664 1009.744,166.464 1013.216,160.864 L994.848,160.864 C990.48,163.552 985.272,165.512 979.168,166.856 L978.048,165.176 C988.128,163.16 995.688,159.296 1000.728,153.584 Z M996.584,188.472 C998.992,190.936 1001.232,193.68 1003.36,196.592 C1010.64,193.512 1016.24,188.864 1020.16,182.704 L1001.848,182.704 C996.808,185.224 990.76,186.96 983.704,187.968 L982.584,186.288 C994.792,184.944 1003.864,181.08 1009.856,174.64 L1011.48,175.592 C1009.632,177.552 1007.504,179.288 1005.152,180.856 L1022.568,180.856 L1022.568,182.424 C1014.728,195.864 1000.056,202.752 978.496,203.144 L977.712,201.24 C987.008,201.128 994.96,199.784 1001.624,197.32 C999.44,194.296 997.2,191.664 994.848,189.312 L996.584,188.472 Z M1031.36,157.392 L1080.752,157.392 L1080.752,159.296 L1072.856,159.296 L1072.856,199.112 C1072.856,202.304 1071.232,203.928 1068.04,203.928 L1058.856,203.928 L1058.464,202.08 C1061.6,202.136 1064.568,202.192 1067.368,202.192 C1069.72,202.192 1070.896,200.96 1070.896,198.608 L1070.896,159.296 L1031.36,159.296 L1031.36,157.392 Z M1058.576,169.936 L1058.576,188.864 L1040.376,188.864 L1040.376,194.296 L1038.472,194.296 L1038.472,169.936 L1058.576,169.936 Z M1040.376,187.072 L1056.728,187.072 L1056.728,171.728 L1040.376,171.728 L1040.376,187.072 Z M1092.904,184.608 L1092.904,191.608 L1108.024,191.608 L1108.024,184.608 L1092.904,184.608 Z M1108.024,182.816 L1108.024,175.704 L1092.904,175.704 L1092.904,182.816 L1108.024,182.816 Z M1092.904,193.4 L1092.904,204.432 L1091.056,204.432 L1091.056,173.856 L1109.928,173.856 L1109.928,200.568 C1109.928,202.864 1108.696,204.04 1106.288,204.04 L1101.584,204.04 L1101.136,202.192 L1105.672,202.248 C1107.24,202.248 1108.024,201.576 1108.024,200.232 L1108.024,193.4 L1092.904,193.4 Z M1130.368,177.384 C1132.216,177.384 1133.56,176.936 1134.344,176.096 C1135.352,174.976 1135.968,172.232 1136.304,167.864 L1134.512,167.248 C1134.232,171.28 1133.728,173.744 1133,174.696 C1132.44,175.256 1131.432,175.592 1129.976,175.592 L1121.576,175.592 C1119.784,175.592 1118.944,174.752 1118.944,173.072 L1118.944,163.776 C1125.384,162.824 1131.04,161.704 1135.968,160.36 L1135.296,158.624 C1131.152,159.744 1125.72,160.864 1118.944,161.928 L1118.944,153.584 L1117.096,153.584 L1117.096,173.464 C1117.096,176.04 1118.384,177.384 1121.016,177.384 L1130.368,177.384 Z M1118.944,189.704 C1125.048,189.2 1130.704,188.136 1135.968,186.568 L1135.296,184.776 C1130.536,186.288 1125.104,187.352 1118.944,187.912 L1118.944,179.904 L1117.096,179.904 L1117.096,199.952 C1117.096,202.304 1118.328,203.48 1120.792,203.48 L1130.704,203.48 C1132.608,203.48 1134.008,203.088 1134.848,202.304 C1135.912,201.184 1136.584,198.44 1136.864,194.128 L1135.128,193.624 C1134.848,197.544 1134.288,199.952 1133.504,200.848 C1132.944,201.408 1131.88,201.688 1130.312,201.688 L1121.352,201.688 C1119.728,201.688 1118.944,200.96 1118.944,199.56 L1118.944,189.704 Z M1105.728,157.56 L1104.216,158.512 C1106.064,160.92 1107.688,163.216 1109.144,165.456 C1102.536,166.408 1096.208,167.024 1090.272,167.304 C1093.688,164.448 1096.936,160.08 1099.96,154.2 L1098.112,153.64 C1095.2,159.24 1091.952,163.664 1088.312,166.856 C1088.032,167.08 1087.752,167.304 1087.416,167.416 L1087.92,169.096 C1096.656,168.648 1104.048,167.92 1110.096,166.968 C1110.936,168.312 1111.72,169.656 1112.392,170.944 L1113.96,169.824 C1112.056,166.352 1109.312,162.264 1105.728,157.56 Z" id="发现更多可能"></path>
            </g>
        </g>
    </g>
</svg>