<?xml version="1.0" encoding="UTF-8"?>
<svg width="374px" height="23px" viewBox="0 0 374 23" version="1.1" xmlns="http://www.w3.org/2000/svg" xmlns:xlink="http://www.w3.org/1999/xlink">
    <!-- Generator: Sketch 46.2 (44496) - http://www.bohemiancoding.com/sketch -->
    <title>十全十美 陪你一览设计路上好风光</title>
    <desc>Created with Sketch.</desc>
    <defs></defs>
    <g id="Page-2" stroke="none" stroke-width="1" fill="none" fill-rule="evenodd">
        <g id="下载页-更多状态" transform="translate(-785.000000, -2811.000000)" fill="#888888">
            <g id="发现更多" transform="translate(0.000000, 2578.000000)">
                <path d="M795.672,233.56 L795.672,241.72 L785.496,241.72 L785.496,242.536 L795.672,242.536 L795.672,255.256 L796.488,255.256 L796.488,242.536 L806.568,242.536 L806.568,241.72 L796.488,241.72 L796.488,233.56 L795.672,233.56 Z M819.72,233.728 L820.296,233.728 C823.368,236.992 826.872,239.584 830.856,241.456 L830.448,242.152 C826.368,240.184 822.888,237.616 820.008,234.496 C817.344,237.52 813.84,240.16 809.472,242.368 L809.088,241.648 C813.336,239.536 816.888,236.896 819.72,233.728 Z M813.336,241.48 L826.728,241.48 L826.728,242.272 L820.416,242.272 L820.416,247.36 L827.712,247.36 L827.712,248.152 L820.416,248.152 L820.416,253.648 L829.896,253.648 L829.896,254.464 L810.144,254.464 L810.144,253.648 L819.6,253.648 L819.6,248.152 L812.28,248.152 L812.28,247.36 L819.6,247.36 L819.6,242.272 L813.336,242.272 L813.336,241.48 Z M843.672,233.56 L843.672,241.72 L833.496,241.72 L833.496,242.536 L843.672,242.536 L843.672,255.256 L844.488,255.256 L844.488,242.536 L854.568,242.536 L854.568,241.72 L844.488,241.72 L844.488,233.56 L843.672,233.56 Z M858.432,236.224 L858.432,236.992 L867.6,236.992 L867.6,240.064 L859.752,240.064 L859.752,240.832 L867.6,240.832 L867.6,243.928 L857.616,243.928 L857.616,244.744 L878.4,244.744 L878.4,243.928 L868.416,243.928 L868.416,240.832 L876.36,240.832 L876.36,240.064 L868.416,240.064 L868.416,236.992 L877.584,236.992 L877.584,236.224 L871.656,236.224 C872.184,235.384 872.568,234.472 872.808,233.512 L871.968,233.392 C871.728,234.376 871.344,235.312 870.84,236.224 L865.272,236.224 C864.84,235.168 864.408,234.232 863.928,233.416 L863.112,233.56 C863.616,234.328 864.048,235.216 864.432,236.224 L858.432,236.224 Z M867.768,245.608 C867.624,246.472 867.432,247.312 867.144,248.104 L858.192,248.104 L858.192,248.92 L866.784,248.92 C866.304,249.904 865.656,250.744 864.84,251.464 C863.256,252.832 860.688,253.864 857.112,254.584 L857.472,255.4 C861.312,254.584 863.976,253.456 865.488,252.016 C866.424,251.152 867.168,250.12 867.696,248.92 L867.936,248.92 C869.592,252.04 873.12,254.152 878.52,255.304 L878.952,254.56 C873.864,253.576 870.456,251.704 868.776,248.92 L877.848,248.92 L877.848,248.104 L868.032,248.104 C868.272,247.384 868.464,246.568 868.584,245.704 L867.768,245.608 Z M898.464,234.76 L898.464,255.184 L899.28,255.184 L899.28,235.576 L903.984,235.576 C903.36,237.736 902.496,240.16 901.344,242.848 C903.096,244.84 903.984,246.64 903.984,248.272 C903.984,248.992 903.768,249.496 903.384,249.784 C903,250.096 902.208,250.288 901.056,250.36 C900.912,250.36 900.768,250.336 900.6,250.312 L900.864,251.152 C902.4,251.128 903.456,250.864 904.032,250.336 C904.512,249.904 904.752,249.208 904.776,248.272 C904.68,246.496 903.816,244.624 902.208,242.704 C903.216,240.208 904.104,237.784 904.824,235.432 L904.824,234.76 L898.464,234.76 Z M906.144,236.176 L906.144,236.992 L917.928,236.992 L917.928,236.176 L912.576,236.176 C912.288,235.12 911.976,234.16 911.664,233.344 L910.776,233.488 C911.16,234.28 911.496,235.168 911.784,236.176 L906.144,236.176 Z M905.448,242.728 L905.448,243.544 L918.72,243.544 L918.72,242.728 L914.88,242.728 C915.6,241.576 916.248,240.232 916.824,238.72 L916.056,238.456 C915.504,239.992 914.832,241.408 914.064,242.728 L910.344,242.728 C909.768,241.096 909.096,239.704 908.376,238.552 L907.632,238.84 C908.4,240.04 909.048,241.336 909.552,242.728 L905.448,242.728 Z M916.776,246.712 L916.776,255.184 L915.984,255.184 L915.984,253.624 L908.136,253.624 L908.136,255.184 L907.32,255.184 L907.32,246.712 L916.776,246.712 Z M908.136,252.832 L915.984,252.832 L915.984,247.528 L908.136,247.528 L908.136,252.832 Z M924.432,240.688 C923.472,242.224 922.392,243.664 921.192,244.984 L920.928,244.144 C923.664,240.952 925.632,237.376 926.808,233.44 L927.552,233.8 C926.928,235.72 926.16,237.544 925.272,239.224 L925.272,255.304 L924.432,255.304 L924.432,240.688 Z M938.736,243.04 L937.968,243.304 C939.264,246.04 940.464,249.184 941.544,252.736 L942.288,252.424 C941.28,249.088 940.08,245.968 938.736,243.04 Z M930.864,237.568 C930.048,239.56 929.064,241.36 927.96,242.992 L927.264,242.56 C929.136,239.896 930.528,236.824 931.44,233.32 L932.256,233.488 C931.92,234.64 931.56,235.72 931.176,236.752 L941.688,236.752 L941.688,237.304 C941.304,238.84 940.752,240.352 940.08,241.816 L939.288,241.576 C939.936,240.328 940.464,239.008 940.848,237.568 L930.864,237.568 Z M934.248,255.112 L931.008,255.112 L930.84,254.32 C931.92,254.368 932.952,254.392 933.96,254.392 C934.584,254.392 934.92,254.056 934.92,253.432 L934.92,240.04 L935.712,240.04 L935.712,253.648 C935.712,254.608 935.208,255.112 934.248,255.112 Z M931.032,243.16 L931.776,243.376 C930.864,246.784 929.664,249.784 928.224,252.328 L927.432,252.04 C928.824,249.736 930.024,246.76 931.032,243.16 Z M945.312,243.784 L945.312,244.6 L966.648,244.6 L966.648,243.784 L945.312,243.784 Z M985.728,242.536 L985.728,250.768 L984.936,250.768 L984.936,243.304 L974.544,243.304 L974.544,250.864 L973.728,250.864 L973.728,242.536 L985.728,242.536 Z M979.224,245.248 L980.016,245.248 L980.016,246.832 C979.992,249.136 979.224,251.008 977.688,252.4 C976.176,253.672 973.704,254.68 970.272,255.448 L969.768,254.704 C973.176,254.032 975.624,253.048 977.16,251.8 C978.504,250.504 979.176,248.848 979.224,246.832 L979.224,245.248 Z M987.504,254.92 L982.872,254.92 C981.72,254.92 981.144,254.32 981.144,253.12 L981.144,248.152 L981.936,248.152 L981.936,252.952 C981.936,253.72 982.32,254.128 983.112,254.128 L987.36,254.128 C988.08,254.128 988.584,253.984 988.872,253.696 C989.256,253.312 989.496,252.208 989.64,250.408 L990.408,250.648 C990.264,252.616 989.952,253.84 989.472,254.344 C989.064,254.728 988.416,254.92 987.504,254.92 Z M975.96,233.464 L975.96,241.168 L976.752,241.168 L976.752,233.464 L975.96,233.464 Z M971.232,234.52 L971.232,240.784 L972.024,240.784 L972.024,234.52 L971.232,234.52 Z M982.224,236.392 C981.408,237.976 980.424,239.296 979.32,240.328 L978.696,239.752 C980.424,238.144 981.744,235.984 982.632,233.296 L983.424,233.488 C983.16,234.232 982.896,234.928 982.608,235.6 L990.36,235.6 L990.36,236.392 L982.224,236.392 Z M984.36,237.664 C985.824,238.576 987.192,239.656 988.44,240.904 L987.912,241.504 C986.616,240.208 985.248,239.104 983.784,238.144 L984.36,237.664 Z M995.52,234.136 L994.944,234.688 C996.528,235.984 997.776,237.208 998.712,238.36 L999.288,237.784 C998.28,236.584 997.008,235.36 995.52,234.136 Z M993.216,241.192 L997.656,241.192 L997.656,252.664 C998.688,251.896 999.816,250.912 1001.064,249.712 L1001.28,250.6 C999.888,251.944 998.376,253.168 996.768,254.224 L996.432,253.504 C996.696,253.24 996.84,253 996.84,252.76 L996.84,242.008 L993.216,242.008 L993.216,241.192 Z M1001.688,243.928 L1012.752,243.928 L1012.752,244.72 C1011.888,247.216 1010.448,249.304 1008.48,251.032 C1010.28,252.376 1012.488,253.552 1015.08,254.536 L1014.624,255.232 C1011.936,254.176 1009.68,252.928 1007.904,251.536 C1005.936,253.096 1003.488,254.344 1000.56,255.256 L1000.104,254.56 C1002.96,253.648 1005.336,252.472 1007.256,251.008 C1005.12,249.184 1003.68,247.096 1002.936,244.744 L1001.688,244.744 L1001.688,243.928 Z M1003.728,244.744 C1004.448,246.928 1005.816,248.848 1007.832,250.528 C1009.728,248.896 1011.096,246.976 1011.936,244.744 L1003.728,244.744 Z M1003.776,234.688 L1011.168,234.688 L1011.168,240.136 C1011.168,240.808 1011.48,241.144 1012.152,241.144 L1014.528,241.144 L1014.528,241.912 L1012.032,241.912 C1010.88,241.912 1010.328,241.336 1010.328,240.232 L1010.328,235.48 L1004.616,235.48 L1004.616,236.56 C1004.616,239.176 1003.416,241.192 1001.064,242.608 L1000.512,241.984 C1002.672,240.736 1003.776,238.96 1003.776,236.656 L1003.776,234.688 Z M1024.704,241.048 L1031.544,241.048 L1031.544,233.488 L1032.408,233.488 L1032.408,241.048 L1038.912,241.048 L1038.912,241.864 L1032.408,241.864 L1032.408,255.328 L1031.544,255.328 L1031.544,241.864 L1024.704,241.864 L1024.704,241.048 Z M1019.448,233.824 L1018.872,234.376 C1020.672,235.768 1022.136,237.088 1023.24,238.336 L1023.792,237.76 C1022.616,236.44 1021.176,235.12 1019.448,233.824 Z M1017.216,241.144 L1021.824,241.144 L1021.824,252.592 C1022.904,251.752 1024.08,250.72 1025.328,249.52 L1025.52,250.384 C1024.104,251.8 1022.592,253.048 1020.96,254.152 L1020.624,253.432 C1020.888,253.192 1021.032,252.952 1021.032,252.736 L1021.032,241.96 L1017.216,241.96 L1017.216,241.144 Z M1042.512,234.736 L1049.232,234.736 L1049.232,241.504 L1046.712,241.504 L1046.712,246.16 L1049.616,246.16 L1049.616,246.976 L1046.712,246.976 L1046.712,252.592 C1047.96,252.208 1049.112,251.8 1050.216,251.392 L1050.216,252.208 C1047.72,253.144 1044.792,254.032 1041.408,254.848 L1041.192,254.032 C1041.696,253.912 1042.2,253.792 1042.68,253.696 L1042.68,244.456 L1043.448,244.456 L1043.448,253.504 C1044.288,253.288 1045.104,253.072 1045.92,252.832 L1045.92,241.504 L1042.512,241.504 L1042.512,234.736 Z M1048.44,240.688 L1048.44,235.552 L1043.328,235.552 L1043.328,240.688 L1048.44,240.688 Z M1060.848,246.688 L1060.848,255.208 L1060.056,255.208 L1060.056,253.936 L1052.688,253.936 L1052.688,255.208 L1051.872,255.208 L1051.872,246.688 L1060.848,246.688 Z M1052.688,253.168 L1060.056,253.168 L1060.056,247.456 L1052.688,247.456 L1052.688,253.168 Z M1054.416,233.44 L1055.232,233.56 C1054.992,234.328 1054.728,235.048 1054.416,235.744 L1060.848,235.744 L1060.848,236.368 C1059.888,238.528 1058.544,240.448 1056.792,242.08 C1058.52,243.616 1060.632,244.768 1063.104,245.56 L1062.624,246.232 C1060.08,245.392 1057.944,244.168 1056.24,242.584 C1054.56,244.048 1052.52,245.296 1050.168,246.304 L1049.664,245.632 C1052.016,244.624 1054.008,243.424 1055.664,242.032 C1054.56,240.904 1053.624,239.632 1052.904,238.192 C1052.184,239.104 1051.392,239.92 1050.48,240.688 L1049.976,240.016 C1052.16,238.24 1053.648,236.032 1054.416,233.44 Z M1053.384,237.496 C1054.128,239.056 1055.064,240.4 1056.216,241.528 C1057.8,240.04 1059.048,238.384 1059.936,236.512 L1054.008,236.512 C1053.816,236.848 1053.6,237.184 1053.384,237.496 Z M1074.432,233.488 L1074.432,253.336 L1065.456,253.336 L1065.456,254.152 L1086.576,254.152 L1086.576,253.336 L1075.296,253.336 L1075.296,242.056 L1084.176,242.056 L1084.176,241.264 L1075.296,241.264 L1075.296,233.488 L1074.432,233.488 Z M1093.512,233.152 L1094.328,233.248 C1093.992,235.12 1093.68,236.848 1093.368,238.408 L1097.784,238.408 L1097.784,238.96 C1097.496,242.848 1096.608,246.208 1095.168,249.016 C1096.704,250.216 1097.952,251.32 1098.912,252.28 L1098.36,252.904 C1097.4,251.944 1096.224,250.888 1094.784,249.76 C1093.512,251.968 1091.88,253.816 1089.864,255.328 L1089.336,254.632 C1091.328,253.168 1092.936,251.368 1094.16,249.256 C1093.008,248.344 1091.712,247.408 1090.32,246.4 C1091.088,244.192 1091.784,241.792 1092.384,239.2 L1089.432,239.2 L1089.432,238.408 L1092.552,238.408 C1092.912,236.728 1093.224,234.976 1093.512,233.152 Z M1094.544,248.536 C1095.888,245.896 1096.704,242.776 1096.992,239.2 L1093.2,239.2 C1092.576,242.008 1091.904,244.312 1091.232,246.136 C1092.432,246.976 1093.536,247.768 1094.544,248.536 Z M1098.984,243.904 L1098.984,244.72 L1104.816,244.72 L1104.816,253.024 C1104.816,253.84 1104.432,254.272 1103.664,254.272 C1102.536,254.272 1101.48,254.248 1100.496,254.248 L1100.712,255.04 L1104,255.04 C1105.08,255.04 1105.632,254.44 1105.632,253.288 L1105.632,244.72 L1110.912,244.72 L1110.912,243.904 L1105.632,243.904 L1105.632,240.712 C1107.168,239.224 1108.56,237.616 1109.76,235.888 L1109.76,235.072 L1099.728,235.072 L1099.728,235.888 L1108.824,235.888 C1107.552,237.688 1106.208,239.2 1104.816,240.448 L1104.816,243.904 L1098.984,243.904 Z M1119.6,239.128 C1121.232,241.096 1122.696,242.992 1124.016,244.768 C1125.168,242.728 1126.08,240.52 1126.728,238.12 L1127.568,238.264 C1126.8,240.952 1125.768,243.352 1124.52,245.464 C1126.128,247.672 1127.472,249.688 1128.528,251.56 L1127.808,252.04 C1126.752,250.168 1125.504,248.248 1124.064,246.232 C1122.504,248.656 1120.608,250.72 1118.376,252.448 L1117.824,251.776 C1120.128,250 1122.048,247.912 1123.56,245.512 C1122.168,243.592 1120.608,241.6 1118.904,239.536 L1119.6,239.128 Z M1116.216,234.688 L1131.024,234.688 L1131.024,243.976 C1131.024,248.32 1131.192,251.104 1131.576,252.352 C1131.936,253.528 1132.368,254.128 1132.896,254.128 C1133.376,254.104 1133.784,252.784 1134.096,250.144 L1134.816,250.504 C1134.576,252.232 1134.312,253.456 1133.976,254.224 C1133.688,254.752 1133.352,255.016 1132.968,255.016 C1132.008,255.016 1131.312,254.272 1130.88,252.808 C1130.4,251.344 1130.184,248.392 1130.184,243.976 L1130.184,235.504 L1117.008,235.504 L1117.008,243.688 C1116.96,248.272 1115.976,252.112 1114.08,255.232 L1113.432,254.68 C1115.208,251.752 1116.12,248.104 1116.216,243.688 L1116.216,234.688 Z M1147.584,233.464 L1148.4,233.464 L1148.4,242.848 L1158.36,242.848 L1158.36,243.664 L1151.064,243.664 L1151.064,252.64 C1151.064,253.432 1151.472,253.84 1152.312,253.84 L1155.552,253.84 C1156.32,253.84 1156.848,253.672 1157.136,253.336 C1157.52,252.856 1157.784,251.464 1157.928,249.208 L1158.696,249.472 C1158.552,251.848 1158.24,253.336 1157.736,253.936 C1157.328,254.392 1156.656,254.632 1155.72,254.632 L1152.048,254.632 C1150.848,254.632 1150.248,254.008 1150.248,252.808 L1150.248,243.664 L1145.448,243.664 L1145.448,243.976 C1145.424,246.976 1144.8,249.376 1143.576,251.176 C1142.376,252.856 1140.384,254.176 1137.648,255.136 L1137.192,254.416 C1139.856,253.504 1141.8,252.232 1143,250.552 C1144.056,248.872 1144.584,246.664 1144.608,243.976 L1144.608,243.664 L1137.648,243.664 L1137.648,242.848 L1147.584,242.848 L1147.584,233.464 Z M1155.552,234.712 L1156.344,235.072 C1155.48,237.088 1154.376,239.032 1152.984,240.928 L1152.24,240.568 C1153.632,238.6 1154.736,236.632 1155.552,234.712 Z M1140.456,234.904 C1141.728,236.632 1142.904,238.528 1143.984,240.568 L1143.24,240.928 C1142.112,238.816 1140.936,236.944 1139.688,235.288 L1140.456,234.904 Z" id="十全十美-陪你一览设计路上好风光"></path>
            </g>
        </g>
    </g>
</svg>