<?xml version="1.0" encoding="UTF-8"?>
<svg width="579px" height="20px" viewBox="0 0 579 20" version="1.1" xmlns="http://www.w3.org/2000/svg" xmlns:xlink="http://www.w3.org/1999/xlink">
    <!-- Generator: Sketch 46.2 (44496) - http://www.bohemiancoding.com/sketch -->
    <title>拥抱社群，沟通世界，展示交流，获得关注，</title>
    <desc>Created with Sketch.</desc>
    <defs></defs>
    <g id="Page-2" stroke="none" stroke-width="1" fill="none" fill-rule="evenodd">
        <g id="下载页-更多状态" transform="translate(-430.000000, -3343.000000)">
            <g id="打开站酷" transform="translate(0.000000, 3262.000000)">
                <rect id="打开站酷底" x="0" y="0" width="1440" height="600"></rect>
                <path d="M433.24,99.68 L431.48,99.68 L431.34,99.02 C431.92,99.06 432.48,99.08 433,99.08 C433.62,99.08 433.94,98.78 433.94,98.2 L433.94,92.24 C433,92.6 432.04,92.92 431.08,93.2 L430.9,92.54 C431.94,92.26 432.96,91.94 433.94,91.58 L433.94,86.36 L431.2,86.36 L431.2,85.7 L433.94,85.7 L433.94,81.86 L434.62,81.86 L434.62,85.7 L437.12,85.7 L437.12,86.36 L434.62,86.36 L434.62,91.32 C435.48,90.96 436.32,90.56 437.12,90.14 L437.12,90.8 C436.32,91.22 435.48,91.62 434.62,91.98 L434.62,98.38 C434.62,99.24 434.16,99.68 433.24,99.68 Z M438.9,88.3 L438.9,91.62 C438.9,91.94 438.88,92.24 438.86,92.56 L442.78,92.56 L442.78,88.3 L438.9,88.3 Z M438.82,93.2 C438.6,95.92 437.86,98.16 436.62,99.92 L436.12,99.44 C437.48,97.4 438.16,94.8 438.2,91.66 L438.2,82.74 L448.06,82.74 L448.06,98.62 C448.06,99.42 447.66,99.82 446.88,99.82 L445.3,99.82 L445.12,99.16 C445.68,99.18 446.18,99.2 446.66,99.2 C447.14,99.2 447.38,98.92 447.38,98.4 L447.38,93.2 L443.44,93.2 L443.44,99.6 L442.78,99.6 L442.78,93.2 L438.82,93.2 Z M447.38,92.56 L447.38,88.3 L443.44,88.3 L443.44,92.56 L447.38,92.56 Z M447.38,87.66 L447.38,83.4 L443.44,83.4 L443.44,87.66 L447.38,87.66 Z M442.78,83.4 L438.9,83.4 L438.9,87.66 L442.78,87.66 L442.78,83.4 Z M464.02,88.18 L464.02,93.36 L459.58,93.36 L459.58,97.68 C459.58,98.36 459.92,98.7 460.58,98.72 L466.54,98.72 C467.18,98.72 467.62,98.5 467.88,98.08 C468.08,97.7 468.24,96.92 468.32,95.72 L468.96,95.94 C468.88,97.06 468.72,97.86 468.5,98.34 C468.16,99.02 467.54,99.38 466.66,99.4 L460.42,99.4 C459.4,99.4 458.9,98.86 458.9,97.82 L458.9,88.18 L464.02,88.18 Z M459.58,92.7 L463.36,92.7 L463.36,88.84 L459.58,88.84 L459.58,92.7 Z M457.12,90.18 L457.12,90.86 C456.32,91.28 455.5,91.66 454.66,92.02 L454.66,98.22 C454.66,99.18 454.18,99.68 453.24,99.68 L451.52,99.68 L451.38,99.02 C451.94,99.04 452.48,99.06 453,99.06 C453.64,99.06 453.96,98.72 453.96,98.04 L453.96,92.3 C453,92.66 452,93 451,93.28 L450.84,92.62 C451.9,92.34 452.94,92.02 453.96,91.64 L453.96,86.36 L451.18,86.36 L451.18,85.7 L453.96,85.7 L453.96,81.78 L454.66,81.78 L454.66,85.7 L456.92,85.7 L456.92,86.36 L454.66,86.36 L454.66,91.36 C455.5,91 456.32,90.62 457.12,90.18 Z M460.38,81.64 L461.08,81.72 C460.84,82.68 460.56,83.58 460.2,84.42 L467.92,84.42 C467.88,89.12 467.8,91.9 467.66,92.74 C467.54,93.58 467.32,94.14 466.96,94.44 C466.62,94.7 465.96,94.84 464.96,94.84 L464.18,94.84 L463.98,94.2 L465.16,94.2 C465.88,94.2 466.38,94.04 466.62,93.76 C466.84,93.44 466.98,92.9 467.06,92.14 C467.12,91.34 467.18,88.98 467.22,85.08 L459.9,85.08 C459.26,86.34 458.46,87.46 457.5,88.46 L457.08,87.9 C458.72,86.18 459.82,84.1 460.38,81.64 Z M482.98,81.8 L483.66,81.8 L483.66,88.16 L488.5,88.16 L488.5,88.84 L483.66,88.84 L483.66,98.52 L489,98.52 L489,99.2 L477.52,99.2 L477.52,98.52 L482.98,98.52 L482.98,88.84 L478.18,88.84 L478.18,88.16 L482.98,88.16 L482.98,81.8 Z M474.32,90.68 C473.4,91.68 472.34,92.68 471.14,93.68 L470.92,93 C473.98,90.44 475.96,87.98 476.84,85.58 L471.42,85.58 L471.42,84.92 L477.52,84.92 L477.52,85.52 C477,87 476.14,88.46 474.98,89.9 L474.98,90.06 C476.18,90.78 477.26,91.62 478.24,92.58 L477.86,93.16 C476.9,92.16 475.94,91.38 474.98,90.78 L474.98,99.86 L474.32,99.86 L474.32,90.68 Z M474.28,81.68 L473.62,81.88 C474.06,82.7 474.44,83.54 474.76,84.42 L475.38,84.2 C475.1,83.44 474.74,82.6 474.28,81.68 Z M498.36,90.44 L494.26,90.44 C493.62,93.04 492.64,95.12 491.28,96.68 L490.9,96.1 C492.14,94.66 493.06,92.78 493.62,90.44 L491.74,90.44 L491.74,89.8 L493.78,89.8 C493.96,88.9 494.1,87.96 494.22,86.96 L491.26,86.96 L491.26,86.32 L494.28,86.32 C494.34,85.36 494.38,84.38 494.4,83.34 L491.86,83.34 L491.86,82.72 L498.36,82.72 L498.36,86.32 L499.66,86.32 L499.66,86.96 L498.36,86.96 L498.36,90.44 Z M495.06,83.34 C495.04,84.38 495,85.36 494.92,86.32 L497.72,86.32 L497.72,83.34 L495.06,83.34 Z M494.86,86.96 C494.74,87.96 494.6,88.9 494.42,89.8 L497.72,89.8 L497.72,86.96 L494.86,86.96 Z M498.9,93.06 L498.9,99.76 L498.26,99.76 L498.26,98.44 L494.34,98.44 L494.34,99.8 L493.68,99.8 L493.68,93.06 L498.9,93.06 Z M494.34,97.8 L498.26,97.8 L498.26,93.7 L494.34,93.7 L494.34,97.8 Z M504.28,86.5 L500.42,86.5 L500.42,85.84 L505.14,85.84 C505.78,84.58 506.34,83.22 506.8,81.74 L507.44,81.96 C506.96,83.44 506.44,84.72 505.84,85.84 L508.54,85.84 L508.54,86.5 L504.94,86.5 L504.94,90.14 L508.12,90.14 L508.12,90.8 L504.94,90.8 L504.94,94.4 L508.98,94.4 L508.98,95.06 L504.94,95.06 L504.94,99.9 L504.28,99.9 L504.28,95.06 L500.28,95.06 L500.28,94.4 L504.28,94.4 L504.28,90.8 L500.9,90.8 L500.9,90.14 L504.28,90.14 L504.28,86.5 Z M501.8,81.84 C502.48,82.88 503.12,84 503.68,85.22 L503.08,85.5 C502.48,84.24 501.86,83.12 501.2,82.12 L501.8,81.84 Z M513.54,96.4 C513.26,96.4 513.06,96.46 512.92,96.62 C512.76,96.76 512.7,96.96 512.7,97.24 C512.7,97.44 512.78,97.64 512.94,97.8 C513.1,97.96 513.28,98.04 513.5,98.04 C513.7,98.04 513.82,98.02 513.88,98 C513.88,98.48 513.78,98.88 513.54,99.22 C513.28,99.58 512.9,99.82 512.4,99.98 L512.4,100.58 C513.02,100.44 513.54,100.12 513.94,99.64 C514.34,99.14 514.56,98.54 514.56,97.86 C514.56,97.42 514.48,97.06 514.32,96.82 C514.12,96.54 513.86,96.4 513.54,96.4 Z M532.12,82.12 L531.62,82.58 C533.1,83.64 534.3,84.66 535.2,85.62 L535.66,85.14 C534.7,84.14 533.52,83.12 532.12,82.12 Z M531.76,87 L531.28,87.46 C532.68,88.46 533.8,89.42 534.64,90.34 L535.14,89.86 C534.24,88.9 533.12,87.96 531.76,87 Z M534.72,92.06 C533.84,94.56 532.82,97 531.62,99.4 L532.26,99.68 C533.38,97.4 534.4,94.94 535.32,92.3 L534.72,92.06 Z M547.96,84.86 C547.96,91.44 547.86,95.52 547.66,97.08 C547.48,98.88 546.64,99.8 545.12,99.8 C544.62,99.8 543.76,99.78 542.54,99.76 L542.36,99.12 C543.4,99.14 544.3,99.16 545.08,99.16 C546.2,99.16 546.82,98.42 546.98,96.98 C547.14,95.58 547.22,91.78 547.26,85.54 L539.08,85.54 C538.32,87.1 537.34,88.5 536.18,89.7 L535.76,89.16 C537.72,87.08 539.06,84.54 539.76,81.54 L540.44,81.62 C540.16,82.78 539.82,83.86 539.4,84.86 L547.96,84.86 Z M542.62,90.78 C543.6,92.36 544.52,94.08 545.38,95.92 L544.78,96.22 C544.48,95.56 544.18,94.94 543.9,94.38 C541.9,94.88 539.68,95.26 537.22,95.5 L537.1,94.9 C538.36,93.84 539.72,91.46 541.18,87.76 L541.82,87.96 C540.54,91.12 539.28,93.4 538.04,94.82 C540.1,94.58 541.96,94.24 543.6,93.8 C543.08,92.8 542.56,91.88 542.04,91.06 L542.62,90.78 Z M552.2,82.26 L551.74,82.72 C553.22,83.8 554.42,84.84 555.32,85.82 L555.8,85.34 C554.84,84.32 553.64,83.3 552.2,82.26 Z M564.28,99.52 C563.16,99.52 561.96,99.5 560.66,99.48 C559.36,99.44 558.32,99.32 557.54,99.08 C556.74,98.84 556.02,98.34 555.36,97.54 C555.08,97.18 554.82,97.02 554.58,97.02 C553.98,97.02 553.06,97.96 551.82,99.86 L551.28,99.4 C552.46,97.58 553.46,96.58 554.26,96.38 L554.26,89.6 L551.18,89.6 L551.18,88.92 L554.92,88.92 L554.92,96.4 C555.2,96.5 555.46,96.72 555.74,97.04 C556.26,97.68 556.84,98.12 557.5,98.4 C558.2,98.64 559.14,98.78 560.34,98.82 C561.3,98.84 562.58,98.86 564.18,98.86 C565.04,98.86 565.92,98.84 566.84,98.84 C567.72,98.82 568.42,98.8 568.9,98.8 L568.74,99.52 L564.28,99.52 Z M560.44,84.18 C561.36,84.68 562.16,85.18 562.88,85.7 C564.28,84.98 565.54,84.16 566.64,83.24 L557.02,83.24 L557.02,82.64 L567.6,82.64 L567.6,83.16 C566.36,84.26 564.96,85.24 563.4,86.08 C563.64,86.24 563.86,86.42 564.06,86.6 L567.92,86.6 L567.92,95.62 C567.92,96.42 567.5,96.82 566.7,96.82 L564.82,96.82 L564.66,96.16 L566.48,96.2 C567,96.2 567.26,95.96 567.26,95.5 L567.26,93.22 L563.12,93.22 L563.12,96.88 L562.48,96.88 L562.48,93.22 L558.26,93.22 L558.26,96.98 L557.62,96.98 L557.62,86.6 L563.14,86.6 C562.28,85.96 561.24,85.28 560,84.6 L560.44,84.18 Z M558.26,90.28 L558.26,92.6 L562.48,92.6 L562.48,90.28 L558.26,90.28 Z M563.12,90.28 L563.12,92.6 L567.26,92.6 L567.26,90.28 L563.12,90.28 Z M567.26,89.64 L567.26,87.22 L563.12,87.22 L563.12,89.64 L567.26,89.64 Z M562.48,89.64 L562.48,87.22 L558.26,87.22 L558.26,89.64 L562.48,89.64 Z M571.08,86.78 L573.88,86.78 L573.88,82 L574.58,82 L574.58,86.78 L579.44,86.78 L579.44,81.82 L580.12,81.82 L580.12,86.78 L584.94,86.78 L584.94,81.82 L585.6,81.82 L585.6,86.78 L588.9,86.78 L588.9,87.44 L585.6,87.44 L585.6,93.74 L579.44,93.74 L579.44,87.44 L574.58,87.44 L574.58,98.38 L588.22,98.38 L588.22,99.06 L573.88,99.06 L573.88,87.44 L571.08,87.44 L571.08,86.78 Z M580.12,87.44 L580.12,93.06 L584.94,93.06 L584.94,87.44 L580.12,87.44 Z M593.36,82.72 L606.72,82.72 L606.72,90.1 L602.48,90.1 C603.82,91.98 606.04,93.44 609.12,94.48 L608.82,95.08 C605.44,93.84 603.1,92.18 601.78,90.1 L598.22,90.1 C596.86,92.06 594.54,93.68 591.24,94.96 L590.86,94.36 C593.96,93.28 596.18,91.86 597.52,90.1 L593.36,90.1 L593.36,82.72 Z M606.04,89.46 L606.04,86.7 L600.34,86.7 L600.34,89.46 L606.04,89.46 Z M599.66,89.46 L599.66,86.7 L594.04,86.7 L594.04,89.46 L599.66,89.46 Z M594.04,86.08 L599.66,86.08 L599.66,83.36 L594.04,83.36 L594.04,86.08 Z M600.34,83.36 L600.34,86.08 L606.04,86.08 L606.04,83.36 L600.34,83.36 Z M596.78,92.58 L597.46,92.58 C597.46,94.12 597.24,95.42 596.8,96.5 C596.16,97.94 594.78,99.08 592.66,99.96 L592.22,99.4 C594.1,98.64 595.38,97.66 596.06,96.44 C596.54,95.4 596.78,94.1 596.78,92.58 Z M602.84,92.6 L603.54,92.6 L603.54,99.94 L602.84,99.94 L602.84,92.6 Z M613.54,96.4 C613.26,96.4 613.06,96.46 612.92,96.62 C612.76,96.76 612.7,96.96 612.7,97.24 C612.7,97.44 612.78,97.64 612.94,97.8 C613.1,97.96 613.28,98.04 613.5,98.04 C613.7,98.04 613.82,98.02 613.88,98 C613.88,98.48 613.78,98.88 613.54,99.22 C613.28,99.58 612.9,99.82 612.4,99.98 L612.4,100.58 C613.02,100.44 613.54,100.12 613.94,99.64 C614.34,99.14 614.56,98.54 614.56,97.86 C614.56,97.42 614.48,97.06 614.32,96.82 C614.12,96.54 613.86,96.4 613.54,96.4 Z M635.2,89.58 L638.38,89.58 L638.38,87.28 L639.04,87.28 L639.04,89.58 L643.8,89.58 L643.8,87.22 L644.48,87.22 L644.48,89.58 L647.86,89.58 L647.86,90.22 L644.48,90.22 L644.48,92.96 L648.46,92.96 L648.46,93.6 L641.46,93.6 C642.06,94.82 642.84,95.84 643.78,96.68 C644.9,96.2 645.98,95.36 646.98,94.18 L647.46,94.66 C646.54,95.74 645.48,96.56 644.32,97.12 C645.64,98.16 647.24,98.88 649.1,99.3 L648.76,99.92 C644.94,99 642.28,96.9 640.78,93.6 L637.66,93.6 L637.66,98.98 C639.14,98.6 640.38,98.16 641.42,97.66 L641.56,98.3 C640.2,98.86 638.6,99.36 636.76,99.8 L636.58,99.18 C636.84,99.08 636.98,98.9 636.98,98.64 L636.98,93.6 L633.54,93.6 C633.14,95.94 632.42,98.04 631.36,99.92 L630.82,99.44 C632.38,96.88 633.16,93.58 633.18,89.52 L633.18,82.72 L647.28,82.72 L647.28,86.88 L633.88,86.88 L633.88,89.52 C633.88,90.72 633.8,91.86 633.64,92.96 L638.38,92.96 L638.38,90.22 L635.2,90.22 L635.2,89.58 Z M639.04,92.96 L643.8,92.96 L643.8,90.22 L639.04,90.22 L639.04,92.96 Z M646.6,83.38 L633.88,83.38 L633.88,86.22 L646.6,86.22 L646.6,83.38 Z M659.02,99.66 L656.44,99.66 L656.28,99 C657.16,99.02 657.98,99.04 658.78,99.04 C659.44,99.04 659.78,98.7 659.78,98.04 L659.78,88.92 L651.58,88.92 L651.58,88.26 L668.42,88.26 L668.42,88.92 L660.48,88.92 L660.48,98.22 C660.48,99.18 659.98,99.66 659.02,99.66 Z M654.98,91.54 L655.64,91.7 C654.8,94.42 653.58,96.78 652.02,98.78 L651.42,98.42 C653,96.42 654.18,94.14 654.98,91.54 Z M664.74,91.42 C666.14,93.58 667.36,95.9 668.4,98.34 L667.76,98.62 C666.66,95.98 665.44,93.66 664.1,91.62 L664.74,91.42 Z M653.42,83.12 L653.42,83.8 L666.64,83.8 L666.64,83.12 L653.42,83.12 Z M671.26,84.4 L671.26,85.06 L688.76,85.06 L688.76,84.4 L680.72,84.4 C680.32,83.36 679.88,82.44 679.44,81.64 L678.7,81.78 C679.18,82.54 679.62,83.42 680.02,84.4 L671.26,84.4 Z M682.94,86.24 C685.16,88.04 687.02,89.86 688.5,91.68 L688,92.16 C686.6,90.44 684.76,88.6 682.46,86.68 L682.94,86.24 Z M683.72,89.9 L684.36,90.18 C683.36,92.14 682.1,93.8 680.58,95.2 C682.82,96.96 685.58,98.28 688.9,99.16 L688.5,99.78 C685.1,98.82 682.28,97.46 680.06,95.66 C677.78,97.6 674.96,99 671.62,99.88 L671.22,99.28 C674.58,98.4 677.36,97.06 679.54,95.24 C677.92,93.84 676.62,92.24 675.64,90.42 L676.24,90.08 C677.2,91.88 678.48,93.46 680.06,94.78 C681.58,93.38 682.8,91.74 683.72,89.9 Z M676.96,86.24 L677.46,86.7 C675.94,88.66 674.08,90.4 671.84,91.88 L671.4,91.32 C673.6,89.88 675.44,88.18 676.96,86.24 Z M697.12,89.7 C700.6,89.52 703.82,89.28 706.78,88.96 C707.14,89.48 707.46,90.02 707.74,90.54 L708.28,90.14 C707.6,88.9 706.58,87.48 705.26,85.84 L704.72,86.18 C705.32,86.94 705.88,87.66 706.38,88.38 C703.62,88.7 700.86,88.92 698.08,89.06 C698.94,88.3 699.98,86.86 701.18,84.72 L708.5,84.72 L708.5,84.08 L703.04,84.08 C702.7,83.12 702.34,82.26 701.96,81.5 L701.28,81.64 C701.68,82.36 702.04,83.16 702.36,84.08 L696.4,84.08 L696.4,84.72 L700.48,84.72 C699.08,87.08 697.96,88.52 697.12,89.04 C697.08,89.06 697.02,89.08 696.96,89.1 L697.12,89.7 Z M692.34,82.22 L691.86,82.68 C693.14,83.58 694.16,84.46 694.92,85.3 L695.42,84.8 C694.58,83.94 693.56,83.08 692.34,82.22 Z M691.86,86.98 L691.36,87.44 C692.68,88.48 693.76,89.46 694.56,90.38 L695.04,89.9 C694.2,88.94 693.14,87.96 691.86,86.98 Z M694.58,92.18 C693.8,94.64 692.88,97.04 691.82,99.4 L692.44,99.68 C693.44,97.42 694.36,95 695.18,92.42 L694.58,92.18 Z M701.48,91 L701.48,99.5 L702.18,99.5 L702.18,91 L701.48,91 Z M698.24,90.98 C698.16,93.42 697.92,95.24 697.52,96.4 C697.08,97.54 696.34,98.52 695.3,99.34 L695.72,99.88 C696.84,99 697.66,97.94 698.14,96.66 C698.58,95.46 698.84,93.56 698.92,90.98 L698.24,90.98 Z M707.3,99.7 C707.96,99.68 708.38,99.5 708.58,99.16 C708.78,98.78 708.9,97.82 708.9,96.28 L708.28,96.06 C708.28,97.24 708.22,98.06 708.12,98.52 C708.02,98.86 707.74,99.04 707.26,99.06 L706.1,99.06 C705.72,99.04 705.54,98.8 705.54,98.36 L705.54,91.02 L704.88,91.02 L704.88,98.44 C704.88,99.28 705.28,99.7 706.12,99.7 L707.3,99.7 Z M713.54,96.4 C713.26,96.4 713.06,96.46 712.92,96.62 C712.76,96.76 712.7,96.96 712.7,97.24 C712.7,97.44 712.78,97.64 712.94,97.8 C713.1,97.96 713.28,98.04 713.5,98.04 C713.7,98.04 713.82,98.02 713.88,98 C713.88,98.48 713.78,98.88 713.54,99.22 C713.28,99.58 712.9,99.82 712.4,99.98 L712.4,100.58 C713.02,100.44 713.54,100.12 713.94,99.64 C714.34,99.14 714.56,98.54 714.56,97.86 C714.56,97.42 714.48,97.06 714.32,96.82 C714.12,96.54 713.86,96.4 713.54,96.4 Z M731.28,83.52 L731.28,84.18 L736.28,84.18 L736.28,85.86 L736.96,85.86 L736.96,84.18 L743.04,84.18 L743.04,85.86 L743.72,85.86 L743.72,84.18 L748.72,84.18 L748.72,83.52 L743.72,83.52 L743.72,81.66 L743.04,81.66 L743.04,83.52 L736.96,83.52 L736.96,81.66 L736.28,81.66 L736.28,83.52 L731.28,83.52 Z M737.32,86.56 C736.7,87.44 735.98,88.26 735.16,88.98 C734.5,88.06 733.66,87.28 732.64,86.64 L732.1,87.08 C733.12,87.68 733.98,88.44 734.66,89.4 C733.66,90.22 732.48,90.94 731.08,91.54 L731.44,92.1 C732.78,91.46 733.96,90.74 735,89.94 C735.4,90.62 735.72,91.42 735.94,92.3 C734.82,93.7 733.3,94.88 731.36,95.84 L731.74,96.4 C733.46,95.52 734.92,94.42 736.12,93.08 C736.24,93.84 736.32,94.66 736.32,95.56 C736.32,97.04 736.18,98.06 735.9,98.62 C735.66,98.98 735.24,99.18 734.66,99.18 C733.98,99.18 733.32,99.16 732.7,99.14 L732.9,99.78 C733.38,99.78 734.04,99.8 734.84,99.8 C735.48,99.8 735.98,99.6 736.34,99.2 C736.78,98.52 737,97.34 737,95.62 C737,93.2 736.5,91.16 735.5,89.52 C736.3,88.84 737.1,87.96 737.9,86.92 L737.32,86.56 Z M738.44,90.28 L742.82,90.28 C742.86,88.72 742.9,87.54 742.9,86.7 L743.58,86.7 C743.58,87.7 743.56,88.86 743.52,90.18 C743.52,90.22 743.54,90.26 743.54,90.28 L748.42,90.28 L748.42,90.96 L743.66,90.96 C744.38,94.56 746.12,97.34 748.88,99.26 L748.42,99.78 C745.78,97.88 744.08,95.3 743.34,92.06 C742.76,95.14 741.14,97.74 738.5,99.86 L738.06,99.38 C740.9,97.06 742.48,94.32 742.8,91.12 L742.8,90.96 L738.44,90.96 L738.44,90.28 Z M745.52,86.28 C746.66,87.3 747.54,88.2 748.16,88.98 L747.64,89.36 C747,88.52 746.12,87.6 745,86.6 L745.52,86.28 Z M753.92,90.78 C753.1,91.64 752.18,92.44 751.14,93.18 L750.94,92.52 C753.26,90.82 754.9,88.94 755.88,86.86 L756.48,87.12 C755.96,88.16 755.34,89.12 754.6,90.02 L754.6,99.88 L753.92,99.88 L753.92,90.78 Z M755.78,81.76 L756.36,82.02 C755.2,84.2 753.46,86.06 751.14,87.6 L750.92,86.92 C753.2,85.36 754.82,83.64 755.78,81.76 Z M758.26,82.58 L767.26,82.58 L767.26,88.52 L758.26,88.52 L758.26,82.58 Z M766.6,87.9 L766.6,85.82 L758.92,85.82 L758.92,87.9 L766.6,87.9 Z M758.92,85.24 L766.6,85.24 L766.6,83.18 L758.92,83.18 L758.92,85.24 Z M757.2,90.38 L768.62,90.38 L768.62,91.02 L765.92,91.02 L765.92,93.4 L769.04,93.4 L769.04,94.02 L765.92,94.02 L765.92,98.46 C765.92,99.34 765.46,99.78 764.54,99.78 L762.28,99.78 L762.14,99.12 C762.9,99.16 763.62,99.18 764.3,99.18 C764.94,99.18 765.26,98.88 765.26,98.3 L765.26,94.02 L756.52,94.02 L756.52,93.4 L765.26,93.4 L765.26,91.02 L757.2,91.02 L757.2,90.38 Z M758.86,95.08 C760.08,96.2 761.02,97.2 761.68,98.08 L761.14,98.44 C760.38,97.46 759.44,96.46 758.34,95.44 L758.86,95.08 Z M775.8,81.82 C776.68,82.92 777.5,84.12 778.22,85.42 L777.62,85.72 C776.84,84.38 776.02,83.18 775.18,82.14 L775.8,81.82 Z M784.12,81.62 L784.78,81.8 C784.24,83.44 783.54,84.9 782.7,86.18 L787.32,86.18 L787.32,86.86 L780.34,86.86 L780.34,88.32 C780.34,89.38 780.24,90.38 780.06,91.3 L788.48,91.3 L788.48,91.98 L780.76,91.98 C781.78,95.12 784.5,97.54 788.94,99.24 L788.56,99.84 C783.9,97.96 781.06,95.34 780.06,91.98 L779.92,91.98 C779.56,93.42 779,94.66 778.22,95.72 C776.88,97.44 774.66,98.78 771.56,99.78 L771.18,99.2 C774.22,98.24 776.44,96.9 777.8,95.16 C778.44,94.24 778.9,93.18 779.22,91.98 L771.52,91.98 L771.52,91.3 L779.36,91.3 C779.54,90.38 779.64,89.38 779.66,88.32 L779.66,86.86 L772.66,86.86 L772.66,86.18 L781.94,86.18 C782.76,84.94 783.48,83.42 784.12,81.62 Z M792.34,82.24 L791.86,82.7 C793.32,83.74 794.48,84.72 795.36,85.66 L795.86,85.18 C794.92,84.18 793.74,83.2 792.34,82.24 Z M791.84,86.96 L791.34,87.44 C792.74,88.48 793.84,89.46 794.66,90.38 L795.14,89.9 C794.26,88.92 793.16,87.94 791.84,86.96 Z M794.96,92.32 C794.08,94.76 793.04,97.16 791.86,99.48 L792.52,99.78 C793.64,97.52 794.64,95.12 795.56,92.56 L794.96,92.32 Z M796.98,85.44 L796.98,86.12 L802.48,86.12 L802.48,91.74 L797.54,91.74 L797.54,92.4 L802.48,92.4 L802.48,98.52 L796.44,98.52 L796.44,99.2 L809.02,99.2 L809.02,98.52 L803.14,98.52 L803.14,92.4 L808.1,92.4 L808.1,91.74 L803.14,91.74 L803.14,86.12 L808.64,86.12 L808.64,85.44 L796.98,85.44 Z M801.86,81.66 L801.2,81.86 C801.74,82.82 802.2,83.8 802.56,84.82 L803.16,84.6 C802.86,83.72 802.42,82.74 801.86,81.66 Z M813.54,96.4 C813.26,96.4 813.06,96.46 812.92,96.62 C812.76,96.76 812.7,96.96 812.7,97.24 C812.7,97.44 812.78,97.64 812.94,97.8 C813.1,97.96 813.28,98.04 813.5,98.04 C813.7,98.04 813.82,98.02 813.88,98 C813.88,98.48 813.78,98.88 813.54,99.22 C813.28,99.58 812.9,99.82 812.4,99.98 L812.4,100.58 C813.02,100.44 813.54,100.12 813.94,99.64 C814.34,99.14 814.56,98.54 814.56,97.86 C814.56,97.42 814.48,97.06 814.32,96.82 C814.12,96.54 813.86,96.4 813.54,96.4 Z M833.32,99.72 L831.48,99.72 L831.34,99.06 C831.94,99.08 832.52,99.1 833.08,99.1 C833.64,99.1 833.94,98.8 833.94,98.24 L833.94,92.34 C833.04,92.7 832.12,93.02 831.2,93.3 L831.04,92.64 C832.04,92.36 833.02,92.04 833.94,91.66 L833.94,86.52 L831.22,86.52 L831.22,85.86 L833.94,85.86 L833.94,81.82 L834.62,81.82 L834.62,85.86 L836.94,85.86 L836.94,86.52 L834.62,86.52 L834.62,91.38 C835.32,91.06 836.02,90.72 836.7,90.34 L836.7,91.04 C836.02,91.4 835.32,91.72 834.62,92.04 L834.62,98.4 C834.62,99.28 834.18,99.72 833.32,99.72 Z M838.8,82.58 L847.12,82.58 L847.12,89.08 L838.8,89.08 L838.8,82.58 Z M846.44,88.48 L846.44,86.18 L839.48,86.18 L839.48,88.48 L846.44,88.48 Z M839.48,85.56 L846.44,85.56 L846.44,83.18 L839.48,83.18 L839.48,85.56 Z M837.26,91.02 L848.58,91.02 L848.58,91.66 L843.28,91.66 L843.28,94.62 L847.84,94.62 L847.84,95.26 L843.28,95.26 L843.28,98.62 C844.16,98.76 845.24,98.84 846.54,98.84 C847.54,98.84 848.38,98.82 849.06,98.8 L848.86,99.48 C848.02,99.48 847.28,99.46 846.6,99.46 C843.96,99.46 842.2,99.2 841.28,98.7 C840.42,98.2 839.66,97.22 838.98,95.74 C838.5,97.24 837.72,98.6 836.64,99.84 L836.14,99.4 C837.82,97.48 838.72,95.28 838.86,92.84 L839.5,92.92 C839.46,93.64 839.36,94.32 839.2,94.96 C839.92,96.64 840.74,97.7 841.66,98.16 C841.92,98.28 842.24,98.4 842.62,98.48 L842.62,91.66 L837.26,91.66 L837.26,91.02 Z M860.58,82.02 C857.98,83.18 855,83.88 851.6,84.16 L851.84,84.8 C853.42,84.66 854.92,84.44 856.36,84.12 L856.36,89.62 L851.2,89.62 L851.2,90.3 L856.34,90.3 C856.22,94.46 854.64,97.48 851.62,99.4 L852.14,99.84 C855.24,97.8 856.86,94.62 857.02,90.3 L863.2,90.3 L863.2,99.88 L863.88,99.88 L863.88,90.3 L868.78,90.3 L868.78,89.62 L863.88,89.62 L863.88,81.96 L863.2,81.96 L863.2,89.62 L857.04,89.62 L857.04,83.94 C858.4,83.58 859.7,83.14 860.92,82.62 L860.58,82.02 Z M871.94,95.76 C873.56,95.34 875.1,94.86 876.58,94.32 L876.58,99.82 L877.24,99.82 L877.24,81.86 L876.58,81.86 L876.58,93.64 C875.3,94.12 874.02,94.52 872.72,94.88 L872.72,83.42 L872.04,83.42 L872.04,94.82 C872.04,94.98 871.92,95.08 871.72,95.16 L871.94,95.76 Z M881.34,85.74 C881.06,86.5 880.76,87.22 880.44,87.9 C881.28,90.2 882.4,92.28 883.82,94.14 C885.3,91.8 886.08,89 886.16,85.74 L881.34,85.74 Z M880.04,88.64 C879.6,89.4 879.12,90.08 878.6,90.68 L878.16,90.16 C879.9,88.06 881.08,85.24 881.68,81.68 L882.36,81.82 C882.14,83 881.88,84.08 881.56,85.08 L888.82,85.08 L888.82,85.74 L886.82,85.74 C886.74,89.26 885.88,92.24 884.24,94.68 C885.64,96.44 887.3,98.02 889.22,99.38 L888.74,99.92 C886.82,98.54 885.18,97 883.82,95.3 C882.46,97.12 880.68,98.62 878.48,99.82 L878.08,99.24 C880.32,98.04 882.1,96.56 883.4,94.76 C882,92.9 880.88,90.86 880.04,88.64 Z M899.48,86.14 C898.24,91.82 895.4,96.12 890.94,99.04 L891.36,99.6 C895.76,96.72 898.62,92.5 899.9,86.96 C900.12,87.44 900.34,87.98 900.56,88.58 C902.52,93.8 905.2,97.46 908.58,99.56 L909,98.98 C905.68,96.92 903.1,93.42 901.24,88.5 C900.12,85.38 898.58,83.12 896.62,81.76 L896.04,82.14 C897.4,83.06 898.54,84.4 899.48,86.14 Z M913.54,96.4 C913.26,96.4 913.06,96.46 912.92,96.62 C912.76,96.76 912.7,96.96 912.7,97.24 C912.7,97.44 912.78,97.64 912.94,97.8 C913.1,97.96 913.28,98.04 913.5,98.04 C913.7,98.04 913.82,98.02 913.88,98 C913.88,98.48 913.78,98.88 913.54,99.22 C913.28,99.58 912.9,99.82 912.4,99.98 L912.4,100.58 C913.02,100.44 913.54,100.12 913.94,99.64 C914.34,99.14 914.56,98.54 914.56,97.86 C914.56,97.42 914.48,97.06 914.32,96.82 C914.12,96.54 913.86,96.4 913.54,96.4 Z M931.42,83.28 L936.28,83.28 L936.28,81.78 L936.96,81.78 L936.96,83.28 L943.04,83.28 L943.04,81.78 L943.72,81.78 L943.72,83.28 L948.58,83.28 L948.58,83.9 L943.72,83.9 L943.72,85.72 L943.04,85.72 L943.04,83.9 L936.96,83.9 L936.96,85.64 L936.28,85.64 L936.28,83.9 L931.42,83.9 L931.42,83.28 Z M932.58,85.7 C933.92,86.46 935.02,87.22 935.9,87.98 L935.42,88.46 C934.58,87.72 933.48,86.96 932.1,86.16 L932.58,85.7 Z M931.86,89.78 L931.38,90.24 C932.82,91.02 933.98,91.78 934.82,92.5 L935.3,92.02 C934.38,91.28 933.22,90.54 931.86,89.78 Z M934.38,93.96 C933.54,95.78 932.54,97.56 931.4,99.32 L932.08,99.6 C933.14,97.92 934.1,96.12 934.94,94.2 L934.38,93.96 Z M946.48,94.26 L946.48,99.94 L945.84,99.94 L945.84,98.98 L938.72,98.98 L938.72,99.94 L938.06,99.94 L938.06,94.26 L946.48,94.26 Z M938.72,98.34 L945.84,98.34 L945.84,94.88 L938.72,94.88 L938.72,98.34 Z M940.68,85.24 L941.36,85.34 C941.12,85.94 940.82,86.52 940.46,87.08 L946.62,87.08 L946.62,87.6 C945.72,89.06 944.44,90.34 942.78,91.44 C944.5,92.4 946.62,93.16 949.16,93.68 L948.76,94.26 C946.12,93.7 943.92,92.9 942.18,91.82 C940.5,92.86 938.48,93.72 936.14,94.44 L935.74,93.9 C938.04,93.22 940,92.4 941.62,91.46 C940.54,90.72 939.66,89.9 938.94,88.98 C938.16,89.74 937.26,90.44 936.22,91.08 L935.8,90.54 C938.22,89.1 939.84,87.34 940.68,85.24 Z M939.34,88.54 C940.1,89.5 941.06,90.36 942.22,91.1 C943.76,90.1 944.96,88.96 945.84,87.72 L940.02,87.72 C939.8,88 939.58,88.28 939.34,88.54 Z M968.18,85.96 C968.18,89.76 968.1,92.08 967.94,92.88 C967.74,93.68 966.98,94.08 965.62,94.08 L965.46,94.08 L965.28,93.42 C965.46,93.42 965.62,93.44 965.78,93.44 C966.58,93.44 967.06,93.18 967.26,92.68 C967.42,92.16 967.52,90.22 967.52,86.86 L963.8,88 L963.8,95.92 L963.12,95.92 L963.12,88.22 L959.44,89.36 L959.44,97.82 C959.44,98.52 959.8,98.88 960.56,98.88 L966.56,98.88 C967.12,98.88 967.52,98.74 967.72,98.48 C968,98.08 968.2,96.96 968.3,95.16 L968.94,95.36 C968.84,97.28 968.6,98.5 968.2,99 C967.9,99.36 967.4,99.56 966.7,99.56 L960.36,99.56 C959.28,99.56 958.76,99.02 958.76,97.96 L958.76,89.56 L956.64,90.22 L956.64,89.54 L958.76,88.88 L958.76,83.78 L959.44,83.78 L959.44,88.66 L963.12,87.52 L963.12,81.76 L963.8,81.76 L963.8,87.32 L968.18,85.96 Z M956.96,94.56 L956.96,95.24 C955.12,96.08 953.14,96.76 951,97.3 L950.84,96.62 C951.8,96.4 952.72,96.14 953.62,95.86 L953.62,88.02 L951.06,88.02 L951.06,87.34 L953.62,87.34 L953.62,81.98 L954.28,81.98 L954.28,87.34 L956.64,87.34 L956.64,88.02 L954.28,88.02 L954.28,95.64 C955.2,95.3 956.1,94.94 956.96,94.56 Z M971.68,84 L975.46,84 L975.46,81.78 L976.14,81.78 L976.14,84 L979.3,84 L979.3,84.64 L976.14,84.64 L976.14,85.6 C977.18,86.36 978.22,87.22 979.26,88.18 L978.9,88.72 C977.82,87.64 976.9,86.82 976.14,86.22 L976.14,90.02 L975.46,90.02 L975.46,85.36 C974.42,87.16 973.14,88.68 971.62,89.88 L971.22,89.32 C972.94,88 974.28,86.44 975.28,84.64 L971.68,84.64 L971.68,84 Z M980.36,84 L983.78,84 L983.78,81.78 L984.46,81.78 L984.46,84 L988.34,84 L988.34,84.64 L985.18,84.64 C985.92,86.36 987.24,87.86 989.12,89.18 L988.68,89.72 C986.72,88.2 985.36,86.52 984.64,84.64 L984.46,84.64 L984.46,90.02 L983.78,90.02 L983.78,84.64 L983.62,84.64 C982.64,86.72 981.42,88.4 979.94,89.72 L979.56,89.18 C981.04,87.9 982.2,86.4 983.04,84.64 L980.36,84.64 L980.36,84 Z M976.72,92.64 C975.64,93.38 974.38,94.02 972.98,94.56 L972.64,93.98 C975.5,92.9 977.58,91.48 978.9,89.68 L979.44,90.02 C978.9,90.74 978.28,91.4 977.56,92 L985.76,92 L985.76,92.56 C984.12,96.74 979.52,99.18 971.94,99.86 L971.6,99.24 C974.96,98.96 977.7,98.36 979.84,97.42 C978.84,96.48 977.58,95.5 976.02,94.48 L976.46,94.02 C978.06,95.06 979.4,96.08 980.48,97.12 C982.7,96 984.22,94.5 985.04,92.64 L976.72,92.64 Z M1000.24,82.78 L1007.18,82.78 L1007.18,92.06 L1000.24,92.06 L1000.24,82.78 Z M1006.5,91.42 L1006.5,89.14 L1000.92,89.14 L1000.92,91.42 L1006.5,91.42 Z M1000.92,88.52 L1006.5,88.52 L1006.5,86.34 L1000.92,86.34 L1000.92,88.52 Z M1000.92,85.7 L1006.5,85.7 L1006.5,83.42 L1000.92,83.42 L1000.92,85.7 Z M995.6,87.06 C996.44,87.76 997.46,88.72 998.62,89.96 L999.02,89.38 C997.86,88.26 996.72,87.28 995.6,86.4 L995.6,85.12 L998.56,85.12 L998.56,84.44 L995.6,84.44 L995.6,82 L994.92,82 L994.92,84.44 L991.3,84.44 L991.3,85.12 L994.86,85.12 C993.94,87.36 992.58,89.32 990.82,90.98 L991.1,91.64 C992.7,90.02 993.98,88.2 994.92,86.2 L994.92,92.58 L995.6,92.58 L995.6,87.06 Z M993.44,93.9 C992.94,95.7 992.18,97.26 991.16,98.62 L991.76,99 C992.76,97.62 993.54,95.98 994.1,94.06 L993.44,93.9 Z M1002.42,99.48 L997.62,99.48 C996.6,99.48 996.1,98.94 996.1,97.86 L996.1,93.58 L996.78,93.58 L996.78,97.72 C996.78,98.44 997.12,98.8 997.84,98.8 L1002.3,98.8 C1002.94,98.8 1003.36,98.68 1003.6,98.48 C1003.94,98.14 1004.16,97.24 1004.28,95.78 L1004.92,95.98 C1004.8,97.58 1004.54,98.6 1004.1,99.02 C1003.78,99.32 1003.22,99.48 1002.42,99.48 Z M999.52,93.3 C1000.56,94.4 1001.38,95.36 1001.94,96.18 L1001.38,96.58 C1000.78,95.7 999.98,94.72 998.98,93.66 L999.52,93.3 Z M1005.8,93.5 L1005.26,93.84 C1006.58,95.52 1007.64,97.08 1008.4,98.48 L1008.96,98.08 C1008.24,96.76 1007.18,95.24 1005.8,93.5 Z" id="拥抱社群，沟通世界，展示交流，获得关注，" fill="#666666"></path>
            </g>
        </g>
    </g>
</svg>