<?xml version="1.0" encoding="UTF-8"?>
<svg width="572px" height="47px" viewBox="0 0 572 47" version="1.1" xmlns="http://www.w3.org/2000/svg" xmlns:xlink="http://www.w3.org/1999/xlink">
    <!-- Generator: Sketch 46.2 (44496) - http://www.bohemiancoding.com/sketch -->
    <title>打开站酷，发现更好的设计</title>
    <desc>Created with Sketch.</desc>
    <defs></defs>
    <g id="Page-2" stroke="none" stroke-width="1" fill="none" fill-rule="evenodd">
        <g id="下载页-更多状态" transform="translate(-434.000000, -3273.000000)">
            <g id="打开站酷" transform="translate(0.000000, 3262.000000)">
                <rect id="打开站酷底" x="0" y="0" width="1440" height="600"></rect>
                <path d="M452.448,31.704 C449.904,32.904 447.312,34.008 444.624,34.968 L444.624,23.064 L451.584,23.064 L451.584,21.48 L444.624,21.48 L444.624,12.12 L442.992,12.12 L442.992,21.48 L434.736,21.48 L434.736,23.064 L442.992,23.064 L442.992,35.544 C440.112,36.504 437.088,37.368 434.016,38.088 L434.4,39.624 C437.328,38.904 440.208,38.04 442.992,37.08 L442.992,51.576 C442.992,52.92 442.272,53.64 440.832,53.64 C439.296,53.64 437.664,53.592 435.936,53.544 L436.272,55.128 L441.408,55.128 C443.52,55.128 444.624,54.072 444.624,51.96 L444.624,36.504 C447.312,35.544 449.952,34.44 452.448,33.288 L452.448,31.704 Z M453.552,16.392 L453.552,18.024 L467.04,18.024 L467.04,51 C467.04,52.728 466.176,53.64 464.448,53.64 C462.096,53.64 459.648,53.592 457.056,53.496 L457.392,55.128 L465.024,55.128 C467.424,55.128 468.672,53.88 468.672,51.384 L468.672,18.024 L477.168,18.024 L477.168,16.392 L453.552,16.392 Z M485.712,15.432 L522.432,15.432 L522.432,17.064 L513.84,17.064 L513.84,31.704 L525.024,31.704 L525.024,33.288 L513.84,33.288 L513.84,55.32 L512.208,55.32 L512.208,33.288 L496.56,33.288 C496.224,38.472 495.312,42.696 493.872,46.056 C492.048,49.992 489.12,53.112 484.992,55.416 L484.032,53.976 C487.968,51.816 490.848,48.744 492.672,44.712 C493.872,41.592 494.64,37.8 494.928,33.288 L483.024,33.288 L483.024,31.704 L495.024,31.704 C495.024,30.792 495.072,29.928 495.072,29.064 L495.072,17.064 L485.712,17.064 L485.712,15.432 Z M496.704,17.064 L496.704,29.064 C496.704,29.976 496.656,30.84 496.656,31.704 L512.208,31.704 L512.208,17.064 L496.704,17.064 Z M558.864,11.928 L560.496,11.928 L560.496,21.048 L573.312,21.048 L573.312,22.68 L560.496,22.68 L560.496,33.672 L570.288,33.672 L570.288,55.272 L568.656,55.272 L568.656,51.72 L553.392,51.72 L553.392,55.32 L551.808,55.32 L551.808,33.672 L558.864,33.672 L558.864,11.928 Z M553.392,50.184 L568.656,50.184 L568.656,35.16 L553.392,35.16 L553.392,50.184 Z M530.928,20.616 L530.928,22.248 L549.312,22.248 L549.312,20.616 L541.152,20.616 C540.384,17.544 539.616,14.76 538.848,12.36 L537.216,12.648 C538.08,15 538.848,17.64 539.52,20.616 L530.928,20.616 Z M534.192,26.28 C535.44,31.944 536.544,38.52 537.504,45.912 L536.112,46.296 C535.2,39.48 534.048,33 532.704,26.76 L534.192,26.28 Z M548.784,46.2 L548.784,47.784 C543.312,49.512 537.36,50.952 530.928,52.104 L530.544,50.52 C534.288,49.944 537.84,49.176 541.296,48.312 C543.024,41.208 544.224,33.672 544.944,25.608 L546.576,25.848 C545.76,33.864 544.56,41.208 542.928,47.88 C544.944,47.352 546.864,46.776 548.784,46.2 Z M578.544,14.568 L598.464,14.568 L598.464,16.104 L591.936,16.104 L591.936,23.256 L596.88,23.256 L596.88,55.56 L595.344,55.56 L595.344,52.536 L581.952,52.536 L581.952,55.56 L580.512,55.56 L580.512,23.256 L585.36,23.256 L585.36,16.104 L578.544,16.104 L578.544,14.568 Z M581.952,51.048 L595.344,51.048 L595.344,44.664 L581.952,44.664 L581.952,51.048 Z M585.552,24.744 L581.952,24.744 L581.952,43.176 L595.344,43.176 L595.344,37.128 L592.08,37.128 C591.024,37.128 590.544,36.408 590.544,35.064 L590.544,24.744 L586.8,24.744 L586.8,28.824 C586.704,33.816 585.456,37.464 583.056,39.768 L582.096,38.904 C584.352,36.792 585.504,33.432 585.552,28.824 L585.552,24.744 Z M586.8,23.256 L590.592,23.256 L590.592,16.104 L586.8,16.104 L586.8,23.256 Z M595.344,35.832 L595.344,24.744 L591.744,24.744 L591.744,34.92 C591.744,35.496 591.888,35.832 592.176,35.832 L595.344,35.832 Z M603.072,21.528 L610.128,21.528 L610.128,30.888 L599.328,30.888 L599.328,32.472 L621.36,32.472 L621.36,30.888 L611.664,30.888 L611.664,21.528 L620.784,21.528 L620.784,19.992 L611.664,19.992 L611.664,12.216 L610.128,12.216 L610.128,19.992 L603.6,19.992 C604.224,18.024 604.8,15.912 605.28,13.608 L603.792,13.32 C602.736,18.312 601.2,22.728 599.136,26.568 L600.48,27.432 C601.44,25.608 602.304,23.64 603.072,21.528 Z M619.056,38.76 L619.056,55.56 L617.472,55.56 L617.472,52.92 L603.6,52.92 L603.6,55.56 L602.064,55.56 L602.064,38.76 L619.056,38.76 Z M603.6,51.384 L617.472,51.384 L617.472,40.344 L603.6,40.344 L603.6,51.384 Z M632.496,47.16 C631.824,47.16 631.344,47.304 631.008,47.688 C630.624,48.024 630.48,48.504 630.48,49.176 C630.48,49.656 630.672,50.136 631.056,50.52 C631.44,50.904 631.872,51.096 632.4,51.096 C632.88,51.096 633.168,51.048 633.312,51 C633.312,52.152 633.072,53.112 632.496,53.928 C631.872,54.792 630.96,55.368 629.76,55.752 L629.76,57.192 C631.248,56.856 632.496,56.088 633.456,54.936 C634.416,53.736 634.944,52.296 634.944,50.664 C634.944,49.608 634.752,48.744 634.368,48.168 C633.888,47.496 633.264,47.16 632.496,47.16 Z M678.624,25.656 L682.368,13.416 L684,13.704 L680.736,24.072 L691.248,24.072 C692.304,20.04 693.168,15.864 693.792,11.448 L695.472,11.64 C694.8,16.056 693.936,20.232 692.928,24.072 L716.16,24.072 L716.16,25.656 L692.496,25.656 C691.728,28.152 690.96,30.552 690.096,32.76 L710.352,32.76 L710.352,34.248 C708.912,38.712 705.888,42.744 701.376,46.344 C705.6,49.176 710.88,51.72 717.216,53.976 L716.4,55.416 C709.776,53.016 704.352,50.328 700.128,47.352 C695.952,50.376 690.72,53.112 684.432,55.512 L683.616,54.024 C689.76,51.72 694.848,49.176 698.784,46.392 C694.032,42.84 690.864,38.952 689.28,34.728 C685.728,43.176 680.976,49.8 675.072,54.6 L674.256,53.112 C681.888,46.536 687.408,37.368 690.816,25.656 L678.624,25.656 Z M690.72,34.344 C692.352,38.424 695.424,42.12 700.032,45.432 C704.4,42.024 707.28,38.328 708.624,34.344 L690.72,34.344 Z M703.536,12.408 C707.088,15.192 710.064,17.976 712.464,20.808 L711.264,22.008 C709.056,19.32 706.08,16.44 702.432,13.416 L703.536,12.408 Z M761.424,14.376 L761.424,40.2 L759.792,40.2 L759.792,15.96 L743.184,15.96 L743.184,40.2 L741.504,40.2 L741.504,14.376 L761.424,14.376 Z M761.04,54.84 L756,54.84 C753.984,54.84 752.976,53.832 752.976,51.912 L752.976,40.008 L754.608,40.008 L754.608,51.576 C754.608,52.68 755.232,53.256 756.48,53.256 L760.704,53.256 C761.856,53.256 762.624,52.968 763.008,52.44 C763.584,51.672 764.016,49.608 764.208,46.152 L765.744,46.632 C765.504,50.376 764.976,52.776 764.208,53.736 C763.536,54.456 762.48,54.84 761.04,54.84 Z M750.48,20.04 L752.064,20.04 L752.064,32.136 C752.016,38.424 750.816,43.464 748.464,47.208 C746.16,50.664 742.368,53.448 737.088,55.512 L736.128,54.072 C741.312,52.152 745.008,49.464 747.312,45.96 C749.376,42.408 750.432,37.8 750.48,32.136 L750.48,20.04 Z M723.264,30.408 L729.504,30.408 L729.504,17.448 L722.64,17.448 L722.64,15.864 L737.904,15.864 L737.904,17.448 L731.136,17.448 L731.136,30.408 L737.232,30.408 L737.232,32.04 L731.136,32.04 L731.136,45.144 C733.536,44.376 735.84,43.56 738.048,42.648 L738.048,44.28 C733.392,46.152 728.352,47.688 722.928,48.936 L722.544,47.352 C724.944,46.872 727.248,46.296 729.504,45.624 L729.504,32.04 L723.264,32.04 L723.264,30.408 Z M771.888,14.376 L812.16,14.376 L812.16,15.96 L792.864,15.96 L792.864,21.48 L808.032,21.48 L808.032,39.336 L792.432,39.336 C791.856,43.128 790.704,46.104 789.024,48.264 C795.984,51.528 804.288,53.352 813.936,53.736 L813.504,55.272 C803.616,54.888 795.072,52.92 787.968,49.416 C784.8,52.488 779.232,54.456 771.264,55.416 L770.544,53.928 C778.176,53.112 783.504,51.384 786.48,48.696 C783.216,46.92 780.24,44.856 777.648,42.552 L778.944,41.64 C781.536,43.944 784.368,45.912 787.536,47.544 C789.168,45.432 790.224,42.696 790.8,39.336 L776.16,39.336 L776.16,21.48 L791.232,21.48 L791.232,15.96 L771.888,15.96 L771.888,14.376 Z M806.448,37.848 L806.448,31.08 L792.864,31.08 L792.864,33.672 C792.816,35.16 792.72,36.552 792.624,37.848 L806.448,37.848 Z M790.992,37.848 C791.136,36.504 791.232,35.112 791.232,33.672 L791.232,31.08 L777.792,31.08 L777.792,37.848 L790.992,37.848 Z M777.792,29.592 L791.232,29.592 L791.232,23.016 L777.792,23.016 L777.792,29.592 Z M792.864,23.016 L792.864,29.592 L806.448,29.592 L806.448,23.016 L792.864,23.016 Z M827.04,11.304 L828.672,11.496 C828,15.24 827.376,18.696 826.752,21.816 L835.584,21.816 L835.584,22.92 C835.008,30.696 833.232,37.416 830.352,43.032 C833.424,45.432 835.92,47.64 837.84,49.56 L836.736,50.808 C834.816,48.888 832.464,46.776 829.584,44.52 C827.04,48.936 823.776,52.632 819.744,55.656 L818.688,54.264 C822.672,51.336 825.888,47.736 828.336,43.512 C826.032,41.688 823.44,39.816 820.656,37.8 C822.192,33.384 823.584,28.584 824.784,23.4 L818.88,23.4 L818.88,21.816 L825.12,21.816 C825.84,18.456 826.464,14.952 827.04,11.304 Z M829.104,42.072 C831.792,36.792 833.424,30.552 834,23.4 L826.416,23.4 C825.168,29.016 823.824,33.624 822.48,37.272 C824.88,38.952 827.088,40.536 829.104,42.072 Z M837.984,32.808 L837.984,34.44 L849.648,34.44 L849.648,51.048 C849.648,52.68 848.88,53.544 847.344,53.544 C845.088,53.544 842.976,53.496 841.008,53.496 L841.44,55.08 L848.016,55.08 C850.176,55.08 851.28,53.88 851.28,51.576 L851.28,34.44 L861.84,34.44 L861.84,32.808 L851.28,32.808 L851.28,26.424 C854.352,23.448 857.136,20.232 859.536,16.776 L859.536,15.144 L839.472,15.144 L839.472,16.776 L857.664,16.776 C855.12,20.376 852.432,23.4 849.648,25.896 L849.648,32.808 L837.984,32.808 Z M882.624,20.904 L882.624,52.632 L880.992,52.632 L880.992,49.464 L870.336,49.464 L870.336,53.976 L868.704,53.976 L868.704,20.904 L872.928,20.904 C873.984,18.12 874.752,15.144 875.232,12.024 L876.864,12.264 C876.336,15.384 875.568,18.264 874.512,20.904 L882.624,20.904 Z M870.336,47.928 L880.992,47.928 L880.992,35.688 L870.336,35.688 L870.336,47.928 Z M870.336,34.152 L880.992,34.152 L880.992,22.536 L870.336,22.536 L870.336,34.152 Z M890.544,31.416 C894.384,35.496 897.36,39.048 899.376,42.12 L898.08,43.08 C895.968,39.816 892.992,36.216 889.248,32.28 L890.544,31.416 Z M907.536,21 C907.536,35.976 907.296,45.24 906.864,48.792 C906.432,52.824 904.272,54.888 900.336,54.888 C899.472,54.888 897.936,54.84 895.824,54.84 L895.392,53.304 C897.264,53.304 898.896,53.352 900.24,53.352 C903.168,53.352 904.848,51.72 905.28,48.552 C905.664,45.384 905.856,36.744 905.952,22.632 L890.784,22.632 C889.44,25.848 887.808,28.728 885.888,31.32 L884.928,30.024 C888.528,25.128 890.976,19.08 892.272,11.976 L893.856,12.168 C893.28,15.336 892.464,18.264 891.456,21 L907.536,21 Z M919.056,13.272 L917.904,14.376 C921.072,16.968 923.568,19.416 925.44,21.72 L926.592,20.568 C924.576,18.168 922.032,15.72 919.056,13.272 Z M914.448,27.384 L923.328,27.384 L923.328,50.328 C925.392,48.792 927.648,46.824 930.144,44.424 L930.576,46.2 C927.792,48.888 924.768,51.336 921.552,53.448 L920.88,52.008 C921.408,51.48 921.696,51 921.696,50.52 L921.696,29.016 L914.448,29.016 L914.448,27.384 Z M931.392,32.856 L953.52,32.856 L953.52,34.44 C951.792,39.432 948.912,43.608 944.976,47.064 C948.576,49.752 952.992,52.104 958.176,54.072 L957.264,55.464 C951.888,53.352 947.376,50.856 943.824,48.072 C939.888,51.192 934.992,53.688 929.136,55.512 L928.224,54.12 C933.936,52.296 938.688,49.944 942.528,47.016 C938.256,43.368 935.376,39.192 933.888,34.488 L931.392,34.488 L931.392,32.856 Z M935.472,34.488 C936.912,38.856 939.648,42.696 943.68,46.056 C947.472,42.792 950.208,38.952 951.888,34.488 L935.472,34.488 Z M935.568,14.376 L950.352,14.376 L950.352,25.272 C950.352,26.616 950.976,27.288 952.32,27.288 L957.072,27.288 L957.072,28.824 L952.08,28.824 C949.776,28.824 948.672,27.672 948.672,25.464 L948.672,15.96 L937.248,15.96 L937.248,18.12 C937.248,23.352 934.848,27.384 930.144,30.216 L929.04,28.968 C933.36,26.472 935.568,22.92 935.568,18.312 L935.568,14.376 Z M977.424,27.096 L991.104,27.096 L991.104,11.976 L992.832,11.976 L992.832,27.096 L1005.84,27.096 L1005.84,28.728 L992.832,28.728 L992.832,55.656 L991.104,55.656 L991.104,28.728 L977.424,28.728 L977.424,27.096 Z M966.912,12.648 L965.76,13.752 C969.36,16.536 972.288,19.176 974.496,21.672 L975.6,20.52 C973.248,17.88 970.368,15.24 966.912,12.648 Z M962.448,27.288 L971.664,27.288 L971.664,50.184 C973.824,48.504 976.176,46.44 978.672,44.04 L979.056,45.768 C976.224,48.6 973.2,51.096 969.936,53.304 L969.264,51.864 C969.792,51.384 970.08,50.904 970.08,50.472 L970.08,28.92 L962.448,28.92 L962.448,27.288 Z" id="打开站酷，发现更好的设计" fill="#282828"></path>
            </g>
        </g>
    </g>
</svg>