<?xml version="1.0" encoding="UTF-8"?>
<svg width="257px" height="19px" viewBox="0 0 257 19" version="1.1" xmlns="http://www.w3.org/2000/svg" xmlns:xlink="http://www.w3.org/1999/xlink">
    <!-- Generator: Sketch 46.2 (44496) - http://www.bohemiancoding.com/sketch -->
    <title>这些年大家设计过的站酷APP</title>
    <desc>Created with Sketch.</desc>
    <defs></defs>
    <g id="Page-2" stroke="none" stroke-width="1" fill="none" fill-rule="evenodd">
        <g id="下载页-更多状态" transform="translate(-593.000000, -4033.000000)">
            <g id="底部作品" transform="translate(0.000000, 3862.000000)">
                <rect id="Rectangle-6" fill="#FFFFFF" x="0" y="0" width="1440" height="590"></rect>
                <path d="M599.62,174.96 L604.82,174.96 C604.5,173.8 604.16,172.78 603.76,171.86 L604.46,171.74 C604.82,172.68 605.18,173.76 605.5,174.96 L610.86,174.96 L610.86,175.62 L608.84,175.62 C608.28,178 607.42,180.04 606.28,181.74 C607.98,183.24 609.5,184.72 610.84,186.2 L610.32,186.72 C609.04,185.28 607.56,183.8 605.88,182.3 C604.26,184.44 602.14,185.98 599.52,186.9 L599.16,186.28 C601.76,185.38 603.84,183.9 605.38,181.86 C603.86,180.54 602.2,179.22 600.4,177.86 L600.88,177.42 C602.64,178.72 604.28,180.02 605.78,181.3 C606.86,179.7 607.64,177.82 608.16,175.62 L599.62,175.62 L599.62,174.96 Z M594.58,172.26 L594.12,172.72 C595.58,173.78 596.74,174.78 597.62,175.74 L598.1,175.28 C597.16,174.26 595.98,173.26 594.58,172.26 Z M606.58,189.52 C605.5,189.52 604.32,189.5 603.06,189.48 C601.78,189.44 600.76,189.32 600.02,189.08 C599.24,188.84 598.52,188.34 597.86,187.54 C597.6,187.18 597.34,187.02 597.1,187.02 C596.5,187.02 595.6,187.96 594.36,189.86 L593.82,189.42 C595,187.58 596,186.58 596.8,186.38 L596.8,179.6 L593.7,179.6 L593.7,178.92 L597.46,178.92 L597.46,186.4 C597.72,186.5 597.98,186.72 598.26,187.04 C598.76,187.68 599.34,188.12 599.98,188.4 C600.64,188.64 601.56,188.78 602.72,188.82 C603.66,188.84 604.92,188.86 606.48,188.86 C607.36,188.86 608.26,188.84 609.18,188.84 C610.08,188.82 610.78,188.8 611.28,188.8 L611.12,189.52 L606.58,189.52 Z M618.72,171.82 L618.72,180.84 C617.84,180.98 616.92,181.12 615.96,181.26 L615.96,173.76 L615.28,173.76 L615.28,181.36 L613.16,181.6 L613.34,182.24 C616.8,181.84 620,181.32 622.92,180.68 L622.92,180.02 C621.8,180.26 620.62,180.5 619.4,180.72 L619.4,176.12 L622.68,176.12 L622.68,175.44 L619.4,175.44 L619.4,171.82 L618.72,171.82 Z M630.36,173.64 C628.7,174.54 626.86,175.26 624.82,175.82 L624.82,171.84 L624.16,171.84 L624.16,180.36 C624.16,181.34 624.62,181.84 625.54,181.84 L628.62,181.84 C629.38,181.84 629.94,181.68 630.28,181.36 C630.68,180.94 630.96,179.92 631.08,178.3 L630.44,178.08 C630.32,179.58 630.1,180.5 629.78,180.84 C629.54,181.06 629.1,181.18 628.48,181.18 L625.76,181.18 C625.12,181.18 624.82,180.86 624.82,180.22 L624.82,176.48 C627.1,175.88 629.08,175.12 630.78,174.2 L630.36,173.64 Z M615.94,184.24 L615.94,184.9 L628.8,184.9 L628.8,184.24 L615.94,184.24 Z M613.76,188.52 L613.76,189.2 L631.02,189.2 L631.02,188.52 L613.76,188.52 Z M637.18,174.94 C636.38,176.38 635.32,177.6 634.04,178.58 L633.58,178.02 C635.66,176.44 637.06,174.3 637.78,171.6 L638.48,171.74 C638.22,172.66 637.9,173.5 637.54,174.26 L650.42,174.26 L650.42,174.94 L643.86,174.94 L643.86,178.9 L649.72,178.9 L649.72,179.56 L643.86,179.56 L643.86,184.6 L651.08,184.6 L651.08,185.28 L643.86,185.28 L643.86,189.98 L643.2,189.98 L643.2,185.28 L633.66,185.28 L633.66,184.6 L637.18,184.6 L637.18,178.9 L643.2,178.9 L643.2,174.94 L637.18,174.94 Z M637.88,184.6 L643.2,184.6 L643.2,179.56 L637.88,179.56 L637.88,184.6 Z M653.7,177.28 L653.7,177.96 L661.6,177.96 C660.6,183.3 657.86,187.08 653.34,189.32 L653.76,189.88 C658.38,187.48 661.22,183.54 662.26,178.06 C663.66,183.18 666.56,187.1 670.96,189.8 L671.36,189.24 C667.06,186.64 664.22,182.88 662.84,177.96 L671.06,177.96 L671.06,177.28 L662.4,177.28 C662.6,175.96 662.72,174.56 662.72,173.06 L662.72,171.8 L662.04,171.8 L662.04,173.22 C662.02,174.62 661.92,175.98 661.72,177.28 L653.7,177.28 Z M685.7,181.82 C686.64,184.66 688.28,186.98 690.6,188.78 L691.06,188.24 C688.82,186.62 687.22,184.4 686.26,181.6 C687.54,181.08 688.72,180.44 689.84,179.68 L689.36,179.22 C687.56,180.44 685.64,181.32 683.62,181.84 C683.16,180.8 682.5,179.86 681.62,179.02 C682.3,178.62 683,178.18 683.72,177.68 L688.46,177.68 L688.46,177.02 L676.32,177.02 L676.32,177.68 L682.76,177.68 C681.88,178.26 680.88,178.8 679.78,179.3 C678.34,179.94 676.58,180.52 674.54,181 L674.92,181.56 C676.98,181.02 678.76,180.4 680.26,179.72 C680.52,179.6 680.8,179.46 681.1,179.3 C681.54,179.74 681.92,180.24 682.28,180.78 C680.4,182.34 677.72,183.6 674.22,184.58 L674.56,185.18 C678,184.18 680.68,182.9 682.6,181.3 C682.96,181.92 683.24,182.6 683.44,183.32 C681.26,185.28 678.1,186.86 673.98,188.08 L674.32,188.68 C678.24,187.5 681.34,185.94 683.6,184.02 C683.7,184.54 683.76,185.12 683.78,185.72 C683.78,187.2 683.58,188.18 683.2,188.66 C682.86,189.06 682.04,189.26 680.76,189.3 L679.9,189.3 L680.12,189.88 L680.86,189.88 C682.46,189.88 683.46,189.56 683.86,188.92 C684.26,188.32 684.46,187.24 684.46,185.72 C684.42,184.52 684.22,183.42 683.84,182.38 C684.46,182.22 685.08,182.04 685.7,181.82 Z M682.28,171.62 L681.6,171.76 C681.88,172.36 682.14,173.04 682.38,173.78 L674.14,173.78 L674.14,176.88 L674.82,176.88 L674.82,174.44 L689.94,174.44 L689.94,176.88 L690.6,176.88 L690.6,173.78 L683.06,173.78 C682.82,172.98 682.56,172.26 682.28,171.62 Z M695.32,172.28 L694.84,172.74 C696.16,173.82 697.2,174.84 697.98,175.8 L698.46,175.32 C697.62,174.32 696.56,173.3 695.32,172.28 Z M693.4,178.16 L697.1,178.16 L697.1,187.72 C697.96,187.08 698.9,186.26 699.94,185.26 L700.12,186 C698.96,187.12 697.7,188.14 696.36,189.02 L696.08,188.42 C696.3,188.2 696.42,188 696.42,187.8 L696.42,178.84 L693.4,178.84 L693.4,178.16 Z M700.46,180.44 L709.68,180.44 L709.68,181.1 C708.96,183.18 707.76,184.92 706.12,186.36 C707.62,187.48 709.46,188.46 711.62,189.28 L711.24,189.86 C709,188.98 707.12,187.94 705.64,186.78 C704,188.08 701.96,189.12 699.52,189.88 L699.14,189.3 C701.52,188.54 703.5,187.56 705.1,186.34 C703.32,184.82 702.12,183.08 701.5,181.12 L700.46,181.12 L700.46,180.44 Z M702.16,181.12 C702.76,182.94 703.9,184.54 705.58,185.94 C707.16,184.58 708.3,182.98 709,181.12 L702.16,181.12 Z M702.2,172.74 L708.36,172.74 L708.36,177.28 C708.36,177.84 708.62,178.12 709.18,178.12 L711.16,178.12 L711.16,178.76 L709.08,178.76 C708.12,178.76 707.66,178.28 707.66,177.36 L707.66,173.4 L702.9,173.4 L702.9,174.3 C702.9,176.48 701.9,178.16 699.94,179.34 L699.48,178.82 C701.28,177.78 702.2,176.3 702.2,174.38 L702.2,172.74 Z M719.64,178.04 L725.34,178.04 L725.34,171.74 L726.06,171.74 L726.06,178.04 L731.48,178.04 L731.48,178.72 L726.06,178.72 L726.06,189.94 L725.34,189.94 L725.34,178.72 L719.64,178.72 L719.64,178.04 Z M715.26,172.02 L714.78,172.48 C716.28,173.64 717.5,174.74 718.42,175.78 L718.88,175.3 C717.9,174.2 716.7,173.1 715.26,172.02 Z M713.4,178.12 L717.24,178.12 L717.24,187.66 C718.14,186.96 719.12,186.1 720.16,185.1 L720.32,185.82 C719.14,187 717.88,188.04 716.52,188.96 L716.24,188.36 C716.46,188.16 716.58,187.96 716.58,187.78 L716.58,178.8 L713.4,178.8 L713.4,178.12 Z M734.56,172.18 L734.08,172.64 C735.52,173.78 736.66,174.88 737.54,175.92 L738.02,175.42 C737.1,174.34 735.94,173.26 734.56,172.18 Z M747.02,189.52 C745.86,189.52 744.62,189.5 743.3,189.48 C741.94,189.44 740.86,189.32 740.06,189.08 C739.26,188.84 738.5,188.34 737.8,187.54 C737.52,187.18 737.24,187.02 736.98,187.02 C736.38,187.02 735.46,187.96 734.18,189.88 L733.64,189.44 C734.84,187.6 735.86,186.58 736.68,186.38 L736.68,179.6 L733.54,179.6 L733.54,178.92 L737.34,178.92 L737.34,186.4 C737.62,186.5 737.92,186.7 738.2,187.02 C738.74,187.66 739.36,188.12 740.04,188.4 C740.72,188.64 741.7,188.76 742.96,188.8 C743.94,188.82 745.26,188.84 746.92,188.84 L749.44,188.84 C750.28,188.82 750.92,188.8 751.38,188.78 L751.2,189.52 L747.02,189.52 Z M746.38,186.9 L743.48,186.9 L743.34,186.22 C744.32,186.26 745.26,186.28 746.14,186.28 C746.76,186.28 747.08,185.98 747.08,185.4 L747.08,176.02 L739.44,176.02 L739.44,175.34 L747.08,175.34 L747.08,171.8 L747.78,171.8 L747.78,175.34 L750.94,175.34 L750.94,176.02 L747.78,176.02 L747.78,185.56 C747.78,186.44 747.3,186.9 746.38,186.9 Z M741.04,178.32 C742.4,179.84 743.44,181.18 744.16,182.32 L743.6,182.72 C742.86,181.48 741.82,180.14 740.5,178.68 L741.04,178.32 Z M760.14,175.46 L760.14,188.68 L759.46,188.68 L759.46,187.36 L755.02,187.36 L755.02,189.24 L754.34,189.24 L754.34,175.46 L756.1,175.46 C756.54,174.3 756.86,173.06 757.06,171.76 L757.74,171.86 C757.52,173.16 757.2,174.36 756.76,175.46 L760.14,175.46 Z M755.02,186.72 L759.46,186.72 L759.46,181.62 L755.02,181.62 L755.02,186.72 Z M755.02,180.98 L759.46,180.98 L759.46,176.14 L755.02,176.14 L755.02,180.98 Z M763.44,179.84 C765.04,181.54 766.28,183.02 767.12,184.3 L766.58,184.7 C765.7,183.34 764.46,181.84 762.9,180.2 L763.44,179.84 Z M770.52,175.5 C770.52,181.74 770.42,185.6 770.24,187.08 C770.06,188.76 769.16,189.62 767.52,189.62 C767.16,189.62 766.52,189.6 765.64,189.6 L765.46,188.96 C766.24,188.96 766.92,188.98 767.48,188.98 C768.7,188.98 769.4,188.3 769.58,186.98 C769.74,185.66 769.82,182.06 769.86,176.18 L763.54,176.18 C762.98,177.52 762.3,178.72 761.5,179.8 L761.1,179.26 C762.6,177.22 763.62,174.7 764.16,171.74 L764.82,171.82 C764.58,173.14 764.24,174.36 763.82,175.5 L770.52,175.5 Z M785.24,171.72 L785.92,171.72 L785.92,175.52 L791.26,175.52 L791.26,176.2 L785.92,176.2 L785.92,180.78 L790,180.78 L790,189.78 L789.32,189.78 L789.32,188.3 L782.96,188.3 L782.96,189.8 L782.3,189.8 L782.3,180.78 L785.24,180.78 L785.24,171.72 Z M782.96,187.66 L789.32,187.66 L789.32,181.4 L782.96,181.4 L782.96,187.66 Z M773.6,175.34 L773.6,176.02 L781.26,176.02 L781.26,175.34 L777.86,175.34 C777.54,174.06 777.22,172.9 776.9,171.9 L776.22,172.02 C776.58,173 776.9,174.1 777.18,175.34 L773.6,175.34 Z M774.96,177.7 C775.48,180.06 775.94,182.8 776.34,185.88 L775.76,186.04 C775.38,183.2 774.9,180.5 774.34,177.9 L774.96,177.7 Z M781.04,186 L781.04,186.66 C778.76,187.38 776.28,187.98 773.6,188.46 L773.44,187.8 C775,187.56 776.48,187.24 777.92,186.88 C778.64,183.92 779.14,180.78 779.44,177.42 L780.12,177.52 C779.78,180.86 779.28,183.92 778.6,186.7 C779.44,186.48 780.24,186.24 781.04,186 Z M793.44,172.82 L801.74,172.82 L801.74,173.46 L799.02,173.46 L799.02,176.44 L801.08,176.44 L801.08,189.9 L800.44,189.9 L800.44,188.64 L794.86,188.64 L794.86,189.9 L794.26,189.9 L794.26,176.44 L796.28,176.44 L796.28,173.46 L793.44,173.46 L793.44,172.82 Z M794.86,188.02 L800.44,188.02 L800.44,185.36 L794.86,185.36 L794.86,188.02 Z M796.36,177.06 L794.86,177.06 L794.86,184.74 L800.44,184.74 L800.44,182.22 L799.08,182.22 C798.64,182.22 798.44,181.92 798.44,181.36 L798.44,177.06 L796.88,177.06 L796.88,178.76 C796.84,180.84 796.32,182.36 795.32,183.32 L794.92,182.96 C795.86,182.08 796.34,180.68 796.36,178.76 L796.36,177.06 Z M796.88,176.44 L798.46,176.44 L798.46,173.46 L796.88,173.46 L796.88,176.44 Z M800.44,181.68 L800.44,177.06 L798.94,177.06 L798.94,181.3 C798.94,181.54 799,181.68 799.12,181.68 L800.44,181.68 Z M803.66,175.72 L806.6,175.72 L806.6,179.62 L802.1,179.62 L802.1,180.28 L811.28,180.28 L811.28,179.62 L807.24,179.62 L807.24,175.72 L811.04,175.72 L811.04,175.08 L807.24,175.08 L807.24,171.84 L806.6,171.84 L806.6,175.08 L803.88,175.08 C804.14,174.26 804.38,173.38 804.58,172.42 L803.96,172.3 C803.52,174.38 802.88,176.22 802.02,177.82 L802.58,178.18 C802.98,177.42 803.34,176.6 803.66,175.72 Z M810.32,182.9 L810.32,189.9 L809.66,189.9 L809.66,188.8 L803.88,188.8 L803.88,189.9 L803.24,189.9 L803.24,182.9 L810.32,182.9 Z M803.88,188.16 L809.66,188.16 L809.66,183.56 L803.88,183.56 L803.88,188.16 Z M818.2,173.72 L819.16,173.72 L824.96,188 L824.1,188 L822.3,183.48 L815.08,183.48 L813.26,188 L812.38,188 L818.2,173.72 Z M815.36,182.76 L822.02,182.76 L818.72,174.56 L818.66,174.56 L815.36,182.76 Z M826.44,173.72 L832.2,173.72 C835.24,173.72 836.78,175.04 836.78,177.7 C836.78,180.38 835.24,181.72 832.18,181.72 L827.22,181.72 L827.22,188 L826.44,188 L826.44,173.72 Z M827.22,174.44 L827.22,181 L832.16,181 C833.48,181 834.44,180.7 835.08,180.14 C835.68,179.6 836,178.78 836,177.7 C836,176.62 835.68,175.8 835.08,175.28 C834.44,174.72 833.46,174.44 832.16,174.44 L827.22,174.44 Z M838.96,173.72 L844.72,173.72 C847.76,173.72 849.3,175.04 849.3,177.7 C849.3,180.38 847.76,181.72 844.7,181.72 L839.74,181.72 L839.74,188 L838.96,188 L838.96,173.72 Z M839.74,174.44 L839.74,181 L844.68,181 C846,181 846.96,180.7 847.6,180.14 C848.2,179.6 848.52,178.78 848.52,177.7 C848.52,176.62 848.2,175.8 847.6,175.28 C846.96,174.72 845.98,174.44 844.68,174.44 L839.74,174.44 Z" id="这些年大家设计过的站酷APP" fill="#666666"></path>
            </g>
        </g>
    </g>
</svg>