<?xml version="1.0" encoding="UTF-8"?>
<svg width="427px" height="34px" viewBox="0 0 427 34" version="1.1" xmlns="http://www.w3.org/2000/svg" xmlns:xlink="http://www.w3.org/1999/xlink">
    <!-- Generator: Sketch 46.2 (44496) - http://www.bohemiancoding.com/sketch -->
    <title>感谢为站酷献计献策的你们</title>
    <desc>Created with Sketch.</desc>
    <defs></defs>
    <g id="Page-2" stroke="none" stroke-width="1" fill="none" fill-rule="evenodd">
        <g id="下载页-更多状态" transform="translate(-507.000000, -3967.000000)">
            <g id="底部作品" transform="translate(0.000000, 3862.000000)">
                <rect id="Rectangle-6" fill="#FFFFFF" x="0" y="0" width="1440" height="590"></rect>
                <path d="M513.712,114.588 L525.448,114.588 L525.448,115.704 L513.712,115.704 L513.712,114.588 Z M515.08,118.728 L524.368,118.728 L524.368,125.46 L515.08,125.46 L515.08,118.728 Z M523.18,124.38 L523.18,119.844 L516.304,119.844 L516.304,124.38 L523.18,124.38 Z M537.652,109.512 L537.652,110.7 L528.292,110.7 C528.472,113.796 528.832,116.316 529.408,118.224 C529.768,119.628 530.236,120.888 530.776,122.004 C532.432,119.7 533.836,116.856 534.916,113.436 L535.96,113.976 C534.736,117.72 533.188,120.78 531.388,123.156 C531.712,123.66 532.036,124.128 532.36,124.56 C533.512,125.784 534.592,126.432 535.564,126.432 C536.32,126.432 537.112,124.74 537.904,121.428 L538.948,122.004 C537.976,125.712 536.896,127.584 535.672,127.584 C534.232,127.584 532.864,126.864 531.496,125.424 C531.136,124.992 530.848,124.56 530.596,124.128 C529.264,125.604 527.86,126.792 526.348,127.656 L525.664,126.648 C527.248,125.748 528.688,124.56 529.948,123.048 C529.264,121.752 528.688,120.312 528.22,118.728 C527.644,116.604 527.248,113.94 527.068,110.7 L511.444,110.7 L511.444,116.244 C511.336,120.816 510.184,124.524 508.024,127.332 L507.088,126.468 C509.068,124.02 510.112,120.6 510.22,116.244 L510.22,109.512 L526.996,109.512 C526.924,108.288 526.924,106.992 526.924,105.624 L528.148,105.624 C528.148,106.992 528.148,108.288 528.22,109.512 L533.872,109.512 C533.296,108.216 532.648,107.1 532,106.164 L533.152,105.948 C533.836,106.992 534.448,108.18 535.024,109.512 L537.652,109.512 Z M511.624,128.34 C510.652,131.436 509.176,134.172 507.16,136.512 L508.24,137.196 C510.22,134.748 511.732,131.904 512.812,128.592 L511.624,128.34 Z M527.464,137.88 L518.68,137.88 C516.952,137.88 516.124,136.98 516.124,135.252 L516.124,127.908 L517.384,127.908 L517.384,135 C517.384,136.08 517.924,136.656 519.076,136.656 L527.212,136.656 C528.256,136.656 528.976,136.476 529.408,136.116 C529.912,135.612 530.272,134.208 530.488,131.868 L531.64,132.228 C531.46,134.82 530.992,136.476 530.272,137.124 C529.696,137.628 528.76,137.88 527.464,137.88 Z M533.728,129.312 L532.72,129.96 C535.024,132.264 536.824,134.424 538.12,136.368 L539.092,135.648 C537.868,133.848 536.068,131.724 533.728,129.312 Z M522.316,127.368 C524.116,129.24 525.52,130.896 526.492,132.336 L525.52,133.056 C524.512,131.472 523.144,129.78 521.344,127.98 L522.316,127.368 Z M555.868,115.524 L555.868,119.52 L562.6,119.52 L562.6,115.524 L555.868,115.524 Z M562.6,114.48 L562.6,110.484 L555.868,110.484 L555.868,114.48 L562.6,114.48 Z M555.868,120.564 L555.868,124.74 L562.6,124.74 L562.6,120.564 L555.868,120.564 Z M552.304,124.74 L554.716,124.74 L554.716,109.404 L557.452,109.404 C557.956,108.18 558.352,106.884 558.568,105.516 L559.792,105.696 C559.504,107.028 559.108,108.252 558.604,109.404 L563.788,109.404 L563.788,135.756 C563.788,137.484 562.924,138.348 561.232,138.348 L558.352,138.348 L558.028,137.16 L560.872,137.232 C562.024,137.232 562.6,136.656 562.6,135.504 L562.6,125.892 L562.348,125.892 C560.584,130.5 557.452,134.28 552.988,137.268 L552.34,136.188 C556.552,133.524 559.54,130.068 561.268,125.892 L552.304,125.892 L552.304,124.74 Z M565.516,112.968 L571.348,112.968 L571.348,105.804 L572.536,105.804 L572.536,112.968 L575.416,112.968 L575.416,114.156 L572.536,114.156 L572.536,135.756 C572.536,137.484 571.744,138.348 570.16,138.348 L567.064,138.348 L566.812,137.196 C567.82,137.268 568.828,137.304 569.764,137.304 C570.808,137.304 571.348,136.692 571.348,135.468 L571.348,114.156 L565.516,114.156 L565.516,112.968 Z M566.2,118.656 C567.712,121.212 569.008,124.02 570.124,127.116 L569.152,127.584 C567.928,124.416 566.632,121.572 565.192,119.124 L566.2,118.656 Z M545.968,106.38 L545.104,107.208 C547.66,109.296 549.712,111.276 551.224,113.148 L552.088,112.284 C550.432,110.304 548.416,108.324 545.968,106.38 Z M542.728,117.216 L549.1,117.216 L549.1,133.92 C550.252,132.912 551.548,131.652 552.916,130.176 L553.24,131.472 C551.548,133.308 549.748,134.964 547.876,136.404 L547.372,135.288 C547.696,134.928 547.876,134.568 547.876,134.28 L547.876,118.44 L542.728,118.44 L542.728,117.216 Z M583.048,106.776 C585.172,109.008 586.828,110.988 587.98,112.716 L586.972,113.4 C585.64,111.456 584.02,109.476 582.076,107.46 L583.048,106.776 Z M595.252,122.04 C598.024,125.028 600.148,127.656 601.66,129.888 L600.616,130.644 C599.068,128.232 596.944,125.568 594.244,122.652 L595.252,122.04 Z M592.48,105.768 L593.668,105.768 L593.668,108.756 C593.668,110.988 593.56,113.076 593.38,115.056 L608.428,115.056 C608.428,124.992 607.96,131.292 607.096,134.028 C606.16,136.728 604.54,138.096 602.164,138.096 C600.544,138.096 599.176,138.06 598.06,138.024 L597.736,136.8 C599.32,136.872 600.796,136.908 602.092,136.908 C604.72,136.728 606.232,134.496 606.628,130.248 C606.988,125.964 607.204,121.32 607.204,116.28 L593.236,116.28 C592.732,120.816 591.76,124.668 590.32,127.8 C588.196,132.192 584.668,135.684 579.736,138.276 L579.052,137.196 C583.876,134.748 587.368,131.22 589.528,126.684 C590.752,123.732 591.58,120.276 592.012,116.28 L580.312,116.28 L580.312,115.056 L592.156,115.056 C592.336,113.076 592.444,110.988 592.48,108.756 L592.48,105.768 Z M636.148,105.696 L637.372,105.696 L637.372,112.536 L646.984,112.536 L646.984,113.76 L637.372,113.76 L637.372,122.004 L644.716,122.004 L644.716,138.204 L643.492,138.204 L643.492,135.54 L632.044,135.54 L632.044,138.24 L630.856,138.24 L630.856,122.004 L636.148,122.004 L636.148,105.696 Z M632.044,134.388 L643.492,134.388 L643.492,123.12 L632.044,123.12 L632.044,134.388 Z M615.196,112.212 L615.196,113.436 L628.984,113.436 L628.984,112.212 L622.864,112.212 C622.288,109.908 621.712,107.82 621.136,106.02 L619.912,106.236 C620.56,108 621.136,109.98 621.64,112.212 L615.196,112.212 Z M617.644,116.46 C618.58,120.708 619.408,125.64 620.128,131.184 L619.084,131.472 C618.4,126.36 617.536,121.5 616.528,116.82 L617.644,116.46 Z M628.588,131.4 L628.588,132.588 C624.484,133.884 620.02,134.964 615.196,135.828 L614.908,134.64 C617.716,134.208 620.38,133.632 622.972,132.984 C624.268,127.656 625.168,122.004 625.708,115.956 L626.932,116.136 C626.32,122.148 625.42,127.656 624.196,132.66 C625.708,132.264 627.148,131.832 628.588,131.4 Z M650.908,107.676 L665.848,107.676 L665.848,108.828 L660.952,108.828 L660.952,114.192 L664.66,114.192 L664.66,138.42 L663.508,138.42 L663.508,136.152 L653.464,136.152 L653.464,138.42 L652.384,138.42 L652.384,114.192 L656.02,114.192 L656.02,108.828 L650.908,108.828 L650.908,107.676 Z M653.464,135.036 L663.508,135.036 L663.508,130.248 L653.464,130.248 L653.464,135.036 Z M656.164,115.308 L653.464,115.308 L653.464,129.132 L663.508,129.132 L663.508,124.596 L661.06,124.596 C660.268,124.596 659.908,124.056 659.908,123.048 L659.908,115.308 L657.1,115.308 L657.1,118.368 C657.028,122.112 656.092,124.848 654.292,126.576 L653.572,125.928 C655.264,124.344 656.128,121.824 656.164,118.368 L656.164,115.308 Z M657.1,114.192 L659.944,114.192 L659.944,108.828 L657.1,108.828 L657.1,114.192 Z M663.508,123.624 L663.508,115.308 L660.808,115.308 L660.808,122.94 C660.808,123.372 660.916,123.624 661.132,123.624 L663.508,123.624 Z M669.304,112.896 L674.596,112.896 L674.596,119.916 L666.496,119.916 L666.496,121.104 L683.02,121.104 L683.02,119.916 L675.748,119.916 L675.748,112.896 L682.588,112.896 L682.588,111.744 L675.748,111.744 L675.748,105.912 L674.596,105.912 L674.596,111.744 L669.7,111.744 C670.168,110.268 670.6,108.684 670.96,106.956 L669.844,106.74 C669.052,110.484 667.9,113.796 666.352,116.676 L667.36,117.324 C668.08,115.956 668.728,114.48 669.304,112.896 Z M681.292,125.82 L681.292,138.42 L680.104,138.42 L680.104,136.44 L669.7,136.44 L669.7,138.42 L668.548,138.42 L668.548,125.82 L681.292,125.82 Z M669.7,135.288 L680.104,135.288 L680.104,127.008 L669.7,127.008 L669.7,135.288 Z M695.944,105.588 L697.132,105.768 C696.988,107.28 696.808,108.72 696.592,110.124 L704.656,110.124 L704.656,111.24 L696.412,111.24 C696.124,112.896 695.836,114.48 695.476,115.992 L703.216,115.992 L703.216,135.648 C703.216,137.196 702.496,137.988 701.128,137.988 L698.896,137.988 L698.572,136.836 L700.732,136.872 C701.632,136.872 702.1,136.368 702.1,135.396 L702.1,117.108 L689.32,117.108 L689.32,137.988 L688.204,137.988 L688.204,115.992 L694.288,115.992 C694.648,114.408 694.936,112.824 695.224,111.24 L686.764,111.24 L686.764,110.124 L695.404,110.124 C695.62,108.612 695.8,107.1 695.944,105.588 Z M691.444,123.912 L693.892,123.912 C693.388,122.328 692.74,120.888 691.948,119.556 L692.956,119.16 C693.676,120.456 694.36,122.04 694.936,123.912 L696.592,123.912 C697.384,122.4 698.104,120.744 698.68,119.016 L699.724,119.412 C699.112,121.14 698.428,122.616 697.672,123.912 L700.048,123.912 L700.048,124.956 L696.304,124.956 L696.304,129.096 L700.588,129.096 L700.588,130.176 L696.304,130.176 L696.304,137.376 L695.152,137.376 L695.152,130.176 L690.868,130.176 L690.868,129.096 L695.152,129.096 L695.152,124.956 L691.444,124.956 L691.444,123.912 Z M705.232,115.884 L710.632,115.884 C710.704,111.492 710.74,108.18 710.74,105.876 L711.928,105.876 C711.928,108.324 711.892,111.204 711.82,114.48 C711.856,114.984 711.892,115.452 711.964,115.884 L718.372,115.884 L718.372,117.072 L712.072,117.072 C713.08,125.928 715.456,132.732 719.236,137.52 L718.444,138.42 C714.88,133.812 712.576,127.584 711.532,119.772 C710.668,127.08 708.472,133.272 704.944,138.384 L704.152,137.52 C707.968,131.796 710.128,124.992 710.596,117.072 L705.232,117.072 L705.232,115.884 Z M715.024,107.568 C716.608,109.62 717.796,111.42 718.624,113.004 L717.688,113.652 C716.824,111.96 715.6,110.124 714.088,108.108 L715.024,107.568 Z M734.068,117.072 L744.328,117.072 L744.328,105.732 L745.624,105.732 L745.624,117.072 L755.38,117.072 L755.38,118.296 L745.624,118.296 L745.624,138.492 L744.328,138.492 L744.328,118.296 L734.068,118.296 L734.068,117.072 Z M726.184,106.236 L725.32,107.064 C728.02,109.152 730.216,111.132 731.872,113.004 L732.7,112.14 C730.936,110.16 728.776,108.18 726.184,106.236 Z M722.836,117.216 L729.748,117.216 L729.748,134.388 C731.368,133.128 733.132,131.58 735.004,129.78 L735.292,131.076 C733.168,133.2 730.9,135.072 728.452,136.728 L727.948,135.648 C728.344,135.288 728.56,134.928 728.56,134.604 L728.56,118.44 L722.836,118.44 L722.836,117.216 Z M767.944,105.588 L769.132,105.768 C768.988,107.28 768.808,108.72 768.592,110.124 L776.656,110.124 L776.656,111.24 L768.412,111.24 C768.124,112.896 767.836,114.48 767.476,115.992 L775.216,115.992 L775.216,135.648 C775.216,137.196 774.496,137.988 773.128,137.988 L770.896,137.988 L770.572,136.836 L772.732,136.872 C773.632,136.872 774.1,136.368 774.1,135.396 L774.1,117.108 L761.32,117.108 L761.32,137.988 L760.204,137.988 L760.204,115.992 L766.288,115.992 C766.648,114.408 766.936,112.824 767.224,111.24 L758.764,111.24 L758.764,110.124 L767.404,110.124 C767.62,108.612 767.8,107.1 767.944,105.588 Z M763.444,123.912 L765.892,123.912 C765.388,122.328 764.74,120.888 763.948,119.556 L764.956,119.16 C765.676,120.456 766.36,122.04 766.936,123.912 L768.592,123.912 C769.384,122.4 770.104,120.744 770.68,119.016 L771.724,119.412 C771.112,121.14 770.428,122.616 769.672,123.912 L772.048,123.912 L772.048,124.956 L768.304,124.956 L768.304,129.096 L772.588,129.096 L772.588,130.176 L768.304,130.176 L768.304,137.376 L767.152,137.376 L767.152,130.176 L762.868,130.176 L762.868,129.096 L767.152,129.096 L767.152,124.956 L763.444,124.956 L763.444,123.912 Z M777.232,115.884 L782.632,115.884 C782.704,111.492 782.74,108.18 782.74,105.876 L783.928,105.876 C783.928,108.324 783.892,111.204 783.82,114.48 C783.856,114.984 783.892,115.452 783.964,115.884 L790.372,115.884 L790.372,117.072 L784.072,117.072 C785.08,125.928 787.456,132.732 791.236,137.52 L790.444,138.42 C786.88,133.812 784.576,127.584 783.532,119.772 C782.668,127.08 780.472,133.272 776.944,138.384 L776.152,137.52 C779.968,131.796 782.128,124.992 782.596,117.072 L777.232,117.072 L777.232,115.884 Z M787.024,107.568 C788.608,109.62 789.796,111.42 790.624,113.004 L789.688,113.652 C788.824,111.96 787.6,110.124 786.088,108.108 L787.024,107.568 Z M795.52,116.928 L810.388,116.928 L810.388,113.868 L811.612,113.868 L811.612,116.928 L826.48,116.928 L826.48,118.08 L811.612,118.08 L811.612,122.076 L823.456,122.076 L823.456,128.52 C823.456,130.068 822.7,130.86 821.224,130.86 L818.776,130.86 L818.452,129.708 L820.828,129.744 C821.764,129.744 822.232,129.24 822.232,128.268 L822.232,123.192 L811.612,123.192 L811.612,126.684 C815.716,130.896 820.972,134.136 827.308,136.404 L826.696,137.52 C820.792,135.288 815.788,132.12 811.612,128.052 L811.612,138.528 L810.388,138.528 L810.388,128.124 C806.284,132.336 801.604,135.54 796.312,137.7 L795.592,136.656 C801.424,134.352 806.356,131.004 810.388,126.684 L810.388,123.192 L800.344,123.192 L800.344,130.932 L799.156,130.932 L799.156,122.076 L810.388,122.076 L810.388,118.08 L795.52,118.08 L795.52,116.928 Z M799.408,110.268 C798.472,111.78 797.392,113.148 796.204,114.408 L795.124,113.724 C797.572,111.276 799.408,108.396 800.596,105.12 L801.784,105.372 C801.28,106.704 800.74,107.964 800.092,109.116 L810.496,109.116 L810.496,110.268 L803.152,110.268 C804.376,111.888 805.348,113.364 806.032,114.732 L804.916,115.164 C804.052,113.508 803.044,111.852 801.82,110.268 L799.408,110.268 Z M814.24,110.268 C813.592,111.456 812.908,112.572 812.152,113.616 L811.108,112.932 C812.836,110.7 814.096,108.108 814.924,105.156 L816.148,105.408 C815.752,106.704 815.284,107.964 814.78,109.116 L826.588,109.116 L826.588,110.268 L818.884,110.268 C820.036,111.888 820.972,113.4 821.62,114.768 L820.54,115.2 C819.676,113.508 818.704,111.852 817.552,110.268 L814.24,110.268 Z M842.968,112.428 L842.968,136.224 L841.744,136.224 L841.744,133.848 L833.752,133.848 L833.752,137.232 L832.528,137.232 L832.528,112.428 L835.696,112.428 C836.488,110.34 837.064,108.108 837.424,105.768 L838.648,105.948 C838.252,108.288 837.676,110.448 836.884,112.428 L842.968,112.428 Z M833.752,132.696 L841.744,132.696 L841.744,123.516 L833.752,123.516 L833.752,132.696 Z M833.752,122.364 L841.744,122.364 L841.744,113.652 L833.752,113.652 L833.752,122.364 Z M848.908,120.312 C851.788,123.372 854.02,126.036 855.532,128.34 L854.56,129.06 C852.976,126.612 850.744,123.912 847.936,120.96 L848.908,120.312 Z M861.652,112.5 C861.652,123.732 861.472,130.68 861.148,133.344 C860.824,136.368 859.204,137.916 856.252,137.916 C855.604,137.916 854.452,137.88 852.868,137.88 L852.544,136.728 C853.948,136.728 855.172,136.764 856.18,136.764 C858.376,136.764 859.636,135.54 859.96,133.164 C860.248,130.788 860.392,124.308 860.464,113.724 L849.088,113.724 C848.08,116.136 846.856,118.296 845.416,120.24 L844.696,119.268 C847.396,115.596 849.232,111.06 850.204,105.732 L851.392,105.876 C850.96,108.252 850.348,110.448 849.592,112.5 L861.652,112.5 Z M871.66,116.532 C870.22,118.836 868.6,120.996 866.8,122.976 L866.404,121.716 C870.508,116.928 873.46,111.564 875.224,105.66 L876.34,106.2 C875.404,109.08 874.252,111.816 872.92,114.336 L872.92,138.456 L871.66,138.456 L871.66,116.532 Z M893.116,120.06 L891.964,120.456 C893.908,124.56 895.708,129.276 897.328,134.604 L898.444,134.136 C896.932,129.132 895.132,124.452 893.116,120.06 Z M881.308,111.852 C880.084,114.84 878.608,117.54 876.952,119.988 L875.908,119.34 C878.716,115.344 880.804,110.736 882.172,105.48 L883.396,105.732 C882.892,107.46 882.352,109.08 881.776,110.628 L897.544,110.628 L897.544,111.456 C896.968,113.76 896.14,116.028 895.132,118.224 L893.944,117.864 C894.916,115.992 895.708,114.012 896.284,111.852 L881.308,111.852 Z M886.384,138.168 L881.524,138.168 L881.272,136.98 C882.892,137.052 884.44,137.088 885.952,137.088 C886.888,137.088 887.392,136.584 887.392,135.648 L887.392,115.56 L888.58,115.56 L888.58,135.972 C888.58,137.412 887.824,138.168 886.384,138.168 Z M881.56,120.24 L882.676,120.564 C881.308,125.676 879.508,130.176 877.348,133.992 L876.16,133.56 C878.248,130.104 880.048,125.64 881.56,120.24 Z M930.628,138.204 C932.572,138.204 933.544,137.124 933.544,135.036 L933.544,108.576 L922.888,108.576 L922.888,109.764 L932.32,109.764 L932.32,134.712 C932.32,136.26 931.672,137.052 930.376,137.052 L926.632,137.016 L926.956,138.204 L930.628,138.204 Z M916.912,105.804 L915.94,106.416 C917.74,108.576 919.144,110.556 920.188,112.392 L921.16,111.672 C920.152,109.98 918.748,108.036 916.912,105.804 Z M911.44,105.696 C909.64,111.384 906.652,116.568 902.44,121.212 L902.836,122.472 C904.6,120.636 906.184,118.656 907.624,116.496 L907.624,138.528 L908.848,138.528 L908.848,114.516 C910.324,111.96 911.548,109.188 912.556,106.2 L911.44,105.696 Z M914.536,111.888 L914.536,138.384 L915.76,138.384 L915.76,111.888 L914.536,111.888 Z" id="感谢为站酷献计献策的你们" fill="#282828"></path>
            </g>
        </g>
    </g>
</svg>