<?xml version="1.0" encoding="UTF-8"?>
<svg width="331px" height="45px" viewBox="0 0 331 45" version="1.1" xmlns="http://www.w3.org/2000/svg" xmlns:xlink="http://www.w3.org/1999/xlink">
    <!-- Generator: Sketch 46.2 (44496) - http://www.bohemiancoding.com/sketch -->
    <title>我用设计说爱你</title>
    <desc>Created with Sketch.</desc>
    <defs></defs>
    <g id="Page-2" stroke="none" stroke-width="1" fill="none" fill-rule="evenodd">
        <g id="下载页-更多状态" transform="translate(-554.000000, -3893.000000)">
            <g id="底部作品" transform="translate(0.000000, 3862.000000)">
                <rect id="Rectangle-6" fill="#FFFFFF" x="0" y="0" width="1440" height="590"></rect>
                <path d="M576.528,54.872 L576.528,56.552 C573.456,57.608 570.24,58.568 566.832,59.432 L566.832,71.576 C566.832,73.784 565.632,74.936 563.232,74.936 L558,74.936 L557.664,73.352 C559.392,73.448 561.072,73.496 562.704,73.496 C564.336,73.496 565.2,72.68 565.2,71.144 L565.2,59.816 C561.84,60.584 558.336,61.304 554.688,61.88 L554.448,60.296 C558.24,59.672 561.84,58.952 565.2,58.184 L565.2,47.384 L554.592,47.384 L554.592,45.8 L565.2,45.8 L565.2,37.112 C562.416,37.688 559.44,38.216 556.32,38.6 L555.984,37.016 C563.04,36.2 569.232,34.76 574.512,32.744 L575.088,34.328 C572.544,35.24 569.808,36.056 566.832,36.728 L566.832,45.8 L580.368,45.8 C580.08,41.672 579.936,37.112 579.936,32.12 L581.568,32.12 C581.568,37.256 581.712,41.816 582,45.8 L597.408,45.8 L597.408,47.384 L582.144,47.384 C582.48,51.272 582.96,54.584 583.632,57.32 C584.016,59.048 584.496,60.632 584.976,62.072 C587.76,58.952 590.208,55.304 592.224,51.08 L593.664,51.848 C591.456,56.504 588.768,60.488 585.6,63.8 C586.416,65.912 587.328,67.784 588.336,69.32 C590.112,71.816 591.6,73.112 592.752,73.112 C594.192,73.064 595.344,70.04 596.304,63.992 L597.744,64.76 C596.64,71.48 595.056,74.84 593.04,74.84 C591.216,74.84 589.296,73.352 587.184,70.472 C586.128,68.888 585.168,67.064 584.352,65.048 C580.656,68.6 576.384,71.336 571.584,73.256 L570.672,71.816 C575.664,69.896 580.032,67.112 583.728,63.368 C583.056,61.544 582.48,59.624 582,57.512 C581.328,54.584 580.848,51.224 580.512,47.384 L566.832,47.384 L566.832,57.8 C570.288,56.936 573.552,55.928 576.528,54.872 Z M586.848,32.792 C590.4,35.288 593.328,37.784 595.728,40.328 L594.576,41.48 C592.32,39.08 589.344,36.536 585.696,33.848 L586.848,32.792 Z M609.216,47.624 L609.216,56.6 C609.216,56.984 609.168,57.368 609.168,57.752 L623.376,57.752 L623.376,47.624 L609.216,47.624 Z M609.072,59.336 C608.592,65.672 606.768,70.904 603.6,74.984 L602.4,73.88 C605.76,69.368 607.44,63.608 607.536,56.696 L607.536,34.376 L641.712,34.376 L641.712,70.088 C641.712,73.016 640.272,74.504 637.44,74.504 L631.92,74.504 L631.488,72.872 C633.408,72.872 635.232,72.92 636.864,72.92 C638.976,72.92 640.08,71.768 640.08,69.512 L640.08,59.336 L625.008,59.336 L625.008,73.976 L623.376,73.976 L623.376,59.336 L609.072,59.336 Z M640.08,57.752 L640.08,47.624 L625.008,47.624 L625.008,57.752 L640.08,57.752 Z M640.08,46.088 L640.08,36.008 L625.008,36.008 L625.008,46.088 L640.08,46.088 Z M623.376,36.008 L609.216,36.008 L609.216,46.088 L623.376,46.088 L623.376,36.008 Z M655.056,33.272 L653.904,34.376 C657.072,36.968 659.568,39.416 661.44,41.72 L662.592,40.568 C660.576,38.168 658.032,35.72 655.056,33.272 Z M650.448,47.384 L659.328,47.384 L659.328,70.328 C661.392,68.792 663.648,66.824 666.144,64.424 L666.576,66.2 C663.792,68.888 660.768,71.336 657.552,73.448 L656.88,72.008 C657.408,71.48 657.696,71 657.696,70.52 L657.696,49.016 L650.448,49.016 L650.448,47.384 Z M667.392,52.856 L689.52,52.856 L689.52,54.44 C687.792,59.432 684.912,63.608 680.976,67.064 C684.576,69.752 688.992,72.104 694.176,74.072 L693.264,75.464 C687.888,73.352 683.376,70.856 679.824,68.072 C675.888,71.192 670.992,73.688 665.136,75.512 L664.224,74.12 C669.936,72.296 674.688,69.944 678.528,67.016 C674.256,63.368 671.376,59.192 669.888,54.488 L667.392,54.488 L667.392,52.856 Z M671.472,54.488 C672.912,58.856 675.648,62.696 679.68,66.056 C683.472,62.792 686.208,58.952 687.888,54.488 L671.472,54.488 Z M671.568,34.376 L686.352,34.376 L686.352,45.272 C686.352,46.616 686.976,47.288 688.32,47.288 L693.072,47.288 L693.072,48.824 L688.08,48.824 C685.776,48.824 684.672,47.672 684.672,45.464 L684.672,35.96 L673.248,35.96 L673.248,38.12 C673.248,43.352 670.848,47.384 666.144,50.216 L665.04,48.968 C669.36,46.472 671.568,42.92 671.568,38.312 L671.568,34.376 Z M713.424,47.096 L727.104,47.096 L727.104,31.976 L728.832,31.976 L728.832,47.096 L741.84,47.096 L741.84,48.728 L728.832,48.728 L728.832,75.656 L727.104,75.656 L727.104,48.728 L713.424,48.728 L713.424,47.096 Z M702.912,32.648 L701.76,33.752 C705.36,36.536 708.288,39.176 710.496,41.672 L711.6,40.52 C709.248,37.88 706.368,35.24 702.912,32.648 Z M698.448,47.288 L707.664,47.288 L707.664,70.184 C709.824,68.504 712.176,66.44 714.672,64.04 L715.056,65.768 C712.224,68.6 709.2,71.096 705.936,73.304 L705.264,71.864 C705.792,71.384 706.08,70.904 706.08,70.472 L706.08,48.92 L698.448,48.92 L698.448,47.288 Z M763.584,42.584 L777.072,42.584 C779.28,39.224 781.104,35.528 782.64,31.592 L784.272,32.168 C782.64,36.104 780.816,39.608 778.704,42.584 L786.096,42.584 L786.096,56.456 L779.328,56.456 L779.328,71.096 C779.328,72.536 780,73.256 781.44,73.256 L785.04,73.256 C786.192,73.256 786.96,72.92 787.392,72.296 C787.968,71.432 788.4,68.936 788.592,64.808 L790.128,65.288 C789.888,69.656 789.36,72.44 788.592,73.592 C787.92,74.408 786.864,74.84 785.376,74.84 L780.96,74.84 C778.8,74.84 777.744,73.688 777.744,71.384 L777.744,56.456 L771.792,56.456 C771.408,65.192 767.616,71.576 760.416,75.56 L759.504,74.216 C766.368,70.52 769.968,64.616 770.256,56.456 L763.584,56.456 L763.584,42.584 Z M784.512,54.92 L784.512,44.168 L765.168,44.168 L765.168,54.92 L784.512,54.92 Z M766.32,31.88 C768.288,34.424 770.064,37.208 771.696,40.184 L770.304,40.856 C768.576,37.784 766.752,35 764.832,32.6 L766.32,31.88 Z M751.104,32.84 L749.952,33.944 C753.408,36.536 756.192,39.08 758.304,41.48 L759.408,40.376 C757.2,37.832 754.416,35.336 751.104,32.84 Z M746.304,47.288 L755.52,47.288 L755.52,70.088 C757.44,68.552 759.552,66.68 761.808,64.376 L762.24,66.152 C759.6,68.84 756.816,71.192 753.84,73.256 L753.168,71.816 C753.648,71.24 753.936,70.712 753.936,70.232 L753.936,48.92 L746.304,48.92 L746.304,47.288 Z M834.96,44.36 L834.96,51.56 L833.328,51.56 L833.328,45.896 L798.768,45.896 L798.768,51.56 L797.136,51.56 L797.136,44.36 L804.624,44.36 C804.048,42.248 803.472,40.424 802.8,38.792 L804.432,38.504 C805.056,40.184 805.68,42.152 806.256,44.36 L815.904,44.36 C815.28,42.104 814.608,40.136 813.936,38.408 L815.52,38.12 C816.24,39.896 816.912,41.96 817.488,44.36 L824.592,44.36 C825.984,42.2 827.184,39.848 828.192,37.352 L829.776,37.928 C828.768,40.376 827.616,42.536 826.272,44.36 L834.96,44.36 Z M833.808,33.176 C824.4,34.664 812.064,35.432 796.848,35.432 L797.376,37.016 C812.88,37.016 825.312,36.248 834.624,34.712 L833.808,33.176 Z M810.048,47.816 L811.68,48.008 C811.392,49.544 811.056,50.984 810.72,52.376 L831.84,52.376 L831.84,54.008 L810.288,54.008 C809.76,55.832 809.184,57.56 808.512,59.192 L830.064,59.192 L830.064,60.488 C827.472,64.04 824.4,67.016 820.752,69.512 C825.264,71.624 830.304,73.016 835.872,73.736 L835.104,75.176 C829.248,74.408 823.968,72.824 819.216,70.472 C814.896,72.92 810.288,74.6 805.296,75.56 L804.576,74.072 C809.568,73.16 813.936,71.672 817.584,69.608 C813.792,67.496 810.384,64.856 807.36,61.688 C804.672,67.352 800.976,71.768 796.272,74.936 L795.456,73.496 C801.792,68.984 806.16,62.456 808.656,54.008 L800.304,54.008 L800.304,52.376 L809.088,52.376 C809.472,50.84 809.76,49.304 810.048,47.816 Z M808.272,60.728 C811.44,63.992 815.04,66.632 819.072,68.696 C822.624,66.44 825.648,63.8 828.096,60.728 L808.272,60.728 Z M848.88,46.376 C846.96,49.448 844.8,52.328 842.4,54.968 L841.872,53.288 C847.344,46.904 851.28,39.752 853.632,31.88 L855.12,32.6 C853.872,36.44 852.336,40.088 850.56,43.448 L850.56,75.608 L848.88,75.608 L848.88,46.376 Z M877.488,51.08 L875.952,51.608 C878.544,57.08 880.944,63.368 883.104,70.472 L884.592,69.848 C882.576,63.176 880.176,56.936 877.488,51.08 Z M861.744,40.136 C860.112,44.12 858.144,47.72 855.936,50.984 L854.544,50.12 C858.288,44.792 861.072,38.648 862.896,31.64 L864.528,31.976 C863.856,34.28 863.136,36.44 862.368,38.504 L883.392,38.504 L883.392,39.608 C882.624,42.68 881.52,45.704 880.176,48.632 L878.592,48.152 C879.888,45.656 880.944,43.016 881.712,40.136 L861.744,40.136 Z M868.512,75.224 L862.032,75.224 L861.696,73.64 C863.856,73.736 865.92,73.784 867.936,73.784 C869.184,73.784 869.856,73.112 869.856,71.864 L869.856,45.08 L871.44,45.08 L871.44,72.296 C871.44,74.216 870.432,75.224 868.512,75.224 Z M862.08,51.32 L863.568,51.752 C861.744,58.568 859.344,64.568 856.464,69.656 L854.88,69.08 C857.664,64.472 860.064,58.52 862.08,51.32 Z" id="我用设计说爱你" fill="#000000"></path>
            </g>
        </g>
    </g>
</svg>