<?xml version="1.0" encoding="UTF-8"?>
<svg width="114px" height="20px" viewBox="0 0 114 20" version="1.1" xmlns="http://www.w3.org/2000/svg" xmlns:xlink="http://www.w3.org/1999/xlink">
    <!-- Generator: Sketch 46.2 (44496) - http://www.bohemiancoding.com/sketch -->
    <title>logo-黑</title>
    <desc>Created with Sketch.</desc>
    <defs></defs>
    <g id="Page-2" stroke="none" stroke-width="1" fill="none" fill-rule="evenodd">
        <g id="logo-黑" fill="#282828">
            <path d="M53.3363577,13.00214 C52.6014899,13.73354 51.5853418,14.18594 50.4636381,14.18594 C49.3417333,14.18594 48.3257862,13.73354 47.5907175,13.00214 C46.8556487,12.27094 46.400654,11.26074 46.400654,10.14494 C46.400654,9.02914 46.8556487,8.01834 47.5907175,7.28694 C48.3257862,6.55574 49.3417333,6.10334 50.4636381,6.10334 C51.5853418,6.10334 52.6014899,6.55574 53.3363577,7.28694 C54.0718286,8.01834 54.5266222,9.02914 54.5266222,10.14494 C54.5266222,11.26074 54.0718286,12.27094 53.3363577,13.00214 M39.5550243,13.00214 C38.8199556,13.73354 37.8042095,14.18594 36.6821037,14.18594 C35.5604,14.18594 34.5444529,13.73354 33.8093841,13.00214 C33.0743153,12.27094 32.6193206,11.26074 32.6193206,10.14494 C32.6193206,9.02874 33.0743153,8.01834 33.8093841,7.28694 C34.5444529,6.55574 35.5604,6.10334 36.6821037,6.10334 C37.8042095,6.10334 38.8199556,6.55574 39.5550243,7.28694 C40.2900931,8.01834 40.7448868,9.02874 40.7448868,10.14494 C40.7448868,11.26074 40.2900931,12.27094 39.5550243,13.00214 M72.7426963,12.90334 C72.2291937,13.43334 71.5856063,14.32834 70.1307492,14.42654 L64.4293418,14.15274 L64.4241143,6.64814 C64.4221037,4.02634 64.8990138,3.19234 65.480072,2.77434 C66.1863894,2.26594 67.0471196,1.93334 67.390527,0.55714 C67.4170667,0.45014 67.4343577,0.26914 67.3810772,0.16314 C67.3267915,0.05674 67.2019344,0.02514 67.0712466,0.21514 C66.5929291,0.91354 66.2304212,1.20694 65.259109,0.97674 C62.4404741,0.30834 59.2577228,-0.12286 59.2577228,5.17734 L59.2571196,5.72254 C59.2567175,6.06734 58.9659873,6.28034 58.7309503,5.76714 C58.6965693,5.69194 58.660781,5.61734 58.6243894,5.54314 C57.9391831,4.14794 57.0551302,2.94694 55.6636063,2.05914 C54.1625058,1.10214 52.3781143,0.54714 50.4636381,0.54714 C48.5061354,0.54714 46.5381778,1.07474 45.0008868,2.26654 C44.0514899,3.00254 43.3493947,4.04794 42.9734159,4.91814 C42.9036487,5.07914 42.6818815,5.36874 42.5624529,5.08094 C42.2896169,4.42434 43.0858074,3.17014 43.2816381,2.24014 C43.3383365,1.97014 43.3475852,1.72154 43.3115958,1.51874 C43.2170984,0.99234 42.9440614,1.26174 42.8972148,1.45494 C42.5912042,2.72934 41.1620825,1.93834 40.4752677,1.56474 C39.2862095,0.91814 38.1269079,0.54714 36.6821037,0.54714 C34.0184847,0.54714 31.6061884,1.62154 29.8601989,3.35874 C28.1140085,5.09554 27.0337228,7.49514 27.0337228,10.14494 C27.0337228,12.79414 27.9992042,15.30774 29.7455958,17.04474 C31.4915852,18.78194 34.0184847,19.74234 36.6821037,19.74234 C38.6599132,19.74234 42.9665799,18.47454 42.5220402,15.91734 C42.497109,15.77394 42.3951725,15.38494 42.445236,15.28994 C42.524855,15.13814 42.6438815,15.15674 42.7480296,15.28974 C42.9760296,15.57914 43.1219979,15.90994 43.3107915,16.20174 C44.5661989,18.14434 47.4009185,19.74234 50.4636381,19.74234 C52.1284,19.74234 53.6952466,19.32214 55.0620402,18.58294 C56.6833735,17.70714 57.8010561,16.32874 58.5966434,14.72894 C58.6221778,14.67674 58.6473101,14.62514 58.6720402,14.57354 C58.8950138,14.10414 59.2486751,14.02814 59.2486751,14.62174 L59.2450561,18.37434 C59.2450561,19.46634 60.3349926,19.91654 62.0536381,19.75374 L69.6275005,19.75374 C71.5580614,19.75374 72.3737545,19.08194 72.6164317,17.63514 C72.8090455,16.48554 72.6284952,15.66654 72.7026857,14.89374 C72.8116593,13.76394 73.1876381,13.19114 73.2270455,13.10574 C73.3836698,12.76574 73.0454899,12.59074 72.7426963,12.90334" id="Fill-1"></path>
            <path d="M28.1312392,16.11914 C26.9552497,15.25874 26.5464984,14.84634 27.0533661,13.61214 C27.2276836,13.18654 26.9136307,13.07634 26.7083503,13.23894 C25.4060963,14.26954 23.833218,14.51974 22.2707947,14.01574 C17.9209005,12.61234 19.332128,5.54754 23.9787841,6.10674 C25.7519164,6.32014 27.280964,5.85854 28.1650169,4.05654 C28.628255,3.11234 28.8331333,2.13854 29.0418317,0.36274 C29.0995354,-0.07326 28.6535884,-0.08386 28.5536624,0.15954 C28.2508688,0.89694 27.9621492,1.11394 27.6374402,1.18934 C26.7399164,1.39814 25.9125619,0.97654 25.0029746,0.83334 C23.536255,0.60214 22.4640116,0.61494 21.0513767,0.98794 C19.432255,1.41534 17.9745831,2.23294 16.8291545,3.37294 C15.0825619,5.11034 14.0595778,7.59514 14.0595778,10.24474 C14.0595778,11.35834 14.1962974,12.42754 14.4844138,13.42214 C14.4848159,13.42834 14.4860222,13.43334 14.4876307,13.43934 C14.7612709,14.56234 14.5399058,14.52474 13.6825937,14.54254 L7.09914392,14.54254 L13.0287524,8.08074 C14.7874085,6.33114 14.7717259,5.49934 14.7717259,3.32934 C14.7717259,2.62354 14.7017577,1.92334 14.8517471,1.22614 C14.9247312,0.88734 14.7574508,0.79554 14.4204772,0.91114 C13.7988053,1.12474 12.6045196,1.09794 10.7477471,1.09794 L2.16135556,1.11154 C1.68806455,1.08374 1.42890053,0.77834 1.60824444,0.40294 C1.6536836,0.30754 1.69691111,0.03674 1.46046667,0.06714 C0.188974603,0.67834 -0.0780306878,3.21974 0.0176730159,4.85654 C0.0651227513,5.67474 0.515091005,6.20934 1.14480529,6.20994 L7.95645608,6.20994 L0.970889947,13.57714 C0.47769418,14.10294 0.0202867725,14.89154 0.0202867725,15.94274 L0.0279269841,18.05054 C0.0162656085,19.00794 0.560932275,19.57014 1.66172593,19.73714 L13.3373767,19.73714 C14.4769746,19.52334 15.2789958,19.01554 15.1466995,17.69474 L15.1466995,16.29754 C15.2325513,15.92914 15.4856836,15.95414 15.7589217,16.07134 C16.0038106,16.40954 16.2770487,16.73014 16.5794402,17.03074 C18.3256307,18.76814 20.7377259,19.84234 23.401546,19.84234 C24.2385513,19.84234 25.2904878,19.67734 26.3858529,19.17534 C27.4148688,18.70394 28.5094296,17.92094 28.6831439,17.10334 C28.7517048,16.77914 28.5709534,16.44074 28.1312392,16.11914" id="Fill-3"></path>
            <path d="M83.9957831,3.62246 L79.7964815,3.62246 L81.4343016,3.18426 C81.3534762,2.97046 81.242291,2.72686 81.107381,2.45906 C80.969254,2.19126 80.8142381,1.91786 80.6421323,1.64186 C80.4706296,1.36306 80.2884709,1.10326 80.0998783,0.86266 L78.057328,1.33346 C78.209127,1.56866 78.3573069,1.82046 78.5054868,2.08826 C78.6540688,2.35626 78.7889788,2.62406 78.9100159,2.88926 C79.034873,3.15166 79.1323862,3.39806 79.2099947,3.62246 L75.5913492,3.62246 L75.5913492,5.90646 L83.9957831,5.90646 L83.9957831,3.62246 Z" id="Fill-6"></path>
            <path d="M77.0472921,15.54492 L79.0090169,15.06472 C78.8636519,12.42532 78.5383397,9.76192 78.0990275,7.16992 L76.2585407,7.55372 C76.6355249,10.18692 76.9646571,12.87352 77.0472921,15.54492" id="Fill-8"></path>
            <path d="M90.7940635,11.14316 C90.9112804,11.13816 91.054836,11.17876 91.054836,11.40096 L91.054836,17.13216 C91.0528254,17.24676 90.9967302,17.29556 90.885746,17.27976 L86.3506772,17.27976 C86.2380847,17.30096 86.1799788,17.24676 86.1759577,17.11576 L86.1759577,11.38576 C86.1558519,11.16896 86.2748783,11.11816 86.456836,11.14316 L90.7940635,11.14316 Z M93.8141587,2.96936 C93.5895767,3.19156 93.3479048,3.46536 92.6832063,3.51516 L91.1229947,3.51516 L91.1229947,3.52016 L89.2881376,3.52016 L89.2881376,0.76196 L86.9359577,0.76196 L86.9359577,8.91036 L85.355037,8.91036 C84.3963915,8.91036 83.8016614,9.11896 83.8016614,9.97336 L83.8016614,18.27556 C83.8016614,19.21536 84.346328,19.53516 85.3741376,19.54276 L91.6700741,19.58996 C92.961672,19.55076 93.4671323,18.92216 93.3748466,18.08636 L93.4029947,10.05296 C93.4029947,9.23176 92.6554603,8.91036 91.7412487,8.91036 L89.2881376,8.91036 L89.2881376,5.79336 L91.1229947,5.79336 L91.1229947,5.79636 L92.4966243,5.79636 C93.2129947,5.79636 93.5688677,5.47356 93.6587407,4.87956 C93.7303175,4.40756 93.6100847,4.02436 93.6380317,3.70716 C93.6784444,3.24316 93.8404974,2.94316 93.8141587,2.96936 L93.8141587,2.96936 Z" id="Fill-10"></path>
            <path d="M110.392533,8.28496 L110.392533,5.81076 L112.171898,5.81076 L112.171898,5.81056 L112.350237,5.81056 C113.007094,5.81056 113.333211,5.51456 113.415443,4.97016 C113.480988,4.53776 113.370808,4.18656 113.396142,3.89556 C113.433539,3.47036 113.582322,3.19556 113.558396,3.21896 C113.352512,3.42276 113.130343,3.67416 112.521539,3.71976 L112.171898,3.71976 L112.171898,3.71876 L110.392533,3.71876 L110.392533,0.76196 L108.320226,0.76196 L108.320226,3.71876 L107.001687,3.71876 C107.121316,3.06356 107.303274,2.40196 107.402999,1.74736 L105.391211,1.36516 C105.327274,1.89496 105.246248,2.42476 105.148734,2.95756 C105.05102,3.48756 104.936015,4.00376 104.804925,4.50336 C104.673634,5.00296 104.525253,5.47236 104.356565,5.91456 C104.188078,6.35416 104.002904,6.74936 103.793803,7.09816 C104.472576,7.37796 104.944459,7.72216 105.545824,8.14436 C105.717729,7.81256 105.879983,7.45016 106.030978,7.06136 C106.183179,6.66956 106.324322,6.25336 106.455814,5.81076 L108.320226,5.81076 L108.320226,8.28496 L104.218639,8.28496 L104.218639,10.39716 L113.985644,10.39716 L113.985644,8.28496 L110.392533,8.28496 Z" id="Fill-12"></path>
            <path d="M101.909586,17.2537 L97.366073,17.2537 C97.1698402,17.2537 97.1676286,17.1295 97.165618,17.0537 L97.165618,15.5799 L102.107629,15.5799 L102.107629,17.0405 C102.128338,17.1631 102.06239,17.2345 101.909586,17.2537 L101.909586,17.2537 Z M97.165618,12.3309 L97.9795016,13.2319 C98.6403799,12.4897 99.0802952,11.6747 99.2168138,10.6889 C99.2771312,10.2531 99.3044751,9.8373 99.3044751,9.4451 L99.3044751,7.1987 L99.9920942,7.1987 L99.9920942,11.0941 C99.9920942,12.2651 100.26875,12.5631 101.460824,12.5631 L102.107629,12.5631 L102.107629,13.8503 L97.165618,13.8503 L97.165618,12.3309 Z M97.165618,7.3901 C97.1718508,7.2595 97.2335757,7.1961 97.3515968,7.1987 L97.8733429,7.1987 L97.8733429,9.2537 C97.8733429,9.5347 97.8630889,9.8303 97.8291101,10.1349 C97.7959354,10.4369 97.7281788,10.7387 97.6268455,11.0401 C97.5263164,11.3419 97.3708984,11.6305 97.165618,11.9083 L97.165618,7.3901 Z M99.1458402,5.2073 L100.289258,5.2073 L100.289258,3.4573 L99.1458402,3.4573 L99.1458402,5.2073 Z M101.440316,7.1987 L101.914814,7.1987 C102.074052,7.1987 102.107629,7.2209 102.107629,7.4069 L102.107629,11.1475 L102.043491,11.1475 L101.966084,11.1475 L101.622475,11.1475 C101.545269,11.1475 101.494803,11.1369 101.470475,11.1003 C101.447957,11.0665 101.440316,10.9799 101.440316,10.8459 L101.440316,7.1987 Z M102.05475,5.2073 L102.05475,3.4573 L104.119216,3.4573 L104.119216,1.4857 L95.403946,1.4857 L95.403946,3.4573 L97.3429513,3.4573 L97.3429513,5.2073 C96.0487397,5.2073 95.5028667,5.2623 95.5028667,6.2509 L95.5028667,18.3575 C95.5028667,19.1095 95.7421259,19.4151 97.2633323,19.4179 L102.193883,19.4269 C103.114126,19.4269 103.793703,19.2399 103.793703,18.3561 L103.793703,7.0983 L103.793703,6.1707 C103.793703,5.3691 103.476433,5.2073 102.05475,5.2073 L102.05475,5.2073 Z" id="Fill-14"></path>
            <path d="M111.123722,17.33066 L107.17715,17.33066 C107.055912,17.33066 106.953372,17.30786 106.983531,17.12606 L106.983531,13.85726 C106.983531,13.69686 106.964431,13.61746 107.181574,13.61766 L111.078081,13.62386 C111.253002,13.62366 111.340462,13.58566 111.340462,13.81066 L111.34388,17.12606 C111.31533,17.26926 111.242346,17.33766 111.123722,17.33066 M111.965552,11.54286 L106.524917,11.54186 C105.484642,11.54186 104.865383,11.81426 104.865383,12.67046 L104.865383,18.21606 C104.865383,18.85846 104.98823,19.37346 106.557891,19.38426 L111.562029,19.41506 C112.684738,19.46466 113.294145,19.20506 113.419404,18.26306 L113.419404,12.80926 C113.419404,11.76326 112.65297,11.54286 111.965552,11.54286" id="Fill-16"></path>
            <path d="M81.5571683,15.8246 C82.1718032,13.0788 82.5351153,10.2092 82.9521101,7.4096 L80.7481101,6.978 C80.5193058,10.088 80.1947979,13.308 79.6157503,16.3524 C78.813327,16.5482 78.0585545,16.7286 77.3472106,16.8966 C76.6396868,17.0642 75.9993164,17.2008 75.4297185,17.3124 L75.9554857,19.7442 C76.6698455,19.5522 77.4382899,19.34 78.270872,19.112 C79.0998349,18.8846 79.9561418,18.6444 80.8393905,18.392 C81.725655,18.1444 82.6050836,17.8886 83.4778772,17.6324 L83.2352,15.3928 L81.5571683,15.8246 Z" id="Fill-18"></path>
        </g>
    </g>
</svg>