<?xml version="1.0" encoding="UTF-8"?>
<svg width="484px" height="66px" viewBox="0 0 484 66" version="1.1" xmlns="http://www.w3.org/2000/svg" xmlns:xlink="http://www.w3.org/1999/xlink">
    <!-- Generator: Sketch 46.2 (44496) - http://www.bohemiancoding.com/sketch -->
    <title>口袋</title>
    <desc>Created with Sketch.</desc>
    <defs></defs>
    <g id="Page-2" stroke="none" stroke-width="1" fill="none" fill-rule="evenodd">
        <g id="下载页-更多状态" transform="translate(-478.000000, -196.000000)" fill="#FFFFFF">
            <g id="top">
                <g id="banner-文字" transform="translate(475.000000, 180.000000)">
                    <path d="M42.91,24.72 L30.73,24.72 L30.73,45.79 L42.91,45.79 L42.91,24.72 Z M46.48,45.79 L58.94,45.79 L58.94,24.72 L46.48,24.72 L46.48,45.79 Z M23.38,46 C21.21,47.26 18.97,48.45 16.66,49.57 L16.66,33.96 L23.38,33.96 L23.38,30.25 L16.66,30.25 L16.66,17.23 L12.88,17.23 L12.88,30.25 L4.27,30.25 L4.27,33.96 L12.88,33.96 L12.88,51.25 C9.87,52.44 6.72,53.49 3.5,54.4 L4.41,58.04 C7.21,57.13 10.08,56.08 12.88,54.89 L12.88,74.35 C12.88,76.17 11.97,77.15 10.22,77.15 C8.4,77.15 6.58,77.01 4.62,76.87 L5.46,80.51 L11.55,80.51 C14.91,80.51 16.66,78.76 16.66,75.26 L16.66,53.21 C18.9,52.16 21.14,51.04 23.38,49.78 L23.38,46 Z M62.58,21.01 L62.58,49.36 L30.73,49.36 L30.73,72.53 C30.73,74.49 31.92,75.47 34.3,75.54 L57.05,75.54 C59.15,75.47 60.69,74.56 61.53,72.88 C62.23,71.41 62.72,68.12 63.07,62.94 L66.64,64.06 C66.29,68.82 65.73,72.32 64.96,74.42 C63.77,77.5 61.46,79.04 58.03,79.11 L33.04,79.11 C28.98,79.11 27.02,77.29 27.02,73.72 L27.02,21.01 L62.58,21.01 Z M114.31,16.88 L118.09,16.88 L118.09,29.62 L136.22,29.62 L136.22,33.4 L118.09,33.4 L118.09,48.1 L132.3,48.1 L132.3,80.37 L128.66,80.37 L128.66,75.54 L107.66,75.54 L107.66,80.44 L104.09,80.44 L104.09,48.1 L114.31,48.1 L114.31,16.88 Z M107.66,71.97 L128.66,71.97 L128.66,51.53 L107.66,51.53 L107.66,71.97 Z M74.13,29.06 L74.13,32.7 L101.29,32.7 L101.29,29.06 L89.67,29.06 C88.69,24.72 87.64,20.8 86.66,17.44 L82.81,18.07 C83.93,21.36 84.98,25 85.96,29.06 L74.13,29.06 Z M79.66,37.67 C81.41,45.93 83.02,55.38 84.42,66.02 L81.2,66.86 C79.94,57.13 78.33,47.75 76.37,38.79 L79.66,37.67 Z M100.31,66.23 L100.31,69.94 C92.33,72.32 83.72,74.35 74.48,75.96 L73.57,72.32 C78.89,71.48 84.07,70.5 88.97,69.38 C91.28,59.23 92.96,48.45 94.01,36.97 L97.72,37.46 C96.6,48.66 94.85,59.02 92.61,68.47 C95.2,67.77 97.79,67 100.31,66.23 Z M143.5,20.24 L172.97,20.24 L172.97,23.74 L163.8,23.74 L163.8,33.05 L170.94,33.05 L170.94,80.79 L167.72,80.79 L167.72,76.59 L149.17,76.59 L149.17,80.79 L145.95,80.79 L145.95,33.05 L153.09,33.05 L153.09,23.74 L143.5,23.74 L143.5,20.24 Z M149.17,73.37 L167.72,73.37 L167.72,64.97 L149.17,64.97 L149.17,73.37 Z M153.72,36.27 L149.17,36.27 L149.17,55.66 C152.11,52.58 153.65,47.96 153.72,41.66 L153.72,36.27 Z M149.17,56.43 L149.17,61.82 L167.72,61.82 L167.72,54.12 L163.52,54.12 C161.63,54.12 160.72,52.93 160.72,50.62 L160.72,36.27 L156.03,36.27 L156.03,41.66 C155.89,49.01 154.14,54.4 150.71,57.76 L149.17,56.43 Z M156.1,33.05 L160.86,33.05 L160.86,23.74 L156.1,23.74 L156.1,33.05 Z M167.72,51.46 L167.72,36.27 L163.1,36.27 L163.1,50.13 C163.1,50.97 163.38,51.46 163.94,51.46 L167.72,51.46 Z M179.97,31.58 L189.21,31.58 L189.21,44.04 L173.95,44.04 L173.95,47.54 L206.36,47.54 L206.36,44.04 L192.71,44.04 L192.71,31.58 L205.38,31.58 L205.38,28.15 L192.71,28.15 L192.71,17.23 L189.21,17.23 L189.21,28.15 L181.09,28.15 C181.93,25.56 182.63,22.76 183.26,19.75 L179.97,19.05 C178.57,26.05 176.4,32.35 173.46,37.95 L176.4,39.84 C177.66,37.32 178.85,34.52 179.97,31.58 Z M203.35,55.59 L203.35,80.79 L199.78,80.79 L199.78,77.36 L180.88,77.36 L180.88,80.79 L177.38,80.79 L177.38,55.59 L203.35,55.59 Z M180.88,73.86 L199.78,73.86 L199.78,59.09 L180.88,59.09 L180.88,73.86 Z M231.91,17.02 L235.76,17.02 L235.76,48.31 L231.91,48.31 L231.91,37.39 C227.29,40.19 221.9,42.78 215.6,45.09 L214.06,41.59 C220.92,39.35 226.87,36.69 231.91,33.61 L231.91,17.02 Z M240.66,25.35 L240.66,28.78 L256.27,28.78 L256.27,40.33 L242.9,40.33 L242.9,43.76 L273.21,43.76 L273.21,40.33 L259.98,40.33 L259.98,28.78 L275.17,28.78 L275.17,25.35 L259.98,25.35 L259.98,16.81 L256.27,16.81 L256.27,25.35 L240.66,25.35 Z M217.35,20.17 C221.41,22.13 225.05,24.51 228.41,27.38 L226.52,30.39 C222.88,27.31 219.1,24.86 215.32,23.11 L217.35,20.17 Z M214.13,52.86 L244.79,52.86 C243.67,50.76 242.41,48.73 241.01,46.84 L244.51,45.72 C246.05,47.82 247.45,50.2 248.71,52.86 L275.87,52.86 L275.87,56.36 L249.06,56.36 C251.3,60.42 254.03,63.92 257.39,67 C261.59,64.48 265.23,61.54 268.31,58.32 L270.97,60.7 C267.89,63.92 264.25,66.72 260.05,69.24 C264.67,72.81 270.13,75.61 276.5,77.57 L274.33,80.79 C260.82,76.31 251.16,68.12 245.42,56.36 L245.14,56.36 C242.13,59.72 238.14,62.87 233.17,65.67 L233.17,76.31 C238.98,75.05 244.44,73.65 249.48,72.04 L250.04,75.4 C244.16,77.22 237.02,78.97 228.62,80.65 L227.85,77.29 C229.04,76.87 229.67,76.17 229.67,75.33 L229.67,67.49 C225.54,69.45 220.92,71.27 215.81,72.95 L213.85,69.66 C226.31,66.23 235.41,61.82 241.15,56.36 L214.13,56.36 L214.13,52.86 Z M288.54,18.42 L285.88,20.94 C290.85,24.79 294.84,28.43 297.78,31.93 L300.44,29.2 C297.22,25.63 293.3,22.06 288.54,18.42 Z M329.7,79.53 C325.92,79.53 321.79,79.46 317.38,79.39 C312.9,79.25 309.26,78.83 306.6,78.06 C303.87,77.22 301.42,75.54 299.18,72.88 C298.27,71.62 297.36,71.06 296.52,71.06 C294.63,71.06 291.62,74.28 287.56,80.79 L284.69,78.27 C288.61,72.18 291.97,68.61 294.84,67.63 L294.84,45.23 L284.48,45.23 L284.48,41.59 L298.41,41.59 L298.41,67.84 C299.11,68.19 299.88,68.82 300.58,69.73 C302.26,71.83 304.15,73.37 306.25,74.35 C308.49,75.19 311.64,75.68 315.7,75.82 C319.2,75.89 323.68,75.96 329.14,75.96 L338.94,75.96 C342.16,75.82 344.68,75.75 346.5,75.68 L345.59,79.53 L329.7,79.53 Z M305.9,28.43 L314.51,28.43 L314.51,16.88 L318.22,16.88 L318.22,28.43 L330.4,28.43 L330.4,17.02 L334.18,17.02 L334.18,28.43 L343.42,28.43 L343.42,32 L334.18,32 L334.18,47.05 L345.73,47.05 L345.73,50.69 L334.18,50.69 L334.18,71.48 L330.4,71.48 L330.4,50.69 L316.96,50.69 C315.14,59.37 311.5,65.81 305.97,69.87 L303.73,66.86 C308.49,63.43 311.64,58.04 313.25,50.69 L303.45,50.69 L303.45,47.05 L313.88,47.05 C314.3,44.25 314.51,41.17 314.51,37.95 L314.51,32 L305.9,32 L305.9,28.43 Z M318.22,32 L318.22,37.11 C318.22,40.68 318.01,43.97 317.59,47.05 L330.4,47.05 L330.4,32 L318.22,32 Z M409.92,25.7 L409.92,79.67 L406.07,79.67 L406.07,74.91 L364,74.91 L364,79.67 L360.15,79.67 L360.15,25.7 L409.92,25.7 Z M364,71.2 L406.07,71.2 L406.07,29.41 L364,29.41 L364,71.2 Z M433.37,30.53 C430.78,32.63 427.91,34.66 424.83,36.48 L423.64,32.7 C431.69,27.94 437.5,22.48 441.07,16.46 L444.36,18 C442.4,21.29 439.95,24.37 437.15,27.17 L437.15,47.33 L433.37,47.33 L433.37,30.53 Z M479.5,56.92 L482.23,59.65 C478.59,63.5 474.53,66.51 469.91,68.61 C474.67,72.25 480.27,74.98 486.78,76.94 L484.54,80.51 C470.61,76.1 460.53,67.49 454.23,54.68 L453.67,54.68 C450.87,58.04 447.09,61.05 442.47,63.71 L442.47,76.73 C448,75.47 453.53,74 459.06,72.25 L459.76,75.75 C452.62,77.92 445.41,79.74 438.06,81.14 L436.8,77.92 C438.06,77.64 438.76,77.15 438.76,76.52 L438.76,65.67 C434.7,67.63 430.15,69.45 425.04,71.13 L422.94,67.84 C434.98,64.41 443.8,60 449.26,54.68 L425.04,54.68 L425.04,51.11 L454.02,51.11 C453.04,48.38 451.99,46 450.87,43.9 L454.72,43.2 C455.77,45.51 456.75,48.17 457.73,51.11 L484.96,51.11 L484.96,54.68 L458.01,54.68 C460.39,59.16 463.4,63.01 467.04,66.23 C471.38,64.27 475.58,61.19 479.5,56.92 Z M483.49,24.44 L484.05,28.01 L462,31.65 C462.91,33.54 463.89,35.15 465.01,36.55 C468.37,40.68 472.15,42.78 476.21,42.85 C477.19,42.85 478.03,42.36 478.66,41.45 C479.43,40.05 480.13,37.6 480.76,34.03 L484.26,35.57 C483.28,40.05 482.3,42.99 481.25,44.39 C480.2,45.72 478.8,46.42 477.12,46.42 C471.87,46.42 467.18,44.11 463.05,39.56 C461.3,37.6 459.69,35.15 458.29,32.28 L442.68,34.87 L442.12,31.37 L456.82,28.92 C455.42,25.42 454.16,21.36 453.11,16.88 L456.96,16.46 C457.94,21.01 459.06,24.93 460.46,28.29 L483.49,24.44 Z M466.83,16.67 C470.47,18.49 473.48,20.38 475.93,22.2 L473.48,24.58 C471.24,22.83 468.23,20.94 464.45,18.98 L466.83,16.67 Z" id="口袋"></path>
                </g>
            </g>
        </g>
    </g>
</svg>