<?xml version="1.0" encoding="UTF-8"?>
<svg width="220px" height="60px" viewBox="0 0 220 60" version="1.1" xmlns="http://www.w3.org/2000/svg" xmlns:xlink="http://www.w3.org/1999/xlink">
    <!-- Generator: Sketch 46.2 (44496) - http://www.bohemiancoding.com/sketch -->
    <title>iPhone Copy</title>
    <desc>Created with Sketch.</desc>
    <defs></defs>
    <g id="Page-2" stroke="none" stroke-width="1" fill="none" fill-rule="evenodd">
        <g id="iPhone-Copy" fill="#FFFFFF">
            <path d="M90.256,24.608 C89.984,24.608 89.76,24.688 89.568,24.88 C89.376,25.04 89.296,25.264 89.296,25.552 C89.296,25.824 89.376,26.048 89.568,26.24 C89.76,26.416 89.984,26.512 90.256,26.512 C90.528,26.512 90.752,26.416 90.944,26.24 C91.136,26.048 91.232,25.824 91.232,25.552 C91.232,25.264 91.136,25.04 90.944,24.88 C90.752,24.688 90.528,24.608 90.256,24.608 Z M89.616,27.728 L89.616,36 L90.896,36 L90.896,27.728 L89.616,27.728 Z M93.456,24.576 L98.128,24.576 C100.752,24.576 102.064,25.696 102.064,27.936 C102.064,30.192 100.736,31.328 98.112,31.328 L94.768,31.328 L94.768,36 L93.456,36 L93.456,24.576 Z M94.768,25.712 L94.768,30.192 L98.048,30.192 C98.976,30.192 99.648,30 100.096,29.632 C100.528,29.264 100.752,28.704 100.752,27.936 C100.752,27.168 100.528,26.608 100.08,26.272 C99.632,25.888 98.96,25.712 98.048,25.712 L94.768,25.712 Z M103.568,24.352 L103.568,36 L104.848,36 L104.848,31.28 C104.848,30.512 105.056,29.856 105.488,29.344 C105.904,28.832 106.432,28.576 107.072,28.576 C107.76,28.576 108.288,28.784 108.672,29.2 C109.024,29.616 109.216,30.208 109.216,30.976 L109.216,36 L110.496,36 L110.496,30.784 C110.496,29.728 110.24,28.912 109.728,28.352 C109.216,27.776 108.464,27.504 107.504,27.504 C106.944,27.504 106.448,27.632 106,27.888 C105.52,28.16 105.136,28.56 104.848,29.088 L104.848,24.352 L103.568,24.352 Z M116.16,27.504 C117.392,27.504 118.384,27.92 119.12,28.784 C119.824,29.6 120.176,30.624 120.176,31.872 C120.176,33.104 119.824,34.128 119.136,34.928 C118.384,35.792 117.392,36.224 116.16,36.224 C114.912,36.224 113.936,35.792 113.2,34.928 C112.496,34.128 112.144,33.104 112.144,31.872 C112.144,30.624 112.496,29.6 113.2,28.784 C113.936,27.92 114.912,27.504 116.16,27.504 Z M116.16,28.576 C115.28,28.576 114.592,28.912 114.112,29.584 C113.664,30.192 113.456,30.944 113.456,31.872 C113.456,32.784 113.664,33.536 114.112,34.144 C114.592,34.816 115.28,35.152 116.16,35.152 C117.024,35.152 117.712,34.816 118.224,34.144 C118.656,33.536 118.88,32.768 118.88,31.872 C118.88,30.944 118.656,30.192 118.224,29.584 C117.712,28.912 117.024,28.576 116.16,28.576 Z M125.712,27.504 C125.168,27.504 124.672,27.632 124.224,27.888 C123.776,28.128 123.408,28.48 123.12,28.944 L123.12,27.728 L121.84,27.728 L121.84,36 L123.12,36 L123.12,31.008 C123.168,30.256 123.408,29.664 123.856,29.216 C124.272,28.8 124.768,28.592 125.344,28.592 C126.784,28.592 127.52,29.392 127.52,31.008 L127.52,36 L128.8,36 L128.8,30.912 C128.8,28.64 127.76,27.504 125.712,27.504 Z M134.192,27.504 C135.52,27.504 136.528,27.952 137.2,28.848 C137.808,29.648 138.128,30.784 138.16,32.224 L131.632,32.224 C131.696,33.152 131.936,33.872 132.384,34.384 C132.832,34.896 133.456,35.152 134.24,35.152 C134.912,35.152 135.472,34.976 135.888,34.64 C136.24,34.352 136.512,33.92 136.72,33.344 L138,33.344 C137.808,34.144 137.44,34.784 136.88,35.296 C136.192,35.904 135.312,36.224 134.24,36.224 C133.056,36.224 132.096,35.824 131.392,35.056 C130.656,34.256 130.304,33.2 130.304,31.856 C130.304,30.64 130.64,29.616 131.344,28.8 C132.048,27.936 132.992,27.504 134.192,27.504 Z M134.224,28.576 C133.488,28.576 132.896,28.816 132.448,29.296 C132,29.776 131.744,30.416 131.664,31.232 L136.832,31.232 C136.672,29.456 135.792,28.576 134.224,28.576 Z M148.64,23.104 L149.76,23.104 L149.76,27.344 L150.704,27.344 L150.704,28.48 L146.928,28.48 L146.928,29.296 C146.928,29.792 146.912,30.272 146.896,30.736 L149.968,30.736 L149.968,37.536 L148.832,37.536 L148.832,31.84 L146.832,31.84 C146.64,34.24 146.208,36.064 145.52,37.344 L144.656,36.576 C145.392,35.056 145.776,32.624 145.792,29.296 L145.792,23.424 L146.928,23.424 L146.928,27.344 L148.64,27.344 L148.64,23.104 Z M152.672,28.656 L152.672,30.416 C152.608,33.392 152.08,35.76 151.12,37.52 L150.32,36.672 C151.12,35.168 151.552,33.072 151.616,30.416 L151.616,24.064 C154.128,24.032 156.4,23.696 158.416,23.056 L158.992,24.096 C157.104,24.64 154.992,24.96 152.672,25.056 L152.672,27.568 L158.592,27.568 L158.592,28.544 C158.224,30.768 157.52,32.64 156.496,34.16 C157.28,35.216 158.24,36.016 159.376,36.592 L158.8,37.6 C157.6,36.976 156.592,36.144 155.792,35.088 C154.912,36.112 153.856,36.96 152.64,37.616 L152.08,36.592 C153.28,35.936 154.288,35.104 155.12,34.112 C154.208,32.624 153.568,30.8 153.2,28.656 L152.672,28.656 Z M154.24,28.656 C154.592,30.4 155.12,31.888 155.824,33.136 C156.624,31.856 157.184,30.352 157.472,28.656 L154.24,28.656 Z" id="iPhone-版"></path>
            <path d="M57.5625612,31.2719208 C57.6166176,37.3287816 62.9364042,39.3310107 63,39.3513937 C62.9682021,39.4925061 62.1668953,42.2441993 60.1715779,45.0319545 C58.5053686,47.4904473 56.7596645,49.894063 53.9868887,49.9348289 C51.2936076,49.9975455 50.3873678,48.3731842 47.298203,48.3731842 C44.1804201,48.3731842 43.2153542,49.894063 40.6317758,49.9975455 C37.9909613,50.0931884 35.9733853,47.3759894 34.24676,44.9394475 C30.7950993,39.9675848 28.1081777,30.9285471 31.7108784,24.7776114 C33.4565825,21.7609404 36.639551,19.818292 40.041925,19.7665508 C42.6859194,19.7132417 45.1391264,21.5273208 46.7639985,21.5273208 C48.3570727,21.5273208 51.3905912,19.3573246 54.5179134,19.6818833 C55.8263965,19.7195133 59.5499292,20.1914561 61.9522596,23.6455758 C61.7582925,23.7600337 57.5164543,26.2185265 57.5625612,31.2719208 Z M52.4748991,16.4112099 C51.0249155,18.0982878 48.7052596,19.388683 46.4460196,19.2224838 C46.1502993,16.9458693 47.2950232,14.5250065 48.5764781,13.0480293 C50.0248719,11.3719268 52.5400848,10.0878033 54.5513012,10 C54.8152237,12.3659857 53.8644668,14.6974773 52.4748991,16.4112099 Z" id="top-Combined-Shape"></path>
        </g>
    </g>
</svg>