<?xml version="1.0" encoding="utf-8"?>
<!-- Generator: Adobe Illustrator 19.0.0, SVG Export Plug-In . SVG Version: 6.00 Build 0)  -->
<svg version="1.1" id="图层_1" xmlns="http://www.w3.org/2000/svg" xmlns:xlink="http://www.w3.org/1999/xlink" x="0px" y="0px"
	 viewBox="0 0 17 17" style="enable-background:new 0 0 17 17;" xml:space="preserve">
<style type="text/css">
	.st0{fill:#28B28B;}
	.st1{fill:#FFFFFF;}
</style>
<polygon id="XMLID_3203_" class="st0" points="13.5,0.5 3.6,0.5 0.5,4.2 0.5,11 8.5,16.5 16.5,11 16.5,4.2 "/>
<g id="XMLID_64_">
	<polygon id="XMLID_62_" class="st1" points="9,3.3 9,2.5 8,2.5 8,3.3 4.7,3.3 4.7,4.2 12.3,4.2 12.3,3.3 	"/>
	<path id="XMLID_69_" class="st1" d="M11.1,4.9H5.9v2.3h5.2V4.9z M6.9,5.7h3.2v0.7H6.9V5.7z"/>
	<path id="XMLID_66_" class="st1" d="M6.8,11.7h3.4V9.5H6.8V11.7z M9.3,10.3v0.7H7.7v-0.7H9.3z"/>
	<polygon id="XMLID_22_" class="st1" points="4.7,7.9 4.7,11.7 5.8,11.7 5.8,8.8 11.2,8.8 11.2,11.7 12.3,11.7 12.3,7.9 	"/>
</g>
</svg>
