<svg width="1440" height="480" viewBox="0 0 1440 480" xmlns="http://www.w3.org/2000/svg"><title>圈圈-横向填充</title><g fill="none"><circle stroke-opacity=".16" stroke="#000" stroke-width="18" cx="109" cy="134" r="21"/><circle stroke-opacity=".16" stroke="#000" stroke-width="10" cx="435" cy="352" r="15"/><path d="M1016.36 311.33c-15.648 14.811-39.743 18.287-59.356 6.964-23.91-13.805-32.103-44.38-18.298-68.29 13.805-23.91 44.38-32.103 68.29-18.298 20.173 11.647 29.158 35.231 23.183 56.679l-19.678-11.361c.742-10.557-4.436-21.116-14.218-26.763-13.663-7.889-31.134-3.208-39.022 10.456-7.889 13.663-3.208 31.134 10.456 39.022 9.157 5.287 20.024 4.928 28.571.003l20.072 11.588zm3.782-4l-19.098-11.027a28.399 28.399 0 0 0 3.719-4.038l18.637 10.76a50.047 50.047 0 0 1-3.258 4.305zm8.284-13.772a50.275 50.275 0 0 1-2.266 4.876l-18.575-10.724a28.517 28.517 0 0 0 1.946-5.062l18.895 10.91z" fill-opacity=".16" fill="#000"/><path d="M240 528c41.974 0 76-34.026 76-76s-34.026-76-76-76-76 34.026-76 76 34.026 76 76 76z" stroke-opacity=".16" stroke="#000" stroke-width="48"/><circle stroke-opacity=".16" stroke="#000" stroke-width="45" cx="1190" cy="352" r="77.5"/><circle stroke-opacity=".16" stroke="#000" stroke-width="45" cx="700" cy="9" r="77.5"/></g></svg>