<?xml version="1.0" encoding="UTF-8"?>
<svg width="82px" height="82px" viewBox="0 0 82 82" version="1.1" xmlns="http://www.w3.org/2000/svg" xmlns:xlink="http://www.w3.org/1999/xlink">
    <!-- Generator: Sketch 53.2 (72643) - https://sketchapp.com -->
    <title>分组 2</title>
    <desc>Created with Sketch.</desc>
    <g id="Page-1" stroke="none" stroke-width="1" fill="none" fill-rule="evenodd">
        <g id="1-空房间" transform="translate(-1069.000000, -2660.000000)" stroke="#4F80F0" stroke-width="2">
            <g id="分组-7" transform="translate(0.000000, 2434.000000)">
                <g id="分组-9-copy">
                    <g id="分组-6">
                        <g id="底部图片按钮" transform="translate(400.000000, 199.000000)">
                            <g id="分组-10">
                                <g id="科技" transform="translate(600.000000, 0.000000)">
                                    <g id="分组-5">
                                        <g id="分组-4">
                                            <g id="分组-2" transform="translate(70.000000, 28.000000)">
                                                <circle id="椭圆形-copy-2" cx="40" cy="40" r="40"></circle>
                                                <g id="分组" transform="translate(13.000000, 20.000000)" stroke-linecap="round" stroke-linejoin="round">
                                                    <path d="M21,7 L21,18" id="Stroke-1"></path>
                                                    <g>
                                                        <path d="M2.08916471,18.4325692 L42.3366353,18.4325692" id="Stroke-2"></path>
                                                        <path d="M4.79107059,34.7176115 L3.27748235,34.7176115 C1.95607059,34.7176115 0.793482353,33.6090346 0.793482353,32.2528808 L0.793482353,17.7325731 L2.7486,7.90991923 C3.01224706,6.57899615 4.37018824,5.31272692 5.73289412,5.31272692 C27.9205412,5.31272692 20.5050706,5.44834231 31.7736,5.26541923 C35.0739529,5.21180385 37.6961294,17.42665 40.8932471,18.1252269 L50.9229529,20.3139962 C53.1671294,20.8044192 53.9199529,23.0499577 53.9199529,23.8668038 L53.9199529,32.2528808 C53.9199529,33.5774962 52.2697765,34.7176115 50.9356588,34.7176115 L48.0212471,34.7176115" id="Stroke-4"></path>
                                                        <path d="M33.7685824,34.7176115 L18.1911706,34.7176115" id="Stroke-6"></path>
                                                        <path d="M11.4727765,32.4015846 C12.8307176,32.4015846 13.9329529,33.4959692 13.9329529,34.8458154 C13.9329529,36.1940846 12.8307176,37.2884692 11.4727765,37.2884692 C10.1148353,37.2884692 9.0126,36.1940846 9.0126,34.8458154 C9.0126,33.4959692 10.1148353,32.4015846 11.4727765,32.4015846 Z" id="Stroke-10"></path>
                                                        <path d="M40.6038706,32.4015846 C41.9618118,32.4015846 43.0640471,33.4959692 43.0640471,34.8458154 C43.0640471,36.1940846 41.9618118,37.2884692 40.6038706,37.2884692 C39.2459294,37.2884692 38.1436941,36.1940846 38.1436941,34.8458154 C38.1436941,33.4959692 39.2459294,32.4015846 40.6038706,32.4015846 Z" id="Stroke-12"></path>
                                                        <path d="M40.6038706,28.4777269 C44.1440471,28.4777269 47.0155765,31.3288038 47.0155765,34.8453423 C47.0155765,38.3618808 44.1440471,41.2113808 40.6038706,41.2113808 C37.0621059,41.2113808 34.1905765,38.3618808 34.1905765,34.8453423 C34.1905765,31.3288038 37.0621059,28.4777269 40.6038706,28.4777269 Z" id="Stroke-14"></path>
                                                        <path d="M11.4727765,28.4777269 C15.0129529,28.4777269 17.8844824,31.3288038 17.8844824,34.8453423 C17.8844824,38.3618808 15.0129529,41.2113808 11.4727765,41.2113808 C7.93101176,41.2113808 5.05948235,38.3618808 5.05948235,34.8453423 C5.05948235,31.3288038 7.93101176,28.4777269 11.4727765,28.4777269 Z" id="Stroke-16"></path>
                                                    </g>
                                                </g>
                                            </g>
                                        </g>
                                    </g>
                                </g>
                            </g>
                        </g>
                    </g>
                </g>
            </g>
        </g>
    </g>
</svg>