<?xml version="1.0" encoding="UTF-8"?>
<svg width="82px" height="82px" viewBox="0 0 82 82" version="1.1" xmlns="http://www.w3.org/2000/svg" xmlns:xlink="http://www.w3.org/1999/xlink">
    <!-- Generator: Sketch 53.2 (72643) - https://sketchapp.com -->
    <title>分组 3</title>
    <desc>Created with Sketch.</desc>
    <g id="Page-1" stroke="none" stroke-width="1" fill="none" fill-rule="evenodd">
        <g id="1-空房间" transform="translate(-469.000000, -2659.000000)" stroke="#4F80F0" stroke-width="2">
            <g id="分组-7" transform="translate(0.000000, 2434.000000)">
                <g id="分组-9-copy">
                    <g id="分组-6">
                        <g id="底部图片按钮" transform="translate(400.000000, 199.000000)">
                            <g id="分组-10">
                                <g id="金融">
                                    <g id="分组-8">
                                        <g id="分组-11">
                                            <g id="分组-3" transform="translate(70.000000, 27.000000)">
                                                <circle id="椭圆形" cx="40" cy="40" r="40"></circle>
                                                <g id="分组" transform="translate(15.000000, 15.000000)" stroke-linecap="round" stroke-linejoin="round">
                                                    <path d="M26.498869,35.71632 L33.2691071,32.08572 C34.8619643,31.23192 37.9720833,29.93652 37.9905357,33.13932 L39.1339881,32.35032 C42.3417262,30.13572 44.7851786,31.70472 43.5851786,34.76472 C49.2881548,30.58572 51.3048214,35.87712 48.7643452,37.17612 L36.1435119,45.21192 L30.7941071,48.61932 C27.0089881,51.02892 22.01375,51.06552 20.6083929,50.22012 C12.6226786,48.14472 10.3197024,46.16952 3.35779762,47.07012" id="Stroke-1"></path>
                                                    <path d="M0.000297619048,32.7462 L8.25327381,29.3646 C10.3598214,28.5018 12.7175595,28.7232 13.60625,29.3868 C15.0967262,30.5004 16.5877976,31.6128 18.0776786,32.7258 C24.2848214,37.3614 24.7872024,36.2034 32.0985119,36.6432 C33.7181548,36.7398 34.7842262,39.3696 32.0985119,40.4106 C25.2741071,43.5564 21.0622024,42.1452 14.8407738,38.9352" id="Stroke-3"></path>
                                                    <path d="M24.9229762,4.2588 L24.9229762,7.1412" id="Stroke-5"></path>
                                                    <path d="M24.9229762,19.71198 L24.9229762,22.59438" id="Stroke-7"></path>
                                                    <path d="M24.9229762,-0.00012 C32.2795238,-0.00012 38.2432143,6.01128 38.2432143,13.42668 C38.2432143,20.84148 32.2795238,26.85228 24.9229762,26.85228 C17.5670238,26.85228 11.6039286,20.84148 11.6039286,13.42668 C11.6039286,6.01128 17.5670238,-0.00012 24.9229762,-0.00012 Z" id="Stroke-9"></path>
                                                    <path d="M29.0675595,8.6439 C27.7502976,8.2029 26.5627976,7.7871 25.3699405,7.6527 C18.9467262,6.9249 18.1229167,13.4475 24.9604167,13.4265 C31.6050595,13.4061 30.9794643,19.9347 24.5407738,19.2003 C23.3491071,19.0641 22.1604167,18.6477 20.8520833,18.2091" id="Stroke-11"></path>
                                                </g>
                                            </g>
                                        </g>
                                    </g>
                                </g>
                            </g>
                        </g>
                    </g>
                </g>
            </g>
        </g>
    </g>
</svg>