<?xml version="1.0" encoding="UTF-8"?>
<svg width="82px" height="82px" viewBox="0 0 82 82" version="1.1" xmlns="http://www.w3.org/2000/svg" xmlns:xlink="http://www.w3.org/1999/xlink">
    <!-- Generator: Sketch 53.2 (72643) - https://sketchapp.com -->
    <title>分组 5</title>
    <desc>Created with Sketch.</desc>
    <g id="Page-1" stroke="none" stroke-width="1" fill="none" fill-rule="evenodd">
        <g id="1-空房间" transform="translate(-1369.000000, -2659.000000)" stroke="#4F80F0" stroke-width="2">
            <g id="分组-7" transform="translate(0.000000, 2434.000000)">
                <g id="分组-9-copy">
                    <g id="分组-6">
                        <g id="底部图片按钮" transform="translate(400.000000, 199.000000)">
                            <g id="分组-10">
                                <g id="科技正常样式" transform="translate(900.000000, 0.000000)">
                                    <g id="分组-8">
                                        <g id="分组-11">
                                            <g id="科技" transform="translate(67.000000, 27.000000)">
                                                <g id="分组-5" transform="translate(3.000000, 0.000000)">
                                                    <circle id="椭圆形-copy-2" cx="40" cy="40" r="40"></circle>
                                                    <path d="M34.7614669,39.4080693 L39.5739648,46.0333923 L46.8180973,33.2450615 M23.5135894,53.6400898 L26.6464616,50.5072175 M16.2067397,36.1975472 L20.6375589,36.1975472 M24.1527073,19.8438943 L27.2855795,22.9767666 M55.9431477,53.6394925 L52.8102755,50.5066202 M63.8897126,37.1024665 L59.4594907,37.1024665 M56.5828629,19.8444916 L53.4499907,22.9773639 M40.5003871,13.7185168 L40.5003871,18.1487386 M44.7597793,62.3977968 C44.7597793,64.6591989 42.6518849,66.4929297 40.05181,66.4929297 C38.4133984,66.4929297 36.9697088,65.7636185 36.1269094,64.6586016 M33.8505746,54.0623854 L47.0367115,50.6033839 M33.8505746,59.0325723 L47.0367115,55.5735707 M33.8505746,64.0033565 L47.0367115,60.5443549 M33.627182,53.4608979 C33.0519759,44.6189707 26.2038576,49.0963797 25.4160104,37.0851446 C24.9184541,29.5029367 31.9666701,23.3267881 40.0482262,23.3267881 C48.1291849,23.3267881 55.2180177,29.5059232 54.6804419,37.0851446 C53.9523254,47.3325338 48.8674557,45.2640616 47.0032623,50.6219004" id="Stroke-1" stroke-linecap="round" stroke-linejoin="round"></path>
                                                </g>
                                            </g>
                                        </g>
                                    </g>
                                </g>
                            </g>
                        </g>
                    </g>
                </g>
            </g>
        </g>
    </g>
</svg>