<?xml version="1.0" encoding="UTF-8"?>
<svg width="82px" height="82px" viewBox="0 0 82 82" version="1.1" xmlns="http://www.w3.org/2000/svg" xmlns:xlink="http://www.w3.org/1999/xlink">
    <!-- Generator: Sketch 53.2 (72643) - https://sketchapp.com -->
    <title>分组 12</title>
    <desc>Created with Sketch.</desc>
    <g id="Page-1" stroke="none" stroke-width="1" fill="none" fill-rule="evenodd">
        <g id="1-空房间" transform="translate(-769.000000, -2660.000000)" stroke="#4F80F0" stroke-width="2">
            <g id="分组-7" transform="translate(0.000000, 2434.000000)">
                <g id="分组-9-copy">
                    <g id="分组-6">
                        <g id="底部图片按钮" transform="translate(400.000000, 199.000000)">
                            <g id="分组-10">
                                <g id="旅游" transform="translate(300.000000, 0.000000)">
                                    <g id="分组-9">
                                        <g id="分组-12" transform="translate(70.000000, 28.000000)">
                                            <circle id="椭圆形-copy" cx="40" cy="40" r="40"></circle>
                                            <path d="M18.3213023,42.6588108 C14.4571628,36.3864324 13.2088488,29.7073514 18.7358255,24.1651351 C21.5058372,21.3883784 25.1357325,20 28.7656279,20 C40.8638953,20 38.7782325,28.228 40.3372907,29.7971351 C41.8957558,28.228 39.810093,20 51.9077674,20 C55.5376628,20 59.1681511,21.3883784 61.9375697,24.1651351 C75.433,37.6963243 48.5358372,58.0029189 41.8091744,62.6217297 C39.9868139,63.8733514 40.6077093,63.8275676 38.7005465,62.5093514 C36.1291976,60.7327027 30.9325348,56.8880541 26.0590697,52.0694595" id="Stroke-1" stroke-linecap="round" stroke-linejoin="round"></path>
                                            <path d="M18,47.2384865 L29.0296395,47.2384865 L31.9146977,30 L35.2522326,47.2384865 L39.9466047,47.2384865 L42.8316628,55.4040541 C45.4587558,48.3818919 47.1945349,43.9051892 49.4213372,36.3508649 L52.6307791,47.2384865 L62.2602907,47.2384865" id="Stroke-3" stroke-linecap="round" stroke-linejoin="round"></path>
                                        </g>
                                    </g>
                                </g>
                            </g>
                        </g>
                    </g>
                </g>
            </g>
        </g>
    </g>
</svg>